<svg width="111" height="25" viewBox="0 0 111 25" fill="none" xmlns="http://www.w3.org/2000/svg">
<path d="M19.2722 22.176H16.7522L13.2482 19.728C12.0962 21.36 10.5442 22.176 8.59223 22.176H7.00823C5.45623 22.176 4.12023 21.624 3.00023 20.52C1.89623 19.4 1.34423 18.056 1.34423 16.488V11.664H3.86423V16.656C3.86423 17.536 4.16823 18.32 4.77623 19.008C5.40023 19.68 6.14423 20.016 7.00823 20.016H8.59223C9.47223 20.016 10.2162 19.68 10.8242 19.008C11.4322 18.32 11.7362 17.536 11.7362 16.656V14.352C11.7362 13.92 11.5922 13.528 11.3042 13.176C11.0162 12.824 10.6562 12.648 10.2242 12.648H9.98423C9.68023 12.648 9.40823 12.792 9.16823 13.08C8.94423 13.368 8.83223 13.664 8.83223 13.968V16.44H6.31223V14.16C6.31223 13.152 6.67223 12.288 7.39223 11.568C8.11223 10.848 9.05623 10.488 10.2242 10.488C11.3442 10.488 12.2962 10.888 13.0802 11.688C13.8642 12.472 14.2562 13.416 14.2562 14.52C14.2562 16.216 14.2242 17.248 14.1602 17.616L16.7522 19.464V9.40803H0.000234358V7.24802H20.8802V9.40803H19.2722V22.176ZM28.6949 22.176H27.3989C25.8469 22.176 24.5109 21.624 23.3909 20.52C22.2869 19.4 21.7349 18.064 21.7349 16.512V11.664H24.2549V16.68C24.2549 17.544 24.5589 18.32 25.1669 19.008C25.7909 19.68 26.5349 20.016 27.3989 20.016H28.6949C29.5589 20.016 30.2949 19.68 30.9029 19.008C31.5269 18.32 31.8389 17.544 31.8389 16.68V16.224C31.5029 16.336 31.0149 16.392 30.3749 16.392C29.3669 16.392 28.5029 16.04 27.7829 15.336C27.0629 14.632 26.7029 13.768 26.7029 12.744V9.40803H20.3909V7.24802H35.7029V9.40803H29.2229V12.936C29.2229 13.368 29.3349 13.696 29.5589 13.92C29.7829 14.128 30.0549 14.232 30.3749 14.232H30.7109C31.0309 14.232 31.2949 14.12 31.5029 13.896C31.7269 13.672 31.8389 13.352 31.8389 12.936V12.384H34.3589V16.512C34.3589 18.064 33.8069 19.4 32.7029 20.52C31.5989 21.624 30.2629 22.176 28.6949 22.176ZM26.7038 6.33602L25.0958 4.80002L29.8718 2.47955e-05L31.4558 1.56002L26.7038 6.33602ZM39.3788 22.176H36.8588V9.40803H35.2268V7.24802H40.9868V9.40803H39.3788V22.176ZM52.6945 22.176H50.1745L41.7505 18.216V16.32C41.7505 15.312 42.0385 14.392 42.6145 13.56C43.1905 12.712 44.0465 12.112 45.1825 11.76L50.1745 10.224V9.40803H40.4065V7.24802H54.3265V9.40803H52.6945V22.176ZM50.1745 19.752V12.504L46.0225 13.776C44.8545 14.128 44.2705 14.856 44.2705 15.96V16.968L50.1745 19.752ZM44.8465 24.024C44.4465 24.024 44.1025 23.88 43.8145 23.592C43.5265 23.32 43.3825 22.984 43.3825 22.584C43.3825 22.2 43.5265 21.864 43.8145 21.576C44.1025 21.288 44.4465 21.144 44.8465 21.144C45.2305 21.144 45.5585 21.288 45.8305 21.576C46.1185 21.864 46.2625 22.2 46.2625 22.584C46.2625 22.984 46.1185 23.32 45.8305 23.592C45.5585 23.88 45.2305 24.024 44.8465 24.024ZM70.4367 22.176H67.9167L59.4927 18.216V16.32C59.4927 15.312 59.7807 14.392 60.3567 13.56C60.9327 12.712 61.7887 12.112 62.9247 11.76L67.9167 10.224V9.40803H58.1487V7.24802H77.4927V9.40803H70.4367V10.248H71.3487C72.7727 10.248 73.9727 10.664 74.9487 11.496C75.9407 12.312 76.4367 13.304 76.4367 14.472V14.808C76.4367 15.848 76.0287 16.736 75.2127 17.472C74.4127 18.192 73.4447 18.552 72.3087 18.552V16.392C72.7407 16.392 73.1167 16.24 73.4367 15.936C73.7567 15.632 73.9167 15.256 73.9167 14.808V14.472C73.9167 13.896 73.6687 13.408 73.1727 13.008C72.6927 12.608 72.0847 12.408 71.3487 12.408H70.4367V22.176ZM67.9167 19.752V12.504L63.7647 13.776C62.5967 14.128 62.0127 14.856 62.0127 15.96V16.968L67.9167 19.752ZM89.3039 22.176H86.7839L78.3599 18.216V16.32C78.3599 15.312 78.6479 14.392 79.2239 13.56C79.7999 12.712 80.6559 12.112 81.7919 11.76L86.7839 10.224V9.40803H77.0159V7.24802H90.9359V9.40803H89.3039V22.176ZM86.7839 19.752V12.504L82.6319 13.776C81.4639 14.128 80.8799 14.856 80.8799 15.96V16.968L86.7839 19.752ZM81.4559 24.024C81.0559 24.024 80.7119 23.88 80.4239 23.592C80.1359 23.32 79.9919 22.984 79.9919 22.584C79.9919 22.2 80.1359 21.864 80.4239 21.576C80.7119 21.288 81.0559 21.144 81.4559 21.144C81.8399 21.144 82.1679 21.288 82.4399 21.576C82.7279 21.864 82.8719 22.2 82.8719 22.584C82.8719 22.984 82.7279 23.32 82.4399 23.592C82.1679 23.88 81.8399 24.024 81.4559 24.024ZM91.8135 18.912C90.4215 18.912 89.2455 18.424 88.2855 17.448C87.3095 16.456 86.8215 15.272 86.8215 13.896L89.2935 14.256C89.2935 14.944 89.5415 15.536 90.0375 16.032C90.5335 16.512 91.1255 16.752 91.8135 16.752C92.2295 16.752 92.5895 16.6 92.8935 16.296C93.2135 15.992 93.3735 15.624 93.3735 15.192C93.3735 14.744 93.2135 14.368 92.8935 14.064C92.5735 13.76 92.1975 13.608 91.7655 13.608H91.2615V11.448H91.7655C92.8855 11.448 93.8535 11.816 94.6695 12.552C95.4855 13.272 95.8935 14.152 95.8935 15.192C95.8935 16.232 95.4935 17.112 94.6935 17.832C93.8935 18.552 92.9335 18.912 91.8135 18.912ZM96.9495 9.40803H90.4455V7.24802H96.9495V9.40803ZM109.237 22.176H106.717V16.896C106.717 15.92 106.373 15.088 105.685 14.4C104.997 13.712 104.165 13.368 103.189 13.368H102.877C102.173 13.368 101.573 13.616 101.077 14.112C100.581 14.592 100.333 15.184 100.333 15.888V16.272C100.333 16.848 100.541 17.344 100.957 17.76C101.373 18.16 101.861 18.36 102.421 18.36H103.381V20.52H102.421C101.157 20.52 100.069 20.112 99.157 19.296C98.261 18.464 97.813 17.456 97.813 16.272V15.888C97.813 14.592 98.309 13.488 99.301 12.576C100.293 11.664 101.485 11.208 102.877 11.208C104.413 11.208 105.693 11.584 106.717 12.336V9.40803H96.469V7.24802H110.845V9.40803H109.237V22.176Z" fill="black"/>
</svg>
