<svg width="272" height="56" viewBox="0 0 272 56" fill="none" xmlns="http://www.w3.org/2000/svg">
<g clip-path="url(#clip0_219_10)">
<path d="M5.56693 37.3556V38.4876H1.22472V40.5518H4.98797V41.6838H1.22472V43.8368H5.61146V44.9688H0V37.3556H5.56693Z" fill="#FEFBEA"/>
<path d="M6.2795 37.3556H7.74917L9.7978 40.0857L11.8242 37.3556H13.2938L10.5326 41.0845L13.4052 44.9688H11.9355L9.7978 42.0833L7.6601 44.9688H6.19043L9.06296 41.0845L6.30177 37.3556H6.2795Z" fill="#FEFBEA"/>
<path d="M13.8062 38.4876V37.3556H20.4197V38.4876H17.7253V44.9688H16.5005V38.4876H13.8062Z" fill="#FEFBEA"/>
<path d="M27.0108 37.3556V38.4876H22.6686V40.5518H26.4318V41.6838H22.6686V43.8368H27.0553V44.9688H21.4438V37.3556H27.0108Z" fill="#FEFBEA"/>
<path d="M28.2354 44.9688V37.3556H29.3265L33.6909 42.8601V37.3556H34.8711V44.9688H33.78L29.4155 39.4642V44.9688H28.2354Z" fill="#FEFBEA"/>
<path d="M36.3408 44.9688V37.3556H39.3915C40.5049 37.3556 41.4624 37.7329 42.2195 38.4654C42.9766 39.1978 43.3551 40.0857 43.3551 41.1733C43.3551 42.2609 42.9766 43.1487 42.2195 43.8812C41.4624 44.6136 40.5272 44.9909 39.3915 44.9909H36.3408V44.9688ZM37.5655 38.4876V43.8368H39.3915C40.1486 43.8368 40.7944 43.5704 41.3065 43.0599C41.8187 42.5494 42.0859 41.9057 42.0859 41.1511C42.0859 40.3964 41.8187 39.7527 41.3065 39.2422C40.7944 38.7317 40.1486 38.4654 39.3915 38.4654H37.5655V38.4876Z" fill="#FEFBEA"/>
<path d="M50.169 37.3556V38.4876H45.8268V40.5518H49.59V41.6838H45.8268V43.8368H50.2135V44.9688H44.6021V37.3556H50.169Z" fill="#FEFBEA"/>
<path d="M51.3716 44.9688V37.3556H54.4223C55.5356 37.3556 56.4932 37.7329 57.2503 38.4654C58.0074 39.1978 58.3859 40.0857 58.3859 41.1733C58.3859 42.2609 58.0074 43.1487 57.2503 43.8812C56.4932 44.6136 55.5579 44.9909 54.4223 44.9909H51.3716V44.9688ZM52.5963 38.4876V43.8368H54.4223C55.1794 43.8368 55.8251 43.5704 56.3373 43.0599C56.8494 42.5494 57.1166 41.9057 57.1166 41.1511C57.1166 40.3964 56.8494 39.7527 56.3373 39.2422C55.8251 38.7317 55.1794 38.4654 54.4223 38.4654H52.5963V38.4876Z" fill="#FEFBEA"/>
<path d="M1.11328 55.8447V48.2316H4.16396C5.27734 48.2316 6.23485 48.6089 6.99195 49.3414C7.74906 50.0738 8.12761 50.9617 8.12761 52.0492C8.12761 53.1368 7.74906 54.0247 6.99195 54.7571C6.23485 55.4896 5.29961 55.8669 4.16396 55.8669H1.11328V55.8447ZM2.338 49.3857V54.7349H4.16396C4.92106 54.7349 5.56682 54.4686 6.07898 53.9581C6.59114 53.4476 6.85835 52.8039 6.85835 52.0492C6.85835 51.2946 6.59114 50.6509 6.07898 50.1404C5.56682 49.6299 4.92106 49.3636 4.16396 49.3636H2.338V49.3857Z" fill="#FEFBEA"/>
<path d="M14.6077 48.2538H15.8325V52.8261C15.8325 53.7361 15.5207 54.4908 14.8749 55.0901C14.2514 55.6894 13.4721 56.0001 12.5368 56.0001C11.6016 56.0001 10.8222 55.6894 10.1765 55.0901C9.55296 54.4908 9.24121 53.7139 9.24121 52.8261V48.2538H10.4659V52.8261C10.4659 53.4032 10.6663 53.8915 11.0449 54.291C11.4457 54.6906 11.9356 54.8681 12.5368 54.8681C13.1381 54.8681 13.6057 54.6684 14.0065 54.291C14.4073 53.8915 14.5855 53.4032 14.5855 52.8261V48.2538H14.6077Z" fill="#FEFBEA"/>
<path d="M20.7089 48.2538C21.4438 48.2538 22.045 48.4757 22.5349 48.9418C23.0248 49.4079 23.2697 49.985 23.2697 50.6509C23.2697 51.6497 22.6685 52.4932 21.7555 52.8483L23.5592 55.8447H22.1786L20.4862 53.0481H18.4376V55.8447H17.2129V48.2316H20.7089V48.2538ZM18.4376 49.3857V51.9383H20.7089C21.4438 51.9383 22.0004 51.4056 22.0004 50.6731C22.0004 49.9406 21.4438 49.4079 20.7089 49.4079H18.4376V49.3857Z" fill="#FEFBEA"/>
<path d="M24.0269 55.8447L27.3225 48.2316H28.3245L31.6424 55.8447H30.3509L29.6829 54.2688H25.9864L25.3184 55.8447H24.0269ZM27.8346 49.985L26.4763 53.159H29.193L27.8346 49.985Z" fill="#FEFBEA"/>
<path d="M31.1304 49.3858V48.2538H37.7439V49.3858H35.0495V55.8669H33.8248V49.3858H31.1304Z" fill="#FEFBEA"/>
<path d="M38.7905 55.8447V48.2316H40.0152V55.8447H38.7905Z" fill="#FEFBEA"/>
<path d="M41.2397 52.0492C41.2397 50.9395 41.6183 49.985 42.3754 49.2304C43.1325 48.4757 44.0677 48.0984 45.2034 48.0984C46.339 48.0984 47.2743 48.4757 48.0314 49.2304C48.7885 49.985 49.167 50.9173 49.167 52.0492C49.167 53.1812 48.7885 54.1134 48.0314 54.8681C47.2743 55.6228 46.339 56.0001 45.2034 56.0001C44.0677 56.0001 43.1325 55.6228 42.3754 54.8681C41.6183 54.1134 41.2397 53.1812 41.2397 52.0492ZM47.1184 54.0247C47.6306 53.492 47.8978 52.8483 47.8978 52.0492C47.8978 51.2502 47.6306 50.6065 47.1184 50.0738C46.6063 49.5411 45.9828 49.2748 45.2034 49.2748C44.424 49.2748 43.8005 49.5411 43.2884 50.0738C42.7762 50.6065 42.509 51.2502 42.509 52.0492C42.509 52.8483 42.7762 53.492 43.2884 54.0247C43.8005 54.5574 44.4463 54.8237 45.2034 54.8237C45.9605 54.8237 46.6063 54.5574 47.1184 54.0247Z" fill="#FEFBEA"/>
<path d="M50.3916 55.8447V48.2316H51.4827L55.8472 53.7361V48.2316H57.0274V55.8447H55.9363L51.5718 50.3402V55.8447H50.3916Z" fill="#FEFBEA"/>
<path d="M29.0814 30.5636C37.5425 30.5636 44.4016 23.7267 44.4016 15.2929C44.4016 6.85915 37.5425 0.0222168 29.0814 0.0222168C20.6203 0.0222168 13.7612 6.85915 13.7612 15.2929C13.7612 23.7267 20.6203 30.5636 29.0814 30.5636Z" fill="white"/>
<path d="M29.0816 29.9866C37.2229 29.9866 43.8228 23.408 43.8228 15.293C43.8228 7.17792 37.2229 0.599365 29.0816 0.599365C20.9402 0.599365 14.3403 7.17792 14.3403 15.293C14.3403 23.408 20.9402 29.9866 29.0816 29.9866Z" fill="#0B4227"/>
<path d="M29.0814 28.9433C36.6447 28.9433 42.776 22.8318 42.776 15.2929C42.776 7.75395 36.6447 1.64246 29.0814 1.64246C21.518 1.64246 15.3867 7.75395 15.3867 15.2929C15.3867 22.8318 21.518 28.9433 29.0814 28.9433Z" fill="#C0932E"/>
<path d="M24.1155 18.2005C24.4496 18.0451 24.7836 17.8676 25.1176 17.7122C24.6945 17.3127 24.3605 16.891 24.1378 16.3805C23.8483 15.7368 23.7147 15.0487 23.7147 14.3606C23.7147 12.7182 23.7147 11.0979 23.7147 9.45537C23.7147 9.16683 23.7815 9.12243 24.0487 9.05585C25.897 8.70071 27.5002 7.87947 28.7918 6.48113C29.0367 6.21478 29.148 6.21478 29.393 6.48113C30.6845 7.87947 32.2878 8.72291 34.1583 9.07804C34.4032 9.12243 34.47 9.18902 34.47 9.45537C34.47 10.9425 34.5146 12.4074 34.5146 13.8945C34.5146 14.5826 34.4478 15.2707 34.2474 15.9365C33.9356 16.9354 33.2676 17.6678 32.4437 18.2671C32.1987 18.4447 31.9538 18.6 31.7311 18.7554C31.7979 19.044 31.887 19.3103 31.9538 19.5989C32.3991 19.4213 32.889 19.2437 33.3566 19.0662C34.0469 18.7998 34.715 18.5335 35.4053 18.2893C35.7838 18.1561 36.1624 18.1117 36.5632 18.2227C37.1644 18.4225 37.4316 18.9996 37.1422 19.5767C36.9417 19.9984 36.5632 20.2647 36.1624 20.4867C34.8708 21.1526 33.6016 21.8184 32.3101 22.4843C31.8424 22.7285 31.3525 22.9726 30.8849 23.239C30.5064 23.4387 30.1278 23.4831 29.727 23.3943C28.5468 23.1058 27.3666 22.8394 26.1864 22.5731C26.0974 22.5509 25.9638 22.5731 25.8747 22.5953C25.3403 22.8172 24.7836 23.0392 24.2492 23.2834C24.1824 23.3055 24.0933 23.3943 24.0933 23.4609C23.9819 23.927 23.6479 24.26 23.1803 24.2822C22.6681 24.3266 22.1783 24.3266 21.6661 24.2822C21.1539 24.2378 20.7754 23.7717 20.7754 23.2612C20.7754 21.6409 20.7754 20.0206 20.7754 18.4225C20.7754 17.8676 21.243 17.4015 21.7997 17.3793C22.2005 17.3793 22.6013 17.3793 23.0022 17.3793C23.5143 17.3793 23.8483 17.6234 24.0487 18.1117C24.0487 18.1561 24.071 18.1783 24.0933 18.2227L24.1155 18.2005ZM25.4516 10.4764C25.4516 11.7415 25.4516 12.9623 25.4516 14.2053C25.4516 15.2929 25.9638 16.1585 26.899 16.7578C26.9435 16.78 27.0103 16.8022 27.0772 16.8022C27.4557 16.6912 27.8343 16.7356 28.1905 16.9132C28.7027 17.1573 29.2371 17.3793 29.7715 17.6012C29.8383 17.6234 29.9497 17.6234 30.0165 17.6012C30.3282 17.4237 30.6623 17.2461 30.974 17.0463C31.3748 16.7578 31.7534 16.4692 32.0874 16.1141C32.6663 15.5148 32.8 14.7158 32.8222 13.9167C32.8222 12.8291 32.8222 11.7415 32.8222 10.6317C32.8222 10.4986 32.7554 10.4542 32.6441 10.432C31.3303 10.1434 30.2169 9.54415 29.2594 8.61193C29.2149 8.56754 29.1926 8.54534 29.148 8.52315C28.1237 9.54415 26.899 10.1878 25.4961 10.4764H25.4516ZM24.1378 22.7063C24.1378 22.7063 24.2714 22.6619 24.3382 22.6397C24.8281 22.4399 25.318 22.218 25.8079 22.0182C25.9192 21.9738 26.0751 21.9516 26.1864 21.9738C27.4112 22.2402 28.6359 22.5287 29.8606 22.8394C30.1501 22.906 30.395 22.8838 30.6623 22.7285C31.5307 22.2623 32.3991 21.8184 33.2676 21.3745C34.1583 20.9084 35.0713 20.4423 35.962 19.9762C36.2292 19.843 36.4741 19.6654 36.63 19.4213C36.8304 19.0883 36.6968 18.7998 36.3182 18.7332C36.0065 18.6888 35.717 18.7554 35.4275 18.8664C34.0247 19.3991 32.5995 19.9318 31.1967 20.4867C31.0408 20.5533 30.9295 20.5533 30.7736 20.4867C30.1724 20.2647 29.5934 20.0428 28.9922 19.8208C28.5468 19.6654 28.1237 19.5101 27.6784 19.3325C27.5002 19.2659 27.4334 19.1105 27.5002 18.9552C27.5448 18.822 27.7006 18.7554 27.8788 18.7998C27.9233 18.7998 27.9456 18.822 27.9901 18.8442C28.9254 19.1993 29.8829 19.5323 30.8181 19.8874C30.9295 19.9318 31.0185 19.9318 31.1076 19.843C31.4416 19.5767 31.4862 19.2659 31.1967 18.9774C30.9517 18.7554 30.6623 18.5556 30.3728 18.4225C29.5934 18.0451 28.7695 17.7122 27.9901 17.3571C27.6561 17.2017 27.3444 17.2239 27.0326 17.3571C26.1419 17.801 25.2289 18.2449 24.3382 18.6666C24.2046 18.7332 24.1823 18.7998 24.1823 18.933C24.1823 20.1094 24.1823 21.2857 24.1823 22.4621C24.1823 22.5287 24.1823 22.5731 24.1823 22.6397L24.1378 22.7063ZM26.4091 17.0907C26.4091 17.0907 26.2978 17.0019 26.2532 16.9576C26.0083 16.7134 25.7411 16.4914 25.5407 16.2251C25.0508 15.6036 24.9172 14.849 24.8949 14.0943C24.8726 12.8291 24.8949 11.564 24.8949 10.2988C24.8949 10.0769 24.9617 10.0103 25.1844 9.96587C25.8079 9.8549 26.4314 9.65513 27.0103 9.36659C27.7006 9.01145 28.3241 8.56754 28.8363 7.99045C29.0367 7.76849 29.1703 7.79069 29.3707 7.99045C29.4375 8.05704 29.4821 8.12362 29.5489 8.19021C30.5064 9.14463 31.6643 9.74392 33.0004 9.96587C33.2008 10.0103 33.3121 10.099 33.3121 10.2988C33.3121 11.7193 33.4234 13.1621 33.2898 14.5826C33.2008 15.426 32.9113 16.1585 32.2433 16.7134C31.887 17.0241 31.4862 17.2905 31.1076 17.5568C30.9295 17.69 30.7068 17.801 30.5064 17.9342C30.64 18.0008 30.7736 18.0451 30.8627 18.1117C31.1967 18.4225 31.4639 18.2893 31.7534 18.0673C32.3323 17.6456 32.889 17.2239 33.2898 16.6246C33.7797 15.87 33.9356 15.0265 33.9579 14.1609C33.9801 12.8069 33.9579 11.453 33.9579 10.1212C33.9579 9.94368 33.9579 9.76611 33.9579 9.61074C33.0004 9.43318 32.1319 9.12243 31.3303 8.67852C30.5064 8.2346 29.7715 7.67971 29.1258 6.99164C27.7897 8.36778 26.1642 9.23341 24.2937 9.58855C24.2937 9.65513 24.2937 9.69953 24.2937 9.76611C24.2937 10.6761 24.2492 11.6084 24.2492 12.5184C24.2492 13.4062 24.2492 14.2941 24.3828 15.1597C24.5164 16.0253 24.9172 16.78 25.5629 17.3571C25.6075 17.4015 25.6966 17.4237 25.7411 17.4237C25.9638 17.3349 26.1864 17.2239 26.4314 17.0907H26.4091ZM23.5589 20.8418C23.5589 20.065 23.5589 19.2881 23.5589 18.5113C23.5589 18.0895 23.3584 17.912 22.9576 17.912C22.6236 17.912 22.2673 17.912 21.9333 17.912C21.5548 17.912 21.3321 18.1117 21.3321 18.4891C21.3321 20.0428 21.3321 21.5965 21.3321 23.1502C21.3321 23.5053 21.5325 23.7051 21.8888 23.7273C22.2228 23.7273 22.5568 23.7273 22.8908 23.7273C23.3807 23.7273 23.5589 23.5497 23.5589 23.0836C23.5589 22.3289 23.5589 21.5965 23.5589 20.8418Z" fill="black"/>
<path d="M29.8162 11.1866C29.7717 11.3198 29.7717 11.453 29.6826 11.5418C29.5935 11.6527 29.4154 11.6527 29.3041 11.5196C29.1482 11.3198 28.9923 11.12 28.8587 10.9203C28.7696 10.7649 28.8364 10.6539 28.9478 10.5429C29.1037 10.432 29.2818 10.321 29.4377 10.1878C29.5713 10.099 29.7049 10.0546 29.8385 10.1878C29.9721 10.321 29.9498 10.4542 29.8385 10.6095C29.883 10.6095 29.9276 10.6539 29.9498 10.6539C31.1746 11.0756 31.9317 12.2298 31.798 13.5172C31.6867 14.7158 30.7292 15.7368 29.4822 15.9143C28.3688 16.0919 27.2554 15.537 26.6987 14.5382C26.1421 13.5394 26.2757 12.3186 27.0105 11.4752C27.1441 11.3198 27.3 11.2754 27.4336 11.3864C27.5672 11.4974 27.5672 11.6527 27.4336 11.8303C26.4538 13.0733 26.966 14.8045 28.4134 15.2928C29.549 15.6702 30.796 15.0265 31.1523 13.8945C31.5086 12.7625 30.8851 11.5418 29.794 11.2088L29.8162 11.1866Z" fill="black"/>
<path d="M29.2815 13.273C29.5487 13.5394 29.7937 13.8057 30.0386 14.0499C30.0832 14.0943 30.1277 14.1386 30.1722 14.183C30.2836 14.3162 30.2836 14.4716 30.1722 14.5826C30.0609 14.6935 29.905 14.6935 29.7714 14.5826C29.4819 14.3162 29.2147 14.0277 28.9475 13.7391C28.903 13.6947 28.8362 13.6503 28.7471 13.6281C28.5467 13.5616 28.4799 13.4506 28.5244 13.1842C28.5244 13.0067 28.6358 12.8957 28.8139 12.8735C28.8807 12.8735 28.9475 12.8291 29.0143 12.8069C29.237 12.6737 29.4819 12.5184 29.7046 12.3852C29.8605 12.2964 30.0164 12.3186 30.1054 12.4518C30.1945 12.5849 30.15 12.7403 29.9941 12.8291C29.7714 12.9845 29.5265 13.1398 29.2815 13.2952V13.273Z" fill="black"/>
<path opacity="0.35" d="M82.0122 11.1644C82.0122 10.956 81.8477 10.7871 81.6448 10.7871C81.4418 10.7871 81.2773 10.956 81.2773 11.1644V53.3587C81.2773 53.567 81.4418 53.736 81.6448 53.736C81.8477 53.736 82.0122 53.567 82.0122 53.3587V11.1644Z" fill="#FEFBEA"/>
<path d="M105.326 39.553L104.814 38.5098L107.085 37.3556H107.931V44.9688H106.751V38.8205L105.326 39.553Z" fill="#FEFBEA"/>
<path d="M109.735 39.9303C109.735 39.1534 110.003 38.5098 110.559 37.9993C111.116 37.4888 111.806 37.2224 112.652 37.2224C113.499 37.2224 114.167 37.4888 114.723 37.9993C115.28 38.5098 115.569 39.1534 115.569 39.9303V42.4162C115.569 43.1931 115.28 43.8368 114.723 44.3473C114.167 44.8578 113.476 45.1241 112.652 45.1241C111.829 45.1241 111.116 44.8578 110.559 44.3473C110.003 43.8368 109.735 43.1931 109.735 42.4162V39.9303ZM110.916 42.4162C110.916 42.8601 111.071 43.2375 111.428 43.526C111.762 43.8146 112.185 43.9699 112.675 43.9699C113.165 43.9699 113.588 43.8146 113.899 43.526C114.233 43.2153 114.389 42.8601 114.389 42.4162V39.9081C114.389 39.4642 114.233 39.0869 113.899 38.7983C113.565 38.5098 113.165 38.3544 112.675 38.3544C112.185 38.3544 111.762 38.5098 111.428 38.7983C111.094 39.0869 110.916 39.4642 110.916 39.9081V42.4162Z" fill="#FEFBEA"/>
<path d="M116.705 39.9303C116.705 39.1534 116.972 38.5098 117.529 37.9993C118.086 37.4888 118.776 37.2224 119.622 37.2224C120.468 37.2224 121.136 37.4888 121.693 37.9993C122.25 38.5098 122.539 39.1534 122.539 39.9303V42.4162C122.539 43.1931 122.25 43.8368 121.693 44.3473C121.136 44.8578 120.446 45.1241 119.622 45.1241C118.798 45.1241 118.086 44.8578 117.529 44.3473C116.972 43.8368 116.705 43.1931 116.705 42.4162V39.9303ZM117.863 42.4162C117.863 42.8601 118.019 43.2375 118.375 43.526C118.709 43.8146 119.132 43.9699 119.622 43.9699C120.112 43.9699 120.535 43.8146 120.847 43.526C121.181 43.2153 121.337 42.8601 121.337 42.4162V39.9081C121.337 39.4642 121.181 39.0869 120.847 38.7983C120.513 38.5098 120.112 38.3544 119.622 38.3544C119.132 38.3544 118.709 38.5098 118.375 38.7983C118.041 39.0869 117.863 39.4642 117.863 39.9081V42.4162Z" fill="#FEFBEA"/>
<path d="M123.452 39.1091C123.452 38.5764 123.63 38.1324 123.987 37.7773C124.343 37.4222 124.81 37.2224 125.345 37.2224C125.879 37.2224 126.325 37.4 126.681 37.7773C127.037 38.1324 127.238 38.5764 127.238 39.1091C127.238 39.6418 127.06 40.1079 126.681 40.463C126.302 40.8181 125.879 40.9957 125.345 40.9957C124.81 40.9957 124.343 40.8181 123.987 40.463C123.63 40.1079 123.452 39.6418 123.452 39.1091ZM124.298 44.5026L130.266 37.3778L130.845 37.8883L124.877 44.9909L124.298 44.5026ZM124.476 39.1091C124.476 39.5974 124.877 39.9747 125.367 39.9747C125.857 39.9747 126.236 39.5974 126.236 39.1091C126.236 38.6207 125.857 38.2212 125.367 38.2212C124.877 38.2212 124.476 38.6207 124.476 39.1091ZM131.112 41.9057C131.469 42.2609 131.669 42.7048 131.669 43.2375C131.669 43.7702 131.491 44.2363 131.112 44.5914C130.756 44.9465 130.311 45.1241 129.776 45.1241C129.242 45.1241 128.774 44.9465 128.418 44.5914C128.062 44.2363 127.883 43.7702 127.883 43.2375C127.883 42.7048 128.062 42.2609 128.44 41.9057C128.796 41.5506 129.242 41.3508 129.776 41.3508C130.311 41.3508 130.756 41.5284 131.112 41.9057ZM130.645 43.2375C130.645 42.7492 130.266 42.3496 129.776 42.3496C129.286 42.3496 128.885 42.7492 128.885 43.2375C128.885 43.7258 129.264 44.1253 129.776 44.1253C130.288 44.1253 130.645 43.7258 130.645 43.2375Z" fill="#FEFBEA"/>
<path d="M135.677 44.9688V37.3556H136.902V40.5518H141.044V37.3556H142.268V44.9688H141.044V41.6838H136.902V44.9688H135.677Z" fill="#FEFBEA"/>
<path d="M149.327 37.3556V38.4876H144.985V40.5518H148.748V41.6838H144.985V43.8368H149.372V44.9688H143.76V37.3556H149.327Z" fill="#FEFBEA"/>
<path d="M154.026 37.3556C154.761 37.3556 155.362 37.5775 155.852 38.0436C156.342 38.5098 156.587 39.0868 156.587 39.7527C156.587 40.7515 155.985 41.595 155.072 41.9501L156.876 44.9465H155.495L153.803 42.1499H151.755V44.9465H150.53V37.3334H154.026V37.3556ZM151.755 38.4876V41.0401H154.026C154.761 41.0401 155.317 40.5074 155.317 39.7749C155.317 39.0425 154.761 38.5098 154.026 38.5098H151.755V38.4876Z" fill="#FEFBEA"/>
<path d="M157.923 44.9688V37.3556H161.575C162.22 37.3556 162.755 37.5554 163.2 37.9327C163.645 38.31 163.846 38.7983 163.846 39.3754C163.846 40.0191 163.579 40.5296 163.044 40.9513C163.757 41.3286 164.18 42.0167 164.18 42.8158C164.18 43.4372 163.957 43.9477 163.49 44.3695C163.022 44.769 162.465 44.9688 161.775 44.9688H157.9H157.923ZM159.147 38.4876V40.463H161.575C162.154 40.463 162.577 40.0413 162.577 39.4642C162.577 38.8871 162.154 38.4654 161.575 38.4654H159.147V38.4876ZM159.147 41.595V43.8368H161.797C162.443 43.8368 162.933 43.3707 162.933 42.727C162.933 42.0833 162.443 41.6172 161.797 41.6172H159.147V41.595Z" fill="#FEFBEA"/>
<path d="M164.625 44.9688L167.921 37.3556H168.923L172.241 44.9688H170.949L170.281 43.3928H166.585L165.917 44.9688H164.625ZM168.433 39.0869L167.074 42.2609H169.791L168.433 39.0869Z" fill="#FEFBEA"/>
<path d="M174.356 37.3556V43.8368H178.342V44.9688H173.131V37.3556H174.356Z" fill="#FEFBEA"/>
<path d="M120.49 48.2538V49.3858H116.148V51.4278H119.911V52.5598H116.148V55.8669H114.923V48.2538H120.49Z" fill="#FEFBEA"/>
<path d="M121.181 52.0492C121.181 50.9395 121.559 49.985 122.316 49.2304C123.073 48.4757 124.009 48.0984 125.144 48.0984C126.28 48.0984 127.215 48.4757 127.972 49.2304C128.729 49.985 129.108 50.9173 129.108 52.0492C129.108 53.1812 128.729 54.1134 127.972 54.8681C127.215 55.6228 126.28 56.0001 125.144 56.0001C124.009 56.0001 123.073 55.6228 122.316 54.8681C121.559 54.1134 121.181 53.1812 121.181 52.0492ZM127.059 54.0247C127.572 53.492 127.839 52.8483 127.839 52.0492C127.839 51.2502 127.572 50.6065 127.059 50.0738C126.547 49.5411 125.924 49.2748 125.144 49.2748C124.365 49.2748 123.741 49.5411 123.229 50.0738C122.717 50.6065 122.45 51.2502 122.45 52.0492C122.45 52.8483 122.717 53.492 123.229 54.0247C123.741 54.5574 124.387 54.8237 125.144 54.8237C125.901 54.8237 126.547 54.5574 127.059 54.0247Z" fill="#FEFBEA"/>
<path d="M133.829 48.2538C134.563 48.2538 135.165 48.4757 135.654 48.9418C136.144 49.4079 136.389 49.985 136.389 50.6509C136.389 51.6497 135.788 52.4932 134.875 52.8483L136.679 55.8447H135.298L133.606 53.0481H131.557V55.8447H130.333V48.2316H133.829V48.2538ZM131.557 49.3857V51.9383H133.829C134.563 51.9383 135.12 51.4056 135.12 50.6731C135.12 49.9406 134.563 49.4079 133.829 49.4079H131.557V49.3857Z" fill="#FEFBEA"/>
<path d="M137.726 55.8447V48.2316H138.95L141.845 53.3144L144.74 48.2316H145.965V55.8447H144.74V50.5399L142.246 54.9347H141.444L138.95 50.5399V55.8447H137.726Z" fill="#FEFBEA"/>
<path d="M152.712 48.2538H153.936V52.8261C153.936 53.7361 153.625 54.4908 152.979 55.0901C152.355 55.6894 151.576 56.0001 150.641 56.0001C149.706 56.0001 148.926 55.6894 148.28 55.0901C147.657 54.4908 147.345 53.7139 147.345 52.8261V48.2538H148.57V52.8261C148.57 53.4032 148.77 53.8915 149.149 54.291C149.55 54.6906 150.04 54.8681 150.641 54.8681C151.242 54.8681 151.71 54.6684 152.111 54.291C152.511 53.8915 152.689 53.4032 152.689 52.8261V48.2538H152.712Z" fill="#FEFBEA"/>
<path d="M156.542 48.2538V54.735H160.528V55.8669H155.317V48.2538H156.542Z" fill="#FEFBEA"/>
<path d="M160.973 55.8447L164.269 48.2316H165.271L168.589 55.8447H167.297L166.629 54.2688H162.933L162.265 55.8447H160.973ZM164.781 49.985L163.423 53.159H166.139L164.781 49.985Z" fill="#FEFBEA"/>
<path d="M141.422 30.5858C149.895 30.5858 156.764 23.7389 156.764 15.2929C156.764 6.84687 149.895 0 141.422 0C132.949 0 126.08 6.84687 126.08 15.2929C126.08 23.7389 132.949 30.5858 141.422 30.5858Z" fill="white"/>
<path d="M141.422 30.0088C149.576 30.0088 156.186 23.4203 156.186 15.293C156.186 7.16564 149.576 0.577148 141.422 0.577148C133.269 0.577148 126.659 7.16564 126.659 15.293C126.659 23.4203 133.269 30.0088 141.422 30.0088Z" fill="#0B4227"/>
<path d="M141.422 28.9433C148.986 28.9433 155.117 22.8318 155.117 15.2929C155.117 7.75395 148.986 1.64246 141.422 1.64246C133.859 1.64246 127.728 7.75395 127.728 15.2929C127.728 22.8318 133.859 28.9433 141.422 28.9433Z" fill="#C0932E"/>
<path d="M138.015 23.239C137.859 23.128 137.793 22.9726 137.815 22.7951C137.815 22.4843 137.815 22.1514 137.815 21.8407C137.815 21.7297 137.793 21.6853 137.681 21.6409C135.566 20.8418 134.207 19.3769 133.628 17.1795C133.517 16.7356 133.495 16.2695 133.45 15.8034C133.428 15.4927 133.45 15.1819 133.45 14.8712C133.45 14.6492 133.562 14.5382 133.784 14.516C134.163 14.516 134.541 14.516 134.92 14.516C134.965 14.516 135.009 14.516 135.098 14.516C135.031 14.4495 135.009 14.4051 134.965 14.3607C134.363 13.6504 134.074 12.8292 134.074 11.9191C134.074 11.6306 134.074 11.342 134.074 11.0535C134.074 10.8759 134.185 10.7428 134.363 10.7206C135.187 10.6984 136.033 10.6762 136.79 11.0535C137.058 11.1867 137.303 11.342 137.57 11.4752C137.57 11.453 137.592 11.4086 137.592 11.3864C137.77 10.7206 138.082 10.1435 138.572 9.65516C138.772 9.4554 138.995 9.23344 139.195 9.03368C139.351 8.90051 139.507 8.87831 139.641 9.03368C139.975 9.36662 140.309 9.67736 140.598 10.0325C141.578 11.2977 141.645 13.0289 140.799 14.3829C140.776 14.4273 140.732 14.4717 140.687 14.5382C141.021 14.5382 141.311 14.5382 141.623 14.5382C141.778 14.5382 141.979 14.5826 142.112 14.516C142.246 14.4495 142.291 14.2497 142.38 14.1165C143.137 12.7848 143.916 11.4308 144.673 10.0991C144.718 10.0325 144.718 9.92151 144.718 9.85493C144.473 8.76733 145.141 7.72413 146.232 7.43558C147.279 7.16923 148.37 7.81291 148.659 8.87831C148.882 9.72175 148.548 10.6318 147.813 11.1201C147.746 11.1645 147.702 11.2311 147.679 11.2977C147.39 12.3409 147.123 13.3619 146.855 14.4051C146.855 14.4495 146.855 14.4938 146.833 14.5382C147.457 14.5382 148.08 14.5382 148.681 14.5382C148.77 14.5382 148.86 14.5382 148.971 14.5382C149.149 14.5382 149.305 14.5826 149.372 14.7602V16.0254C149.372 16.0254 149.349 16.0919 149.349 16.1363C149.305 16.6024 149.216 17.0686 149.06 17.5125C148.37 19.4879 147.123 20.9084 145.119 21.6409C145.074 21.6409 145.03 21.7297 145.03 21.7741C145.03 22.107 145.03 22.4399 145.03 22.7729C145.03 22.9504 144.985 23.1058 144.829 23.2168H138.06L138.015 23.239ZM134.319 17.3349C134.319 17.3349 134.341 17.4459 134.363 17.4903C135.12 19.7986 137.28 21.3745 139.774 21.3745C140.843 21.3745 141.89 21.3745 142.959 21.3745C143.27 21.3745 143.582 21.3745 143.894 21.308C146.098 20.8862 147.59 19.6211 148.392 17.5347C148.392 17.4903 148.414 17.4237 148.436 17.3571H134.319V17.3349ZM134.141 16.6912H148.659C148.704 16.1807 148.726 15.6702 148.771 15.1597H134.052C134.074 15.6702 134.118 16.1807 134.141 16.6912ZM145.096 10.6318C144.362 11.9413 143.627 13.2287 142.87 14.516C142.914 14.516 142.936 14.516 142.936 14.516C143.983 14.516 145.007 14.516 146.054 14.516C146.165 14.516 146.187 14.4495 146.187 14.3829C146.41 13.5616 146.611 12.7404 146.833 11.9191C146.878 11.7416 146.922 11.5862 146.967 11.3864C146.187 11.453 145.586 11.2089 145.074 10.6096L145.096 10.6318ZM139.106 14.5382C139.106 14.5382 139.129 14.516 139.151 14.4938C139.151 14.4273 139.151 14.3607 139.151 14.3163C139.151 13.6504 139.151 13.0067 139.151 12.3409C139.151 12.1411 139.284 12.0079 139.463 12.0079C139.641 12.0079 139.774 12.1411 139.797 12.3409C139.797 12.3852 139.797 12.4296 139.797 12.474C139.797 13.0955 139.797 13.717 139.797 14.3385C139.797 14.4051 139.797 14.4495 139.797 14.5604C139.886 14.4938 139.93 14.4717 139.975 14.4273C140.509 13.8502 140.776 13.1621 140.799 12.4074C140.843 11.2755 140.331 10.4098 139.485 9.69955C139.307 9.85493 139.129 10.0325 138.95 10.2101C137.859 11.4086 137.882 13.2509 138.95 14.4273C138.995 14.4717 139.04 14.4938 139.106 14.5382ZM137.436 14.516C137.436 14.516 137.347 14.4273 137.325 14.3829C137.013 14.0721 136.701 13.7836 136.412 13.4506C136.345 13.3841 136.278 13.2287 136.301 13.1399C136.345 12.8736 136.635 12.807 136.835 12.9845C137.169 13.3175 137.503 13.6504 137.815 13.9611L137.859 14.0055C137.859 14.0055 137.904 14.0277 137.926 14.0499C137.926 14.0277 137.926 14.0055 137.926 14.0055C137.659 13.4728 137.525 12.9179 137.503 12.3187C137.503 12.2521 137.459 12.1855 137.414 12.1411C137.035 11.786 136.568 11.5418 136.078 11.4086C135.633 11.2977 135.187 11.2977 134.72 11.3198C134.72 11.5196 134.72 11.6972 134.72 11.8525C134.742 12.8736 135.143 13.717 135.944 14.3385C136.011 14.3829 136.078 14.4495 136.145 14.4495C136.568 14.4495 136.991 14.4495 137.459 14.4495L137.436 14.516ZM145.319 9.38881C145.319 10.1657 145.92 10.7871 146.7 10.7871C147.479 10.7871 148.125 10.1657 148.125 9.38881C148.125 8.63416 147.501 7.99048 146.722 7.99048C145.965 7.99048 145.319 8.61196 145.319 9.38881ZM144.362 21.885C142.38 22.0404 140.42 22.0404 138.461 21.885V22.5953H144.362V21.885Z" fill="black"/>
<path opacity="0.35" d="M201.723 11.1644C201.723 10.956 201.559 10.7871 201.356 10.7871C201.153 10.7871 200.988 10.956 200.988 11.1644V53.3587C200.988 53.567 201.153 53.736 201.356 53.736C201.559 53.736 201.723 53.567 201.723 53.3587V11.1644Z" fill="#FEFBEA"/>
<path d="M226.774 44.9686V37.3555H227.866L232.23 42.86V37.3555H233.41V44.9686H232.319L227.955 39.4641V44.9686H226.774Z" fill="#FEFBEA"/>
<path d="M234.657 41.1733C234.657 40.0635 235.036 39.1091 235.793 38.3544C236.55 37.5997 237.485 37.2224 238.621 37.2224C239.757 37.2224 240.692 37.5997 241.449 38.3544C242.206 39.1091 242.585 40.0413 242.585 41.1733C242.585 42.3052 242.206 43.2375 241.449 43.9921C240.692 44.7468 239.757 45.1241 238.621 45.1241C237.485 45.1241 236.55 44.7468 235.793 43.9921C235.036 43.2375 234.657 42.3052 234.657 41.1733ZM240.536 43.1487C241.048 42.616 241.315 41.9723 241.315 41.1733C241.315 40.3742 241.048 39.7305 240.536 39.1978C240.024 38.6651 239.4 38.3988 238.621 38.3988C237.842 38.3988 237.218 38.6651 236.706 39.1978C236.194 39.7305 235.926 40.3742 235.926 41.1733C235.926 41.9723 236.194 42.616 236.706 43.1487C237.218 43.6814 237.864 43.9477 238.621 43.9477C239.378 43.9477 240.024 43.6814 240.536 43.1487Z" fill="#FEFBEA"/>
<path d="M250.712 39.2644C250.579 38.7761 250 38.3765 249.265 38.3765C248.486 38.3765 247.884 38.7983 247.884 39.3531C247.84 39.6639 248.129 39.908 248.441 40.0856C248.53 40.13 248.664 40.1966 248.864 40.2632C249.065 40.3298 249.22 40.3742 249.332 40.4185L249.911 40.5739C250.534 40.7293 250.846 40.8403 251.38 41.151C251.915 41.4617 252.182 41.9944 252.182 42.7269C252.182 43.4594 251.915 43.9921 251.403 44.436C250.868 44.8577 250.2 45.0797 249.376 45.0797C248.619 45.0797 247.996 44.9021 247.461 44.5692C246.927 44.214 246.593 43.7923 246.437 43.2596L247.639 42.8823C247.773 43.4372 248.441 43.9033 249.354 43.9033C250.267 43.9033 250.935 43.4594 250.935 42.8157C250.935 42.6159 250.846 42.4162 250.69 42.2608C250.378 41.9501 250.089 41.8613 249.554 41.7059C248.642 41.4396 248.04 41.2398 247.729 41.0844C247.016 40.7071 246.66 40.13 246.66 39.3975C246.66 38.7317 246.905 38.199 247.372 37.7772C247.862 37.3555 248.486 37.1558 249.22 37.1558C249.889 37.1558 250.467 37.3111 250.957 37.6441C251.447 37.9548 251.759 38.3543 251.893 38.8426L250.69 39.1978L250.712 39.2644Z" fill="#FEFBEA"/>
<path d="M253.429 44.9686V37.3555H254.653V44.9686H253.429Z" fill="#FEFBEA"/>
<path d="M256.146 44.9686V37.3555H259.196C260.31 37.3555 261.267 37.7328 262.024 38.4653C262.781 39.1977 263.16 40.0856 263.16 41.1731C263.16 42.2607 262.781 43.1486 262.024 43.881C261.267 44.6135 260.332 44.9908 259.196 44.9908H256.146V44.9686ZM257.37 38.4875V43.8366H259.196C259.953 43.8366 260.599 43.5703 261.111 43.0598C261.623 42.5493 261.891 41.9056 261.891 41.151C261.891 40.3963 261.623 39.7526 261.111 39.2421C260.599 38.7316 259.953 38.4653 259.196 38.4653H257.37V38.4875Z" fill="#FEFBEA"/>
<path d="M269.974 37.3555V38.4875H265.631V40.5517H269.395V41.6837H265.631V43.8366H270.018V44.9686H264.407V37.3555H269.974Z" fill="#FEFBEA"/>
<path d="M230.271 48.2314V49.3634H225.928V51.4276H229.692V52.5596H225.928V54.7126H230.315V55.8446H224.704V48.2314H230.271Z" fill="#FEFBEA"/>
<path d="M237.04 48.2314V49.3634H232.698V51.4054H236.461V52.5374H232.698V55.8446H231.473V48.2314H237.04Z" fill="#FEFBEA"/>
<path d="M243.72 48.2314V49.3634H239.378V51.4054H243.141V52.5374H239.378V55.8446H238.153V48.2314H243.72Z" fill="#FEFBEA"/>
<path d="M250.4 48.2314V49.3634H246.058V51.4276H249.821V52.5596H246.058V54.7126H250.445V55.8446H244.833V48.2314H250.4Z" fill="#FEFBEA"/>
<path d="M258.617 50.1625L257.437 50.6064C256.969 49.7851 256.123 49.2746 255.121 49.2746C254.364 49.2746 253.718 49.541 253.206 50.0737C252.694 50.6064 252.427 51.2501 252.427 52.0491C252.427 52.8482 252.694 53.4918 253.206 54.0245C253.718 54.5572 254.364 54.8236 255.121 54.8236C256.123 54.8236 256.969 54.3131 257.437 53.4918L258.617 53.9358C257.949 55.2009 256.635 56 255.099 56C253.986 56 253.028 55.6226 252.271 54.868C251.514 54.1133 251.135 53.1811 251.135 52.0491C251.135 50.9171 251.514 49.9849 252.271 49.2303C253.028 48.4756 253.963 48.0983 255.099 48.0983C256.635 48.0983 257.949 48.8973 258.617 50.1625Z" fill="#FEFBEA"/>
<path d="M259.107 49.3634V48.2314H265.721V49.3634H263.027V55.8446H261.802V49.3634H259.107Z" fill="#FEFBEA"/>
<path d="M270.508 50.1626C270.375 49.6743 269.796 49.2747 269.061 49.2747C268.282 49.2747 267.68 49.6964 267.68 50.2513C267.636 50.5621 267.925 50.8062 268.237 50.9838C268.326 51.0282 268.46 51.0948 268.66 51.1614C268.861 51.228 269.016 51.2723 269.128 51.3167L269.707 51.4721C270.33 51.6275 270.642 51.7385 271.176 52.0492C271.689 52.3599 271.978 52.8926 271.978 53.6251C271.978 54.3576 271.711 54.8903 271.199 55.3342C270.664 55.7559 269.996 55.9779 269.172 55.9779C268.415 55.9779 267.792 55.8003 267.257 55.4674C266.723 55.1122 266.389 54.6905 266.233 54.1578L267.435 53.7805C267.569 54.3354 268.237 54.8015 269.15 54.8015C270.063 54.8015 270.731 54.3576 270.731 53.7139C270.731 53.5141 270.642 53.3144 270.486 53.159C270.174 52.8483 269.885 52.7595 269.35 52.6041C268.437 52.3377 267.836 52.138 267.524 51.9826C266.812 51.6053 266.456 51.0282 266.456 50.2957C266.456 49.6299 266.701 49.0972 267.168 48.6754C267.658 48.2537 268.282 48.054 269.016 48.054C269.684 48.054 270.263 48.2093 270.753 48.5423C271.243 48.853 271.555 49.2525 271.689 49.7408L270.486 50.096L270.508 50.1626Z" fill="#FEFBEA"/>
<path d="M248.196 31.2295C256.657 31.2295 263.516 24.3926 263.516 15.9588C263.516 7.52504 256.657 0.68811 248.196 0.68811C239.735 0.68811 232.876 7.52504 232.876 15.9588C232.876 24.3926 239.735 31.2295 248.196 31.2295Z" fill="white"/>
<path d="M248.196 30.6525C256.338 30.6525 262.938 24.0739 262.938 15.9589C262.938 7.84382 256.338 1.26526 248.196 1.26526C240.055 1.26526 233.455 7.84382 233.455 15.9589C233.455 24.0739 240.055 30.6525 248.196 30.6525Z" fill="#0B4227"/>
<path d="M248.196 29.6092C255.759 29.6092 261.891 23.4977 261.891 15.9588C261.891 8.41985 255.759 2.30835 248.196 2.30835C240.633 2.30835 234.501 8.41985 234.501 15.9588C234.501 23.4977 240.633 29.6092 248.196 29.6092Z" fill="#C0932E"/>
<path d="M253.473 10.4098C253.473 10.6318 253.473 10.8537 253.473 11.0757C253.473 11.1867 253.518 11.2533 253.607 11.2976C253.986 11.4974 254.386 11.675 254.765 11.8747C254.876 11.9413 254.988 11.9857 255.099 12.0523C255.388 12.2299 255.544 12.4962 255.567 12.8514C255.567 12.9401 255.567 13.0511 255.567 13.1399C255.567 15.7146 255.567 18.3115 255.567 20.8862C255.567 20.975 255.567 21.086 255.567 21.1748C255.567 21.7075 255.143 22.1292 254.609 22.1736C254.542 22.1736 254.453 22.1736 254.386 22.1736C253.273 22.1736 252.16 22.1736 251.046 22.1736C250.935 22.1736 250.824 22.1736 250.69 22.1736C250.757 22.3068 250.801 22.4177 250.868 22.5287C251.158 23.128 250.668 23.8605 250.022 23.9049C249.911 23.9049 249.821 23.9049 249.71 23.9049C246.927 23.9049 244.143 23.9049 241.36 23.9049C241.226 23.9049 241.115 23.9049 240.981 23.9049C240.269 23.9049 239.69 23.128 240.113 22.3955C240.358 21.9738 240.603 21.5521 240.848 21.1304C242.072 19.0218 243.297 16.9132 244.522 14.7824C244.744 14.4051 245.012 14.1831 245.457 14.1831C245.591 14.1831 245.746 14.2053 245.902 14.2275C245.902 14.1609 245.902 14.0721 245.902 14.0055C245.902 13.6504 245.902 13.2953 245.902 12.9401C245.902 12.4518 246.103 12.1189 246.548 11.8969C246.971 11.6972 247.372 11.4752 247.795 11.2755C247.951 11.2089 248.04 11.1201 248.018 10.9203C248.018 10.7428 248.018 10.543 248.018 10.3432C247.929 10.3432 247.862 10.3432 247.795 10.321C247.528 10.2988 247.35 10.0991 247.35 9.85492C247.35 9.36661 247.35 8.87831 247.35 8.39C247.35 8.05706 247.55 7.8795 247.884 7.8573C248.062 7.8573 248.218 7.8573 248.396 7.8573C250.111 7.8573 251.803 7.8573 253.518 7.8573C253.562 7.8573 253.629 7.8573 253.674 7.8573C253.986 7.8795 254.141 8.03487 254.164 8.3678C254.164 8.85611 254.164 9.32222 254.164 9.81053C254.164 10.1435 253.986 10.2988 253.652 10.321C253.607 10.321 253.562 10.321 253.496 10.321L253.473 10.4098ZM245.435 23.4609C245.68 23.4609 245.947 23.4609 246.192 23.4609C247.417 23.4609 248.641 23.4609 249.866 23.4609C250.111 23.4609 250.289 23.3944 250.4 23.1724C250.512 22.9504 250.49 22.7507 250.356 22.5509C250.311 22.4843 250.267 22.4177 250.222 22.3512C249.955 21.885 249.688 21.4411 249.421 20.975C249.131 20.5089 248.864 20.0206 248.574 19.5545C248.24 18.9774 247.929 18.4003 247.617 17.8454C247.172 17.0908 246.726 16.3139 246.281 15.5592C246.17 15.3595 246.081 15.1375 245.925 14.96C245.836 14.849 245.769 14.738 245.657 14.6936C245.435 14.6048 245.078 14.6048 244.878 14.96C244.321 15.9366 243.765 16.9132 243.186 17.8676C242.362 19.2659 241.56 20.6643 240.736 22.0626C240.625 22.2624 240.491 22.4621 240.402 22.6619C240.224 23.017 240.491 23.4166 240.892 23.4388C240.959 23.4388 241.026 23.4388 241.093 23.4388C242.518 23.4388 243.965 23.4388 245.39 23.4388L245.435 23.4609ZM246.348 13.4284C246.348 13.828 246.348 14.1831 246.348 14.5604C246.348 14.7158 246.392 14.849 246.459 14.9822C246.882 15.6924 247.305 16.4027 247.706 17.1351C248.174 17.9342 248.641 18.7332 249.087 19.5323C249.153 19.6655 249.243 19.7099 249.398 19.7099C251.224 19.7099 253.05 19.7099 254.876 19.7099C254.943 19.7099 255.01 19.7099 255.077 19.7099C255.121 19.3991 255.121 13.606 255.077 13.4506H246.348V13.4284ZM255.121 12.9401C255.121 12.6072 255.032 12.4962 254.765 12.363C254.631 12.2965 254.498 12.2299 254.364 12.1633C253.986 11.9635 253.585 11.786 253.206 11.5862C253.073 11.5196 253.006 11.4308 253.006 11.2755C253.006 11.0979 253.006 10.9203 253.006 10.7428C253.006 10.6318 253.006 10.5208 253.006 10.432C252.761 10.3876 248.619 10.3876 248.463 10.432C248.463 10.4764 248.463 10.5208 248.463 10.543C248.463 10.7649 248.463 11.0091 248.463 11.2311C248.463 11.3864 248.396 11.5196 248.24 11.5862C247.996 11.6972 247.773 11.8082 247.55 11.9413C247.261 12.0967 246.949 12.2299 246.659 12.3852C246.415 12.5184 246.348 12.6738 246.392 12.9401C246.637 12.9845 254.965 12.9623 255.121 12.9401ZM247.773 9.92151C248.085 9.9659 253.518 9.9437 253.696 9.92151C253.696 9.4332 253.696 8.9227 253.696 8.43439C253.429 8.39 247.929 8.41219 247.773 8.43439V9.94371V9.92151ZM255.099 20.176C254.876 20.176 254.676 20.176 254.475 20.176C252.917 20.176 251.358 20.176 249.799 20.176C249.71 20.176 249.599 20.176 249.487 20.176C249.532 20.2648 249.554 20.3091 249.599 20.3757C249.821 20.7753 250.066 21.1748 250.289 21.5743C250.334 21.6631 250.4 21.7075 250.512 21.7075C250.556 21.7075 250.601 21.7075 250.645 21.7075C251.892 21.7075 253.139 21.7075 254.364 21.7075C254.453 21.7075 254.542 21.7075 254.631 21.7075C254.854 21.6631 255.054 21.5077 255.077 21.2858C255.077 20.9306 255.077 20.5755 255.077 20.176H255.099Z" fill="black" stroke="#231F20" stroke-width="0.1" stroke-miterlimit="10"/>
<path d="M246.192 18.9108C246.192 19.3547 246.192 19.6877 246.147 20.0428C246.125 20.5089 245.769 20.7753 245.323 20.7309C245.034 20.7087 244.789 20.4867 244.722 20.1982C244.722 20.1094 244.678 20.0206 244.678 19.9096C244.678 19.3547 244.678 18.7998 244.678 18.2227C244.678 18.134 244.678 18.0452 244.678 17.9564C244.7 17.5569 245.012 17.2461 245.413 17.2683C245.702 17.2683 246.103 17.4903 246.125 17.9786C246.125 18.3115 246.147 18.6667 246.147 18.9108H246.192ZM245.747 18.9996C245.747 18.9552 245.747 18.9108 245.747 18.8664C245.747 18.5557 245.747 18.2671 245.747 17.9564C245.747 17.801 245.613 17.6901 245.457 17.6901C245.301 17.6901 245.19 17.7788 245.168 17.9342C245.168 18.0008 245.168 18.0674 245.168 18.1118C245.168 18.7111 245.168 19.2881 245.168 19.8874C245.168 19.9318 245.168 19.9762 245.168 19.9984C245.19 20.1316 245.301 20.2204 245.435 20.2204C245.568 20.2204 245.702 20.1316 245.724 19.9984C245.724 19.9318 245.724 19.8874 245.724 19.8208C245.724 19.5323 245.724 19.2438 245.724 18.933L245.747 18.9996Z" fill="black" stroke="#231F20" stroke-width="0.1" stroke-miterlimit="10"/>
<path d="M246.17 21.6852C246.17 22.0848 245.836 22.4177 245.457 22.4177C245.056 22.4177 244.745 22.107 244.745 21.7074C244.745 21.3079 245.056 20.9972 245.457 20.975C245.858 20.975 246.192 21.2857 246.192 21.6852H246.17ZM245.747 21.7074C245.747 21.5521 245.591 21.4411 245.457 21.4411C245.301 21.4411 245.168 21.5743 245.168 21.7296C245.168 21.8628 245.301 21.996 245.457 21.996C245.613 21.996 245.747 21.8628 245.747 21.7074Z" fill="black" stroke="#231F20" stroke-width="0.1" stroke-miterlimit="10"/>
<path d="M249.799 17.5124C249.665 17.5124 249.576 17.5124 249.465 17.4902C249.265 17.4902 249.086 17.4902 248.886 17.4902C248.708 17.4902 248.641 17.4236 248.641 17.2461C248.641 16.8022 248.641 16.3582 248.641 15.9143C248.641 15.7368 248.73 15.648 248.908 15.648C249.131 15.648 249.354 15.648 249.576 15.648C249.643 15.648 249.71 15.648 249.799 15.648C249.799 15.4482 249.799 15.2485 249.799 15.0487C249.799 14.9377 249.799 14.8489 249.799 14.7379C249.799 14.5826 249.888 14.516 250.044 14.516C250.155 14.516 250.267 14.516 250.4 14.516C250.712 14.516 251.001 14.516 251.313 14.516C251.358 14.516 251.425 14.516 251.469 14.516C251.625 14.5382 251.67 14.5826 251.67 14.7379C251.67 14.9377 251.67 15.1375 251.67 15.3372C251.67 15.426 251.67 15.537 251.67 15.648C251.759 15.648 251.825 15.648 251.914 15.648C252.137 15.648 252.36 15.648 252.582 15.648C252.783 15.648 252.85 15.7146 252.85 15.9143C252.85 16.3582 252.85 16.78 252.85 17.2239C252.85 17.4236 252.783 17.4902 252.56 17.4902C252.36 17.4902 252.159 17.4902 251.959 17.4902C251.87 17.4902 251.803 17.4902 251.692 17.4902C251.692 17.579 251.692 17.6678 251.692 17.7566C251.692 17.9563 251.692 18.1561 251.692 18.3559C251.692 18.5556 251.625 18.6222 251.425 18.6444C251.38 18.6444 251.335 18.6444 251.291 18.6444C250.912 18.6444 250.534 18.6444 250.155 18.6444C250.111 18.6444 250.066 18.6444 250.022 18.6444C249.866 18.6444 249.799 18.5556 249.799 18.4003C249.799 18.1783 249.799 17.9563 249.799 17.7344C249.799 17.6678 249.799 17.6012 249.799 17.5124ZM251.224 18.2005C251.224 17.8898 251.224 17.6234 251.224 17.3571C251.224 17.1573 251.291 17.0907 251.491 17.0685C251.692 17.0685 251.87 17.0685 252.07 17.0685C252.159 17.0685 252.271 17.0685 252.382 17.0463V16.0919C252.382 16.0919 252.248 16.0919 252.182 16.0919C252.004 16.0919 251.825 16.0919 251.647 16.0919C251.291 16.0919 251.246 16.0475 251.246 15.6924C251.246 15.5148 251.246 15.3594 251.246 15.1819C251.246 15.1153 251.246 15.0265 251.246 14.9599H250.289C250.289 14.9599 250.289 15.1153 250.289 15.1819C250.289 15.3816 250.289 15.5814 250.289 15.7812C250.289 16.0475 250.222 16.1141 249.955 16.1141C249.732 16.1141 249.532 16.1141 249.309 16.1141C249.242 16.1141 249.198 16.1141 249.131 16.1141V17.0685C249.131 17.0685 249.265 17.0685 249.331 17.0685C249.554 17.0685 249.754 17.0685 249.977 17.0685C250.244 17.0685 250.289 17.1351 250.289 17.3792C250.289 17.5568 250.289 17.7344 250.289 17.9119C250.289 18.0007 250.289 18.0895 250.289 18.2005H251.269H251.224Z" fill="black" stroke="#231F20" stroke-width="0.1" stroke-miterlimit="10"/>
</g>
<defs>
<clipPath id="clip0_219_10">
<rect width="272" height="56" fill="white"/>
</clipPath>
</defs>
</svg>
