<svg width="370" height="40" viewBox="0 0 370 40" fill="none" xmlns="http://www.w3.org/2000/svg">
<rect width="370" height="40" rx="10" fill="#FFC945"/>
<path d="M145.934 26H144.044V16.424H142.82V14.804H144.044V14.228C144.044 13.508 144.218 12.836 144.566 12.212C144.926 11.588 145.418 11.09 146.042 10.718C146.63 10.382 147.11 10.202 147.482 10.178C147.866 10.154 148.148 10.142 148.328 10.142C148.676 10.142 150.716 10.388 154.448 10.88L154.232 12.482C150.584 12.002 148.646 11.762 148.418 11.762C147.83 11.762 147.362 11.87 147.014 12.086C146.294 12.566 145.934 13.196 145.934 13.976V14.804H147.14V16.424H145.934V26ZM155.921 26H154.031L147.713 23.03V21.608C147.713 20.852 147.929 20.162 148.361 19.538C148.793 18.902 149.435 18.452 150.287 18.188L154.031 17.036V16.424H146.705V14.804H161.213V16.424H155.921V17.054H156.605C157.673 17.054 158.573 17.366 159.305 17.99C160.049 18.602 160.421 19.346 160.421 20.222V20.474C160.421 21.254 160.115 21.92 159.503 22.472C158.903 23.012 158.177 23.282 157.325 23.282V21.662C157.649 21.662 157.931 21.548 158.171 21.32C158.411 21.092 158.531 20.81 158.531 20.474V20.222C158.531 19.79 158.345 19.424 157.973 19.124C157.613 18.824 157.157 18.674 156.605 18.674H155.921V26ZM154.031 24.182V18.746L150.917 19.7C150.041 19.964 149.603 20.51 149.603 21.338V22.094L154.031 24.182ZM170.647 27.512L162.439 24.902V23.174L166.039 22.526C168.175 22.178 169.243 21.572 169.243 20.708C169.243 20.048 168.703 19.604 167.623 19.376C167.587 20.096 167.305 20.69 166.777 21.158C166.213 21.674 165.469 21.932 164.545 21.932C163.849 21.932 163.261 21.716 162.781 21.284C162.313 20.84 162.079 20.306 162.079 19.682V16.424H160.855V14.804H172.141V16.424H163.969V16.982L168.271 17.846C169.147 18.026 169.843 18.41 170.359 18.998C170.875 19.574 171.133 20.144 171.133 20.708C171.133 21.812 170.479 22.676 169.171 23.3C168.283 23.72 167.341 24.002 166.345 24.146L165.787 24.236L171.133 25.946L170.647 27.512ZM164.725 20.312C165.037 20.312 165.295 20.24 165.499 20.096C165.715 19.952 165.823 19.742 165.823 19.466C165.823 19.202 165.685 19.022 165.409 18.926L164.059 18.656V19.79C164.059 20.138 164.281 20.312 164.725 20.312ZM165.495 31.31C164.619 31.31 163.911 31.094 163.371 30.662C162.819 30.23 162.543 29.672 162.543 28.988C162.543 28.304 162.807 27.746 163.335 27.314C163.851 26.882 164.481 26.666 165.225 26.666C165.681 26.666 166.125 26.732 166.557 26.864V25.316H168.447V27.836L171.543 29.708L170.733 31.04L168.375 29.564C168.255 30.008 167.997 30.38 167.601 30.68C167.049 31.1 166.347 31.31 165.495 31.31ZM165.423 29.816C166.179 29.816 166.557 29.492 166.557 28.844V28.466C166.137 28.262 165.747 28.16 165.387 28.16C165.099 28.16 164.847 28.226 164.631 28.358C164.415 28.502 164.307 28.712 164.307 28.988C164.307 29.264 164.421 29.468 164.649 29.6C164.865 29.744 165.123 29.816 165.423 29.816ZM178.137 26H176.247V16.424H175.023V14.804H176.247V14.228C176.247 13.508 176.421 12.836 176.769 12.212C177.129 11.588 177.621 11.09 178.245 10.718C178.833 10.382 179.313 10.202 179.685 10.178C180.069 10.154 180.351 10.142 180.531 10.142C180.879 10.142 182.919 10.388 186.651 10.88L186.435 12.482C182.787 12.002 180.849 11.762 180.621 11.762C180.033 11.762 179.565 11.87 179.217 12.086C178.497 12.566 178.137 13.196 178.137 13.976V14.804H179.343V16.424H178.137V26ZM192.624 26H190.734V19.448C189.846 19.328 189.06 19.046 188.376 18.602C187.536 17.99 187.032 17.3 186.864 16.532C186.552 16.64 186.264 16.826 186 17.09C185.568 17.534 185.352 18.086 185.352 18.746V19.304C185.352 20.132 185.706 20.546 186.414 20.546C186.678 20.546 186.894 20.462 187.062 20.294C187.23 20.126 187.314 19.922 187.314 19.682H189.204V21.752C189.204 22.916 188.79 23.918 187.962 24.758C187.134 25.586 186.132 26 184.956 26H184.164C183 26 181.998 25.586 181.158 24.758C180.33 23.918 179.916 22.916 179.916 21.752V18.116H181.806V21.752C181.806 22.472 182.034 23.09 182.49 23.606C182.958 24.122 183.516 24.38 184.164 24.38H184.956C185.604 24.38 186.162 24.122 186.63 23.606C187.014 23.162 187.236 22.646 187.296 22.058C187.044 22.13 186.684 22.166 186.216 22.166C185.46 22.166 184.812 21.902 184.272 21.374C183.732 20.834 183.462 20.186 183.462 19.43V18.89C183.462 17.954 183.738 17.132 184.29 16.424H178.908V14.804H193.848V16.424H188.718C188.79 16.724 189.03 17.012 189.438 17.288C190.086 17.708 190.836 17.918 191.688 17.918H192.624V26ZM199.528 26H198.736C197.572 26 196.57 25.586 195.73 24.758C194.902 23.918 194.488 22.916 194.488 21.752V18.116H196.378V21.752C196.378 22.472 196.606 23.09 197.062 23.606C197.53 24.122 198.088 24.38 198.736 24.38H199.528C200.176 24.38 200.734 24.122 201.202 23.606C201.586 23.162 201.808 22.646 201.868 22.058C201.616 22.13 201.256 22.166 200.788 22.166C200.032 22.166 199.384 21.902 198.844 21.374C198.304 20.834 198.034 20.186 198.034 19.43V18.89C198.034 17.954 198.31 17.132 198.862 16.424H193.48V14.804H209.284V16.424H202.048C202.156 16.688 202.33 16.94 202.57 17.18C202.81 17.42 203.098 17.582 203.434 17.666C203.974 17.342 204.682 17.18 205.558 17.18C206.314 17.18 206.956 17.432 207.484 17.936C208.012 18.428 208.276 19.034 208.276 19.754C208.276 20.402 208.066 20.948 207.646 21.392C208.066 21.836 208.276 22.382 208.276 23.03C208.276 23.762 208.012 24.374 207.484 24.866C206.956 25.358 206.314 25.604 205.558 25.604H205.27C204.334 25.604 203.542 25.304 202.894 24.704C202.834 24.656 202.78 24.602 202.732 24.542C202.672 24.614 202.606 24.68 202.534 24.74C201.706 25.58 200.704 26 199.528 26ZM205.288 24.002C205.612 24.002 205.876 23.9 206.08 23.696C206.296 23.492 206.404 23.27 206.404 23.03C206.404 22.814 206.338 22.622 206.206 22.454C206.074 22.286 205.882 22.202 205.63 22.202H205.018V20.582H205.63C205.882 20.582 206.074 20.504 206.206 20.348C206.338 20.18 206.404 19.982 206.404 19.754C206.404 19.514 206.296 19.298 206.08 19.106C205.876 18.902 205.612 18.8 205.288 18.8C204.856 18.8 204.496 18.932 204.208 19.196C203.92 19.448 203.776 19.796 203.776 20.24V22.562C203.776 23.006 203.92 23.36 204.208 23.624C204.496 23.876 204.856 24.002 205.288 24.002ZM200.986 20.546C201.418 20.546 201.736 20.378 201.94 20.042C201.964 19.694 202.042 19.376 202.174 19.088C201.418 18.584 200.872 17.93 200.536 17.126C200.128 17.558 199.924 18.098 199.924 18.746V19.304C199.924 20.132 200.278 20.546 200.986 20.546ZM212.045 26H210.155V16.424H208.931V14.804H213.251V16.424H212.045V26ZM222.572 26H220.682V23.75C220.682 23.198 220.49 22.736 220.106 22.364C219.734 21.98 219.236 21.788 218.612 21.788C218.516 22.7 218.15 23.486 217.514 24.146C216.77 24.926 215.864 25.316 214.796 25.316H213.824V23.696H214.526C215.198 23.696 215.738 23.462 216.146 22.994C216.554 22.526 216.758 21.974 216.758 21.338V21.05C216.758 20.402 216.548 19.85 216.128 19.394C215.72 18.938 215.18 18.71 214.508 18.71H213.824V16.424H212.816V14.804H223.796V16.424H222.572V26ZM220.682 20.69V16.424H215.714V17.234C216.578 17.474 217.28 17.942 217.82 18.638C218.18 19.106 218.42 19.616 218.54 20.168C219.392 20.168 220.106 20.342 220.682 20.69ZM226.547 26H224.657V16.424H223.433V14.804H227.753V16.424H226.547V26Z" fill="black"/>
</svg>
