<svg width="205" height="49" viewBox="0 0 205 49" fill="none" xmlns="http://www.w3.org/2000/svg">
<g clip-path="url(#clip0_219_1278)">
<path d="M18.7171 34.1195C8.43471 34.1195 0 27.5325 0 17.0527C0 6.57283 8.43471 0 18.7171 0C28.9996 0 37.4343 6.58693 37.4343 17.0527C37.4343 20.9315 36.2918 24.3025 34.303 26.9542C33.0759 28.6186 30.6499 29.1828 28.6188 29.2251V29.747C30.6499 29.7047 32.8361 30.833 34.4017 32.1589C35.3468 32.9206 36.3482 33.5835 37.4343 34.1054L31.9334 41.9758C29.9446 41.595 28.0546 39.4229 26.1504 36.5737C25.0079 34.867 24.7258 32.4551 25.5862 30.5509L25.022 30.3112C23.6538 33.386 21.8061 34.1054 18.7171 34.1054V34.1195ZM14.4998 16.0653C18.6748 16.0653 22.5114 18.9991 25.2618 21.947C26.4889 20.6212 27.2506 18.9145 27.2506 17.0668C27.2506 12.8918 23.4141 9.57714 18.7171 9.57714C14.0202 9.57714 10.2401 12.8495 10.1837 16.968C11.6929 16.3474 13.1739 16.0653 14.4998 16.0653ZM18.9146 24.641C17.349 22.3138 15.741 20.4237 14.0343 19.3377C12.8495 18.6324 11.6224 18.2939 10.3389 18.5337C11.1005 21.9893 14.796 24.641 18.9146 24.641Z" fill="#0B4227"/>
<path d="M39.3383 19.1402V0.90271H49.522V18.3926C49.522 22.5676 50.5234 24.6411 54.4446 24.6411C58.3657 24.6411 59.3672 22.5535 59.3672 18.3926V0.90271H69.5509V19.1402C69.5509 29.6624 63.9653 34.1195 54.4305 34.1195C44.8956 34.1195 39.3101 29.6624 39.3101 19.1402H39.3383Z" fill="#0B4227"/>
<path d="M71.4551 0.479614H86.8999C97.1823 0.479614 104.334 6.88318 104.334 17.0668C104.334 27.2505 97.1823 33.6541 86.8999 33.6541H71.4551V0.479614Z" fill="#0B4227"/>
<path d="M137.085 33.6399H125.759C124.532 25.0642 123.911 21.0303 118.848 20.3673L116.661 20.2263V33.6399H106.238V0.479614H120.032C130.315 0.479614 135.957 3.23005 135.957 10.7197C135.957 17.3066 132.261 19.112 125.956 19.112L125.815 20.057C127.846 20.3956 130.357 20.8187 131.697 22.3843C134.067 25.1348 135.773 28.9713 137.099 33.6682L137.085 33.6399ZM120.032 15.7269C124.729 15.7269 125.759 14.4998 125.759 12.4546C125.759 10.4094 124.715 8.9989 119.835 8.9989H116.661V15.7269H120.032Z" fill="#0B4227"/>
<path d="M149.413 33.6399H138.989L149.314 0.479614H162.149L172.474 33.6541H162.051L161.628 31.9474C161.204 30.3394 161.444 28.4353 162.432 27.1094L162.389 27.0107C161.388 28.3365 159.54 29.0418 157.89 29.0418H153.574C151.909 29.0418 150.062 28.3365 149.074 27.0107L149.032 27.1094C150.033 28.4353 150.259 30.3253 149.836 31.9474L149.413 33.6541V33.6399ZM152.544 21.6509H158.934L156.705 13.0752C156.183 11.0441 155.802 8.23724 155.943 6.10742H155.562C155.704 8.23724 155.323 11.03 154.801 13.0752L152.53 21.6509H152.544Z" fill="#0B4227"/>
<path d="M184.816 21.0867V33.6399H174.393V0.479614H184.816V9.09763C184.816 11.0441 184.054 13.2726 182.686 14.6408L183.166 15.1204C184.534 13.7522 186.339 12.5674 188.286 12.5674H194.591V0.479614H205.014V33.6541H194.591V24.5565C194.591 22.61 195.776 20.7623 197.144 19.3941L196.664 18.971C195.296 20.3391 193.067 21.1008 191.121 21.1008H184.816V21.0867Z" fill="#0B4227"/>
<path d="M83.0214 29.2674L93.1628 15.6422H88.8891L92.4153 6.93958H84.6012L82.3867 18.5478H86.2515L83.0214 29.2674Z" fill="#FFF8E7"/>
<path d="M49.748 48.8449V41.2001H50.8341L55.2066 46.7291V41.2001H56.3773V48.8449H55.2913L50.9187 43.3158V48.8449H49.748Z" fill="#0B4227"/>
<path d="M63.0349 43.7953V43.1888H64.1633V48.8589H63.0349V48.2524C62.513 48.7602 61.8783 48.9999 61.1448 48.9999C60.3549 48.9999 59.6779 48.7178 59.1419 48.1537C58.6059 47.5895 58.3521 46.8701 58.3521 46.0238C58.3521 45.1776 58.62 44.4582 59.1419 43.894C59.6779 43.3298 60.3408 43.0477 61.1448 43.0477C61.8783 43.0477 62.513 43.3016 63.0349 43.7953ZM60.0305 44.7121C59.692 45.0647 59.5228 45.502 59.5228 46.0238C59.5228 46.5457 59.692 46.983 60.0305 47.3497C60.369 47.7023 60.7781 47.8716 61.2577 47.8716C61.7372 47.8716 62.1604 47.7023 62.4989 47.3497C62.8374 46.983 63.0067 46.5598 63.0067 46.0238C63.0067 45.4879 62.8374 45.0647 62.4989 44.7121C62.1604 44.3454 61.7513 44.1761 61.2577 44.1761C60.764 44.1761 60.369 44.3454 60.0305 44.7121Z" fill="#0B4227"/>
<path d="M65.7993 43.1748H66.6597V42.0464H67.7881V43.1748H69.2973V44.1621H67.7881V46.9549C67.7881 47.4062 68.1125 47.7447 68.5498 47.7447H69.2973V48.8308H68.4651C67.9574 48.8308 67.5201 48.6615 67.1816 48.3371C66.829 47.9986 66.6597 47.5896 66.6597 47.0959V44.148H65.7993V43.1607V43.1748Z" fill="#0B4227"/>
<path d="M71.0746 43.1747H72.203V46.4329C72.203 46.8561 72.344 47.2087 72.612 47.4908C72.8941 47.7588 73.2467 47.8998 73.6558 47.8998C74.093 47.8998 74.4457 47.7588 74.7419 47.4767C75.0381 47.1946 75.1791 46.842 75.1791 46.4188V43.1747H76.3075V48.8449H75.1791V48.0409C74.7419 48.6756 74.1212 48.9859 73.3173 48.9859C72.6684 48.9859 72.1184 48.7743 71.6952 48.3512C71.2721 47.9281 71.0464 47.3921 71.0464 46.7433V43.1606L71.0746 43.1747Z" fill="#0B4227"/>
<path d="M79.6362 44.0069C80.0593 43.3581 80.7223 43.0337 81.6532 43.0337V44.3031C81.5263 44.2467 81.3711 44.2185 81.1595 44.2185C80.7364 44.2185 80.3697 44.3595 80.0735 44.6416C79.7773 44.9096 79.6362 45.2622 79.6362 45.6854V48.8449H78.5078V43.1747H79.6362V44.0069Z" fill="#0B4227"/>
<path d="M87.5349 43.7953V43.1888H88.6633V48.8589H87.5349V48.2524C87.013 48.7602 86.3783 48.9999 85.6448 48.9999C84.8549 48.9999 84.1779 48.7178 83.6419 48.1537C83.1059 47.5895 82.8521 46.8701 82.8521 46.0238C82.8521 45.1776 83.12 44.4582 83.6419 43.894C84.1779 43.3298 84.8408 43.0477 85.6448 43.0477C86.3783 43.0477 87.013 43.3016 87.5349 43.7953ZM84.5305 44.7121C84.192 45.0647 84.0228 45.502 84.0228 46.0238C84.0228 46.5457 84.192 46.983 84.5305 47.3497C84.869 47.7023 85.2781 47.8716 85.7576 47.8716C86.2372 47.8716 86.6604 47.7023 86.9989 47.3497C87.3374 46.983 87.5067 46.5598 87.5067 46.0238C87.5067 45.4879 87.3374 45.0647 86.9989 44.7121C86.6604 44.3454 86.2513 44.1761 85.7576 44.1761C85.264 44.1761 84.869 44.3454 84.5305 44.7121Z" fill="#0B4227"/>
<path d="M90.8354 48.8448V40.6641H91.9638V48.8448H90.8354Z" fill="#0B4227"/>
<path d="M97.916 48.8449V41.2001H99.1431V44.4019H103.276V41.2001H104.517V48.8449H103.276V45.5443H99.1431V48.8449H97.916Z" fill="#0B4227"/>
<path d="M107.662 46.4329C107.832 47.3215 108.593 47.9421 109.538 47.9421C110.187 47.9421 110.681 47.7023 111.048 47.2369L112.162 47.5754C111.64 48.464 110.681 48.9999 109.538 48.9999C108.678 48.9999 107.945 48.7178 107.366 48.1537C106.788 47.5895 106.492 46.8701 106.492 46.0238C106.492 45.1776 106.774 44.4582 107.338 43.894C107.902 43.3298 108.622 43.0477 109.454 43.0477C110.286 43.0477 110.991 43.3298 111.555 43.894C112.12 44.4582 112.402 45.1634 112.402 46.0238C112.402 46.1085 112.402 46.2495 112.373 46.4329H107.662ZM111.217 45.5302C111.005 44.6839 110.286 44.1056 109.411 44.1056C108.579 44.1056 107.874 44.698 107.662 45.5302H111.217Z" fill="#0B4227"/>
<path d="M115.35 44.0069C115.773 43.3581 116.436 43.0337 117.367 43.0337V44.3031C117.24 44.2467 117.084 44.2185 116.873 44.2185C116.45 44.2185 116.083 44.3595 115.787 44.6416C115.491 44.9096 115.35 45.2622 115.35 45.6854V48.8449H114.221V43.1747H115.35V44.0069Z" fill="#0B4227"/>
<path d="M119.045 40.6641H120.174V43.7812C120.696 43.2734 121.33 43.0337 122.064 43.0337C122.854 43.0337 123.531 43.3158 124.067 43.88C124.603 44.4441 124.871 45.1494 124.871 46.0098C124.871 46.8702 124.603 47.5754 124.067 48.1396C123.531 48.7038 122.868 48.9859 122.064 48.9859C121.33 48.9859 120.696 48.732 120.174 48.2383V48.8448H119.045V40.6641ZM120.71 44.7121C120.371 45.0648 120.202 45.502 120.202 46.0239C120.202 46.5458 120.371 46.983 120.71 47.3497C121.048 47.7023 121.457 47.8716 121.937 47.8716C122.416 47.8716 122.84 47.7023 123.178 47.3497C123.517 46.983 123.686 46.5599 123.686 46.0239C123.686 45.4879 123.517 45.0648 123.178 44.7121C122.84 44.3454 122.431 44.1762 121.937 44.1762C121.443 44.1762 121.048 44.3454 120.71 44.7121Z" fill="#0B4227"/>
<path d="M131.204 43.7953V43.1888H132.332V48.8589H131.204V48.2524C130.682 48.7602 130.047 48.9999 129.314 48.9999C128.524 48.9999 127.847 48.7178 127.311 48.1537C126.775 47.5895 126.521 46.8701 126.521 46.0238C126.521 45.1776 126.789 44.4582 127.311 43.894C127.847 43.3298 128.51 43.0477 129.314 43.0477C130.047 43.0477 130.682 43.3016 131.204 43.7953ZM128.214 44.7121C127.875 45.0647 127.706 45.502 127.706 46.0238C127.706 46.5457 127.875 46.983 128.214 47.3497C128.552 47.7023 128.961 47.8716 129.441 47.8716C129.92 47.8716 130.343 47.7023 130.682 47.3497C131.02 46.983 131.19 46.5598 131.19 46.0238C131.19 45.4879 131.02 45.0647 130.682 44.7121C130.343 44.3454 129.934 44.1761 129.441 44.1761C128.947 44.1761 128.552 44.3454 128.214 44.7121Z" fill="#0B4227"/>
<path d="M134.518 48.8448V40.6641H135.646V48.8448H134.518Z" fill="#0B4227"/>
<path d="M142.826 48.8449H141.599V41.2001H144.984C145.717 41.2001 146.31 41.4258 146.803 41.8912C147.297 42.3426 147.551 42.9209 147.551 43.612C147.551 44.3031 147.297 44.8814 146.803 45.3328C146.31 45.7982 145.717 46.0239 144.984 46.0239H142.826V48.8449ZM142.826 42.3426V44.8955H144.984C145.717 44.8955 146.267 44.3454 146.267 43.612C146.267 42.8785 145.717 42.3426 144.984 42.3426H142.826Z" fill="#0B4227"/>
<path d="M148.834 46.0098C148.834 45.1635 149.117 44.4442 149.681 43.88C150.245 43.3158 150.964 43.0337 151.811 43.0337C152.657 43.0337 153.376 43.3158 153.94 43.88C154.519 44.4442 154.801 45.1494 154.801 46.0098C154.801 46.8702 154.519 47.5754 153.94 48.1396C153.376 48.7038 152.671 48.9859 151.811 48.9859C150.95 48.9859 150.245 48.7038 149.681 48.1396C149.117 47.5754 148.834 46.8561 148.834 46.0098ZM153.094 47.3356C153.447 46.9689 153.616 46.5458 153.616 46.0098C153.616 45.4738 153.447 45.0507 153.094 44.6981C152.756 44.3313 152.318 44.1621 151.811 44.1621C151.303 44.1621 150.866 44.3313 150.527 44.6981C150.189 45.0507 150.019 45.4879 150.019 46.0098C150.019 46.5317 150.189 46.9689 150.527 47.3356C150.88 47.6883 151.303 47.8575 151.811 47.8575C152.318 47.8575 152.756 47.6883 153.094 47.3356Z" fill="#0B4227"/>
<path d="M157.848 48.8448L155.958 43.1747H157.1L158.327 47.0958L159.554 43.1747H160.584L161.811 47.0958L163.052 43.1747H164.195L162.305 48.8448H161.289L160.062 45.0647L158.821 48.8448H157.819H157.848Z" fill="#0B4227"/>
<path d="M170.034 43.7954V40.6782H171.163V48.859H170.034V48.2525C169.512 48.7603 168.878 49 168.144 49C167.354 49 166.677 48.7179 166.141 48.1538C165.605 47.5896 165.352 46.8702 165.352 46.0239C165.352 45.1776 165.62 44.4583 166.141 43.8941C166.677 43.3299 167.34 43.0478 168.144 43.0478C168.878 43.0478 169.512 43.3017 170.034 43.7954ZM167.044 44.7122C166.706 45.0648 166.536 45.5021 166.536 46.0239C166.536 46.5458 166.706 46.9831 167.044 47.3498C167.383 47.7024 167.792 47.8717 168.271 47.8717C168.751 47.8717 169.174 47.7024 169.512 47.3498C169.851 46.9831 170.02 46.5599 170.02 46.0239C170.02 45.488 169.851 45.0648 169.512 44.7122C169.174 44.3455 168.765 44.1762 168.271 44.1762C167.778 44.1762 167.383 44.3455 167.044 44.7122Z" fill="#0B4227"/>
<path d="M174.266 46.4329C174.435 47.3215 175.197 47.9421 176.142 47.9421C176.791 47.9421 177.284 47.7023 177.651 47.2369L178.765 47.5754C178.243 48.464 177.284 48.9999 176.142 48.9999C175.281 48.9999 174.548 48.7178 173.97 48.1537C173.391 47.5895 173.095 46.8701 173.095 46.0238C173.095 45.1776 173.377 44.4582 173.942 43.894C174.506 43.3298 175.225 43.0477 176.057 43.0477C176.889 43.0477 177.595 43.3298 178.159 43.894C178.723 44.4582 179.005 45.1634 179.005 46.0238C179.005 46.1085 179.005 46.2495 178.977 46.4329H174.266ZM177.82 45.5302C177.609 44.6839 176.889 44.1056 176.015 44.1056C175.183 44.1056 174.477 44.698 174.266 45.5302H177.82Z" fill="#0B4227"/>
<path d="M181.953 44.0069C182.376 43.3581 183.039 43.0337 183.97 43.0337V44.3031C183.843 44.2467 183.688 44.2185 183.476 44.2185C183.053 44.2185 182.687 44.3595 182.39 44.6416C182.094 44.9096 181.953 45.2622 181.953 45.6854V48.8449H180.825V43.1747H181.953V44.0069Z" fill="#0B4227"/>
</g>
<defs>
<clipPath id="clip0_219_1278">
<rect width="205" height="49" fill="white"/>
</clipPath>
</defs>
</svg>
