<svg width="293" height="88" viewBox="0 0 293 88" fill="none" xmlns="http://www.w3.org/2000/svg">
<g filter="url(#filter0_d_219_2033)">
<path d="M57.1056 24.636H53.1156V19.886C53.1156 18.7207 52.7103 17.7453 51.8996 16.96C51.1143 16.1493 50.063 15.744 48.7456 15.744C48.543 17.6693 47.7703 19.3287 46.4276 20.722C44.857 22.3687 42.9443 23.192 40.6896 23.192H38.6376V19.772H40.1196C41.5383 19.772 42.6783 19.278 43.5396 18.29C44.401 17.302 44.8316 16.1367 44.8316 14.794V14.186C44.8316 12.818 44.3883 11.6527 43.5016 10.69C42.6403 9.72732 41.5003 9.24599 40.0816 9.24599H38.6376V4.41999H36.5096V0.999985H59.6896V4.41999H57.1056V24.636ZM53.1156 13.426V4.41999H42.6276V6.12999C44.4516 6.63665 45.9336 7.62465 47.0736 9.09399C47.8336 10.082 48.3403 11.1587 48.5936 12.324C50.3923 12.324 51.8996 12.6913 53.1156 13.426ZM75.5938 24.636C73.1872 24.256 71.2998 23.2553 69.9318 21.634C68.5638 19.9873 67.8798 18.024 67.8798 15.744V11.754C67.8798 8.58732 68.7285 6.02865 70.4258 4.07799C72.1485 2.10199 74.2258 1.07599 76.6578 0.999985V4.41999C75.3152 4.44532 74.1752 5.07865 73.2378 6.31999C72.3258 7.56132 71.8698 9.18265 71.8698 11.184V16.314C71.8698 17.682 72.2245 18.784 72.9338 19.62C73.6432 20.456 74.5298 20.988 75.5938 21.216V24.636ZM89.4867 24.636H86.9787C84.5214 24.636 82.406 23.762 80.6327 22.014C78.8847 20.2407 78.0107 18.1127 78.0107 15.63V7.99199H82.0007V15.934C82.0007 17.302 82.482 18.5307 83.4447 19.62C84.4327 20.684 85.6107 21.216 86.9787 21.216H89.4867C90.88 21.216 92.058 20.684 93.0207 19.62C93.9834 18.5307 94.4647 17.302 94.4647 15.934V12.248C94.4647 11.564 94.2367 10.9433 93.7807 10.386C93.3247 9.82865 92.7547 9.54999 92.0707 9.54999H91.6907C91.2094 9.54999 90.7787 9.77799 90.3987 10.234C90.044 10.69 89.8667 11.1587 89.8667 11.64V15.554H85.8767V11.944C85.8767 10.348 86.4467 8.97999 87.5867 7.83999C88.7267 6.69999 90.2214 6.12999 92.0707 6.12999C93.844 6.12999 95.3514 6.76332 96.5927 8.02999C97.834 9.27132 98.4547 10.766 98.4547 12.514V15.63C98.4547 18.1127 97.5807 20.2407 95.8327 22.014C94.0847 23.762 91.9694 24.636 89.4867 24.636ZM100.583 4.41999H75.8827V0.999985H100.583V4.41999ZM127.242 24.636H123.252V19.886C123.252 18.7207 122.847 17.7453 122.036 16.96C121.251 16.1493 120.2 15.744 118.882 15.744C118.68 17.6693 117.907 19.3287 116.564 20.722C114.994 22.3687 113.081 23.192 110.826 23.192H108.774V19.772H110.256C111.675 19.772 112.815 19.278 113.676 18.29C114.538 17.302 114.968 16.1367 114.968 14.794V14.186C114.968 12.818 114.525 11.6527 113.638 10.69C112.777 9.72732 111.637 9.24599 110.218 9.24599H108.774V4.41999H106.646V0.999985H129.826V4.41999H127.242V24.636ZM123.252 13.426V4.41999H112.764V6.12999C114.588 6.63665 116.07 7.62465 117.21 9.09399C117.97 10.082 118.477 11.1587 118.73 12.324C120.529 12.324 122.036 12.6913 123.252 13.426ZM121.005 35.846C119.156 35.846 117.661 35.39 116.521 34.478C115.356 33.566 114.773 32.388 114.773 30.944C114.773 29.5 115.331 28.322 116.445 27.41C117.535 26.498 118.865 26.042 120.435 26.042C121.398 26.042 122.335 26.1813 123.247 26.46V23.192H127.237V28.512L133.773 32.464L132.063 35.276L127.085 32.16C126.832 33.0973 126.287 33.8827 125.451 34.516C124.286 35.4027 122.804 35.846 121.005 35.846ZM120.853 32.692C122.449 32.692 123.247 32.008 123.247 30.64V29.842C122.361 29.4113 121.537 29.196 120.777 29.196C120.169 29.196 119.637 29.3353 119.181 29.614C118.725 29.918 118.497 30.3613 118.497 30.944C118.497 31.5267 118.738 31.9573 119.219 32.236C119.675 32.54 120.22 32.692 120.853 32.692ZM151.594 30.868L136.622 25.776V22.128L141.714 21.406C143.918 21.102 145.59 20.722 146.73 20.266C147.87 19.7847 148.44 19.1387 148.44 18.328C148.44 17.644 148.174 17.112 147.642 16.732C147.136 16.352 146.414 16.162 145.476 16.162H143.386C142.398 16.162 141.689 16.352 141.258 16.732C140.828 17.112 140.612 17.5427 140.612 18.024V19.316H136.622V18.252C136.622 16.6307 137.268 15.3007 138.56 14.262C139.65 13.3753 140.904 12.8687 142.322 12.742C141.613 12.4127 140.967 11.944 140.384 11.336L140.346 11.298C138.978 12.6913 137.395 13.388 135.596 13.388C133.823 13.388 132.214 12.666 130.77 11.222L133.316 8.67599C134.127 9.53732 134.938 9.96799 135.748 9.96799C136.382 9.96799 136.977 9.66399 137.534 9.05599C138.092 8.42265 138.37 7.54865 138.37 6.43399V4.41999H129.06V0.999985H154.558V4.41999H152.43V6.39599C152.43 8.39732 151.772 10.0567 150.454 11.374C149.72 12.1087 148.884 12.6407 147.946 12.97C150.936 13.806 152.43 15.592 152.43 18.328C152.43 20.6333 151.024 22.3307 148.212 23.42C146.844 23.9267 145.413 24.3193 143.918 24.598L152.696 27.562L151.594 30.868ZM145.4 9.96799C146.312 9.96799 147.047 9.63865 147.604 8.97999C148.162 8.29599 148.44 7.43465 148.44 6.39599V4.41999H142.36V6.62398C142.36 7.68799 142.639 8.51132 143.196 9.09399C143.754 9.67665 144.488 9.96799 145.4 9.96799ZM181.883 24.636H177.893L162.769 20.57V17.796C162.845 14.5533 164.656 12.248 168.203 10.88C170.179 10.1453 171.167 9.23332 171.167 8.14399V6.81399C171.167 6.12999 170.926 5.55999 170.445 5.10399C169.989 4.64799 169.406 4.41999 168.697 4.41999C167.405 4.41999 166.759 5.15465 166.759 6.62398V8.94199H162.769V6.81399C162.769 5.19265 163.339 3.82465 164.479 2.70999C165.619 1.56999 167.025 0.999985 168.697 0.999985C170.495 0.999985 172.015 1.62065 173.257 2.86199C174.523 4.10332 175.157 5.61065 175.157 7.38399C175.157 8.42265 174.979 9.32199 174.625 10.082C174.295 10.8167 173.675 11.5133 172.763 12.172C171.648 12.9827 170.597 13.6033 169.609 14.034C168.773 14.3887 168.114 14.7813 167.633 15.212C167.05 15.744 166.759 16.4153 166.759 17.226V18.062L177.893 21.064V0.999985H184.467V4.41999H181.883V24.636ZM190.297 24.636H186.307V4.41999H183.723V0.999985H192.843V4.41999H190.297V24.636ZM211.38 24.636H207.39L194.052 18.366V15.364C194.052 13.768 194.508 12.3113 195.42 10.994C196.332 9.65132 197.687 8.70132 199.486 8.14399L207.39 5.71199V4.41999H191.924V0.999985H222.552V4.41999H211.38V5.74999H212.824C215.078 5.74999 216.978 6.40865 218.524 7.72599C220.094 9.01799 220.88 10.5887 220.88 12.438V12.97C220.88 14.6167 220.234 16.0227 218.942 17.188C217.675 18.328 216.142 18.898 214.344 18.898V15.478C215.028 15.478 215.623 15.2373 216.13 14.756C216.636 14.2747 216.89 13.6793 216.89 12.97V12.438C216.89 11.526 216.497 10.7533 215.712 10.12C214.952 9.48665 213.989 9.16999 212.824 9.16999H211.38V24.636ZM207.39 20.798V9.32199L200.816 11.336C198.966 11.8933 198.042 13.046 198.042 14.794V16.39L207.39 20.798ZM231.639 24.636C229.232 24.256 227.345 23.2553 225.977 21.634C224.609 19.9873 223.925 18.024 223.925 15.744V11.754C223.925 8.78999 224.685 6.34532 226.205 4.41999H221.797V0.999985H232.703V4.41999C231.36 4.44532 230.22 5.07865 229.283 6.31999C228.371 7.56132 227.915 9.18265 227.915 11.184V16.314C227.915 17.682 228.269 18.784 228.979 19.62C229.688 20.456 230.575 20.988 231.639 21.216V24.636ZM245.532 24.636H243.024C240.566 24.636 238.451 23.762 236.678 22.014C234.93 20.2407 234.056 18.1127 234.056 15.63V7.99199H238.046V15.934C238.046 17.302 238.527 18.5307 239.49 19.62C240.478 20.684 241.656 21.216 243.024 21.216H245.532C246.925 21.216 248.103 20.684 249.066 19.62C250.028 18.5307 250.51 17.302 250.51 15.934V12.248C250.51 11.564 250.282 10.9433 249.826 10.386C249.37 9.82865 248.8 9.54999 248.116 9.54999H247.736C247.254 9.54999 246.824 9.77799 246.444 10.234C246.089 10.69 245.912 11.1587 245.912 11.64V15.554H241.922V11.944C241.922 10.348 242.492 8.97999 243.632 7.83999C244.772 6.69999 246.266 6.12999 248.116 6.12999C249.889 6.12999 251.396 6.76332 252.638 8.02999C253.879 9.27132 254.5 10.766 254.5 12.514V15.63C254.5 18.1127 253.626 20.2407 251.878 22.014C250.13 23.762 248.014 24.636 245.532 24.636ZM256.628 4.41999H231.928V0.999985H256.628V4.41999ZM41.8739 69.636H37.8839V49.42H33.5139V69.636H29.5239L23.9759 65.76C22.1519 68.344 19.6946 69.636 16.6039 69.636H14.0959C11.6385 69.636 9.52322 68.762 7.74988 67.014C6.00188 65.2407 5.12788 63.1127 5.12788 60.63V52.992H9.11788V60.896C9.11788 62.2893 9.59922 63.5307 10.5619 64.62C11.5499 65.684 12.7279 66.216 14.0959 66.216H16.6039C17.9972 66.216 19.1752 65.684 20.1379 64.62C21.1006 63.5307 21.5819 62.2893 21.5819 60.896V57.248C21.5819 56.564 21.3539 55.9433 20.8979 55.386C20.4419 54.8287 19.8719 54.55 19.1879 54.55H18.8079C18.3266 54.55 17.8959 54.778 17.5159 55.234C17.1612 55.69 16.9839 56.1587 16.9839 56.64V60.554H12.9939V56.944C12.9939 55.348 13.5639 53.98 14.7039 52.84C15.8439 51.7 17.3386 51.13 19.1879 51.13C20.9612 51.13 22.4686 51.7633 23.7099 53.03C24.9512 54.2713 25.5719 55.766 25.5719 57.514C25.5719 60.1993 25.5212 61.8333 25.4199 62.416L29.5239 65.342V49.42H2.99988V46H44.4199V49.42H41.8739V69.636ZM66.2058 75.868L51.2338 70.776V67.128L56.3258 66.406C58.5298 66.102 60.2018 65.722 61.3418 65.266C62.4818 64.7847 63.0518 64.1387 63.0518 63.328C63.0518 62.644 62.7858 62.112 62.2538 61.732C61.7471 61.352 61.0251 61.162 60.0878 61.162H57.9978C57.0098 61.162 56.3004 61.352 55.8698 61.732C55.4391 62.112 55.2238 62.5427 55.2238 63.024V64.316H51.2338V63.252C51.2338 61.6307 51.8798 60.3007 53.1718 59.262C54.2611 58.3753 55.5151 57.8687 56.9338 57.742C56.2244 57.4127 55.5784 56.944 54.9958 56.336L54.9578 56.298C53.5898 57.6913 52.0064 58.388 50.2078 58.388C48.4344 58.388 46.8258 57.666 45.3818 56.222L47.9278 53.676C48.7384 54.5373 49.5491 54.968 50.3598 54.968C50.9931 54.968 51.5884 54.664 52.1458 54.056C52.7031 53.4227 52.9818 52.5487 52.9818 51.434V49.42H43.6718V46H69.1698V49.42H67.0418V51.396C67.0418 53.3973 66.3831 55.0567 65.0658 56.374C64.3311 57.1087 63.4951 57.6407 62.5578 57.97C65.5471 58.806 67.0418 60.592 67.0418 63.328C67.0418 65.6333 65.6358 67.3307 62.8238 68.42C61.4558 68.9267 60.0244 69.3193 58.5298 69.598L67.3078 72.562L66.2058 75.868ZM60.0118 54.968C60.9238 54.968 61.6584 54.6387 62.2158 53.98C62.7731 53.296 63.0518 52.4347 63.0518 51.396V49.42H56.9718V51.624C56.9718 52.688 57.2504 53.5113 57.8078 54.094C58.3651 54.6767 59.0998 54.968 60.0118 54.968ZM74.9977 69.636H71.0077V49.42H68.4237V46H77.5437V49.42H74.9977V69.636ZM102.909 69.636H98.919L85.581 63.366V60.364C85.581 58.768 86.037 57.3113 86.949 55.994C87.861 54.6513 89.2163 53.7013 91.015 53.144L98.919 50.712V49.42H83.453V46H105.493V49.42H102.909V69.636ZM98.919 65.798V54.322L92.345 56.336C90.4957 56.8933 89.571 58.046 89.571 59.794V61.39L98.919 65.798ZM90.483 72.562C89.8497 72.562 89.305 72.334 88.849 71.878C88.393 71.4473 88.165 70.9153 88.165 70.282C88.165 69.674 88.393 69.142 88.849 68.686C89.305 68.23 89.8497 68.002 90.483 68.002C91.091 68.002 91.6103 68.23 92.041 68.686C92.497 69.142 92.725 69.674 92.725 70.282C92.725 70.9153 92.497 71.4473 92.041 71.878C91.6103 72.334 91.091 72.562 90.483 72.562ZM111.291 69.636H107.301V49.42H104.717V46H113.837V49.42H111.291V69.636ZM134.16 69.636H130.17L115.046 65.57V62.796C115.122 59.5533 116.933 57.248 120.48 55.88C122.456 55.1453 123.444 54.322 123.444 53.41V52.992C122.684 53.296 121.861 53.448 120.974 53.448C119.302 53.448 117.896 52.8907 116.756 51.776C115.616 50.636 115.046 49.2553 115.046 47.634V46H119.036V47.824C119.036 49.2933 119.682 50.028 120.974 50.028C121.683 50.028 122.266 49.8 122.722 49.344C123.203 48.888 123.444 48.318 123.444 47.634V46.38H127.434V52.84C127.434 55.348 125.585 57.4127 121.886 59.034C121.05 59.3887 120.391 59.7813 119.91 60.212C119.327 60.744 119.036 61.4153 119.036 62.226V63.062L130.17 66.064V46H136.744V49.42H134.16V69.636ZM127.945 80.846C126.095 80.846 124.601 80.39 123.461 79.478C122.295 78.566 121.713 77.388 121.713 75.944C121.713 74.5 122.27 73.322 123.385 72.41C124.474 71.498 125.804 71.042 127.375 71.042C128.337 71.042 129.275 71.1813 130.187 71.46V68.192H134.177V73.512L140.713 77.464L139.003 80.276L134.025 77.16C133.771 78.0973 133.227 78.8827 132.391 79.516C131.225 80.4027 129.743 80.846 127.945 80.846ZM127.793 77.692C129.389 77.692 130.187 77.008 130.187 75.64V74.842C129.3 74.4113 128.477 74.196 127.717 74.196C127.109 74.196 126.577 74.3353 126.121 74.614C125.665 74.918 125.437 75.3613 125.437 75.944C125.437 76.5267 125.677 76.9573 126.159 77.236C126.615 77.54 127.159 77.692 127.793 77.692ZM156.216 69.636H152.226V61.276C152.226 59.7307 151.681 58.4133 150.592 57.324C149.503 56.2347 148.185 55.69 146.64 55.69H146.146C145.031 55.69 144.081 56.0827 143.296 56.868C142.511 57.628 142.118 58.5653 142.118 59.68V60.288C142.118 61.2 142.447 61.9853 143.106 62.644C143.765 63.2773 144.537 63.594 145.424 63.594H146.944V67.014H145.424C143.423 67.014 141.7 66.368 140.256 65.076C138.837 63.7587 138.128 62.1627 138.128 60.288V59.68C138.128 57.628 138.913 55.88 140.484 54.436C142.055 52.992 143.942 52.27 146.146 52.27C148.578 52.27 150.605 52.8653 152.226 54.056V49.42H136V46H158.762V49.42H156.216V69.636Z" fill="white"/>
<path d="M184.48 69.636H180.49L166.962 65.57V62.226C166.962 60.706 167.418 59.3253 168.33 58.084C169.267 56.8173 170.496 55.9433 172.016 55.462L172.624 55.272L166.962 49.42H164.834V46H195.652V49.42H171.94L176.424 54.056L177.488 57.362L173.27 58.692C172.586 58.8947 172.029 59.2747 171.598 59.832C171.167 60.3893 170.952 60.9973 170.952 61.656V63.176L180.49 66.064V52.27H186.684C188.685 52.27 190.395 52.9287 191.814 54.246C193.258 55.538 193.98 57.2227 193.98 59.3C193.98 60.9467 193.334 62.3527 192.042 63.518C190.775 64.658 189.243 65.228 187.444 65.228V61.808C188.128 61.808 188.723 61.5673 189.23 61.086C189.737 60.5793 189.99 59.87 189.99 58.958C189.99 58.046 189.661 57.2733 189.002 56.64C188.369 56.0067 187.596 55.69 186.684 55.69H184.48V69.636ZM178.265 80.846C176.416 80.846 174.921 80.39 173.781 79.478C172.616 78.566 172.033 77.388 172.033 75.944C172.033 74.5 172.59 73.322 173.705 72.41C174.794 71.498 176.124 71.042 177.695 71.042C178.658 71.042 179.595 71.1813 180.507 71.46V68.192H184.497V73.512L191.033 77.464L189.323 80.276L184.345 77.16C184.092 78.0973 183.547 78.8827 182.711 79.516C181.546 80.4027 180.064 80.846 178.265 80.846ZM178.113 77.692C179.709 77.692 180.507 77.008 180.507 75.64V74.842C179.62 74.4113 178.797 74.196 178.037 74.196C177.429 74.196 176.897 74.3353 176.441 74.614C175.985 74.918 175.757 75.3613 175.757 75.944C175.757 76.5267 175.998 76.9573 176.479 77.236C176.935 77.54 177.48 77.692 178.113 77.692ZM208.04 69.636H205.988C203.531 69.636 201.416 68.762 199.642 67.014C197.894 65.2407 197.02 63.1253 197.02 60.668V52.992H201.01V60.934C201.01 62.302 201.492 63.5307 202.454 64.62C203.442 65.684 204.62 66.216 205.988 66.216H208.04C209.408 66.216 210.574 65.684 211.536 64.62C212.524 63.5307 213.018 62.302 213.018 60.934V60.212C212.486 60.3893 211.714 60.478 210.7 60.478C209.104 60.478 207.736 59.9207 206.596 58.806C205.456 57.6913 204.886 56.3233 204.886 54.702V49.42H194.892V46H219.136V49.42H208.876V55.006C208.876 55.69 209.054 56.2093 209.408 56.564C209.763 56.8933 210.194 57.058 210.7 57.058H211.232C211.739 57.058 212.157 56.8807 212.486 56.526C212.841 56.1713 213.018 55.6647 213.018 55.006V54.132H217.008V60.668C217.008 63.1253 216.134 65.2407 214.386 67.014C212.638 68.762 210.523 69.636 208.04 69.636ZM235.065 72.638L220.511 66.52V62.72L225.603 61.846C227.781 61.466 229.453 60.9847 230.619 60.402C231.784 59.794 232.367 58.996 232.367 58.008V57.248C232.367 56.488 232.088 55.8547 231.531 55.348C230.973 54.816 230.264 54.55 229.403 54.55H227.313C226.375 54.55 225.666 54.816 225.185 55.348C224.729 55.8547 224.501 56.5133 224.501 57.324V59.338H220.511V57.628C220.511 55.8293 221.144 54.2967 222.411 53.03C223.677 51.7633 225.21 51.13 227.009 51.13H229.669C231.518 51.13 233.089 51.7253 234.381 52.916C235.698 54.1067 236.357 55.5507 236.357 57.248V58.008C236.357 60.3387 234.976 62.15 232.215 63.442C230.416 64.3033 228.503 64.8987 226.477 65.228L236.395 69.408L235.065 72.638ZM238.485 49.42H218.383V46H232.367V45.126C232.367 44.5433 232.151 44.0493 231.721 43.644C231.315 43.2133 230.821 42.998 230.239 42.998H225.565C224.171 42.998 222.981 42.5167 221.993 41.554C221.005 40.566 220.511 39.3627 220.511 37.944H224.501V38.248C224.501 39.1347 224.957 39.578 225.869 39.578H230.239C231.911 39.578 233.342 40.186 234.533 41.402C235.749 42.5927 236.357 44.1253 236.357 46H238.485V49.42ZM248.357 69.636H247.255C245.329 69.636 243.683 68.952 242.315 67.584C240.972 66.216 240.301 64.5693 240.301 62.644V49.42H237.717V46H252.803V45.126C252.803 44.5433 252.587 44.0493 252.157 43.644C251.751 43.2133 251.257 42.998 250.675 42.998H245.355C243.936 42.998 242.733 42.5167 241.745 41.554C240.782 40.566 240.301 39.3627 240.301 37.944H244.291V38.248C244.291 39.1347 244.734 39.578 245.621 39.578H250.675C252.347 39.578 253.778 40.186 254.969 41.402C256.185 42.5927 256.793 44.1253 256.793 46H258.921V49.42H244.291V62.644C244.291 63.632 244.569 64.4807 245.127 65.19C245.709 65.874 246.419 66.216 247.255 66.216H248.357C249.573 66.216 250.611 65.7853 251.473 64.924C252.359 64.0627 252.803 63.0113 252.803 61.77V61.086C252.803 60.1233 252.448 59.3 251.739 58.616C251.029 57.9067 250.193 57.552 249.231 57.552H247.597V54.132H249.231C251.308 54.132 253.081 54.816 254.551 56.184C256.045 57.5267 256.793 59.1607 256.793 61.086V61.77C256.793 63.9487 255.957 65.8107 254.285 67.356C252.638 68.876 250.662 69.636 248.357 69.636ZM287.564 69.636H283.612V68.61C283.612 68.0273 283.397 67.508 282.966 67.052C282.535 66.596 282.016 66.368 281.408 66.368C281.028 66.368 280.686 66.4693 280.382 66.672L275.138 69.636H274.378C272.377 69.636 270.667 68.9267 269.248 67.508C267.829 66.0893 267.12 64.392 267.12 62.416V58.084H271.11V62.416C271.11 63.4293 271.414 64.3033 272.022 65.038C272.63 65.7473 273.327 66.14 274.112 66.216L278.406 63.784C279.343 63.2267 280.344 62.948 281.408 62.948C282.193 62.948 282.928 63.0873 283.612 63.366V53.296C283.612 52.232 283.27 51.32 282.586 50.56C281.927 49.8 281.104 49.42 280.116 49.42H279.66C278.849 49.42 278.165 49.7493 277.608 50.408C277.076 51.0413 276.81 51.9533 276.81 53.144C276.81 53.904 277.076 54.55 277.608 55.082C278.14 55.614 278.761 55.88 279.47 55.88H280.04V59.3H278.9C277.203 59.3 275.759 58.7047 274.568 57.514C273.403 56.3233 272.82 54.8667 272.82 53.144V52.726C272.82 50.8513 273.466 49.268 274.758 47.976C276.075 46.6587 277.659 46 279.508 46H280.268C282.269 46 283.979 46.7093 285.398 48.128C286.842 49.5467 287.564 51.2693 287.564 53.296V69.636Z" fill="#F6FF00"/>
</g>
<defs>
<filter id="filter0_d_219_2033" x="0" y="0" width="292.564" height="87.8459" filterUnits="userSpaceOnUse" color-interpolation-filters="sRGB">
<feFlood flood-opacity="0" result="BackgroundImageFix"/>
<feColorMatrix in="SourceAlpha" type="matrix" values="0 0 0 0 0 0 0 0 0 0 0 0 0 0 0 0 0 0 127 0" result="hardAlpha"/>
<feOffset dx="1" dy="3"/>
<feGaussianBlur stdDeviation="2"/>
<feComposite in2="hardAlpha" operator="out"/>
<feColorMatrix type="matrix" values="0 0 0 0 0 0 0 0 0 0 0 0 0 0 0 0 0 0 0.6 0"/>
<feBlend mode="normal" in2="BackgroundImageFix" result="effect1_dropShadow_219_2033"/>
<feBlend mode="normal" in="SourceGraphic" in2="effect1_dropShadow_219_2033" result="shape"/>
</filter>
</defs>
</svg>
