<svg width="278" height="60" viewBox="0 0 278 60" fill="none" xmlns="http://www.w3.org/2000/svg">
<g filter="url(#filter0_d_206_560)">
<path d="M28.917 20.952H26.925V7.77603H23.805V20.952H21.813L18.189 18.408C17.981 18.728 17.725 19.04 17.421 19.344C16.365 20.4 15.093 20.928 13.605 20.928H12.021C10.533 20.928 9.26105 20.4 8.20505 19.344C7.14905 18.288 6.62105 17.016 6.62105 15.528V10.392H8.61305V15.648C8.61305 16.592 8.94905 17.416 9.62105 18.12C10.293 18.824 11.093 19.176 12.021 19.176H13.605C14.549 19.176 15.349 18.824 16.005 18.12C16.677 17.416 17.013 16.592 17.013 15.648V12.864C17.013 12.368 16.837 11.928 16.485 11.544C16.149 11.16 15.653 10.968 14.997 10.968C14.613 10.968 14.277 11.128 13.989 11.448C13.717 11.768 13.581 12.12 13.581 12.504V15.264H11.589V12.624C11.589 11.68 11.925 10.88 12.597 10.224C13.269 9.55203 14.149 9.21603 15.237 9.21603C16.277 9.21603 17.165 9.58403 17.901 10.32C18.637 11.056 19.005 11.944 19.005 12.984V15.528C19.005 15.928 18.965 16.312 18.885 16.68L21.813 18.744V7.77603H5.13305V6.02403H30.717V7.77603H28.917V20.952ZM43.1946 20.952H41.2026V14.784L33.0666 17.904L32.4426 16.248L35.1546 15.192C35.1546 14.536 34.9146 13.968 34.4346 13.488C33.9546 12.992 33.3786 12.744 32.7066 12.744H31.7226V10.704C31.7226 9.42403 32.1786 8.32803 33.0906 7.41603C34.0026 6.48803 35.1066 6.02403 36.4026 6.02403H37.4346C38.8746 6.02403 40.1306 6.49603 41.2026 7.44003V6.02403H44.9946V7.77603H43.1946V20.952ZM37.0506 14.472L41.2026 12.864V11.544C41.2026 10.504 40.8346 9.61603 40.0986 8.88003C39.3626 8.14403 38.4746 7.77603 37.4346 7.77603H36.4026C35.6666 7.77603 35.0346 8.04003 34.5066 8.56803C33.9786 9.09603 33.7146 9.73603 33.7146 10.488V11.136C34.6586 11.36 35.4666 11.864 36.1386 12.648C36.6026 13.192 36.9066 13.8 37.0506 14.472ZM56.892 20.952H54.9V15.48C54.9 14.44 54.532 13.552 53.796 12.816C53.06 12.064 52.164 11.688 51.108 11.688H50.796C50.028 11.688 49.364 11.96 48.804 12.504C48.26 13.048 47.988 13.704 47.988 14.472V14.976C47.988 15.632 48.22 16.192 48.684 16.656C49.148 17.104 49.7 17.328 50.34 17.328H51.3V19.08H50.34C49.156 19.08 48.132 18.68 47.268 17.88C46.42 17.08 45.996 16.112 45.996 14.976V14.472C45.996 13.208 46.46 12.136 47.388 11.256C48.332 10.376 49.468 9.93603 50.796 9.93603H51.108C52.564 9.93603 53.828 10.408 54.9 11.352V7.77603H44.508V6.02403H58.692V7.77603H56.892V20.952ZM62.011 20.952H60.019V7.77603H58.219V6.02403H63.811V7.77603H62.011V20.952ZM75.1386 20.952H73.1466L64.7226 16.992V14.832C64.7226 13.856 64.9866 12.984 65.5146 12.216C66.0586 11.432 66.8746 10.872 67.9626 10.536L73.1466 8.97603V7.77603H63.2346V6.02403H76.9386V7.77603H75.1386V20.952ZM73.1466 18.984V10.824L68.6346 12.192C67.3546 12.576 66.7146 13.376 66.7146 14.592V15.96L73.1466 18.984ZM67.7946 22.608C67.4586 22.608 67.1626 22.488 66.9066 22.248C66.6666 22.008 66.5466 21.72 66.5466 21.384C66.5466 21.048 66.6666 20.76 66.9066 20.52C67.1626 20.264 67.4586 20.136 67.7946 20.136C68.1306 20.136 68.4186 20.264 68.6586 20.52C68.8986 20.76 69.0186 21.048 69.0186 21.384C69.0186 21.72 68.8986 22.008 68.6586 22.248C68.4186 22.488 68.1306 22.608 67.7946 22.608ZM94.6379 20.952H92.6459V20.496C92.6459 20.064 92.4859 19.68 92.1659 19.344C91.8459 19.008 91.4619 18.84 91.0139 18.84C90.7419 18.84 90.4779 18.912 90.2219 19.056L86.9099 20.928V20.952H86.5739C85.3739 20.952 84.3499 20.528 83.5019 19.68C82.6699 18.832 82.2539 17.816 82.2539 16.632V13.608H84.2459V16.632C84.2459 17.336 84.4779 17.936 84.9419 18.432C85.3419 18.896 85.8219 19.152 86.3819 19.2L89.2379 17.568C89.7979 17.248 90.3899 17.088 91.0139 17.088C91.6219 17.088 92.1659 17.216 92.6459 17.472V10.368C92.6459 9.64803 92.4139 9.04003 91.9499 8.54403C91.4859 8.03203 90.9099 7.77603 90.2219 7.77603H89.8619C89.3019 7.77603 88.8219 8.00003 88.4219 8.44803C88.0379 8.88003 87.8459 9.42403 87.8459 10.08V10.512C87.8459 11.072 88.0219 11.536 88.3739 11.904C88.7419 12.272 89.1739 12.456 89.6699 12.456H90.1259V14.208H89.4299C88.4379 14.208 87.5899 13.856 86.8859 13.152C86.1979 12.448 85.8539 11.568 85.8539 10.512V10.08C85.8539 8.92803 86.2379 7.96803 87.0059 7.20003C87.7899 6.41603 88.7259 6.02403 89.8139 6.02403H90.2939C91.4939 6.02403 92.5179 6.44803 93.3659 7.29603C94.2139 8.14403 94.6379 9.16803 94.6379 10.368V20.952ZM106.249 22.44L97.4414 18.552V16.632L100.441 16.104C101.945 15.832 103.065 15.48 103.801 15.048C104.553 14.616 104.929 14.072 104.929 13.416V12.936C104.929 12.392 104.729 11.928 104.329 11.544C103.945 11.16 103.449 10.968 102.841 10.968H101.401C100.793 10.968 100.313 11.152 99.9614 11.52C99.6094 11.888 99.4334 12.36 99.4334 12.936V14.256H97.4414V13.056C97.4414 12 97.8174 11.096 98.5694 10.344C99.3214 9.59203 100.225 9.21603 101.281 9.21603H102.961C104.049 9.21603 104.977 9.57603 105.745 10.296C106.529 11.016 106.921 11.896 106.921 12.936V13.416C106.921 14.84 106.097 15.952 104.449 16.752C103.377 17.248 102.017 17.64 100.369 17.928L106.945 20.808L106.249 22.44ZM108.409 7.77603H95.9534V6.02403H104.929V5.42403C104.929 4.97603 104.769 4.60003 104.449 4.29603C104.145 3.97603 103.769 3.81603 103.321 3.81603H100.369C99.5694 3.81603 98.8814 3.53603 98.3054 2.97603C97.7294 2.40003 97.4414 1.70403 97.4414 0.888026H99.4334C99.4334 1.67203 99.7854 2.06402 100.489 2.06402H103.321C104.313 2.06402 105.161 2.41603 105.865 3.12003C106.569 3.82403 106.921 4.67203 106.921 5.66403V6.02403H108.409V7.77603ZM124.866 20.952H122.874V18C122.874 17.2 122.594 16.52 122.034 15.96C121.474 15.4 120.802 15.12 120.018 15.12H119.61C119.514 16.32 119.05 17.36 118.218 18.24C117.258 19.248 116.106 19.752 114.762 19.752H113.73V18H114.522C115.434 18 116.178 17.664 116.754 16.992C117.346 16.32 117.642 15.52 117.642 14.592V14.208C117.642 13.28 117.346 12.488 116.754 11.832C116.162 11.16 115.41 10.824 114.498 10.824H113.73V7.77603H112.242V6.02403H126.666V7.77603H124.866V20.952ZM122.874 14.304V7.77603H115.722V9.21603C116.858 9.47203 117.794 10.056 118.53 10.968C119.09 11.688 119.434 12.488 119.562 13.368H120.018C121.106 13.368 122.058 13.68 122.874 14.304ZM138.812 20.952H136.82V17.832C136.82 16.984 136.492 16.272 135.836 15.696C135.196 15.104 134.42 14.808 133.508 14.808H131.876C131.268 14.808 130.748 15.008 130.316 15.408C129.884 15.808 129.668 16.296 129.668 16.872C129.668 17.4 129.852 17.824 130.22 18.144C130.588 18.448 131.012 18.6 131.492 18.6H132.74V20.352H131.492C130.468 20.352 129.572 20.032 128.804 19.392C128.052 18.736 127.676 17.896 127.676 16.872C127.676 15.8 128.084 14.896 128.9 14.16C129.636 13.488 130.524 13.12 131.564 13.056C131.516 12.48 131.236 11.976 130.724 11.544C130.148 11.08 129.46 10.848 128.66 10.848H127.676V7.77603H126.188V6.02403H140.612V7.77603H138.812V20.952ZM136.82 14.16V7.77603H129.668V9.21603C130.804 9.44003 131.74 9.94403 132.476 10.728C133.1 11.4 133.452 12.176 133.532 13.056C134.78 13.056 135.876 13.424 136.82 14.16ZM152.757 20.952H150.765V18C150.765 17.2 150.485 16.52 149.925 15.96C149.365 15.4 148.693 15.12 147.909 15.12H147.501C147.405 16.32 146.941 17.36 146.109 18.24C145.149 19.248 143.997 19.752 142.653 19.752H141.621V18H142.413C143.325 18 144.069 17.664 144.645 16.992C145.237 16.32 145.533 15.52 145.533 14.592V14.208C145.533 13.28 145.237 12.488 144.645 11.832C144.053 11.16 143.301 10.824 142.389 10.824H141.621V7.77603H140.133V6.02403H154.557V7.77603H152.757V20.952ZM150.765 14.304V7.77603H143.613V9.21603C144.749 9.47203 145.685 10.056 146.421 10.968C146.981 11.688 147.325 12.488 147.453 13.368H147.909C148.997 13.368 149.949 13.68 150.765 14.304ZM155.542 21.072H155.254V19.32C156.07 19.32 156.71 19.064 157.174 18.552C157.654 18.024 157.894 17.368 157.894 16.584V15.768L156.142 12.696C155.758 11.976 155.566 11.24 155.566 10.488C155.566 9.44803 155.878 8.54403 156.502 7.77603H154.078V6.02403H161.062V7.77603H160.102C159.414 7.77603 158.814 8.01603 158.302 8.49603C157.806 8.97603 157.558 9.56003 157.558 10.248C157.558 10.808 157.702 11.36 157.99 11.904L159.886 15.24V16.44C159.886 17.816 159.446 18.936 158.566 19.8C157.702 20.648 156.694 21.072 155.542 21.072ZM164.386 20.952H162.394V7.77603H160.594V6.02403H166.186V7.77603H164.386V20.952ZM177.514 20.952H175.522L167.098 16.992V14.832C167.098 13.856 167.362 12.984 167.89 12.216C168.434 11.432 169.25 10.872 170.338 10.536L175.522 8.97603V7.77603H165.61V6.02403H179.314V7.77603H177.514V20.952ZM175.522 18.984V10.824L171.01 12.192C169.73 12.576 169.09 13.376 169.09 14.592V15.96L175.522 18.984ZM170.17 22.608C169.834 22.608 169.538 22.488 169.282 22.248C169.042 22.008 168.922 21.72 168.922 21.384C168.922 21.048 169.042 20.76 169.282 20.52C169.538 20.264 169.834 20.136 170.17 20.136C170.506 20.136 170.794 20.264 171.034 20.52C171.274 20.76 171.394 21.048 171.394 21.384C171.394 21.72 171.274 22.008 171.034 22.248C170.794 22.488 170.506 22.608 170.17 22.608ZM195.045 20.952H193.053L184.629 16.992V14.832C184.629 13.856 184.893 12.984 185.421 12.216C185.965 11.432 186.781 10.872 187.869 10.536L193.053 8.97603V7.77603H183.141V6.02403H202.125V7.77603H195.045V8.97603H196.125C197.485 8.97603 198.629 9.37603 199.557 10.176C200.485 10.96 200.949 11.92 200.949 13.056V13.512C200.949 14.52 200.573 15.376 199.821 16.08C199.069 16.768 198.157 17.112 197.085 17.112V15.36C197.597 15.36 198.037 15.184 198.405 14.832C198.773 14.464 198.957 14.024 198.957 13.512V13.056C198.957 12.416 198.685 11.872 198.141 11.424C197.613 10.96 196.941 10.728 196.125 10.728H195.045V20.952ZM193.053 18.984V10.824L188.541 12.192C187.261 12.576 186.621 13.376 186.621 14.592V15.96L193.053 18.984ZM205.448 20.952H203.456V7.77603H201.656V6.02403H207.248V7.77603H205.448V20.952ZM218.576 20.952H216.584L208.16 16.992V14.832C208.16 13.856 208.424 12.984 208.952 12.216C209.496 11.432 210.312 10.872 211.4 10.536L216.584 8.97603V7.77603H206.672V6.02403H220.376V7.77603H218.576V20.952ZM216.584 18.984V10.824L212.072 12.192C210.792 12.576 210.152 13.376 210.152 14.592V15.96L216.584 18.984ZM211.232 22.608C210.896 22.608 210.6 22.488 210.344 22.248C210.104 22.008 209.984 21.72 209.984 21.384C209.984 21.048 210.104 20.76 210.344 20.52C210.6 20.264 210.896 20.136 211.232 20.136C211.568 20.136 211.856 20.264 212.096 20.52C212.336 20.76 212.456 21.048 212.456 21.384C212.456 21.72 212.336 22.008 212.096 22.248C211.856 22.488 211.568 22.608 211.232 22.608ZM225.987 20.952C224.579 20.728 223.459 20.112 222.627 19.104C221.795 18.096 221.379 16.928 221.379 15.6V12.624C221.379 10.656 221.891 9.07203 222.915 7.87203L222.987 7.77603H219.891V6.02403H226.659V7.77603C225.747 7.79203 224.971 8.22403 224.331 9.07203C223.691 9.90403 223.371 11.008 223.371 12.384V15.84C223.371 16.688 223.611 17.424 224.091 18.048C224.587 18.656 225.219 19.04 225.987 19.2V20.952ZM238.556 20.952H236.564V11.568C236.564 10.528 236.196 9.64003 235.46 8.90403C234.724 8.15203 233.828 7.77603 232.772 7.77603H232.46C231.692 7.77603 231.028 8.04803 230.468 8.59203C229.924 9.13603 229.652 9.79203 229.652 10.56V11.472C229.652 12.128 229.884 12.688 230.348 13.152C230.812 13.6 231.364 13.824 232.004 13.824H232.964V15.576H232.004C230.82 15.576 229.796 15.176 228.932 14.376C228.084 13.576 227.66 12.608 227.66 11.472V10.56C227.66 9.29603 228.124 8.22403 229.052 7.34403C229.996 6.46403 231.132 6.02403 232.46 6.02403H232.772C234.228 6.02403 235.492 6.49603 236.564 7.44003V6.02403H240.356V7.77603H238.556V20.952ZM247.988 20.952H245.996V7.77603H244.196V6.02403H245.996V5.18403C245.996 4.27203 246.22 3.42403 246.668 2.64003C247.132 1.84003 247.748 1.21603 248.516 0.768026C249.284 0.304025 249.892 0.0640249 250.34 0.0480251C250.804 0.0160255 251.124 2.57492e-05 251.3 2.57492e-05C251.876 2.57492e-05 252.452 0.0400257 253.028 0.120026L259.604 0.984026L259.364 2.71203C254.468 2.07203 251.868 1.75203 251.564 1.75203C250.732 1.75203 250.068 1.91203 249.572 2.23203C248.516 2.92003 247.988 3.82403 247.988 4.94403V6.02403H249.788V7.77603H247.988V20.952ZM261.115 20.952H259.123L250.699 16.992V14.832C250.699 13.856 250.963 12.984 251.491 12.216C252.035 11.432 252.851 10.872 253.939 10.536L259.123 8.97603V7.77603H249.211V6.02403H268.195V7.77603H261.115V8.97603H262.195C263.555 8.97603 264.699 9.37603 265.627 10.176C266.555 10.96 267.019 11.92 267.019 13.056V13.512C267.019 14.52 266.643 15.376 265.891 16.08C265.139 16.768 264.227 17.112 263.155 17.112V15.36C263.667 15.36 264.107 15.184 264.475 14.832C264.843 14.464 265.027 14.024 265.027 13.512V13.056C265.027 12.416 264.755 11.872 264.211 11.424C263.683 10.96 263.011 10.728 262.195 10.728H261.115V20.952ZM259.123 18.984V10.824L254.611 12.192C253.331 12.576 252.691 13.376 252.691 14.592V15.96L259.123 18.984ZM187.127 50.952C185.719 50.728 184.599 50.112 183.767 49.104C182.935 48.096 182.519 46.928 182.519 45.6V42.624C182.519 40.656 183.031 39.072 184.055 37.872C184.583 37.264 185.167 36.8 185.807 36.48V35.424C185.807 34.976 185.647 34.6 185.327 34.296C185.023 33.976 184.647 33.816 184.199 33.816H183.479C182.679 33.816 181.991 33.536 181.415 32.976C180.839 32.4 180.551 31.704 180.551 30.888H182.543C182.543 31.672 182.895 32.064 183.599 32.064H184.199C185.191 32.064 186.039 32.416 186.743 33.12C187.447 33.824 187.799 34.672 187.799 35.664V37.776C186.887 37.792 186.111 38.224 185.471 39.072C184.831 39.904 184.511 41.008 184.511 42.384V45.84C184.511 46.688 184.751 47.424 185.231 48.048C185.727 48.656 186.359 49.04 187.127 49.2V50.952ZM195.785 50.952H194.201C192.713 50.952 191.441 50.424 190.385 49.368C189.329 48.312 188.801 47.032 188.801 45.528V40.392H190.793V45.648C190.793 46.592 191.129 47.424 191.801 48.144C192.473 48.848 193.273 49.2 194.201 49.2H195.785C196.729 49.2 197.529 48.848 198.185 48.144C198.857 47.424 199.193 46.592 199.193 45.648V42.864C199.193 42.368 199.017 41.928 198.665 41.544C198.329 41.16 197.833 40.968 197.177 40.968C196.793 40.968 196.457 41.128 196.169 41.448C195.897 41.768 195.761 42.12 195.761 42.504V45.264H193.769V42.624C193.769 41.68 194.105 40.88 194.777 40.224C195.449 39.552 196.329 39.216 197.417 39.216C198.457 39.216 199.345 39.584 200.081 40.32C200.817 41.056 201.185 41.944 201.185 42.984V45.528C201.185 47.032 200.657 48.312 199.601 49.368C198.545 50.424 197.273 50.952 195.785 50.952ZM202.673 37.776H187.313V36.024H202.673V37.776ZM205.988 50.952H203.996V37.776H202.196V36.024H203.996V35.184C203.996 34.272 204.22 33.424 204.668 32.64C205.132 31.84 205.748 31.216 206.516 30.768C207.284 30.304 207.892 30.064 208.34 30.048C208.804 30.016 209.124 30 209.3 30C209.876 30 210.452 30.04 211.028 30.12L217.604 30.984L217.364 32.712C212.468 32.072 209.868 31.752 209.564 31.752C208.732 31.752 208.068 31.912 207.572 32.232C206.516 32.92 205.988 33.824 205.988 34.944V36.024H207.788V37.776H205.988V50.952ZM219.115 50.952H217.123L208.699 46.992V44.832C208.699 43.856 208.963 42.984 209.491 42.216C210.035 41.432 210.851 40.872 211.939 40.536L217.123 38.976V37.776H207.211V36.024H220.915V37.776H219.115V50.952ZM217.123 48.984V40.824L212.611 42.192C211.331 42.576 210.691 43.376 210.691 44.592V45.96L217.123 48.984ZM211.771 52.608C211.435 52.608 211.139 52.488 210.883 52.248C210.643 52.008 210.523 51.72 210.523 51.384C210.523 51.048 210.643 50.76 210.883 50.52C211.139 50.264 211.435 50.136 211.771 50.136C212.107 50.136 212.395 50.264 212.635 50.52C212.875 50.76 212.995 51.048 212.995 51.384C212.995 51.72 212.875 52.008 212.635 52.248C212.395 52.488 212.107 52.608 211.771 52.608ZM235.038 52.44L226.23 48.552V46.632L229.23 46.104C232.222 45.56 233.718 44.664 233.718 43.416V42.936C233.718 42.392 233.518 41.928 233.118 41.544C232.734 41.16 232.238 40.968 231.63 40.968H230.19C229.582 40.968 229.102 41.152 228.75 41.52C228.398 41.888 228.222 42.36 228.222 42.936V44.256H226.23V43.056C226.23 42 226.606 41.096 227.358 40.344C228.11 39.592 229.014 39.216 230.07 39.216H231.75C232.838 39.216 233.766 39.576 234.534 40.296C235.318 41.016 235.71 41.896 235.71 42.936V43.416C235.71 44.84 234.886 45.952 233.238 46.752C232.166 47.248 230.806 47.64 229.158 47.928L235.734 50.808L235.038 52.44ZM237.198 37.776H224.742V36.024H237.198V37.776ZM242.815 50.952C241.407 50.728 240.287 50.112 239.455 49.104C238.623 48.096 238.207 46.928 238.207 45.6V42.624C238.207 40.656 238.719 39.072 239.743 37.872L239.815 37.776H236.719V36.024H243.487V37.776C242.575 37.792 241.799 38.224 241.159 39.072C240.519 39.904 240.199 41.008 240.199 42.384V45.84C240.199 46.688 240.439 47.424 240.919 48.048C241.415 48.656 242.047 49.04 242.815 49.2V50.952ZM248.664 48.72H248.376C247.4 48.72 246.56 48.376 245.856 47.688C245.152 46.984 244.8 46.144 244.8 45.168V37.776H243V36.024H251.664V37.776H246.768V39.096L250.464 39.84C251.296 40.016 251.984 40.424 252.528 41.064C253.072 41.688 253.344 42.416 253.344 43.248V44.064C253.344 45.344 252.88 46.44 251.952 47.352C251.04 48.264 249.944 48.72 248.664 48.72ZM248.664 46.944C249.416 46.944 250.056 46.664 250.584 46.104C251.112 45.528 251.376 44.848 251.376 44.064V43.248C251.376 42.816 251.24 42.448 250.968 42.144C250.712 41.824 250.4 41.624 250.032 41.544L246.768 40.896V45.168C246.768 45.664 246.928 46.088 247.248 46.44C247.568 46.776 247.944 46.944 248.376 46.944H248.664ZM263.924 52.536L253.46 49.032V47.184H253.484L253.46 47.16C254.98 46.888 256.492 46.624 257.996 46.368C259.516 46.096 260.644 45.744 261.38 45.312C262.116 44.88 262.484 44.336 262.484 43.68C262.484 43.184 262.292 42.76 261.908 42.408C261.524 42.056 261.044 41.816 260.468 41.688L259.844 41.568C259.844 42.704 259.492 43.6 258.788 44.256C258.1 44.912 257.172 45.24 256.004 45.24C255.156 45.24 254.436 44.976 253.844 44.448C253.268 43.904 252.98 43.256 252.98 42.504V37.776H251.18V36.024H265.964V37.776H254.972V38.808L260.9 39.984C261.988 40.224 262.852 40.712 263.492 41.448C264.148 42.168 264.476 42.912 264.476 43.68C264.476 45.104 263.652 46.216 262.004 47.016C260.852 47.544 259.628 47.912 258.332 48.12L256.964 48.336L264.476 50.832L263.924 52.536ZM256.172 43.488C256.668 43.488 257.084 43.36 257.42 43.104C257.772 42.832 257.948 42.456 257.948 41.976C257.948 41.432 257.628 41.104 256.988 40.992C256.364 40.864 255.724 40.736 255.068 40.608V42.576C255.068 42.864 255.172 43.088 255.38 43.248C255.588 43.408 255.852 43.488 256.172 43.488ZM271.165 46.8H269.173V45.36C269.173 44.384 269.517 43.576 270.205 42.936C270.909 42.296 271.709 41.832 272.605 41.544C273.853 41.176 274.477 40.464 274.477 39.408C274.477 38.704 274.245 38.12 273.781 37.656C273.317 37.176 272.765 36.936 272.125 36.936H271.645C270.989 36.936 270.429 37.168 269.965 37.632C269.501 38.096 269.269 38.648 269.269 39.288V40.464H267.277V39.288C267.277 38.152 267.701 37.184 268.549 36.384C269.413 35.584 270.445 35.184 271.645 35.184H272.125C273.325 35.184 274.349 35.584 275.197 36.384C276.045 37.184 276.469 38.152 276.469 39.288V39.648C276.469 40.448 276.173 41.168 275.581 41.808C274.989 42.448 274.221 42.912 273.277 43.2C272.909 43.312 272.565 43.448 272.245 43.608C271.941 43.768 271.685 43.984 271.477 44.256C271.269 44.512 271.165 44.848 271.165 45.264V46.8ZM270.181 50.952C269.845 50.952 269.549 50.832 269.293 50.592C269.053 50.352 268.933 50.064 268.933 49.728C268.933 49.392 269.053 49.104 269.293 48.864C269.549 48.608 269.845 48.48 270.181 48.48C270.517 48.48 270.805 48.608 271.045 48.864C271.285 49.104 271.405 49.392 271.405 49.728C271.405 50.064 271.285 50.352 271.045 50.592C270.805 50.832 270.517 50.952 270.181 50.952Z" fill="white"/>
<path d="M12.7682 50.952H9.72023V45.792C9.72023 45.376 9.63223 45.008 9.45623 44.688C9.28023 44.368 9.05623 44.168 8.78423 44.088L4.48823 48.12H1.44023V38.592H0.000234358V36.024H14.2082V38.592H4.48823V44.424L7.60823 41.472H8.47223C9.65623 41.472 10.6642 41.896 11.4962 42.744C12.3442 43.592 12.7682 44.608 12.7682 45.792V50.952ZM18.2226 50.952H15.1746V38.592H13.7346V36.024H19.6626V38.592H18.2226V50.952ZM28.7024 44.04C27.9984 44.04 27.4224 43.952 26.9744 43.776C26.5264 43.584 26.1344 43.384 25.7984 43.176C25.2064 42.808 24.6944 42.624 24.2624 42.624C23.6384 42.624 23.3264 43.096 23.3264 44.04H20.2784C20.2784 42.936 20.6464 41.992 21.3824 41.208C21.7824 40.792 22.2544 40.488 22.7984 40.296C22.7184 39.992 22.3904 39.84 21.8144 39.84H20.2784V38.592H19.0784V36.024H28.6784C30.0384 36.024 31.1584 36.4 32.0384 37.152C32.9344 37.904 33.3824 38.776 33.3824 39.768C33.3824 40.904 32.9504 41.904 32.0864 42.768C31.2224 43.616 30.0944 44.04 28.7024 44.04ZM28.7024 41.472C29.1824 41.472 29.5744 41.32 29.8784 41.016C30.1824 40.696 30.3344 40.36 30.3344 40.008C30.3344 39.608 30.1824 39.272 29.8784 39C29.5904 38.728 29.1904 38.592 28.6784 38.592H25.0784L25.2224 38.712C25.6224 39.16 25.8464 39.688 25.8944 40.296L25.9664 40.32C26.3984 40.496 26.7744 40.688 27.0944 40.896C27.7024 41.28 28.2384 41.472 28.7024 41.472ZM42.861 50.952H39.813V45.6L31.965 48.624L31.029 46.176L33.765 45.12C33.765 44.608 33.573 44.16 33.189 43.776C32.805 43.392 32.357 43.2 31.845 43.2H30.333V41.232C30.333 39.808 30.837 38.584 31.845 37.56C32.869 36.536 34.101 36.024 35.541 36.024H36.573C37.773 36.024 38.853 36.32 39.813 36.912V36.024H44.301V38.592H42.861V50.952ZM36.573 44.04L39.813 42.792V41.832C39.813 40.952 39.493 40.192 38.853 39.552C38.229 38.912 37.469 38.592 36.573 38.592H35.541C34.949 38.592 34.437 38.808 34.005 39.24C33.589 39.656 33.381 40.208 33.381 40.896C34.389 41.232 35.213 41.824 35.853 42.672C36.173 43.104 36.413 43.56 36.573 44.04ZM52.5404 50.952H50.9564C49.3244 50.952 47.9244 50.376 46.7564 49.224C45.6044 48.056 45.0284 46.648 45.0284 45V40.512H48.0764V45.24C48.0764 46.04 48.3564 46.768 48.9164 47.424C49.4924 48.064 50.1724 48.384 50.9564 48.384H52.5404C53.3404 48.384 54.0204 48.064 54.5804 47.424C55.1404 46.768 55.4204 46.04 55.4204 45.24V43.368C55.4204 43.016 55.3004 42.68 55.0604 42.36C54.8204 42.04 54.5244 41.88 54.1724 41.88H53.9324C53.6924 41.88 53.4844 42.008 53.3084 42.264C53.1324 42.52 53.0444 42.768 53.0444 43.008V45.168H49.9964V43.248C49.9964 42.16 50.3804 41.232 51.1484 40.464C51.9164 39.696 52.9244 39.312 54.1724 39.312C55.3564 39.312 56.3644 39.736 57.1964 40.584C58.0444 41.416 58.4684 42.424 58.4684 43.608V45C58.4684 46.648 57.8844 48.056 56.7164 49.224C55.5644 50.376 54.1724 50.952 52.5404 50.952ZM59.6684 38.592H43.8284V36.024H59.6684V38.592ZM60.5719 51.192H60.1399V48.624C60.8599 48.624 61.4119 48.392 61.7959 47.928C62.1959 47.464 62.3959 46.92 62.3959 46.296V45.888C61.9479 45.088 61.4999 44.288 61.0519 43.488C60.6039 42.688 60.3799 41.864 60.3799 41.016C60.3799 40.12 60.5879 39.312 61.0039 38.592H59.1799V36.024H66.4039V38.592H65.4199C64.8599 38.592 64.3879 38.784 64.0039 39.168C63.6199 39.552 63.4279 40.008 63.4279 40.536C63.4279 41.176 63.5879 41.792 63.9079 42.384L65.4439 45.12V45.984C65.4439 47.568 64.9719 48.824 64.0279 49.752C63.0199 50.712 61.8679 51.192 60.5719 51.192ZM89.0824 50.952H86.0344V42.456C84.8984 42.264 83.8904 41.88 83.0104 41.304C81.9704 40.536 81.2984 39.68 80.9944 38.736C80.6264 38.88 80.2984 39.104 80.0104 39.408C79.4824 39.952 79.2184 40.648 79.2184 41.496C79.2184 42.312 79.3144 42.848 79.5064 43.104C79.6984 43.36 79.9944 43.488 80.3944 43.488C80.6504 43.488 80.8664 43.4 81.0424 43.224C81.2184 43.048 81.3064 42.84 81.3064 42.6H84.3544V45.024C84.3544 46.656 83.7704 48.056 82.6024 49.224C81.4504 50.376 80.0584 50.952 78.4264 50.952H77.3704C75.7384 50.952 74.3384 50.376 73.1704 49.224C72.0184 48.056 71.4424 46.656 71.4424 45.024V40.512H74.4904V45.024C74.4904 45.936 74.7704 46.728 75.3304 47.4C75.8904 48.056 76.5704 48.384 77.3704 48.384H78.4264C79.2104 48.384 79.8904 48.048 80.4664 47.376C80.8184 46.976 81.0584 46.52 81.1864 46.008C80.9624 46.04 80.6024 46.056 80.1064 46.056C79.0184 46.056 78.0904 45.672 77.3224 44.904C76.5544 44.136 76.1704 43.216 76.1704 42.144V41.736C76.1704 40.568 76.4824 39.52 77.1064 38.592H70.2424V36.024H90.5224V38.592H84.0184C84.1624 38.816 84.3944 39.032 84.7144 39.24C85.5304 39.768 86.4824 40.032 87.5704 40.032H89.0824V50.952ZM94.5351 50.952H91.4871V38.592H90.0471V36.024H91.4871C91.4871 34.856 91.1271 33.912 90.4071 33.192C89.6871 32.472 88.8231 32.112 87.8151 32.112H83.3031C82.8551 32.112 82.6311 32.256 82.6311 32.544C82.6311 32.832 82.8551 32.976 83.3031 32.976H86.1351C86.9511 32.976 87.6471 33.264 88.2231 33.84C88.7991 34.416 89.0871 35.112 89.0871 35.928V36.504H86.0391V35.784C86.0391 35.464 85.8791 35.304 85.5591 35.304H83.0631C82.1031 35.304 81.2871 35.056 80.6151 34.56C79.9271 34.048 79.5831 33.376 79.5831 32.544C79.5831 31.712 79.9271 31.008 80.6151 30.432C81.2871 29.84 82.1031 29.544 83.0631 29.544H87.8151C89.6551 29.544 91.2391 30.2 92.5671 31.512C93.8151 32.76 94.4711 34.264 94.5351 36.024H95.9751V38.592H94.5351V50.952ZM108.063 50.952H105.015L96.5909 46.992V45.384C96.5909 44.344 96.8949 43.368 97.5029 42.456C98.1109 41.544 99.0069 40.904 100.191 40.536L105.015 39.072V38.592H95.3909V36.024H109.503V38.592H108.063V50.952ZM105.015 48.072V41.76L101.223 42.912C100.167 43.232 99.6389 43.896 99.6389 44.904V45.528L105.015 48.072ZM115.367 50.952C113.751 50.712 112.487 50.064 111.575 49.008C110.679 47.936 110.231 46.624 110.231 45.072V43.032C110.231 41.272 110.647 39.792 111.479 38.592H109.031V36.024H116.039V38.592C115.271 38.608 114.615 38.984 114.071 39.72C113.543 40.456 113.279 41.4 113.279 42.552V45.552C113.279 46.416 113.479 47.08 113.879 47.544C114.279 47.992 114.775 48.272 115.367 48.384V50.952ZM128.723 50.952H125.675V45.864C125.675 44.968 125.355 44.2 124.715 43.56C124.091 42.92 123.323 42.6 122.411 42.6H122.099C121.475 42.6 120.939 42.824 120.491 43.272C120.043 43.704 119.819 44.232 119.819 44.856V45.12C119.819 45.616 119.995 46.048 120.347 46.416C120.715 46.768 121.147 46.944 121.643 46.944H122.603V49.512H121.643C120.299 49.512 119.147 49.088 118.187 48.24C117.243 47.376 116.771 46.336 116.771 45.12V44.856C116.771 43.512 117.291 42.376 118.331 41.448C119.371 40.504 120.627 40.032 122.099 40.032C123.523 40.032 124.715 40.328 125.675 40.92V38.592H115.571V36.024H130.163V38.592H128.723V50.952ZM146.76 50.952H143.712V45.792C143.712 45.376 143.624 45.008 143.448 44.688C143.272 44.368 143.048 44.168 142.776 44.088L138.48 48.12H135.432V38.592H133.992V36.024H148.2V38.592H138.48V44.424L141.6 41.472H142.464C143.648 41.472 144.656 41.896 145.488 42.744C146.336 43.592 146.76 44.608 146.76 45.792V50.952ZM149.287 59.136L146.743 57.192C146.007 57.832 144.975 58.152 143.647 58.152C142.319 58.152 141.287 57.824 140.551 57.168C139.815 56.528 139.447 55.776 139.447 54.912C139.447 54.048 139.815 53.296 140.551 52.656C141.287 52.032 142.343 51.704 143.719 51.672V49.992H146.767V54H144.127C142.879 54 142.255 54.304 142.255 54.912C142.255 55.52 142.719 55.824 143.647 55.824C143.983 55.824 144.263 55.744 144.487 55.584C144.695 55.424 144.799 55.2 144.799 54.912H147.847L150.799 57.168L149.287 59.136ZM160.399 50.952H157.351L148.927 46.992V45.384C148.927 44.344 149.231 43.368 149.839 42.456C150.447 41.544 151.343 40.904 152.527 40.536L157.351 39.072V38.592H147.727V36.024H161.839V38.592H160.399V50.952ZM157.351 48.072V41.76L153.559 42.912C152.503 43.232 151.975 43.896 151.975 44.904V45.528L157.351 48.072ZM152.023 52.968C151.575 52.968 151.183 52.808 150.847 52.488C150.527 52.168 150.367 51.784 150.367 51.336C150.367 50.888 150.527 50.504 150.847 50.184C151.183 49.848 151.575 49.68 152.023 49.68C152.471 49.68 152.855 49.848 153.175 50.184C153.495 50.504 153.655 50.888 153.655 51.336C153.655 51.784 153.495 52.168 153.175 52.488C152.855 52.808 152.471 52.968 152.023 52.968ZM173.703 56.064H170.655L164.871 53.64V52.152C164.871 51.096 165.223 50.216 165.927 49.512C165.351 49.256 164.815 48.904 164.319 48.456C163.151 47.4 162.567 46.104 162.567 44.568V40.272H165.615V44.784C165.615 45.44 165.895 46.056 166.455 46.632C167.015 47.208 167.695 47.496 168.495 47.496H170.079C170.895 47.496 171.575 47.208 172.119 46.632C172.679 46.056 172.959 45.44 172.959 44.784V43.104C172.959 42.832 172.839 42.56 172.599 42.288C172.375 42.016 171.999 41.88 171.471 41.88C171.199 41.88 170.983 41.992 170.823 42.216C170.663 42.424 170.583 42.608 170.583 42.768V44.832H167.535V42.984C167.535 41.944 167.919 41.072 168.687 40.368C169.471 39.664 170.479 39.312 171.711 39.312C172.879 39.312 173.887 39.696 174.735 40.464C175.583 41.232 176.007 42.184 176.007 43.32V44.568C176.007 46.312 175.239 47.76 173.703 48.912V56.064ZM177.207 38.592H161.367V36.024H177.207V38.592ZM170.655 53.232V50.256L168.783 50.856C168.223 51.048 167.935 51.456 167.919 52.08L170.655 53.232Z" fill="#FFC945"/>
</g>
<defs>
<filter id="filter0_d_206_560" x="0" y="0" width="277.169" height="59.206" filterUnits="userSpaceOnUse" color-interpolation-filters="sRGB">
<feFlood flood-opacity="0" result="BackgroundImageFix"/>
<feColorMatrix in="SourceAlpha" type="matrix" values="0 0 0 0 0 0 0 0 0 0 0 0 0 0 0 0 0 0 127 0" result="hardAlpha"/>
<feOffset dx="0.7" dy="0.07"/>
<feComposite in2="hardAlpha" operator="out"/>
<feColorMatrix type="matrix" values="0 0 0 0 0 0 0 0 0 0 0 0 0 0 0 0 0 0 0.6 0"/>
<feBlend mode="normal" in2="BackgroundImageFix" result="effect1_dropShadow_206_560"/>
<feBlend mode="normal" in="SourceGraphic" in2="effect1_dropShadow_206_560" result="shape"/>
</filter>
</defs>
</svg>
