<svg width="268" height="194" viewBox="0 0 268 194" fill="none" xmlns="http://www.w3.org/2000/svg">
<g filter="url(#filter0_d_133_1138)">
<path d="M9.06195 26.76H5.25195V11.31H3.45195V8.09999H5.25195V7.22999C5.25195 5.96999 5.56195 4.79999 6.18195 3.71999C6.80195 2.61999 7.66195 1.73999 8.76195 1.07999C9.78195 0.499993 10.622 0.189993 11.282 0.149994C11.942 0.109993 12.422 0.0899928 12.722 0.0899928C13.402 0.0899928 14.082 0.139993 14.762 0.239993L22.952 1.31999L22.532 4.49999C16.432 3.69999 13.212 3.29999 12.872 3.29999C11.972 3.29999 11.252 3.46999 10.712 3.80999C9.61195 4.52999 9.06195 5.47999 9.06195 6.65999V8.09999H10.862V11.31H9.06195V26.76ZM25.9716 26.76H22.1616L11.6316 21.81V19.8C11.6316 18.5 12.0116 17.28 12.7716 16.14C13.5316 15 14.6516 14.2 16.1316 13.74L22.1616 11.91V11.31H10.1316V8.09999H27.7716V11.31H25.9716V26.76ZM22.1616 23.16V15.27L17.4216 16.71C16.1016 17.11 15.4416 17.94 15.4416 19.2V19.98L22.1616 23.16ZM43.0224 26.76H39.2124L28.6824 21.81V19.8C28.6824 18.5 29.0624 17.28 29.8224 16.14C30.5824 15 31.7024 14.2 33.1824 13.74L39.2124 11.91V11.31H27.1824V8.09999H44.8224V11.31H43.0224V26.76ZM39.2124 23.16V15.27L34.4724 16.71C33.1524 17.11 32.4924 17.94 32.4924 19.2V19.98L39.2124 23.16ZM49.8432 26.76H46.0332V11.31H44.2332V8.09999H51.6432V11.31H49.8432V26.76ZM56.5229 26.76H52.7129V11.31H50.9129V8.09999H52.7129V7.22999C52.7129 5.96999 53.0229 4.79999 53.6429 3.71999C54.2629 2.61999 55.1229 1.73999 56.2229 1.07999C57.2429 0.499993 58.0829 0.189993 58.7429 0.149994C59.4029 0.109993 59.8829 0.0899928 60.1829 0.0899928C60.8629 0.0899928 61.5429 0.139993 62.2229 0.239993L70.4129 1.31999L69.9929 4.49999C63.8929 3.69999 60.6729 3.29999 60.3329 3.29999C59.4329 3.29999 58.7129 3.46999 58.1729 3.80999C57.0729 4.52999 56.5229 5.47999 56.5229 6.65999V8.09999H58.3229V11.31H56.5229V26.76ZM71.0626 29.61L59.0926 24.81V21.27L63.3826 20.52C64.9226 20.26 66.1526 19.93 67.0726 19.53C67.9926 19.13 68.4526 18.56 68.4526 17.82V17.22C68.4526 16.72 68.2626 16.3 67.8826 15.96C67.5026 15.6 66.9926 15.42 66.3526 15.42H64.8526C63.5526 15.42 62.9026 16.07 62.9026 17.37V18.87H59.0926V17.67C59.0926 16.17 59.6226 14.89 60.6826 13.83C61.7426 12.75 63.0326 12.21 64.5526 12.21H66.6526C68.1926 12.21 69.5126 12.7 70.6126 13.68C71.7126 14.64 72.2626 15.82 72.2626 17.22V17.82C72.2626 19.7 71.1226 21.18 68.8426 22.26C67.5626 22.86 66.2226 23.3 64.8226 23.58L72.2626 26.58L71.0626 29.61ZM73.7626 11.31H57.5926V8.09999H73.7626V11.31ZM84.0392 26.76H82.0592C80.0192 26.76 78.2692 26.04 76.8092 24.6C75.3692 23.14 74.6492 21.38 74.6492 19.32V13.71H78.4592V19.62C78.4592 20.62 78.8092 21.53 79.5092 22.35C80.2292 23.15 81.0792 23.55 82.0592 23.55H84.0392C85.0392 23.55 85.8892 23.15 86.5892 22.35C87.2892 21.53 87.6392 20.62 87.6392 19.62V17.28C87.6392 16.84 87.4892 16.42 87.1892 16.02C86.8892 15.62 86.5192 15.42 86.0792 15.42H85.7792C85.4792 15.42 85.2192 15.58 84.9992 15.9C84.7792 16.22 84.6692 16.53 84.6692 16.83V19.53H80.8592V17.13C80.8592 15.77 81.3392 14.61 82.2992 13.65C83.2592 12.69 84.5192 12.21 86.0792 12.21C87.5592 12.21 88.8192 12.74 89.8592 13.8C90.9192 14.84 91.4492 16.1 91.4492 17.58V19.32C91.4492 21.38 90.7192 23.14 89.2592 24.6C87.8192 26.04 86.0792 26.76 84.0392 26.76ZM92.9492 11.31H73.1492V8.09999H92.9492V11.31ZM121.279 26.76H117.469V16.14C116.049 15.9 114.789 15.42 113.689 14.7C112.389 13.74 111.549 12.67 111.169 11.49C110.709 11.67 110.299 11.95 109.939 12.33C109.279 13.01 108.949 13.88 108.949 14.94C108.949 15.96 109.069 16.63 109.309 16.95C109.549 17.27 109.919 17.43 110.419 17.43C110.739 17.43 111.009 17.32 111.229 17.1C111.449 16.88 111.559 16.62 111.559 16.32H115.369V19.35C115.369 21.39 114.639 23.14 113.179 24.6C111.739 26.04 109.999 26.76 107.959 26.76H106.639C104.599 26.76 102.849 26.04 101.389 24.6C99.9493 23.14 99.2293 21.39 99.2293 19.35V13.71H103.039V19.35C103.039 20.49 103.389 21.48 104.089 22.32C104.789 23.14 105.639 23.55 106.639 23.55H107.959C108.939 23.55 109.789 23.13 110.509 22.29C110.949 21.79 111.249 21.22 111.409 20.58C111.129 20.62 110.679 20.64 110.059 20.64C108.699 20.64 107.539 20.16 106.579 19.2C105.619 18.24 105.139 17.09 105.139 15.75V15.24C105.139 13.78 105.529 12.47 106.309 11.31H97.7293V8.09999H123.079V11.31H114.949C115.129 11.59 115.419 11.86 115.819 12.12C116.839 12.78 118.029 13.11 119.389 13.11H121.279V26.76ZM128.095 26.76H124.285V11.31H122.485V8.09999H124.285C124.285 6.63999 123.835 5.45999 122.935 4.55999C122.035 3.65999 120.955 3.20999 119.695 3.20999H114.055C113.495 3.20999 113.215 3.38999 113.215 3.74999C113.215 4.10999 113.495 4.28999 114.055 4.28999H117.595C118.615 4.28999 119.485 4.64999 120.205 5.36999C120.925 6.08999 121.285 6.95999 121.285 7.97999V8.69999H117.475V7.79999C117.475 7.39999 117.275 7.19999 116.875 7.19999H113.755C112.555 7.19999 111.535 6.88999 110.695 6.26999C109.835 5.62999 109.405 4.78999 109.405 3.74999C109.405 2.70999 109.835 1.82999 110.695 1.10999C111.535 0.369994 112.555 -6.07967e-06 113.755 -6.07967e-06H119.695C121.995 -6.07967e-06 123.975 0.819993 125.635 2.45999C127.195 4.01999 128.015 5.89999 128.095 8.09999H129.895V11.31H128.095V26.76ZM145.005 26.76H141.195L130.665 21.81V19.8C130.665 18.5 131.045 17.28 131.805 16.14C132.565 15 133.685 14.2 135.165 13.74L141.195 11.91V11.31H129.165V8.09999H146.805V11.31H145.005V26.76ZM141.195 23.16V15.27L136.455 16.71C135.135 17.11 134.475 17.94 134.475 19.2V19.98L141.195 23.16ZM154.136 26.76C152.116 26.46 150.536 25.65 149.396 24.33C148.276 22.99 147.716 21.35 147.716 19.41V16.86C147.716 14.66 148.236 12.81 149.276 11.31H146.216V8.09999H154.976V11.31C154.016 11.33 153.196 11.8 152.516 12.72C151.856 13.64 151.526 14.82 151.526 16.26V20.01C151.526 21.09 151.776 21.92 152.276 22.5C152.776 23.06 153.396 23.41 154.136 23.55V26.76ZM170.829 26.76H167.019V20.4C167.019 19.28 166.619 18.32 165.819 17.52C165.039 16.72 164.079 16.32 162.939 16.32H162.549C161.769 16.32 161.099 16.6 160.539 17.16C159.979 17.7 159.699 18.36 159.699 19.14V19.47C159.699 20.09 159.919 20.63 160.359 21.09C160.819 21.53 161.359 21.75 161.979 21.75H163.179V24.96H161.979C160.299 24.96 158.859 24.43 157.659 23.37C156.479 22.29 155.889 20.99 155.889 19.47V19.14C155.889 17.46 156.539 16.04 157.839 14.88C159.139 13.7 160.709 13.11 162.549 13.11C164.329 13.11 165.819 13.48 167.019 14.22V11.31H154.389V8.09999H172.629V11.31H170.829V26.76Z" fill="#FFCA45"/>
<path d="M200.951 26.76H198.431V13.992H195.671V26.76H193.151L189.647 24.312C188.495 25.944 186.943 26.76 184.991 26.76H183.407C181.855 26.76 180.519 26.208 179.399 25.104C178.295 23.984 177.743 22.64 177.743 21.072V16.248H180.263V21.24C180.263 22.12 180.567 22.904 181.175 23.592C181.799 24.264 182.543 24.6 183.407 24.6H184.991C185.871 24.6 186.615 24.264 187.223 23.592C187.831 22.904 188.135 22.12 188.135 21.24V18.936C188.135 18.504 187.991 18.112 187.703 17.76C187.415 17.408 187.055 17.232 186.623 17.232H186.383C186.079 17.232 185.807 17.376 185.567 17.664C185.343 17.952 185.231 18.248 185.231 18.552V21.024H182.711V18.744C182.711 17.736 183.071 16.872 183.791 16.152C184.511 15.432 185.455 15.072 186.623 15.072C187.743 15.072 188.695 15.472 189.479 16.272C190.263 17.056 190.655 18 190.655 19.104C190.655 20.8 190.623 21.832 190.559 22.2L193.151 24.048V13.992H176.399V11.832H202.559V13.992H200.951V26.76ZM215.43 26.76H212.91V21L204.918 24.072L204.126 22.008L206.862 20.952C206.862 20.376 206.646 19.872 206.214 19.44C205.782 19.008 205.27 18.792 204.678 18.792H203.43V16.776C203.43 15.416 203.91 14.256 204.87 13.296C205.846 12.32 207.014 11.832 208.374 11.832H209.406C210.734 11.832 211.902 12.2 212.91 12.936V11.832H217.062V13.992H215.43V26.76ZM209.214 20.04L212.91 18.624V17.496C212.91 16.536 212.566 15.712 211.878 15.024C211.206 14.336 210.382 13.992 209.406 13.992H208.374C207.702 13.992 207.126 14.232 206.646 14.712C206.182 15.176 205.95 15.752 205.95 16.44V16.824C206.926 17.112 207.742 17.664 208.398 18.48C208.782 18.96 209.054 19.48 209.214 20.04ZM220.723 26.76H218.203V13.992H216.571V11.832H218.203V11.064C218.203 10.104 218.435 9.20799 218.899 8.37599C219.379 7.54399 220.035 6.87999 220.867 6.38399C221.651 5.93599 222.291 5.69599 222.787 5.66399C223.299 5.63199 223.675 5.61599 223.915 5.61599C224.379 5.61599 227.099 5.94399 232.075 6.59999L231.787 8.73599C226.923 8.09599 224.339 7.77599 224.035 7.77599C223.251 7.77599 222.627 7.91999 222.163 8.20799C221.203 8.84799 220.723 9.68799 220.723 10.728V11.832H222.331V13.992H220.723V26.76ZM234.518 26.76H231.998V21.48C231.998 20.504 231.654 19.672 230.966 18.984C230.278 18.296 229.446 17.952 228.47 17.952H228.158C227.454 17.952 226.854 18.2 226.358 18.696C225.862 19.176 225.614 19.768 225.614 20.472V20.856C225.614 21.432 225.822 21.928 226.238 22.344C226.654 22.744 227.142 22.944 227.702 22.944H228.662V25.104H227.702C226.438 25.104 225.35 24.696 224.438 23.88C223.542 23.048 223.094 22.04 223.094 20.856V20.472C223.094 19.176 223.59 18.072 224.582 17.16C225.574 16.248 226.766 15.792 228.158 15.792C229.694 15.792 230.974 16.168 231.998 16.92V13.992H221.75V11.832H236.126V13.992H234.518V26.76ZM244.113 26.76H241.593V13.992H239.961V11.832H241.593V11.064C241.593 10.104 241.825 9.20799 242.289 8.37599C242.769 7.54399 243.425 6.87999 244.257 6.38399C245.041 5.93599 245.681 5.69599 246.177 5.66399C246.689 5.63199 247.065 5.61599 247.305 5.61599C247.769 5.61599 250.489 5.94399 255.465 6.59999L255.177 8.73599C250.313 8.09599 247.729 7.77599 247.425 7.77599C246.641 7.77599 246.017 7.91999 245.553 8.20799C244.593 8.84799 244.113 9.68799 244.113 10.728V11.832H245.721V13.992H244.113V26.76ZM257.429 26.76H254.909L246.485 22.8V20.904C246.485 19.896 246.773 18.976 247.349 18.144C247.925 17.296 248.781 16.696 249.917 16.344L254.909 14.808V13.992H245.141V11.832H264.485V13.992H257.429V14.832H258.341C259.765 14.832 260.965 15.248 261.941 16.08C262.933 16.896 263.429 17.888 263.429 19.056V19.392C263.429 20.432 263.021 21.32 262.205 22.056C261.405 22.776 260.437 23.136 259.301 23.136V20.976C259.733 20.976 260.109 20.824 260.429 20.52C260.749 20.216 260.909 19.84 260.909 19.392V19.056C260.909 18.48 260.661 17.992 260.165 17.592C259.685 17.192 259.077 16.992 258.341 16.992H257.429V26.76ZM254.909 24.336V17.088L250.757 18.36C249.589 18.712 249.005 19.44 249.005 20.544V21.552L254.909 24.336ZM14.4574 56.76H11.9614V56.112C11.9614 55.744 11.8254 55.416 11.5534 55.128C11.2814 54.84 10.9534 54.696 10.5694 54.696C10.3294 54.696 10.1134 54.76 9.92141 54.888L6.60941 56.76H6.12941C4.86541 56.76 3.78541 56.312 2.88941 55.416C1.99341 54.52 1.54541 53.448 1.54541 52.2V49.464H4.06541V52.2C4.06541 52.84 4.25741 53.392 4.64141 53.856C5.02541 54.304 5.46541 54.552 5.96141 54.6L8.67341 53.064C9.26541 52.712 9.89741 52.536 10.5694 52.536C11.0654 52.536 11.5294 52.624 11.9614 52.8V46.44C11.9614 45.768 11.7454 45.192 11.3134 44.712C10.8974 44.232 10.3774 43.992 9.75341 43.992H9.46541C8.95341 43.992 8.52141 44.2 8.16941 44.616C7.83341 45.016 7.66541 45.592 7.66541 46.344C7.66541 46.824 7.83341 47.232 8.16941 47.568C8.50541 47.904 8.89741 48.072 9.34541 48.072H9.70541V50.232H8.98541C7.91341 50.232 7.00141 49.856 6.24941 49.104C5.51341 48.352 5.14541 47.432 5.14541 46.344V46.08C5.14541 44.896 5.55341 43.896 6.36941 43.08C7.20141 42.248 8.20141 41.832 9.36941 41.832H9.84941C11.1134 41.832 12.1934 42.28 13.0894 43.176C14.0014 44.072 14.4574 45.16 14.4574 46.44V56.76ZM26.1358 58.656L16.9438 54.792V52.392L20.1598 51.84C21.5358 51.6 22.5918 51.296 23.3278 50.928C24.0638 50.544 24.4318 50.04 24.4318 49.416V48.936C24.4318 48.456 24.2558 48.056 23.9038 47.736C23.5518 47.4 23.1038 47.232 22.5598 47.232H21.2398C20.6478 47.232 20.1998 47.4 19.8958 47.736C19.6078 48.056 19.4638 48.472 19.4638 48.984V50.256H16.9438V49.176C16.9438 48.04 17.3438 47.072 18.1438 46.272C18.9438 45.472 19.9118 45.072 21.0478 45.072H22.7278C23.8958 45.072 24.8878 45.448 25.7038 46.2C26.5358 46.952 26.9518 47.864 26.9518 48.936V49.416C26.9518 50.888 26.0798 52.032 24.3358 52.848C23.1998 53.392 21.9918 53.768 20.7118 53.976L26.9758 56.616L26.1358 58.656ZM28.2958 43.992H15.5998V41.832H24.4318V41.28C24.4318 40.912 24.2958 40.6 24.0238 40.344C23.7678 40.072 23.4558 39.936 23.0878 39.936H20.1358C19.2558 39.936 18.5038 39.632 17.8798 39.024C17.2558 38.4 16.9438 37.64 16.9438 36.744H19.4638V36.936C19.4638 37.496 19.7518 37.776 20.3278 37.776H23.0878C24.1438 37.776 25.0478 38.16 25.7998 38.928C26.5678 39.68 26.9518 40.648 26.9518 41.832H28.2958V43.992ZM45.1313 56.76H42.6113V53.76C42.6113 53.024 42.3553 52.408 41.8433 51.912C41.3473 51.4 40.6833 51.144 39.8513 51.144C39.7233 52.36 39.2353 53.408 38.3873 54.288C37.3953 55.328 36.1873 55.848 34.7633 55.848H33.4673V53.688H34.4033C35.2993 53.688 36.0193 53.376 36.5633 52.752C37.1073 52.128 37.3793 51.392 37.3793 50.544V50.16C37.3793 49.296 37.0993 48.56 36.5393 47.952C35.9953 47.344 35.2753 47.04 34.3793 47.04H33.4673V43.992H32.1233V41.832H46.7633V43.992H45.1313V56.76ZM42.6113 49.68V43.992H35.9873V45.072C37.1393 45.392 38.0753 46.016 38.7953 46.944C39.2753 47.568 39.5953 48.248 39.7553 48.984C40.8913 48.984 41.8433 49.216 42.6113 49.68ZM59.2875 56.76H56.7675V53.856C56.7675 53.072 56.4635 52.416 55.8555 51.888C55.2635 51.344 54.5515 51.072 53.7195 51.072H52.0875C51.5435 51.072 51.0795 51.248 50.6955 51.6C50.3275 51.952 50.1435 52.368 50.1435 52.848C50.1435 53.296 50.2955 53.648 50.5995 53.904C50.9195 54.16 51.2875 54.288 51.7035 54.288H53.0475V56.448H51.7035C50.6315 56.448 49.6795 56.12 48.8475 55.464C48.0315 54.808 47.6235 53.944 47.6235 52.872C47.6235 51.752 48.0555 50.808 48.9195 50.04C49.6395 49.416 50.4955 49.048 51.4875 48.936C51.4235 48.472 51.1755 48.056 50.7435 47.688C50.2155 47.272 49.5915 47.064 48.8715 47.064H47.6235V43.992H46.2795V41.832H60.9195V43.992H59.2875V56.76ZM56.7675 49.752V43.992H50.1435V45.072C51.2795 45.344 52.2155 45.888 52.9515 46.704C53.5115 47.36 53.8555 48.096 53.9835 48.912C55.0235 48.96 55.9515 49.24 56.7675 49.752ZM73.4438 56.76H70.9238V53.76C70.9238 53.024 70.6678 52.408 70.1558 51.912C69.6598 51.4 68.9958 51.144 68.1638 51.144C68.0358 52.36 67.5478 53.408 66.6998 54.288C65.7078 55.328 64.4998 55.848 63.0758 55.848H61.7798V53.688H62.7158C63.6118 53.688 64.3318 53.376 64.8758 52.752C65.4198 52.128 65.6918 51.392 65.6918 50.544V50.16C65.6918 49.296 65.4118 48.56 64.8518 47.952C64.3078 47.344 63.5878 47.04 62.6918 47.04H61.7798V43.992H60.4358V41.832H75.0758V43.992H73.4438V56.76ZM70.9238 49.68V43.992H64.2998V45.072C65.4518 45.392 66.3878 46.016 67.1078 46.944C67.5878 47.568 67.9078 48.248 68.0678 48.984C69.2038 48.984 70.1558 49.216 70.9238 49.68ZM76.008 56.928H75.672V54.768C76.44 54.768 77.032 54.528 77.448 54.048C77.88 53.552 78.096 52.952 78.096 52.248V51.6L76.56 48.888C76.144 48.136 75.936 47.36 75.936 46.56C75.936 45.6 76.192 44.744 76.704 43.992H74.592V41.832H81.696V43.992H80.736C80.096 43.992 79.552 44.208 79.104 44.64C78.672 45.072 78.456 45.592 78.456 46.2C78.456 46.808 78.608 47.392 78.912 47.952L80.616 51V52.008C80.616 53.496 80.152 54.688 79.224 55.584C78.312 56.48 77.24 56.928 76.008 56.928ZM85.3768 56.76H82.8568V43.992H81.2248V41.832H86.9848V43.992H85.3768V56.76ZM97.4925 57.288H94.1805C92.3885 57.288 90.8685 56.816 89.6205 55.872C88.3725 54.912 87.7485 53.728 87.7485 52.32H90.2685C90.2685 53.12 90.6445 53.792 91.3965 54.336C92.1485 54.864 93.0765 55.128 94.1805 55.128H97.4925C98.2445 55.128 98.8765 54.912 99.3885 54.48C99.9005 54.032 100.157 53.488 100.157 52.848V52.392C100.157 51.848 99.9885 51.4 99.6525 51.048C99.3165 50.696 98.8605 50.52 98.2845 50.52H97.5645V48.36H98.2845C98.7965 48.36 99.2365 48.176 99.6045 47.808C99.9725 47.424 100.157 46.928 100.157 46.32V45.456C100.157 45.024 100.021 44.672 99.7485 44.4C99.4765 44.112 99.1485 43.968 98.7645 43.968L96.6045 47.664L94.6605 46.584C94.6605 45.784 94.4285 45.152 93.9645 44.688C93.5005 44.224 92.9485 43.992 92.3085 43.992H91.6365C91.2365 43.992 90.8845 44.136 90.5805 44.424C90.2925 44.696 90.1485 45.064 90.1485 45.528H90.5085C91.3565 45.528 92.0845 45.776 92.6925 46.272C93.3005 46.752 93.6045 47.392 93.6045 48.192C93.6045 49.008 93.2445 49.712 92.5245 50.304C91.8205 50.896 91.0045 51.192 90.0765 51.192H88.3005V49.224H89.8125C90.1965 49.224 90.5165 49.12 90.7725 48.912C91.0445 48.704 91.1805 48.464 91.1805 48.192C91.1805 47.728 90.8925 47.496 90.3165 47.496H87.7485V45.888C87.7485 44.672 88.1245 43.696 88.8765 42.96C89.6445 42.224 90.5645 41.856 91.6365 41.856H92.3085C93.9405 41.856 95.2445 42.536 96.2205 43.896L97.3965 41.832H98.8365C99.8765 41.832 100.773 42.176 101.525 42.864C102.293 43.552 102.677 44.424 102.677 45.48V46.32C102.677 47.536 102.245 48.536 101.381 49.32L101.309 49.392C101.341 49.44 101.381 49.48 101.429 49.512C102.261 50.28 102.677 51.24 102.677 52.392V52.848C102.677 54.096 102.173 55.152 101.165 56.016C100.173 56.864 98.9485 57.288 97.4925 57.288ZM109.753 56.76C108.233 56.52 107.041 55.888 106.177 54.864C105.313 53.824 104.881 52.584 104.881 51.144V48.624C104.881 46.752 105.361 45.208 106.321 43.992H103.537V41.832H110.425V43.992C109.577 44.008 108.857 44.408 108.265 45.192C107.689 45.976 107.401 47 107.401 48.264V51.504C107.401 52.368 107.625 53.064 108.073 53.592C108.521 54.12 109.081 54.456 109.753 54.6V56.76ZM125.824 56.76H123.304V49.536C123.304 49.088 123.152 48.712 122.848 48.408C122.544 48.104 122.096 47.952 121.504 47.952C121.104 47.952 120.76 48.096 120.472 48.384C120.184 48.672 120.04 49.016 120.04 49.416V50.976H117.52V49.416C117.52 49.048 117.384 48.712 117.112 48.408C116.856 48.104 116.424 47.952 115.816 47.952C115.256 47.952 114.776 48.152 114.376 48.552C113.992 48.952 113.8 49.424 113.8 49.968V50.856C113.8 51.448 114 51.944 114.4 52.344C114.816 52.744 115.312 52.944 115.888 52.944H117.04V55.104H115.888C114.624 55.104 113.536 54.696 112.624 53.88C111.728 53.048 111.28 52.04 111.28 50.856V49.968C111.28 48.816 111.72 47.832 112.6 47.016C113.48 46.2 114.632 45.792 116.056 45.792C117.096 45.792 117.984 46.136 118.72 46.824C119.504 46.136 120.512 45.792 121.744 45.792C122.304 45.792 122.824 45.888 123.304 46.08V43.992H109.936V41.832H127.456V43.992H125.824V56.76ZM131.127 56.76H128.607V43.992H126.975V41.832H132.735V43.992H131.127V56.76ZM144.443 56.76H141.923L133.499 52.8V50.904C133.499 49.896 133.787 48.976 134.363 48.144C134.939 47.296 135.795 46.696 136.931 46.344L141.923 44.808V43.992H132.155V41.832H146.075V43.992H144.443V56.76ZM141.923 54.336V47.088L137.771 48.36C136.603 48.712 136.019 49.44 136.019 50.544V51.552L141.923 54.336ZM136.595 58.608C136.195 58.608 135.851 58.464 135.563 58.176C135.275 57.904 135.131 57.568 135.131 57.168C135.131 56.784 135.275 56.448 135.563 56.16C135.851 55.872 136.195 55.728 136.595 55.728C136.979 55.728 137.307 55.872 137.579 56.16C137.867 56.448 138.011 56.784 138.011 57.168C138.011 57.568 137.867 57.904 137.579 58.176C137.307 58.464 136.979 58.608 136.595 58.608ZM162.905 56.76H160.385V53.856C160.385 53.072 160.081 52.416 159.473 51.888C158.881 51.344 158.169 51.072 157.337 51.072H155.705C155.161 51.072 154.697 51.248 154.313 51.6C153.945 51.952 153.761 52.368 153.761 52.848C153.761 53.296 153.913 53.648 154.217 53.904C154.537 54.16 154.905 54.288 155.321 54.288H156.665V56.448H155.321C154.249 56.448 153.297 56.12 152.465 55.464C151.649 54.808 151.241 53.944 151.241 52.872C151.241 51.752 151.673 50.808 152.537 50.04C153.257 49.416 154.113 49.048 155.105 48.936C155.041 48.472 154.793 48.056 154.361 47.688C153.833 47.272 153.209 47.064 152.489 47.064H151.241V43.992H149.897V41.832H164.537V43.992H162.905V56.76ZM160.385 49.752V43.992H153.761V45.072C154.897 45.344 155.833 45.888 156.569 46.704C157.129 47.36 157.473 48.096 157.601 48.912C158.641 48.96 159.569 49.24 160.385 49.752ZM170.269 56.76C168.749 56.52 167.557 55.888 166.693 54.864C165.829 53.824 165.397 52.584 165.397 51.144V48.624C165.397 46.752 165.877 45.208 166.837 43.992H164.053V41.832H170.941V43.992C170.093 44.008 169.373 44.408 168.781 45.192C168.205 45.976 167.917 47 167.917 48.264V51.504C167.917 52.368 168.141 53.064 168.589 53.592C169.037 54.12 169.597 54.456 170.269 54.6V56.76ZM182.739 56.76H180.219L171.795 52.8V50.904C171.795 49.56 172.251 48.432 173.163 47.52C173.083 47.472 173.011 47.408 172.947 47.328C172.179 46.656 171.795 45.816 171.795 44.808C171.795 43.88 172.139 43.096 172.827 42.456C173.531 41.816 174.387 41.496 175.395 41.496C176.323 41.496 177.171 41.848 177.939 42.552L176.451 44.064C176.131 43.792 175.779 43.656 175.395 43.656C175.091 43.656 174.835 43.76 174.627 43.968C174.419 44.176 174.315 44.448 174.315 44.784C174.315 45.184 174.443 45.52 174.699 45.792C174.971 46.064 175.299 46.2 175.683 46.2L180.219 44.808V41.832H184.371V43.992H182.739V56.76ZM180.219 54.336V47.088L176.067 48.36C174.899 48.712 174.315 49.44 174.315 50.544V51.552L180.219 54.336ZM185.297 56.928H184.961V54.768C185.729 54.768 186.321 54.528 186.737 54.048C187.169 53.552 187.385 52.952 187.385 52.248V51.6L185.849 48.888C185.433 48.136 185.225 47.36 185.225 46.56C185.225 45.6 185.481 44.744 185.993 43.992H183.881V41.832H190.985V43.992H190.025C189.385 43.992 188.841 44.208 188.393 44.64C187.961 45.072 187.745 45.592 187.745 46.2C187.745 46.808 187.897 47.392 188.201 47.952L189.905 51V52.008C189.905 53.496 189.441 54.688 188.513 55.584C187.601 56.48 186.529 56.928 185.297 56.928ZM219.378 56.76H216.858V43.992H214.098V56.76H211.578L208.074 54.312C206.922 55.944 205.37 56.76 203.418 56.76H201.834C200.282 56.76 198.946 56.208 197.826 55.104C196.722 53.984 196.17 52.64 196.17 51.072V46.248H198.69V51.24C198.69 52.12 198.994 52.904 199.602 53.592C200.226 54.264 200.97 54.6 201.834 54.6H203.418C204.298 54.6 205.042 54.264 205.65 53.592C206.258 52.904 206.562 52.12 206.562 51.24V48.936C206.562 48.504 206.418 48.112 206.13 47.76C205.842 47.408 205.482 47.232 205.05 47.232H204.81C204.506 47.232 204.234 47.376 203.994 47.664C203.77 47.952 203.658 48.248 203.658 48.552V51.024H201.138V48.744C201.138 47.736 201.498 46.872 202.218 46.152C202.938 45.432 203.882 45.072 205.05 45.072C206.17 45.072 207.122 45.472 207.906 46.272C208.69 47.056 209.082 48 209.082 49.104C209.082 50.8 209.05 51.832 208.986 52.2L211.578 54.048V43.992H194.826V41.832H220.986V43.992H219.378V56.76ZM226.73 56.76C225.21 56.52 224.018 55.888 223.154 54.864C222.29 53.824 221.858 52.584 221.858 51.144V48.624C221.858 46.752 222.338 45.208 223.298 43.992H220.514V41.832H227.402V43.992C226.554 44.008 225.834 44.408 225.242 45.192C224.666 45.976 224.378 47 224.378 48.264V51.504C224.378 52.368 224.602 53.064 225.05 53.592C225.498 54.12 226.058 54.456 226.73 54.6V56.76ZM239.968 58.776L229.024 55.296V52.992L233.824 52.128C236.672 51.664 238.096 50.856 238.096 49.704C238.096 48.824 237.376 48.232 235.936 47.928C235.888 48.888 235.512 49.68 234.808 50.304C234.056 50.992 233.064 51.336 231.832 51.336C230.904 51.336 230.12 51.048 229.48 50.472C228.856 49.88 228.544 49.168 228.544 48.336V43.992H226.912V41.832H241.96V43.992H231.064V44.736L236.8 45.888C237.968 46.128 238.896 46.64 239.584 47.424C240.272 48.192 240.616 48.952 240.616 49.704C240.616 51.176 239.744 52.328 238 53.16C236.816 53.72 235.56 54.096 234.232 54.288L233.488 54.408L240.616 56.688L239.968 58.776ZM232.072 49.176C232.488 49.176 232.832 49.08 233.104 48.888C233.392 48.696 233.536 48.416 233.536 48.048C233.536 47.696 233.352 47.456 232.984 47.328L231.184 46.968V48.48C231.184 48.944 231.48 49.176 232.072 49.176ZM254.258 56.76H251.738V51.48C251.738 50.504 251.394 49.672 250.706 48.984C250.018 48.296 249.186 47.952 248.21 47.952H247.898C247.194 47.952 246.594 48.2 246.098 48.696C245.602 49.176 245.354 49.768 245.354 50.472V50.856C245.354 51.432 245.562 51.928 245.978 52.344C246.394 52.744 246.882 52.944 247.442 52.944H248.402V55.104H247.442C246.178 55.104 245.09 54.696 244.178 53.88C243.282 53.048 242.834 52.04 242.834 50.856V50.472C242.834 49.176 243.33 48.072 244.322 47.16C245.314 46.248 246.506 45.792 247.898 45.792C249.434 45.792 250.714 46.168 251.738 46.92V43.992H241.49V41.832H255.866V43.992H254.258V56.76ZM261.437 52.44H258.917V51.192C258.917 50.168 259.253 49.32 259.925 48.648C260.613 47.976 261.477 47.472 262.517 47.136C263.653 46.784 264.221 46.152 264.221 45.24C264.221 44.632 264.013 44.12 263.597 43.704C263.181 43.288 262.693 43.08 262.133 43.08H261.653C261.061 43.08 260.557 43.288 260.141 43.704C259.741 44.12 259.541 44.608 259.541 45.168V46.296H257.021V45.168C257.021 44 257.469 43 258.365 42.168C259.277 41.336 260.373 40.92 261.653 40.92H262.133C263.397 40.92 264.477 41.336 265.373 42.168C266.285 43 266.741 44 266.741 45.168V45.48C266.741 46.312 266.421 47.056 265.781 47.712C265.157 48.368 264.357 48.848 263.381 49.152C262.981 49.296 262.645 49.44 262.373 49.584C262.101 49.712 261.877 49.896 261.701 50.136C261.525 50.36 261.437 50.664 261.437 51.048V52.44ZM260.189 56.76C259.789 56.76 259.445 56.624 259.157 56.352C258.869 56.064 258.725 55.72 258.725 55.32C258.725 54.936 258.869 54.6 259.157 54.312C259.445 54.024 259.789 53.88 260.189 53.88C260.573 53.88 260.901 54.024 261.173 54.312C261.461 54.6 261.605 54.936 261.605 55.32C261.605 55.72 261.461 56.064 261.173 56.352C260.901 56.624 260.573 56.76 260.189 56.76Z" fill="white"/>
</g>
<path d="M18.8782 93.3307C19.0421 93.5154 19.2053 93.6977 19.3676 93.8816C19.5381 94.0752 19.7126 94.2648 19.8766 94.4641C20.2329 94.8967 20.5982 95.3228 20.9326 95.7724C21.3433 96.3233 21.7362 96.8879 22.1193 97.4583C22.5852 98.1534 22.9935 98.8833 23.3393 99.6456C23.539 100.085 23.7265 100.532 23.8441 101.002C23.8937 101.197 23.9229 101.398 23.9537 101.597C23.961 101.646 23.9367 101.699 23.9253 101.76C23.7338 101.7 23.6063 101.58 23.4992 101.444C23.2297 101.101 22.9724 100.747 22.7037 100.404C22.4188 100.038 22.1331 99.6731 21.8352 99.3191C21.5535 98.9837 21.2581 98.6589 20.9634 98.3348C20.6728 98.0148 20.3831 97.694 20.0787 97.3878C19.5892 96.896 19.0917 96.4108 18.5884 95.9328C18.2516 95.6136 17.8985 95.3115 17.5519 95.0028C17.521 94.9753 17.4861 94.9526 17.4431 94.9202C17.3059 95.0806 17.1679 95.2337 17.0389 95.3941C16.6241 95.9093 16.1988 96.4165 15.8019 96.9455C15.2174 97.7248 14.6484 98.5147 14.0851 99.3094C13.7515 99.7793 13.4496 100.272 13.1176 100.743C12.8229 101.162 12.4081 101.369 11.8895 101.359C11.1768 101.346 10.6192 100.798 10.5201 100.171C10.452 99.7379 10.5567 99.3507 10.8375 99.0072C11.2239 98.5341 11.5891 98.044 11.982 97.5774C12.4885 96.9746 13.0064 96.3808 13.534 95.7959C13.9447 95.3414 14.3741 94.904 14.8027 94.4665C15.0892 94.1741 15.3895 93.8938 15.6842 93.6086C15.7613 93.5341 15.7629 93.5138 15.6793 93.4506C15.0413 92.9718 14.4082 92.4866 13.7621 92.02C13.1703 91.593 12.564 91.1872 11.9617 90.7748C11.7466 90.6274 11.5169 90.4986 11.3099 90.3406C10.9317 90.0522 10.7401 89.6609 10.7499 89.1845C10.7612 88.581 11.0567 88.1435 11.5997 87.8981C12.0997 87.6696 12.5957 87.7255 13.0413 88.0593C13.8741 88.6839 14.6777 89.3433 15.4577 90.0327C15.9098 90.4321 16.3546 90.8396 16.7994 91.2471C17.03 91.4585 17.2524 91.6789 17.4756 91.8976C17.5235 91.9446 17.5559 91.9511 17.6128 91.9065C18.1923 91.4585 18.7637 90.9984 19.3587 90.5723C19.8352 90.2312 20.3327 89.9177 20.8368 89.6188C21.2914 89.349 21.7589 89.0995 22.2346 88.8686C22.7654 88.6102 23.3157 88.3922 23.8896 88.2416C24.0406 88.2019 24.2005 88.1897 24.3571 88.1759C24.4034 88.1719 24.4521 88.2027 24.5 88.2181C24.4854 88.2586 24.4821 88.3096 24.4554 88.3388C24.3328 88.47 24.2159 88.6102 24.0755 88.7212C23.4115 89.2469 22.737 89.7613 22.073 90.2871C21.8376 90.4734 21.6193 90.68 21.3953 90.8801C21.0811 91.162 20.7605 91.4383 20.4577 91.7324C19.9537 92.2233 19.461 92.7264 18.9642 93.2246C18.935 93.2538 18.9115 93.2894 18.8782 93.3299V93.3307Z" fill="#FF001E"/>
<path d="M37.164 100.76H35.67L37.776 90.878H36.426L36.696 89.564H38.046L38.19 88.934C38.334 88.25 38.64 87.614 39.108 87.026C39.576 86.426 40.134 85.958 40.782 85.622C41.43 85.274 41.928 85.094 42.276 85.082C42.624 85.058 42.864 85.046 42.996 85.046C43.428 85.046 43.848 85.076 44.256 85.136L49.062 85.784L48.612 87.08C45.036 86.6 43.134 86.36 42.906 86.36C42.282 86.36 41.76 86.48 41.34 86.72C40.44 87.236 39.9 87.914 39.72 88.754L39.54 89.564H40.89L40.62 90.878H39.27L37.164 100.76ZM47.0097 100.76H45.5157L39.8277 97.79L40.1697 96.17C40.3257 95.438 40.6677 94.784 41.1957 94.208C41.7237 93.62 42.4197 93.2 43.2837 92.948L47.4237 91.778L47.6217 90.878H40.1877L40.4577 89.564H50.7357L50.4657 90.878H49.1157L47.0097 100.76ZM45.8217 99.284L47.1357 93.164L43.5357 94.19C42.5037 94.478 41.8917 95.078 41.6997 95.99L41.4837 97.016L45.8217 99.284ZM52.5678 100.76C51.5478 100.592 50.8038 100.13 50.3358 99.374C49.8798 98.618 49.7538 97.742 49.9578 96.746L50.4438 94.514C50.7558 93.038 51.3918 91.85 52.3518 90.95L52.4238 90.878H50.1018L50.3718 89.564H55.4478L55.1778 90.878C54.4818 90.89 53.8278 91.214 53.2158 91.85C52.6038 92.474 52.1898 93.302 51.9738 94.334L51.4158 96.926C51.2838 97.562 51.3498 98.114 51.6138 98.582C51.8898 99.038 52.3038 99.326 52.8558 99.446L52.5678 100.76ZM63.7947 100.76H62.3007L63.9387 93.02C64.0707 92.42 63.9807 91.916 63.6687 91.508C63.3687 91.088 62.9427 90.878 62.3907 90.878H62.0127C61.4367 90.878 60.8967 91.094 60.3927 91.526C59.9007 91.946 59.5827 92.486 59.4387 93.146L59.3487 93.578C59.2287 94.13 59.2947 94.586 59.5467 94.946C59.8107 95.294 60.1767 95.468 60.6447 95.468H61.4367L61.1667 96.782H60.1947C59.3667 96.782 58.7247 96.476 58.2687 95.864C58.2207 95.816 58.1847 95.768 58.1607 95.72L57.9807 95.864C57.2607 96.476 56.4807 96.782 55.6407 96.782H54.6687L54.9387 95.468H55.7307C56.1987 95.468 56.6367 95.294 57.0447 94.946C57.4647 94.586 57.7347 94.13 57.8547 93.578L57.9447 93.146C58.0887 92.486 57.9987 91.946 57.6747 91.526C57.3627 91.094 56.9247 90.878 56.3607 90.878H54.8127L55.0827 89.564H56.8107C57.7467 89.564 58.4727 89.906 58.9887 90.59L59.1867 90.878C60.0267 90.002 60.9987 89.564 62.1027 89.564H62.6607C63.4167 89.564 64.0467 89.78 64.5507 90.212L64.6767 89.564H67.5207L67.2507 90.878H65.9007L63.7947 100.76ZM73.8009 100.76H72.3069L66.3129 98.834L66.6729 97.088C66.8169 96.416 67.1529 95.804 67.6809 95.252C68.2209 94.688 68.8509 94.292 69.5709 94.064L70.2549 93.866L68.0229 90.878H66.8889L67.1589 89.564H77.5269L77.2569 90.878H75.9069L73.8009 100.76ZM72.5949 99.392L73.3509 95.828L71.4069 94.838L69.7689 95.306C69.3849 95.438 69.0489 95.654 68.7609 95.954C68.4729 96.242 68.2869 96.56 68.2029 96.908L68.0049 97.916L72.5949 99.392ZM73.6569 94.37L74.4129 90.878H69.9309L71.8209 93.416L73.6569 94.37ZM87.4872 100.76H85.9932L86.4972 98.42C86.6292 97.784 86.4972 97.25 86.1012 96.818C85.7052 96.374 85.1652 96.152 84.4812 96.152H83.2572C82.8012 96.152 82.3812 96.302 81.9972 96.602C81.6132 96.902 81.3732 97.268 81.2772 97.7C81.1932 98.096 81.2652 98.414 81.4932 98.654C81.7212 98.882 82.0152 98.996 82.3752 98.996H83.3112L83.0232 100.31H82.0872C81.3192 100.31 80.7012 100.07 80.2332 99.59C79.7772 99.098 79.6272 98.468 79.7832 97.7C79.9512 96.896 80.4012 96.218 81.1332 95.666C81.7932 95.162 82.5192 94.886 83.3112 94.838C83.3712 94.406 83.2392 94.028 82.9152 93.704C82.5552 93.356 82.0752 93.182 81.4752 93.182H80.7372L81.2412 90.878H80.1252L80.3952 89.564H91.2132L90.9432 90.878H89.5932L87.4872 100.76ZM87.0732 95.666L88.0992 90.878H82.7352L82.5012 91.958C83.3172 92.126 83.9412 92.504 84.3732 93.092C84.7332 93.596 84.8712 94.178 84.7872 94.838C85.7232 94.838 86.4852 95.114 87.0732 95.666ZM83.6182 105.98C82.8022 105.98 82.1902 105.77 81.7822 105.35C81.3622 104.942 81.2242 104.414 81.3682 103.766C81.5002 103.13 81.8542 102.602 82.4302 102.182C82.9942 101.774 83.6422 101.57 84.3742 101.57C84.8542 101.57 85.3162 101.66 85.7602 101.84L86.1202 100.13H87.6142L87.0922 102.632L89.8282 104.558L88.9282 105.638L86.7682 104.09C86.5882 104.606 86.2462 105.032 85.7422 105.368C85.1422 105.776 84.4342 105.98 83.6182 105.98ZM83.8522 104.756C84.7162 104.756 85.2262 104.396 85.3822 103.676L85.4722 103.19C85.0282 102.926 84.6202 102.794 84.2482 102.794C83.8762 102.794 83.5522 102.878 83.2762 103.046C83.0002 103.226 82.8322 103.466 82.7722 103.766C82.7002 104.066 82.7662 104.306 82.9702 104.486C83.1742 104.666 83.4682 104.756 83.8522 104.756ZM95.9662 101.876L89.9722 98.96L90.2782 97.52L92.6182 97.124C94.9462 96.716 96.2122 96.044 96.4162 95.108L96.4882 94.748C96.5722 94.34 96.4942 93.992 96.2542 93.704C96.0262 93.416 95.6842 93.272 95.2282 93.272H94.1482C93.6922 93.272 93.3022 93.41 92.9782 93.686C92.6662 93.962 92.4622 94.316 92.3662 94.748L92.1502 95.738H90.6562L90.8542 94.838C91.0222 94.046 91.4482 93.368 92.1322 92.804C92.8162 92.24 93.5542 91.958 94.3462 91.958H95.6062C96.4222 91.958 97.0642 92.228 97.5322 92.768C98.0002 93.308 98.1502 93.968 97.9822 94.748L97.9102 95.108C97.6822 96.176 96.8842 97.01 95.5162 97.61C94.6402 97.982 93.5602 98.276 92.2762 98.492L96.7402 100.652L95.9662 101.876ZM99.9262 90.878H90.5842L90.8542 89.564H100.196L99.9262 90.878ZM95.9347 106.484L94.3687 105.044C93.7447 105.68 92.9107 105.998 91.8667 105.998C91.0027 105.998 90.3787 105.776 89.9947 105.332C89.5987 104.9 89.4607 104.384 89.5807 103.784C89.7127 103.184 90.0727 102.668 90.6607 102.236C91.2487 101.804 92.0707 101.582 93.1267 101.57L93.4327 100.13H94.9267L94.3687 102.794H92.9287C92.3767 102.794 91.9327 102.884 91.5967 103.064C91.2607 103.244 91.0567 103.484 90.9847 103.784C90.9247 104.084 90.9967 104.324 91.2007 104.504C91.4047 104.684 91.7167 104.774 92.1367 104.774C92.5327 104.774 92.8627 104.678 93.1267 104.486C93.3787 104.306 93.5347 104.072 93.5947 103.784H95.0887L96.9427 105.476L95.9347 106.484ZM103.815 100.76H102.627C101.511 100.76 100.641 100.364 100.017 99.572C99.3926 98.78 99.2006 97.82 99.4406 96.692L100.269 92.84H101.763L100.917 96.782C100.761 97.49 100.881 98.114 101.277 98.654C101.673 99.182 102.219 99.446 102.915 99.446H104.103C104.811 99.446 105.465 99.182 106.065 98.654C106.677 98.114 107.061 97.49 107.217 96.782L107.667 94.694C107.739 94.322 107.673 93.992 107.469 93.704C107.277 93.416 106.935 93.272 106.443 93.272C106.155 93.272 105.879 93.392 105.615 93.632C105.363 93.872 105.207 94.136 105.147 94.424L104.697 96.494H103.203L103.635 94.514C103.779 93.806 104.157 93.206 104.769 92.714C105.381 92.21 106.095 91.958 106.911 91.958C107.691 91.958 108.297 92.234 108.729 92.786C109.161 93.338 109.299 94.004 109.143 94.784L108.729 96.692C108.489 97.82 107.889 98.78 106.929 99.572C105.969 100.364 104.931 100.76 103.815 100.76ZM111.087 90.878H99.5666L99.8366 89.564H111.357L111.087 90.878ZM105.038 88.754L104.282 87.8L108.35 84.434L109.124 85.37L105.038 88.754ZM121.631 100.76H120.137L113.387 98.834L113.675 97.448C114.011 96.008 115.043 94.988 116.771 94.388C117.875 93.992 118.487 93.53 118.607 93.002L118.661 92.678C118.217 92.894 117.743 93.002 117.239 93.002C116.507 93.002 115.937 92.756 115.529 92.264C115.133 91.76 115.013 91.154 115.169 90.446L115.349 89.564H116.843L116.663 90.446C116.579 90.854 116.615 91.166 116.771 91.382C116.939 91.586 117.185 91.688 117.509 91.688C117.893 91.688 118.241 91.562 118.553 91.31C118.877 91.046 119.081 90.728 119.165 90.356L119.291 89.744H120.785L120.137 92.822C119.957 93.65 119.435 94.316 118.571 94.82C118.019 95.144 117.509 95.396 117.041 95.576C115.973 96.008 115.361 96.572 115.205 97.268L115.079 97.862L120.425 99.374L122.513 89.564H125.357L125.087 90.878H123.737L121.631 100.76ZM117.755 105.98C116.939 105.98 116.327 105.77 115.919 105.35C115.499 104.942 115.361 104.414 115.505 103.766C115.637 103.13 115.991 102.602 116.567 102.182C117.131 101.774 117.779 101.57 118.511 101.57C118.991 101.57 119.453 101.66 119.897 101.84L120.257 100.13H121.751L121.229 102.632L123.965 104.558L123.065 105.638L120.905 104.09C120.725 104.606 120.383 105.032 119.879 105.368C119.279 105.776 118.571 105.98 117.755 105.98ZM117.989 104.756C118.853 104.756 119.363 104.396 119.519 103.676L119.609 103.19C119.165 102.926 118.757 102.794 118.385 102.794C118.013 102.794 117.689 102.878 117.413 103.046C117.137 103.226 116.969 103.466 116.909 103.766C116.837 104.066 116.903 104.306 117.107 104.486C117.311 104.666 117.605 104.756 117.989 104.756ZM131.543 100.76H130.049L124.361 97.79L124.703 96.17C124.859 95.438 125.201 94.784 125.729 94.208C126.257 93.62 126.953 93.2 127.817 92.948L131.957 91.778L132.155 90.878H124.721L124.991 89.564H135.269L134.999 90.878H133.649L131.543 100.76ZM130.355 99.284L131.669 93.164L128.069 94.19C127.037 94.478 126.425 95.078 126.233 95.99L126.017 97.016L130.355 99.284ZM144.421 102.02H142.927L142.999 101.66C143.059 101.384 143.029 101.168 142.909 101.012C142.789 100.856 142.609 100.778 142.369 100.778C142.189 100.778 141.997 100.826 141.793 100.922L139.615 102.02H139.021C138.253 102.02 137.653 101.744 137.221 101.192C136.789 100.652 136.657 99.998 136.825 99.23L136.879 98.96H138.373L138.319 99.23C138.235 99.638 138.289 99.986 138.481 100.274C138.673 100.562 138.961 100.706 139.345 100.706L141.379 99.77C141.799 99.554 142.213 99.446 142.621 99.446C142.933 99.446 143.209 99.5 143.449 99.608L144.187 96.098C144.259 95.738 144.205 95.426 144.025 95.162C143.857 94.886 143.593 94.736 143.233 94.712L139.255 97.7H137.761L139.219 90.878H137.869L138.139 89.564H152.881L152.611 90.878H140.713L139.651 95.846L142.945 93.362H143.431C144.211 93.362 144.817 93.632 145.249 94.172C145.693 94.7 145.837 95.336 145.681 96.08C145.645 96.536 145.765 96.926 146.041 97.25C146.365 97.658 146.809 97.862 147.373 97.862C147.745 97.862 148.093 97.73 148.417 97.466C148.753 97.202 148.957 96.878 149.029 96.494C149.113 96.11 149.047 95.786 148.831 95.522C148.615 95.246 148.315 95.108 147.931 95.108H147.571L147.841 93.794H148.201C148.993 93.794 149.617 94.058 150.073 94.586C150.541 95.102 150.691 95.738 150.523 96.494C150.367 97.238 149.953 97.874 149.281 98.402C148.621 98.918 147.895 99.176 147.103 99.176C146.323 99.176 145.681 98.954 145.177 98.51L144.421 102.02ZM156.496 100.76H155.308C154.192 100.76 153.322 100.364 152.698 99.572C152.074 98.78 151.882 97.82 152.122 96.692L152.95 92.84H154.444L153.598 96.782C153.442 97.49 153.562 98.114 153.958 98.654C154.354 99.182 154.9 99.446 155.596 99.446H156.784C157.492 99.446 158.146 99.182 158.746 98.654C159.358 98.114 159.742 97.49 159.898 96.782L160.348 94.694C160.42 94.322 160.354 93.992 160.15 93.704C159.958 93.416 159.616 93.272 159.124 93.272C158.836 93.272 158.56 93.392 158.296 93.632C158.044 93.872 157.888 94.136 157.828 94.424L157.378 96.494H155.884L156.316 94.514C156.46 93.806 156.838 93.206 157.45 92.714C158.062 92.21 158.776 91.958 159.592 91.958C160.372 91.958 160.978 92.234 161.41 92.786C161.842 93.338 161.98 94.004 161.824 94.784L161.41 96.692C161.17 97.82 160.57 98.78 159.61 99.572C158.65 100.364 157.612 100.76 156.496 100.76ZM163.768 90.878H152.248L152.518 89.564H164.038L163.768 90.878ZM169.111 100.76C168.091 100.592 167.347 100.13 166.879 99.374C166.423 98.618 166.297 97.742 166.501 96.746L166.987 94.514C167.299 93.038 167.935 91.85 168.895 90.95C169.855 90.05 170.887 89.588 171.991 89.564L171.721 90.878C171.025 90.89 170.371 91.214 169.759 91.85C169.147 92.474 168.733 93.302 168.517 94.334L167.959 96.926C167.827 97.562 167.893 98.114 168.157 98.582C168.433 99.038 168.847 99.326 169.399 99.446L169.111 100.76ZM180.338 100.76H178.844L180.482 93.02C180.614 92.42 180.524 91.916 180.212 91.508C179.912 91.088 179.486 90.878 178.934 90.878H178.556C177.98 90.878 177.44 91.094 176.936 91.526C176.444 91.946 176.126 92.486 175.982 93.146L175.892 93.578C175.772 94.13 175.838 94.586 176.09 94.946C176.354 95.294 176.72 95.468 177.188 95.468H177.98L177.71 96.782H176.738C175.91 96.782 175.268 96.476 174.812 95.864C174.764 95.816 174.728 95.768 174.704 95.72L174.524 95.864C173.804 96.476 173.024 96.782 172.184 96.782H171.212L171.482 95.468H172.274C172.742 95.468 173.18 95.294 173.588 94.946C174.008 94.586 174.278 94.13 174.398 93.578L174.488 93.146C174.632 92.486 174.542 91.946 174.218 91.526C173.906 91.094 173.468 90.878 172.904 90.878H171.356L171.626 89.564H173.354C174.29 89.564 175.016 89.906 175.532 90.59L175.73 90.878C176.57 90.002 177.542 89.564 178.646 89.564H179.204C179.96 89.564 180.59 89.78 181.094 90.212L181.22 89.564H184.064L183.794 90.878H182.444L180.338 100.76ZM190.344 100.76H188.85L182.856 98.834L183.216 97.088C183.36 96.416 183.696 95.804 184.224 95.252C184.764 94.688 185.394 94.292 186.114 94.064L186.798 93.866L184.566 90.878H183.432L183.702 89.564H194.07L193.8 90.878H192.45L190.344 100.76ZM189.138 99.392L189.894 95.828L187.95 94.838L186.312 95.306C185.928 95.438 185.592 95.654 185.304 95.954C185.016 96.242 184.83 96.56 184.746 96.908L184.548 97.916L189.138 99.392ZM190.2 94.37L190.956 90.878H186.474L188.364 93.416L190.2 94.37ZM202.05 101.876L196.056 98.96L196.362 97.52L198.702 97.124C201.03 96.716 202.296 96.044 202.5 95.108L202.572 94.748C202.656 94.34 202.578 93.992 202.338 93.704C202.11 93.416 201.768 93.272 201.312 93.272H200.232C199.776 93.272 199.386 93.41 199.062 93.686C198.75 93.962 198.546 94.316 198.45 94.748L198.234 95.738H196.74L196.938 94.838C197.106 94.046 197.532 93.368 198.216 92.804C198.9 92.24 199.638 91.958 200.43 91.958H201.69C202.506 91.958 203.148 92.228 203.616 92.768C204.084 93.308 204.234 93.968 204.066 94.748L203.994 95.108C203.766 96.176 202.968 97.01 201.6 97.61C200.724 97.982 199.644 98.276 198.36 98.492L202.824 100.652L202.05 101.876ZM206.01 90.878H196.668L196.938 89.564H206.28L206.01 90.878ZM208.117 100.76C207.097 100.592 206.353 100.13 205.885 99.374C205.429 98.618 205.303 97.742 205.507 96.746L205.993 94.514C206.305 93.038 206.941 91.85 207.901 90.95L207.973 90.878H205.651L205.921 89.564H210.997L210.727 90.878C210.031 90.89 209.377 91.214 208.765 91.85C208.153 92.474 207.739 93.302 207.523 94.334L206.965 96.926C206.833 97.562 206.899 98.114 207.163 98.582C207.439 99.038 207.853 99.326 208.405 99.446L208.117 100.76ZM217.274 100.76H215.78L209.786 98.834L210.146 97.088C210.29 96.416 210.626 95.804 211.154 95.252C211.694 94.688 212.324 94.292 213.044 94.064L213.728 93.866L211.496 90.878H210.362L210.632 89.564H221L220.73 90.878H219.38L217.274 100.76ZM216.068 99.392L217.886 90.878H213.404L215.294 93.416L215.42 94.676L213.242 95.306C212.858 95.438 212.522 95.654 212.234 95.954C211.946 96.242 211.76 96.56 211.676 96.908L211.478 97.916L216.068 99.392ZM211.784 102.704C211.532 102.704 211.328 102.614 211.172 102.434C211.028 102.254 210.986 102.038 211.046 101.786C211.094 101.534 211.232 101.312 211.46 101.12C211.688 100.94 211.928 100.85 212.18 100.85C212.432 100.85 212.624 100.94 212.756 101.12C212.9 101.312 212.948 101.534 212.9 101.786C212.84 102.038 212.702 102.254 212.486 102.434C212.27 102.614 212.036 102.704 211.784 102.704ZM230.51 100.76H229.016L223.022 98.834L223.382 97.088C223.526 96.416 223.862 95.804 224.39 95.252C224.93 94.688 225.56 94.292 226.28 94.064L226.964 93.866L224.732 90.878H223.598L223.868 89.564H234.236L233.966 90.878H232.616L230.51 100.76ZM229.304 99.392L231.122 90.878H226.64L228.53 93.416L228.656 94.676L226.478 95.306C226.094 95.438 225.758 95.654 225.47 95.954C225.182 96.242 224.996 96.56 224.912 96.908L224.714 97.916L229.304 99.392ZM234.338 100.76H232.844L234.95 90.878H233.6L233.87 89.564H238.064L237.794 90.878H236.444L234.338 100.76ZM239.828 100.76C238.808 100.592 238.064 100.13 237.596 99.374C237.14 98.618 237.014 97.742 237.218 96.746L237.704 94.514C238.016 93.038 238.652 91.85 239.612 90.95L239.684 90.878H237.362L237.632 89.564H242.708L242.438 90.878C241.742 90.89 241.088 91.214 240.476 91.85C239.864 92.474 239.45 93.302 239.234 94.334L238.676 96.926C238.544 97.562 238.61 98.114 238.874 98.582C239.15 99.038 239.564 99.326 240.116 99.446L239.828 100.76ZM244.574 99.086H244.358C243.626 99.086 243.05 98.828 242.63 98.312C242.21 97.784 242.078 97.154 242.234 96.422L243.422 90.878H242.072L242.342 89.564H248.84L248.57 90.878H244.898L244.682 91.868L247.328 92.426C247.928 92.558 248.378 92.864 248.678 93.344C248.99 93.812 249.08 94.358 248.948 94.982L248.822 95.594C248.618 96.554 248.096 97.376 247.256 98.06C246.428 98.744 245.534 99.086 244.574 99.086ZM244.844 97.754C245.408 97.754 245.936 97.544 246.428 97.124C246.92 96.692 247.226 96.182 247.346 95.594L247.472 94.982C247.544 94.658 247.502 94.382 247.346 94.154C247.202 93.914 246.998 93.764 246.734 93.704L244.394 93.218L243.71 96.422C243.638 96.794 243.692 97.112 243.872 97.376C244.052 97.628 244.304 97.754 244.628 97.754H244.844ZM255.407 101.948L248.117 99.32L248.405 97.934H248.423V97.916C249.599 97.712 250.775 97.514 251.951 97.322C253.127 97.118 254.027 96.854 254.651 96.53C255.275 96.206 255.635 95.798 255.731 95.306C255.815 94.934 255.737 94.616 255.497 94.352C255.269 94.088 254.951 93.908 254.543 93.812L254.093 93.722C253.913 94.574 253.511 95.246 252.887 95.738C252.263 96.23 251.513 96.476 250.637 96.476C250.001 96.476 249.503 96.278 249.143 95.882C248.795 95.474 248.681 94.988 248.801 94.424L249.557 90.878H248.207L248.477 89.564H259.565L259.295 90.878H251.051L250.889 91.652L255.137 92.534C255.917 92.714 256.493 93.08 256.865 93.632C257.237 94.172 257.357 94.73 257.225 95.306C256.997 96.374 256.205 97.208 254.849 97.808C253.901 98.204 252.923 98.48 251.915 98.636L250.853 98.798L256.091 100.67L255.407 101.948ZM251.033 95.162C251.405 95.162 251.741 95.066 252.041 94.874C252.341 94.67 252.527 94.388 252.599 94.028C252.695 93.62 252.515 93.374 252.059 93.29C251.603 93.194 251.141 93.098 250.673 93.002L250.349 94.478C250.301 94.694 250.343 94.862 250.475 94.982C250.607 95.102 250.793 95.162 251.033 95.162Z" fill="white"/>
<path d="M18.8782 122.331C19.0421 122.515 19.2053 122.698 19.3676 122.882C19.5381 123.075 19.7126 123.265 19.8766 123.464C20.2329 123.897 20.5982 124.323 20.9326 124.772C21.3433 125.323 21.7362 125.888 22.1193 126.458C22.5852 127.153 22.9935 127.883 23.3393 128.646C23.539 129.085 23.7265 129.532 23.8441 130.002C23.8937 130.197 23.9229 130.398 23.9537 130.597C23.961 130.646 23.9367 130.699 23.9253 130.76C23.7338 130.7 23.6063 130.58 23.4992 130.444C23.2297 130.101 22.9724 129.747 22.7037 129.404C22.4188 129.038 22.1331 128.673 21.8352 128.319C21.5535 127.984 21.2581 127.659 20.9634 127.335C20.6728 127.015 20.3831 126.694 20.0787 126.388C19.5892 125.896 19.0917 125.411 18.5884 124.933C18.2516 124.614 17.8985 124.311 17.5519 124.003C17.521 123.975 17.4861 123.953 17.4431 123.92C17.3059 124.081 17.1679 124.234 17.0389 124.394C16.6241 124.909 16.1988 125.416 15.8019 125.945C15.2174 126.725 14.6484 127.515 14.0851 128.309C13.7515 128.779 13.4496 129.272 13.1176 129.743C12.8229 130.162 12.4081 130.369 11.8895 130.359C11.1768 130.346 10.6192 129.798 10.5201 129.171C10.452 128.738 10.5567 128.351 10.8375 128.007C11.2239 127.534 11.5891 127.044 11.982 126.577C12.4885 125.975 13.0064 125.381 13.534 124.796C13.9447 124.341 14.3741 123.904 14.8027 123.467C15.0892 123.174 15.3895 122.894 15.6842 122.609C15.7613 122.534 15.7629 122.514 15.6793 122.451C15.0413 121.972 14.4082 121.487 13.7621 121.02C13.1703 120.593 12.564 120.187 11.9617 119.775C11.7466 119.627 11.5169 119.499 11.3099 119.341C10.9317 119.052 10.7401 118.661 10.7499 118.185C10.7612 117.581 11.0567 117.144 11.5997 116.898C12.0997 116.67 12.5957 116.726 13.0413 117.059C13.8741 117.684 14.6777 118.343 15.4577 119.033C15.9098 119.432 16.3546 119.84 16.7994 120.247C17.03 120.459 17.2524 120.679 17.4756 120.898C17.5235 120.945 17.5559 120.951 17.6128 120.907C18.1923 120.459 18.7637 119.998 19.3587 119.572C19.8352 119.231 20.3327 118.918 20.8368 118.619C21.2914 118.349 21.7589 118.099 22.2346 117.869C22.7654 117.61 23.3157 117.392 23.8896 117.242C24.0406 117.202 24.2005 117.19 24.3571 117.176C24.4034 117.172 24.4521 117.203 24.5 117.218C24.4854 117.259 24.4821 117.31 24.4554 117.339C24.3328 117.47 24.2159 117.61 24.0755 117.721C23.4115 118.247 22.737 118.761 22.073 119.287C21.8376 119.473 21.6193 119.68 21.3953 119.88C21.0811 120.162 20.7605 120.438 20.4577 120.732C19.9537 121.223 19.461 121.726 18.9642 122.225C18.935 122.254 18.9115 122.289 18.8782 122.33V122.331Z" fill="#FF001E"/>
<path d="M44.688 132.1H43.194L43.266 131.83C43.326 131.542 43.26 131.302 43.068 131.11C42.876 130.93 42.6 130.84 42.24 130.84C42.012 130.84 41.79 130.882 41.574 130.966L38.892 132.064H38.64C37.752 132.064 37.05 131.776 36.534 131.2C36.03 130.636 35.868 129.934 36.048 129.094L36.336 127.726H37.83L37.542 129.094C37.446 129.538 37.524 129.922 37.776 130.246C38.04 130.57 38.382 130.744 38.802 130.768L41.196 129.796C41.628 129.604 42.072 129.508 42.528 129.508C42.972 129.52 43.362 129.61 43.698 129.778L44.238 127.204C44.358 126.664 44.286 126.214 44.022 125.854C43.77 125.494 43.374 125.314 42.834 125.314C42.186 125.314 41.7 125.416 41.376 125.62C41.064 125.812 40.878 126.052 40.818 126.34C40.758 126.616 40.836 126.838 41.052 127.006C41.268 127.174 41.58 127.258 41.988 127.258H42.33L42.042 128.59H41.52C40.824 128.59 40.242 128.404 39.774 128.032C39.306 127.648 39.15 127.096 39.306 126.376C39.462 125.62 39.894 125.038 40.602 124.63C41.082 124.342 41.586 124.156 42.114 124.072C41.742 123.916 41.436 123.67 41.196 123.334L41.052 123.154C41.004 123.214 40.95 123.268 40.89 123.316C40.146 123.952 39.378 124.27 38.586 124.27C37.806 124.27 37.14 123.934 36.588 123.262L37.758 122.308C38.094 122.74 38.472 122.956 38.892 122.956C39.252 122.956 39.624 122.782 40.008 122.434C40.404 122.086 40.668 121.606 40.8 120.994L41.034 119.878H36.426L36.696 118.564H48.918L48.648 119.878H47.298L47.046 121.066C46.854 121.978 46.392 122.74 45.66 123.352C45.18 123.748 44.664 124.018 44.112 124.162C44.556 124.294 44.94 124.528 45.264 124.864C45.792 125.44 45.948 126.22 45.732 127.204L44.688 132.1ZM43.5 122.956C43.98 122.956 44.412 122.782 44.796 122.434C45.18 122.074 45.432 121.618 45.552 121.066L45.804 119.878H42.528L42.258 121.084C42.138 121.684 42.192 122.146 42.42 122.47C42.648 122.794 43.008 122.956 43.5 122.956ZM49.0292 129.76H47.5352L49.6412 119.878H48.2912L48.5612 118.564H49.9112L50.0012 118.168C50.1812 117.292 50.0252 116.548 49.5332 115.936C49.0532 115.324 48.3812 115.018 47.5172 115.018H44.0432C43.8272 115.018 43.6292 115.084 43.4492 115.216C43.2572 115.336 43.1372 115.492 43.0892 115.684C43.0532 115.888 43.1012 116.056 43.2332 116.188C43.3532 116.308 43.5272 116.368 43.7552 116.368H46.2212C46.7252 116.368 47.1152 116.548 47.3912 116.908C47.6792 117.256 47.7692 117.682 47.6612 118.186L47.4992 118.924H46.0052L46.1672 118.132C46.2512 117.772 46.1132 117.592 45.7532 117.592H43.4132C42.8012 117.592 42.3152 117.412 41.9552 117.052C41.5952 116.692 41.4752 116.236 41.5952 115.684C41.7152 115.144 42.0332 114.682 42.5492 114.298C43.0652 113.902 43.6292 113.704 44.2412 113.704H47.8052C49.0772 113.704 50.0732 114.16 50.7932 115.072C51.5132 115.972 51.7352 117.064 51.4592 118.348L51.4052 118.564H52.7552L52.4852 119.878H51.1352L49.0292 129.76ZM54.519 129.76C53.499 129.592 52.755 129.13 52.287 128.374C51.831 127.618 51.705 126.742 51.909 125.746L52.395 123.514C52.707 122.038 53.343 120.85 54.303 119.95L54.375 119.878H52.053L52.323 118.564H57.399L57.129 119.878C56.433 119.89 55.779 120.214 55.167 120.85C54.555 121.474 54.141 122.302 53.925 123.334L53.367 125.926C53.235 126.562 53.301 127.114 53.565 127.582C53.841 128.038 54.255 128.326 54.807 128.446L54.519 129.76ZM63.5859 129.76H62.0919L56.4039 126.79L56.7459 125.17C56.9019 124.438 57.2439 123.784 57.7719 123.208C58.2999 122.62 58.9959 122.2 59.8599 121.948L63.9999 120.778L64.1979 119.878H56.7639L57.0339 118.564H71.2719L71.0019 119.878H65.6919L65.4939 120.778H66.3039C67.3239 120.778 68.1159 121.078 68.6799 121.678C69.2559 122.266 69.4539 122.986 69.2739 123.838L69.2019 124.18C69.0459 124.936 68.6259 125.578 67.9419 126.106C67.2699 126.622 66.5319 126.88 65.7279 126.88L66.0159 125.566C66.3999 125.566 66.7539 125.434 67.0779 125.17C67.4139 124.894 67.6239 124.564 67.7079 124.18L67.7799 123.838C67.8759 123.358 67.7619 122.95 67.4379 122.614C67.1139 122.266 66.6459 122.092 66.0339 122.092H65.2239L63.5859 129.76ZM62.3979 128.284L63.7119 122.164L60.1119 123.19C59.0799 123.478 58.4679 124.078 58.2759 124.99L58.0599 126.016L62.3979 128.284ZM81.247 129.76H79.753L80.221 127.546C80.353 126.946 80.251 126.436 79.915 126.016C79.591 125.596 79.135 125.386 78.547 125.386H78.241C77.977 126.286 77.461 127.066 76.693 127.726C75.817 128.482 74.875 128.86 73.867 128.86H73.093L73.363 127.546H73.957C74.641 127.546 75.253 127.294 75.793 126.79C76.345 126.286 76.693 125.686 76.837 124.99L76.909 124.702C77.053 124.006 76.957 123.412 76.621 122.92C76.285 122.416 75.775 122.164 75.091 122.164H74.515L75.001 119.878H73.885L74.155 118.564H84.973L84.703 119.878H83.353L81.247 129.76ZM80.815 124.774L81.859 119.878H76.495L76.261 120.958C77.077 121.15 77.683 121.588 78.079 122.272C78.391 122.812 78.523 123.412 78.475 124.072H78.817C79.633 124.072 80.299 124.306 80.815 124.774ZM88.142 130.768H87.188C86.096 130.768 85.214 130.444 84.542 129.796C83.882 129.16 83.672 128.266 83.912 127.114L84.218 125.71H85.712L85.388 127.186C85.244 127.858 85.376 128.404 85.784 128.824C86.192 129.232 86.756 129.436 87.476 129.436H88.43C89.162 129.436 89.81 129.232 90.374 128.824C90.95 128.416 91.304 127.9 91.436 127.276L91.58 126.592C91.676 126.184 91.622 125.872 91.418 125.656C91.214 125.44 90.908 125.332 90.5 125.332C89.768 125.332 89.33 125.68 89.186 126.376L88.934 127.528H87.44L87.674 126.448C87.926 125.26 88.652 124.486 89.852 124.126C89.432 123.958 89.066 123.634 88.754 123.154C88.454 122.662 88.106 122.416 87.71 122.416C87.362 122.416 87.026 122.566 86.702 122.866C86.378 123.154 86.15 123.622 86.018 124.27H84.524C84.716 123.346 85.142 122.584 85.802 121.984C86.474 121.372 87.212 121.066 88.016 121.066C88.844 121.066 89.51 121.486 90.014 122.326C90.29 122.758 90.602 122.974 90.95 122.974C91.358 122.974 91.73 122.806 92.066 122.47C92.402 122.134 92.63 121.69 92.75 121.138L93.02 119.878H84.344L84.614 118.564H95.9L95.63 119.878H94.514L94.28 120.958C94.1 121.786 93.71 122.524 93.11 123.172C92.678 123.628 92.204 123.94 91.688 124.108C92.888 124.492 93.356 125.314 93.092 126.574L92.948 127.204C92.72 128.296 92.132 129.16 91.184 129.796C90.248 130.444 89.234 130.768 88.142 130.768ZM85.6573 135.98C84.8413 135.98 84.2293 135.77 83.8213 135.35C83.4013 134.942 83.2633 134.414 83.4073 133.766C83.5393 133.13 83.8933 132.602 84.4693 132.182C85.0333 131.774 85.6813 131.57 86.4133 131.57C86.8933 131.57 87.3553 131.66 87.7993 131.84L88.1593 130.13H89.6533L89.1313 132.632L91.8673 134.558L90.9673 135.638L88.8073 134.09C88.6273 134.606 88.2853 135.032 87.7813 135.368C87.1813 135.776 86.4733 135.98 85.6573 135.98ZM85.8913 134.756C86.7553 134.756 87.2653 134.396 87.4213 133.676L87.5113 133.19C87.0673 132.926 86.6593 132.794 86.2873 132.794C85.9153 132.794 85.5913 132.878 85.3153 133.046C85.0393 133.226 84.8713 133.466 84.8113 133.766C84.7393 134.066 84.8053 134.306 85.0093 134.486C85.2133 134.666 85.5073 134.756 85.8913 134.756ZM103.054 129.76H102.532C101.668 129.76 101.002 129.454 100.534 128.842C100.294 128.554 100.132 128.23 100.048 127.87L95.0256 126.268L95.3676 124.72C95.4876 124.156 95.7696 123.64 96.2136 123.172C96.6576 122.704 97.1856 122.374 97.7976 122.182L98.1756 122.074L96.5196 119.878H95.2776L95.5476 118.564H107.716L107.824 118.114C107.884 117.778 107.824 117.496 107.644 117.268C107.464 117.028 107.206 116.908 106.87 116.908H104.35C103.75 116.908 103.276 116.698 102.928 116.278C102.592 115.846 102.49 115.324 102.622 114.712H104.116C103.984 115.3 104.182 115.594 104.71 115.594H107.14C107.884 115.594 108.466 115.858 108.886 116.386C109.306 116.914 109.432 117.55 109.264 118.294L109.21 118.564H110.326L110.056 119.878H103.018L101.578 126.646C101.47 127.138 101.536 127.564 101.776 127.924C102.028 128.272 102.376 128.446 102.82 128.446H103.342C103.978 128.446 104.56 128.224 105.088 127.78C105.628 127.324 105.97 126.778 106.114 126.142L106.186 125.746C106.306 125.23 106.222 124.792 105.934 124.432C105.646 124.06 105.244 123.874 104.728 123.874H103.918L104.188 122.56H104.998C105.922 122.56 106.648 122.872 107.176 123.496C107.704 124.108 107.872 124.858 107.68 125.746L107.608 126.142C107.392 127.15 106.84 128.008 105.952 128.716C105.064 129.412 104.098 129.76 103.054 129.76ZM100.12 126.43L100.696 123.73L99.3276 123.028L97.9956 123.424C97.7076 123.52 97.4556 123.676 97.2396 123.892C97.0356 124.108 96.9096 124.336 96.8616 124.576L96.6996 125.332L100.12 126.43ZM101.002 122.272L101.524 119.878H98.4276L99.7236 121.606L101.002 122.272ZM119.748 129.76H118.254L112.566 126.79L112.908 125.17C113.064 124.438 113.406 123.784 113.934 123.208C114.462 122.62 115.158 122.2 116.022 121.948L120.162 120.778L120.36 119.878H112.926L113.196 118.564H127.434L127.164 119.878H121.854L121.656 120.778H122.466C123.486 120.778 124.278 121.078 124.842 121.678C125.418 122.266 125.616 122.986 125.436 123.838L125.364 124.18C125.208 124.936 124.788 125.578 124.104 126.106C123.432 126.622 122.694 126.88 121.89 126.88L122.178 125.566C122.562 125.566 122.916 125.434 123.24 125.17C123.576 124.894 123.786 124.564 123.87 124.18L123.942 123.838C124.038 123.358 123.924 122.95 123.6 122.614C123.276 122.266 122.808 122.092 122.196 122.092H121.386L119.748 129.76ZM118.56 128.284L119.874 122.164L116.274 123.19C115.242 123.478 114.63 124.078 114.438 124.99L114.222 126.016L118.56 128.284ZM133.635 129.76H132.141L126.453 126.79L126.795 125.17C126.951 124.438 127.293 123.784 127.821 123.208C128.349 122.62 129.045 122.2 129.909 121.948L134.049 120.778L134.247 119.878H126.813L127.083 118.564H137.361L137.091 119.878H135.741L133.635 129.76ZM132.447 128.284L133.761 122.164L130.161 123.19C129.129 123.478 128.517 124.078 128.325 124.99L128.109 126.016L132.447 128.284ZM127.857 131.002C127.605 131.002 127.407 130.912 127.263 130.732C127.119 130.552 127.071 130.336 127.119 130.084C127.179 129.832 127.317 129.616 127.533 129.436C127.761 129.244 128.001 129.148 128.253 129.148C128.505 129.148 128.703 129.244 128.847 129.436C128.991 129.616 129.033 129.832 128.973 130.084C128.925 130.336 128.787 130.552 128.559 130.732C128.343 130.912 128.109 131.002 127.857 131.002ZM139.193 129.76C138.173 129.592 137.429 129.13 136.961 128.374C136.505 127.618 136.379 126.742 136.583 125.746L137.069 123.514C137.381 122.038 138.017 120.85 138.977 119.95L139.049 119.878H136.727L136.997 118.564H142.073L141.803 119.878C141.107 119.89 140.453 120.214 139.841 120.85C139.229 121.474 138.815 122.302 138.599 123.334L138.041 125.926C137.909 126.562 137.975 127.114 138.239 127.582C138.515 128.038 138.929 128.326 139.481 128.446L139.193 129.76ZM145.686 129.76H144.498C143.382 129.76 142.512 129.364 141.888 128.572C141.264 127.78 141.072 126.82 141.312 125.692L142.14 121.84H143.634L142.788 125.782C142.632 126.49 142.752 127.114 143.148 127.654C143.544 128.182 144.09 128.446 144.786 128.446H145.974C146.682 128.446 147.336 128.182 147.936 127.654C148.548 127.114 148.932 126.49 149.088 125.782L149.538 123.694C149.61 123.322 149.544 122.992 149.34 122.704C149.148 122.416 148.806 122.272 148.314 122.272C148.026 122.272 147.75 122.392 147.486 122.632C147.234 122.872 147.078 123.136 147.018 123.424L146.568 125.494H145.074L145.506 123.514C145.65 122.806 146.028 122.206 146.64 121.714C147.252 121.21 147.966 120.958 148.782 120.958C149.562 120.958 150.168 121.234 150.6 121.786C151.032 122.338 151.17 123.004 151.014 123.784L150.6 125.692C150.36 126.82 149.76 127.78 148.8 128.572C147.84 129.364 146.802 129.76 145.686 129.76ZM152.958 119.878H141.438L141.708 118.564H153.228L152.958 119.878ZM163.448 129.76H161.954L162.944 125.134L156.338 127.474L156.14 126.232L158.336 125.44C158.444 124.948 158.354 124.522 158.066 124.162C157.79 123.79 157.4 123.604 156.896 123.604H156.158L156.482 122.074C156.686 121.114 157.202 120.292 158.03 119.608C158.858 118.912 159.758 118.564 160.73 118.564H161.504C162.584 118.564 163.454 118.918 164.114 119.626L164.33 118.564H167.174L166.904 119.878H165.554L163.448 129.76ZM159.866 124.9L163.25 123.694L163.448 122.704C163.616 121.924 163.484 121.258 163.052 120.706C162.62 120.154 162.014 119.878 161.234 119.878H160.46C159.908 119.878 159.392 120.076 158.912 120.472C158.432 120.868 158.132 121.348 158.012 121.912L157.904 122.398C158.576 122.566 159.104 122.944 159.488 123.532C159.74 123.94 159.866 124.396 159.866 124.9ZM167.277 129.76H165.783L167.889 119.878H166.539L166.809 118.564H171.003L170.733 119.878H169.383L167.277 129.76ZM177.123 129.76H175.629L169.941 126.79L170.283 125.17C170.439 124.438 170.781 123.784 171.309 123.208C171.837 122.62 172.533 122.2 173.397 121.948L177.537 120.778L177.735 119.878H170.301L170.571 118.564H180.849L180.579 119.878H179.229L177.123 129.76ZM175.935 128.284L177.249 122.164L173.649 123.19C172.617 123.478 172.005 124.078 171.813 124.99L171.597 126.016L175.935 128.284ZM171.345 131.002C171.093 131.002 170.895 130.912 170.751 130.732C170.607 130.552 170.559 130.336 170.607 130.084C170.667 129.832 170.805 129.616 171.021 129.436C171.249 129.244 171.489 129.148 171.741 129.148C171.993 129.148 172.191 129.244 172.335 129.436C172.479 129.616 172.521 129.832 172.461 130.084C172.413 130.336 172.275 130.552 172.047 130.732C171.831 130.912 171.597 131.002 171.345 131.002ZM182.681 129.76C181.661 129.592 180.917 129.13 180.449 128.374C179.993 127.618 179.867 126.742 180.071 125.746L180.557 123.514C180.869 122.038 181.505 120.85 182.465 119.95L182.537 119.878H180.215L180.485 118.564H185.561L185.291 119.878C184.595 119.89 183.941 120.214 183.329 120.85C182.717 121.474 182.303 122.302 182.087 123.334L181.529 125.926C181.397 126.562 181.463 127.114 181.727 127.582C182.003 128.038 182.417 128.326 182.969 128.446L182.681 129.76ZM192.126 130.948L184.836 128.32L185.124 126.934H185.142V126.916C186.318 126.712 187.494 126.514 188.67 126.322C189.846 126.118 190.746 125.854 191.37 125.53C191.994 125.206 192.354 124.798 192.45 124.306C192.534 123.934 192.456 123.616 192.216 123.352C191.988 123.088 191.67 122.908 191.262 122.812L190.812 122.722C190.632 123.574 190.23 124.246 189.606 124.738C188.982 125.23 188.232 125.476 187.356 125.476C186.72 125.476 186.222 125.278 185.862 124.882C185.514 124.474 185.4 123.988 185.52 123.424L186.276 119.878H184.926L185.196 118.564H196.284L196.014 119.878H187.77L187.608 120.652L191.856 121.534C192.636 121.714 193.212 122.08 193.584 122.632C193.956 123.172 194.076 123.73 193.944 124.306C193.716 125.374 192.924 126.208 191.568 126.808C190.62 127.204 189.642 127.48 188.634 127.636L187.572 127.798L192.81 129.67L192.126 130.948ZM187.752 124.162C188.124 124.162 188.46 124.066 188.76 123.874C189.06 123.67 189.246 123.388 189.318 123.028C189.414 122.62 189.234 122.374 188.778 122.29C188.322 122.194 187.86 122.098 187.392 122.002L187.068 123.478C187.02 123.694 187.062 123.862 187.194 123.982C187.326 124.102 187.512 124.162 187.752 124.162ZM202.831 129.76H201.337L202.201 125.656C202.369 124.876 202.237 124.21 201.805 123.658C201.373 123.094 200.761 122.812 199.969 122.812H199.735C199.159 122.812 198.619 123.016 198.115 123.424C197.623 123.832 197.311 124.324 197.179 124.9L197.107 125.278C196.999 125.77 197.083 126.19 197.359 126.538C197.635 126.874 198.013 127.042 198.493 127.042H199.213L198.943 128.356H198.223C197.335 128.356 196.633 128.056 196.117 127.456C195.601 126.856 195.433 126.13 195.613 125.278L195.685 124.9C195.889 123.952 196.411 123.148 197.251 122.488C198.103 121.828 199.027 121.498 200.023 121.498H200.257C201.349 121.498 202.219 121.852 202.867 122.56L203.443 119.878H195.649L195.919 118.564H206.557L206.287 119.878H204.937L202.831 129.76ZM216.348 129.76H214.854L215.718 125.656C215.886 124.876 215.754 124.21 215.322 123.658C214.89 123.094 214.278 122.812 213.486 122.812H213.252C212.676 122.812 212.136 123.016 211.632 123.424C211.14 123.832 210.828 124.324 210.696 124.9L210.624 125.278C210.516 125.77 210.6 126.19 210.876 126.538C211.152 126.874 211.53 127.042 212.01 127.042H212.73L212.46 128.356H211.74C210.852 128.356 210.15 128.056 209.634 127.456C209.118 126.856 208.95 126.13 209.13 125.278L209.202 124.9C209.406 123.952 209.928 123.148 210.768 122.488C211.62 121.828 212.544 121.498 213.54 121.498H213.774C214.866 121.498 215.736 121.852 216.384 122.56L216.96 119.878H209.166L209.436 118.564H220.074L219.804 119.878H218.454L216.348 129.76ZM220.187 129.76H218.693L220.799 119.878H219.449L219.719 118.564H223.913L223.643 119.878H222.293L220.187 129.76Z" fill="white"/>
<path d="M18.8782 151.331C19.0421 151.515 19.2053 151.698 19.3676 151.882C19.5381 152.075 19.7126 152.265 19.8766 152.464C20.2329 152.897 20.5982 153.323 20.9326 153.772C21.3433 154.323 21.7362 154.888 22.1193 155.458C22.5852 156.153 22.9935 156.883 23.3393 157.646C23.539 158.085 23.7265 158.532 23.8441 159.002C23.8937 159.197 23.9229 159.398 23.9537 159.597C23.961 159.646 23.9367 159.699 23.9253 159.76C23.7338 159.7 23.6063 159.58 23.4992 159.444C23.2297 159.101 22.9724 158.747 22.7037 158.404C22.4188 158.038 22.1331 157.673 21.8352 157.319C21.5535 156.984 21.2581 156.659 20.9634 156.335C20.6728 156.015 20.3831 155.694 20.0787 155.388C19.5892 154.896 19.0917 154.411 18.5884 153.933C18.2516 153.614 17.8985 153.311 17.5519 153.003C17.521 152.975 17.4861 152.953 17.4431 152.92C17.3059 153.081 17.1679 153.234 17.0389 153.394C16.6241 153.909 16.1988 154.416 15.8019 154.945C15.2174 155.725 14.6484 156.515 14.0851 157.309C13.7515 157.779 13.4496 158.272 13.1176 158.743C12.8229 159.162 12.4081 159.369 11.8895 159.359C11.1768 159.346 10.6192 158.798 10.5201 158.171C10.452 157.738 10.5567 157.351 10.8375 157.007C11.2239 156.534 11.5891 156.044 11.982 155.577C12.4885 154.975 13.0064 154.381 13.534 153.796C13.9447 153.341 14.3741 152.904 14.8027 152.467C15.0892 152.174 15.3895 151.894 15.6842 151.609C15.7613 151.534 15.7629 151.514 15.6793 151.451C15.0413 150.972 14.4082 150.487 13.7621 150.02C13.1703 149.593 12.564 149.187 11.9617 148.775C11.7466 148.627 11.5169 148.499 11.3099 148.341C10.9317 148.052 10.7401 147.661 10.7499 147.185C10.7612 146.581 11.0567 146.144 11.5997 145.898C12.0997 145.67 12.5957 145.726 13.0413 146.059C13.8741 146.684 14.6777 147.343 15.4577 148.033C15.9098 148.432 16.3546 148.84 16.7994 149.247C17.03 149.459 17.2524 149.679 17.4756 149.898C17.5235 149.945 17.5559 149.951 17.6128 149.907C18.1923 149.459 18.7637 148.998 19.3587 148.572C19.8352 148.231 20.3327 147.918 20.8368 147.619C21.2914 147.349 21.7589 147.099 22.2346 146.869C22.7654 146.61 23.3157 146.392 23.8896 146.242C24.0406 146.202 24.2005 146.19 24.3571 146.176C24.4034 146.172 24.4521 146.203 24.5 146.218C24.4854 146.259 24.4821 146.31 24.4554 146.339C24.3328 146.47 24.2159 146.61 24.0755 146.721C23.4115 147.247 22.737 147.761 22.073 148.287C21.8376 148.473 21.6193 148.68 21.3953 148.88C21.0811 149.162 20.7605 149.438 20.4577 149.732C19.9537 150.223 19.461 150.726 18.9642 151.225C18.935 151.254 18.9115 151.289 18.8782 151.33V151.331Z" fill="#FF001E"/>
<path d="M52.158 158.76H50.664L52.77 148.878H50.43L48.324 158.76H46.83L44.526 156.852C44.31 157.092 44.064 157.326 43.788 157.554C42.828 158.346 41.79 158.742 40.674 158.742H39.486C38.37 158.742 37.5 158.346 36.876 157.554C36.252 156.762 36.06 155.808 36.3 154.692L37.128 150.84H38.622L37.776 154.782C37.62 155.49 37.74 156.108 38.136 156.636C38.532 157.164 39.078 157.428 39.774 157.428H40.962C41.67 157.428 42.324 157.164 42.924 156.636C43.536 156.108 43.92 155.49 44.076 154.782L44.526 152.694C44.598 152.322 44.532 151.992 44.328 151.704C44.136 151.416 43.794 151.272 43.302 151.272C43.014 151.272 42.738 151.392 42.474 151.632C42.222 151.872 42.066 152.136 42.006 152.424L41.556 154.494H40.062L40.494 152.514C40.638 151.806 41.016 151.206 41.628 150.714C42.24 150.21 42.954 149.958 43.77 149.958C44.55 149.958 45.156 150.234 45.588 150.786C46.02 151.338 46.158 152.004 46.002 152.784L45.588 154.692C45.528 154.992 45.438 155.28 45.318 155.556L47.19 157.104L48.936 148.878H36.426L36.696 147.564H55.884L55.614 148.878H54.264L52.158 158.76ZM57.7182 158.76C56.6982 158.592 55.9542 158.13 55.4862 157.374C55.0302 156.618 54.9042 155.742 55.1082 154.746L55.5942 152.514C55.9062 151.038 56.5422 149.85 57.5022 148.95L57.5742 148.878H55.2522L55.5222 147.564H60.5982L60.3282 148.878C59.6322 148.89 58.9782 149.214 58.3662 149.85C57.7542 150.474 57.3402 151.302 57.1242 152.334L56.5662 154.926C56.4342 155.562 56.5002 156.114 56.7642 156.582C57.0402 157.038 57.4542 157.326 58.0062 157.446L57.7182 158.76ZM67.3791 158.76H65.8851L67.3791 151.704C67.5471 150.924 67.4151 150.258 66.9831 149.706C66.5511 149.154 65.9451 148.878 65.1651 148.878H64.4991C63.9711 148.878 63.4791 149.064 63.0231 149.436C62.5671 149.808 62.2791 150.258 62.1591 150.786L62.0871 151.128H62.8791C63.6111 151.128 64.1811 151.368 64.5891 151.848C65.0091 152.328 65.1471 152.91 65.0031 153.594C64.8471 154.338 64.4031 154.992 63.6711 155.556C62.9511 156.12 62.1771 156.402 61.3491 156.402H60.0171L60.2871 155.088H61.4391C61.9311 155.088 62.3751 154.944 62.7711 154.656C63.1791 154.368 63.4251 154.014 63.5091 153.594C63.5811 153.282 63.5271 153.012 63.3471 152.784C63.1791 152.556 62.9331 152.442 62.6091 152.442H60.3231L60.6291 150.966C60.8571 150.006 61.3671 149.202 62.1591 148.554C62.9631 147.894 63.8331 147.564 64.7691 147.564H65.4351C66.5271 147.564 67.3971 147.912 68.0451 148.608L68.2611 147.564H71.1051L70.8351 148.878H69.4851L67.3791 158.76ZM77.2968 158.76H75.8028L70.1148 155.79L70.4568 154.17C70.6128 153.438 70.9548 152.784 71.4828 152.208C72.0108 151.62 72.7068 151.2 73.5708 150.948L77.7108 149.778L77.9088 148.878H70.4748L70.7448 147.564H81.0228L80.7528 148.878H79.4028L77.2968 158.76ZM76.1088 157.284L77.4228 151.164L73.8228 152.19C72.7908 152.478 72.1788 153.078 71.9868 153.99L71.7708 155.016L76.1088 157.284ZM71.5188 160.002C71.2668 160.002 71.0688 159.912 70.9248 159.732C70.7808 159.552 70.7328 159.336 70.7808 159.084C70.8408 158.832 70.9788 158.616 71.1948 158.436C71.4228 158.244 71.6628 158.148 71.9148 158.148C72.1668 158.148 72.3648 158.244 72.5088 158.436C72.6528 158.616 72.6948 158.832 72.6348 159.084C72.5868 159.336 72.4488 159.552 72.2208 159.732C72.0048 159.912 71.7708 160.002 71.5188 160.002ZM90.9853 158.76H89.4913L89.9953 156.42C90.1273 155.784 89.9953 155.25 89.5993 154.818C89.2033 154.374 88.6633 154.152 87.9793 154.152H86.7553C86.2993 154.152 85.8793 154.302 85.4953 154.602C85.1113 154.902 84.8713 155.268 84.7753 155.7C84.6913 156.096 84.7633 156.414 84.9913 156.654C85.2193 156.882 85.5133 156.996 85.8733 156.996H86.8093L86.5213 158.31H85.5853C84.8173 158.31 84.1993 158.07 83.7313 157.59C83.2753 157.098 83.1253 156.468 83.2813 155.7C83.4493 154.896 83.8993 154.218 84.6313 153.666C85.2913 153.162 86.0173 152.886 86.8093 152.838C86.8693 152.406 86.7373 152.028 86.4133 151.704C86.0533 151.356 85.5733 151.182 84.9733 151.182H84.2353L84.7393 148.878H83.6233L83.8933 147.564H94.7113L94.4413 148.878H93.0913L90.9853 158.76ZM90.5713 153.666L91.5973 148.878H86.2333L85.9993 149.958C86.8153 150.126 87.4393 150.504 87.8713 151.092C88.2313 151.596 88.3693 152.178 88.2853 152.838C89.2213 152.838 89.9833 153.114 90.5713 153.666ZM96.5483 158.76C95.5283 158.592 94.7843 158.13 94.3163 157.374C93.8603 156.618 93.7343 155.742 93.9383 154.746L94.4243 152.514C94.7363 151.038 95.3723 149.85 96.3323 148.95L96.4043 148.878H94.0823L94.3523 147.564H99.4283L99.1583 148.878C98.4623 148.89 97.8083 149.214 97.1963 149.85C96.5843 150.474 96.1703 151.302 95.9543 152.334L95.3963 154.926C95.2643 155.562 95.3303 156.114 95.5943 156.582C95.8703 157.038 96.2843 157.326 96.8363 157.446L96.5483 158.76ZM103.041 158.76H101.853C100.737 158.76 99.8672 158.364 99.2432 157.572C98.6192 156.78 98.4272 155.82 98.6672 154.692L99.4952 150.84H100.989L100.143 154.782C99.9872 155.49 100.107 156.114 100.503 156.654C100.899 157.182 101.445 157.446 102.141 157.446H103.329C104.037 157.446 104.691 157.182 105.291 156.654C105.903 156.114 106.287 155.49 106.443 154.782L106.893 152.694C106.965 152.322 106.899 151.992 106.695 151.704C106.503 151.416 106.161 151.272 105.669 151.272C105.381 151.272 105.105 151.392 104.841 151.632C104.589 151.872 104.433 152.136 104.373 152.424L103.923 154.494H102.429L102.861 152.514C103.005 151.806 103.383 151.206 103.995 150.714C104.607 150.21 105.321 149.958 106.137 149.958C106.917 149.958 107.523 150.234 107.955 150.786C108.387 151.338 108.525 152.004 108.369 152.784L107.955 154.692C107.715 155.82 107.115 156.78 106.155 157.572C105.195 158.364 104.157 158.76 103.041 158.76ZM110.313 148.878H98.7932L99.0632 147.564H110.583L110.313 148.878ZM110.693 158.76H109.199L111.305 148.878H109.955L110.225 147.564H114.419L114.149 148.878H112.799L110.693 158.76ZM125.933 158.76H124.439L126.077 151.02C126.209 150.42 126.119 149.916 125.807 149.508C125.507 149.088 125.081 148.878 124.529 148.878H124.151C123.575 148.878 123.035 149.094 122.531 149.526C122.039 149.946 121.721 150.486 121.577 151.146L121.487 151.578C121.367 152.13 121.433 152.586 121.685 152.946C121.949 153.294 122.315 153.468 122.783 153.468H123.575L123.305 154.782H122.333C121.505 154.782 120.863 154.476 120.407 153.864C120.359 153.816 120.323 153.768 120.299 153.72L120.119 153.864C119.399 154.476 118.619 154.782 117.779 154.782H116.807L117.077 153.468H117.869C118.337 153.468 118.775 153.294 119.183 152.946C119.603 152.586 119.873 152.13 119.993 151.578L120.083 151.146C120.227 150.486 120.137 149.946 119.813 149.526C119.501 149.094 119.063 148.878 118.499 148.878H116.951L117.221 147.564H118.949C119.885 147.564 120.611 147.906 121.127 148.59L121.325 148.878C122.165 148.002 123.137 147.564 124.241 147.564H124.799C125.555 147.564 126.185 147.78 126.689 148.212L126.815 147.564H129.659L129.389 148.878H128.039L125.933 158.76ZM129.766 158.76H128.272L130.378 148.878H129.028L129.298 147.564H130.648L130.792 146.934C130.936 146.25 131.242 145.614 131.71 145.026C132.178 144.426 132.736 143.958 133.384 143.622C134.032 143.274 134.53 143.094 134.878 143.082C135.226 143.058 135.466 143.046 135.598 143.046C136.03 143.046 136.45 143.076 136.858 143.136L141.664 143.784L141.214 145.08C137.638 144.6 135.736 144.36 135.508 144.36C134.884 144.36 134.362 144.48 133.942 144.72C133.042 145.236 132.502 145.914 132.322 146.754L132.142 147.564H133.492L133.222 148.878H131.872L129.766 158.76ZM137.325 159.57H135.975C134.775 159.57 133.839 159.144 133.167 158.292C132.507 157.44 132.303 156.414 132.555 155.214L132.807 154.044H134.301L134.049 155.214C133.869 156.054 133.995 156.774 134.427 157.374C134.859 157.974 135.471 158.274 136.263 158.274H137.613C138.165 158.274 138.657 158.124 139.089 157.824C139.521 157.512 139.779 157.152 139.863 156.744L139.917 156.474C139.989 156.138 139.917 155.85 139.701 155.61C139.485 155.37 139.197 155.238 138.837 155.214C138.513 155.298 137.997 155.34 137.289 155.34L137.577 154.044H138.117C138.585 154.044 138.993 153.912 139.341 153.648C139.701 153.384 139.917 153.072 139.989 152.712L140.115 152.154C140.175 151.89 140.109 151.662 139.917 151.47C139.737 151.266 139.467 151.164 139.107 151.164H138.495C138.099 151.164 137.745 151.284 137.433 151.524C137.121 151.764 136.935 152.034 136.875 152.334L136.659 153.306H135.165L135.381 152.334C135.525 151.662 135.927 151.086 136.587 150.606C137.247 150.114 137.955 149.868 138.711 149.868H139.413C140.133 149.868 140.721 150.078 141.177 150.498C141.405 150.726 141.549 150.984 141.609 151.272C142.317 150.816 143.067 150.588 143.859 150.588C144.651 150.588 145.269 150.846 145.713 151.362C146.157 151.878 146.301 152.514 146.145 153.27C145.989 154.014 145.569 154.65 144.885 155.178C144.201 155.706 143.439 155.97 142.599 155.97L142.869 154.656C143.301 154.656 143.685 154.524 144.021 154.26C144.357 153.984 144.567 153.654 144.651 153.27C144.735 152.886 144.669 152.562 144.453 152.298C144.237 152.034 143.943 151.902 143.571 151.902C142.995 151.902 142.461 152.1 141.969 152.496C141.705 152.712 141.489 152.952 141.321 153.216C141.153 153.624 140.895 153.99 140.547 154.314C141.327 154.794 141.615 155.514 141.411 156.474L141.357 156.744C141.177 157.56 140.691 158.232 139.899 158.76C139.107 159.3 138.249 159.57 137.325 159.57ZM147.963 148.878H132.789L133.059 147.564H148.233L147.963 148.878ZM158.456 158.76H156.962L157.952 154.134L151.346 156.474L151.148 155.232L153.344 154.44C153.452 153.948 153.362 153.522 153.074 153.162C152.798 152.79 152.408 152.604 151.904 152.604H151.166L151.49 151.074C151.694 150.114 152.21 149.292 153.038 148.608C153.866 147.912 154.766 147.564 155.738 147.564H156.512C157.592 147.564 158.462 147.918 159.122 148.626L159.338 147.564H162.182L161.912 148.878H160.562L158.456 158.76ZM154.874 153.9L158.258 152.694L158.456 151.704C158.624 150.924 158.492 150.258 158.06 149.706C157.628 149.154 157.022 148.878 156.242 148.878H155.468C154.916 148.878 154.4 149.076 153.92 149.472C153.44 149.868 153.14 150.348 153.02 150.912L152.912 151.398C153.584 151.566 154.112 151.944 154.496 152.532C154.748 152.94 154.874 153.396 154.874 153.9ZM162.285 158.76H160.791L162.897 148.878H161.547L161.817 147.564H166.011L165.741 148.878H164.391L162.285 158.76ZM167.775 158.76C166.755 158.592 166.011 158.13 165.543 157.374C165.087 156.618 164.961 155.742 165.165 154.746L165.651 152.514C165.963 151.038 166.599 149.85 167.559 148.95L167.631 148.878H165.309L165.579 147.564H170.655L170.385 148.878C169.689 148.89 169.035 149.214 168.423 149.85C167.811 150.474 167.397 151.302 167.181 152.334L166.623 154.926C166.491 155.562 166.557 156.114 166.821 156.582C167.097 157.038 167.511 157.326 168.063 157.446L167.775 158.76ZM172.522 157.086H172.306C171.574 157.086 170.998 156.828 170.578 156.312C170.158 155.784 170.026 155.154 170.182 154.422L171.37 148.878H170.02L170.29 147.564H176.788L176.518 148.878H172.846L172.63 149.868L175.276 150.426C175.876 150.558 176.326 150.864 176.626 151.344C176.938 151.812 177.028 152.358 176.896 152.982L176.77 153.594C176.566 154.554 176.044 155.376 175.204 156.06C174.376 156.744 173.482 157.086 172.522 157.086ZM172.792 155.754C173.356 155.754 173.884 155.544 174.376 155.124C174.868 154.692 175.174 154.182 175.294 153.594L175.42 152.982C175.492 152.658 175.45 152.382 175.294 152.154C175.15 151.914 174.946 151.764 174.682 151.704L172.342 151.218L171.658 154.422C171.586 154.794 171.64 155.112 171.82 155.376C172 155.628 172.252 155.754 172.576 155.754H172.792ZM183.355 159.948L176.065 157.32L176.353 155.934H176.371V155.916C177.547 155.712 178.723 155.514 179.899 155.322C181.075 155.118 181.975 154.854 182.599 154.53C183.223 154.206 183.583 153.798 183.679 153.306C183.763 152.934 183.685 152.616 183.445 152.352C183.217 152.088 182.899 151.908 182.491 151.812L182.041 151.722C181.861 152.574 181.459 153.246 180.835 153.738C180.211 154.23 179.461 154.476 178.585 154.476C177.949 154.476 177.451 154.278 177.091 153.882C176.743 153.474 176.629 152.988 176.749 152.424L177.505 148.878H176.155L176.425 147.564H187.513L187.243 148.878H178.999L178.837 149.652L183.085 150.534C183.865 150.714 184.441 151.08 184.813 151.632C185.185 152.172 185.305 152.73 185.173 153.306C184.945 154.374 184.153 155.208 182.797 155.808C181.849 156.204 180.871 156.48 179.863 156.636L178.801 156.798L184.039 158.67L183.355 159.948ZM178.981 153.162C179.353 153.162 179.689 153.066 179.989 152.874C180.289 152.67 180.475 152.388 180.547 152.028C180.643 151.62 180.463 151.374 180.007 151.29C179.551 151.194 179.089 151.098 178.621 151.002L178.297 152.478C178.249 152.694 178.291 152.862 178.423 152.982C178.555 153.102 178.741 153.162 178.981 153.162ZM194.059 158.76H192.565L193.429 154.656C193.597 153.876 193.465 153.21 193.033 152.658C192.601 152.094 191.989 151.812 191.197 151.812H190.963C190.387 151.812 189.847 152.016 189.343 152.424C188.851 152.832 188.539 153.324 188.407 153.9L188.335 154.278C188.227 154.77 188.311 155.19 188.587 155.538C188.863 155.874 189.241 156.042 189.721 156.042H190.441L190.171 157.356H189.451C188.563 157.356 187.861 157.056 187.345 156.456C186.829 155.856 186.661 155.13 186.841 154.278L186.913 153.9C187.117 152.952 187.639 152.148 188.479 151.488C189.331 150.828 190.255 150.498 191.251 150.498H191.485C192.577 150.498 193.447 150.852 194.095 151.56L194.671 148.878H186.877L187.147 147.564H197.785L197.515 148.878H196.165L194.059 158.76ZM207.577 158.76H206.083L206.947 154.656C207.115 153.876 206.983 153.21 206.551 152.658C206.119 152.094 205.507 151.812 204.715 151.812H204.481C203.905 151.812 203.365 152.016 202.861 152.424C202.369 152.832 202.057 153.324 201.925 153.9L201.853 154.278C201.745 154.77 201.829 155.19 202.105 155.538C202.381 155.874 202.759 156.042 203.239 156.042H203.959L203.689 157.356H202.969C202.081 157.356 201.379 157.056 200.863 156.456C200.347 155.856 200.179 155.13 200.359 154.278L200.431 153.9C200.635 152.952 201.157 152.148 201.997 151.488C202.849 150.828 203.773 150.498 204.769 150.498H205.003C206.095 150.498 206.965 150.852 207.613 151.56L208.189 148.878H200.395L200.665 147.564H211.303L211.033 148.878H209.683L207.577 158.76ZM211.416 158.76H209.922L212.028 148.878H210.678L210.948 147.564H215.142L214.872 148.878H213.522L211.416 158.76Z" fill="white"/>
<path d="M18.8782 180.331C19.0421 180.515 19.2053 180.698 19.3676 180.882C19.5381 181.075 19.7126 181.265 19.8766 181.464C20.2329 181.897 20.5982 182.323 20.9326 182.772C21.3433 183.323 21.7362 183.888 22.1193 184.458C22.5852 185.153 22.9935 185.883 23.3393 186.646C23.539 187.085 23.7265 187.532 23.8441 188.002C23.8937 188.197 23.9229 188.398 23.9537 188.597C23.961 188.646 23.9367 188.699 23.9253 188.76C23.7338 188.7 23.6063 188.58 23.4992 188.444C23.2297 188.101 22.9724 187.747 22.7037 187.404C22.4188 187.038 22.1331 186.673 21.8352 186.319C21.5535 185.984 21.2581 185.659 20.9634 185.335C20.6728 185.015 20.3831 184.694 20.0787 184.388C19.5892 183.896 19.0917 183.411 18.5884 182.933C18.2516 182.614 17.8985 182.311 17.5519 182.003C17.521 181.975 17.4861 181.953 17.4431 181.92C17.3059 182.081 17.1679 182.234 17.0389 182.394C16.6241 182.909 16.1988 183.416 15.8019 183.945C15.2174 184.725 14.6484 185.515 14.0851 186.309C13.7515 186.779 13.4496 187.272 13.1176 187.743C12.8229 188.162 12.4081 188.369 11.8895 188.359C11.1768 188.346 10.6192 187.798 10.5201 187.171C10.452 186.738 10.5567 186.351 10.8375 186.007C11.2239 185.534 11.5891 185.044 11.982 184.577C12.4885 183.975 13.0064 183.381 13.534 182.796C13.9447 182.341 14.3741 181.904 14.8027 181.467C15.0892 181.174 15.3895 180.894 15.6842 180.609C15.7613 180.534 15.7629 180.514 15.6793 180.451C15.0413 179.972 14.4082 179.487 13.7621 179.02C13.1703 178.593 12.564 178.187 11.9617 177.775C11.7466 177.627 11.5169 177.499 11.3099 177.341C10.9317 177.052 10.7401 176.661 10.7499 176.185C10.7612 175.581 11.0567 175.144 11.5997 174.898C12.0997 174.67 12.5957 174.726 13.0413 175.059C13.8741 175.684 14.6777 176.343 15.4577 177.033C15.9098 177.432 16.3546 177.84 16.7994 178.247C17.03 178.459 17.2524 178.679 17.4756 178.898C17.5235 178.945 17.5559 178.951 17.6128 178.907C18.1923 178.459 18.7637 177.998 19.3587 177.572C19.8352 177.231 20.3327 176.918 20.8368 176.619C21.2914 176.349 21.7589 176.099 22.2346 175.869C22.7654 175.61 23.3157 175.392 23.8896 175.242C24.0406 175.202 24.2005 175.19 24.3571 175.176C24.4034 175.172 24.4521 175.203 24.5 175.218C24.4854 175.259 24.4821 175.31 24.4554 175.339C24.3328 175.47 24.2159 175.61 24.0755 175.721C23.4115 176.247 22.737 176.761 22.073 177.287C21.8376 177.473 21.6193 177.68 21.3953 177.88C21.0811 178.162 20.7605 178.438 20.4577 178.732C19.9537 179.223 19.461 179.726 18.9642 180.225C18.935 180.254 18.9115 180.289 18.8782 180.33V180.331Z" fill="#FF001E"/>
<path d="M37.164 187.76H35.67L37.776 177.878H36.426L36.696 176.564H38.046L38.19 175.934C38.334 175.25 38.64 174.614 39.108 174.026C39.576 173.426 40.134 172.958 40.782 172.622C41.43 172.274 41.928 172.094 42.276 172.082C42.624 172.058 42.864 172.046 42.996 172.046C43.428 172.046 43.848 172.076 44.256 172.136L49.062 172.784L48.612 174.08C45.036 173.6 43.134 173.36 42.906 173.36C42.282 173.36 41.76 173.48 41.34 173.72C40.44 174.236 39.9 174.914 39.72 175.754L39.54 176.564H40.89L40.62 177.878H39.27L37.164 187.76ZM47.0097 187.76H45.5157L39.8277 184.79L40.1697 183.17C40.3257 182.438 40.6677 181.784 41.1957 181.208C41.7237 180.62 42.4197 180.2 43.2837 179.948L47.4237 178.778L47.6217 177.878H40.1877L40.4577 176.564H50.7357L50.4657 177.878H49.1157L47.0097 187.76ZM45.8217 186.284L47.1357 180.164L43.5357 181.19C42.5037 181.478 41.8917 182.078 41.6997 182.99L41.4837 184.016L45.8217 186.284ZM52.5678 187.76C51.5478 187.592 50.8038 187.13 50.3358 186.374C49.8798 185.618 49.7538 184.742 49.9578 183.746L50.4438 181.514C50.7558 180.038 51.3918 178.85 52.3518 177.95L52.4238 177.878H50.1018L50.3718 176.564H55.4478L55.1778 177.878C54.4818 177.89 53.8278 178.214 53.2158 178.85C52.6038 179.474 52.1898 180.302 51.9738 181.334L51.4158 183.926C51.2838 184.562 51.3498 185.114 51.6138 185.582C51.8898 186.038 52.3038 186.326 52.8558 186.446L52.5678 187.76ZM63.7947 187.76H62.3007L63.9387 180.02C64.0707 179.42 63.9807 178.916 63.6687 178.508C63.3687 178.088 62.9427 177.878 62.3907 177.878H62.0127C61.4367 177.878 60.8967 178.094 60.3927 178.526C59.9007 178.946 59.5827 179.486 59.4387 180.146L59.3487 180.578C59.2287 181.13 59.2947 181.586 59.5467 181.946C59.8107 182.294 60.1767 182.468 60.6447 182.468H61.4367L61.1667 183.782H60.1947C59.3667 183.782 58.7247 183.476 58.2687 182.864C58.2207 182.816 58.1847 182.768 58.1607 182.72L57.9807 182.864C57.2607 183.476 56.4807 183.782 55.6407 183.782H54.6687L54.9387 182.468H55.7307C56.1987 182.468 56.6367 182.294 57.0447 181.946C57.4647 181.586 57.7347 181.13 57.8547 180.578L57.9447 180.146C58.0887 179.486 57.9987 178.946 57.6747 178.526C57.3627 178.094 56.9247 177.878 56.3607 177.878H54.8127L55.0827 176.564H56.8107C57.7467 176.564 58.4727 176.906 58.9887 177.59L59.1867 177.878C60.0267 177.002 60.9987 176.564 62.1027 176.564H62.6607C63.4167 176.564 64.0467 176.78 64.5507 177.212L64.6767 176.564H67.5207L67.2507 177.878H65.9007L63.7947 187.76ZM73.8009 187.76H72.3069L66.3129 185.834L66.6729 184.088C66.8169 183.416 67.1529 182.804 67.6809 182.252C68.2209 181.688 68.8509 181.292 69.5709 181.064L70.2549 180.866L68.0229 177.878H66.8889L67.1589 176.564H77.5269L77.2569 177.878H75.9069L73.8009 187.76ZM72.5949 186.392L73.3509 182.828L71.4069 181.838L69.7689 182.306C69.3849 182.438 69.0489 182.654 68.7609 182.954C68.4729 183.242 68.2869 183.56 68.2029 183.908L68.0049 184.916L72.5949 186.392ZM73.6569 181.37L74.4129 177.878H69.9309L71.8209 180.416L73.6569 181.37ZM92.0232 187.76H90.5292L88.2252 185.852C88.0092 186.092 87.7632 186.326 87.4872 186.554C86.5272 187.346 85.4892 187.742 84.3732 187.742H83.1852C82.0692 187.742 81.1992 187.346 80.5752 186.554C79.9512 185.762 79.7592 184.808 79.9992 183.692L80.8272 179.84H82.3212L81.4752 183.782C81.3192 184.49 81.4392 185.108 81.8352 185.636C82.2312 186.164 82.7772 186.428 83.4732 186.428H84.6612C85.3692 186.428 86.0232 186.164 86.6232 185.636C87.2352 185.108 87.6192 184.49 87.7752 183.782L88.2252 181.694C88.2972 181.322 88.2312 180.992 88.0272 180.704C87.8352 180.416 87.4932 180.272 87.0012 180.272C86.7132 180.272 86.4372 180.392 86.1732 180.632C85.9212 180.872 85.7652 181.136 85.7052 181.424L85.2552 183.494H83.7612L84.1932 181.514C84.3372 180.806 84.7152 180.206 85.3272 179.714C85.9392 179.21 86.6532 178.958 87.4692 178.958C88.2492 178.958 88.8552 179.234 89.2872 179.786C89.7192 180.338 89.8572 181.004 89.7012 181.784L89.2872 183.692C89.2272 183.992 89.1372 184.28 89.0172 184.556L90.8892 186.104L92.6352 177.878H80.1252L80.3952 176.564H95.7492L95.4792 177.878H94.1292L92.0232 187.76ZM103.453 188.21H101.959L102.859 183.908C102.019 184.832 101.077 185.48 100.033 185.852C99.3494 186.104 98.6534 186.23 97.9454 186.23H94.4534L94.7414 184.916H96.2894C96.9734 184.916 97.6094 184.676 98.1974 184.196C98.7854 183.704 99.1634 183.056 99.3314 182.252L99.4394 181.748C99.5354 181.304 99.4934 180.95 99.3134 180.686C99.1334 180.41 98.8394 180.272 98.4314 180.272C98.0834 180.272 97.7654 180.392 97.4774 180.632C97.2014 180.872 97.0214 181.19 96.9374 181.586L96.6854 182.738H95.1914L95.4434 181.586C95.5994 180.866 95.9894 180.248 96.6134 179.732C97.2374 179.216 97.9094 178.958 98.6294 178.958H98.8274C99.5714 178.958 100.147 179.222 100.555 179.75C100.975 180.278 101.101 180.944 100.933 181.748L100.825 182.252C100.609 183.26 100.129 184.106 99.3854 184.79C100.669 184.466 101.917 183.416 103.129 181.64L103.453 181.172H104.947L103.453 188.21ZM102.967 180.434C102.271 180.434 101.737 180.188 101.365 179.696C100.993 179.192 100.885 178.586 101.041 177.878H95.1194L95.3894 176.564H107.269L106.999 177.878H105.973C105.817 178.586 105.451 179.192 104.875 179.696C104.299 180.188 103.663 180.434 102.967 180.434ZM103.219 179.21C103.567 179.21 103.855 179.09 104.083 178.85C104.323 178.598 104.485 178.274 104.569 177.878H102.445C102.361 178.274 102.385 178.598 102.517 178.85C102.649 179.09 102.883 179.21 103.219 179.21ZM110.605 187.76H109.111L111.217 177.878H109.867L110.137 176.564H111.487L111.631 175.934C111.775 175.25 112.081 174.614 112.549 174.026C113.017 173.426 113.575 172.958 114.223 172.622C114.871 172.274 115.369 172.094 115.717 172.082C116.065 172.058 116.305 172.046 116.437 172.046C116.869 172.046 117.289 172.076 117.697 172.136L122.503 172.784L122.053 174.08C118.477 173.6 116.575 173.36 116.347 173.36C115.723 173.36 115.201 173.48 114.781 173.72C113.881 174.236 113.341 174.914 113.161 175.754L112.981 176.564H114.331L114.061 177.878H112.711L110.605 187.76ZM120.811 187.76H119.317L120.181 183.656C120.349 182.876 120.217 182.21 119.785 181.658C119.353 181.094 118.741 180.812 117.949 180.812H117.715C117.139 180.812 116.599 181.016 116.095 181.424C115.603 181.832 115.291 182.324 115.159 182.9L115.087 183.278C114.979 183.77 115.063 184.19 115.339 184.538C115.615 184.874 115.993 185.042 116.473 185.042H117.193L116.923 186.356H116.203C115.315 186.356 114.613 186.056 114.097 185.456C113.581 184.856 113.413 184.13 113.593 183.278L113.665 182.9C113.869 181.952 114.391 181.148 115.231 180.488C116.083 179.828 117.007 179.498 118.003 179.498H118.237C119.329 179.498 120.199 179.852 120.847 180.56L121.423 177.878H113.629L113.899 176.564H124.537L124.267 177.878H122.917L120.811 187.76ZM126.378 187.76C125.358 187.592 124.614 187.13 124.146 186.374C123.69 185.618 123.564 184.742 123.768 183.746L124.254 181.514C124.566 180.038 125.202 178.85 126.162 177.95L126.234 177.878H123.912L124.182 176.564H129.258L128.988 177.878C128.292 177.89 127.638 178.214 127.026 178.85C126.414 179.474 126 180.302 125.784 181.334L125.226 183.926C125.094 184.562 125.16 185.114 125.424 185.582C125.7 186.038 126.114 186.326 126.666 186.446L126.378 187.76ZM133.123 188.768H131.935C130.843 188.768 129.961 188.444 129.289 187.796C128.629 187.16 128.419 186.266 128.659 185.114L128.965 183.71H130.459L130.135 185.186C129.991 185.858 130.117 186.404 130.513 186.824C130.921 187.232 131.491 187.436 132.223 187.436H133.411C134.143 187.436 134.791 187.232 135.355 186.824C135.931 186.416 136.285 185.9 136.417 185.276L136.561 184.592C136.741 183.752 136.327 183.332 135.319 183.332C135.007 183.332 134.731 183.422 134.491 183.602C134.263 183.77 134.113 184.028 134.041 184.376L133.789 185.528H132.295L132.529 184.448C132.769 183.32 133.453 182.558 134.581 182.162C134.077 182.03 133.681 181.754 133.393 181.334L133.249 181.154C133.201 181.214 133.147 181.268 133.087 181.316C132.343 181.952 131.575 182.27 130.783 182.27C130.003 182.27 129.337 181.934 128.785 181.262L129.955 180.308C130.291 180.74 130.669 180.956 131.089 180.956C131.449 180.956 131.821 180.782 132.205 180.434C132.601 180.086 132.865 179.606 132.997 178.994L133.231 177.878H128.623L128.893 176.564H140.881L140.611 177.878H139.495L139.243 179.066C139.051 179.978 138.589 180.74 137.857 181.352C137.449 181.688 137.017 181.934 136.561 182.09C136.969 182.198 137.323 182.39 137.623 182.666C138.091 183.122 138.241 183.758 138.073 184.574L137.929 185.204C137.701 186.296 137.113 187.16 136.165 187.796C135.229 188.444 134.215 188.768 133.123 188.768ZM135.697 180.956C136.177 180.956 136.609 180.782 136.993 180.434C137.377 180.074 137.629 179.618 137.749 179.066L138.001 177.878H134.725L134.455 179.084C134.335 179.684 134.389 180.146 134.617 180.47C134.845 180.794 135.205 180.956 135.697 180.956ZM151.456 187.76H149.962L151.384 181.046C150.484 180.938 149.728 180.656 149.116 180.2C148.372 179.564 148.048 178.82 148.144 177.968C147.724 178.076 147.328 178.28 146.956 178.58C146.392 179.06 146.032 179.654 145.876 180.362L145.714 181.136C145.63 181.544 145.672 181.868 145.84 182.108C146.008 182.336 146.308 182.45 146.74 182.45C147.04 182.45 147.31 182.348 147.55 182.144C147.802 181.94 147.958 181.688 148.018 181.388H149.512L149.026 183.71C148.786 184.826 148.186 185.78 147.226 186.572C146.266 187.364 145.228 187.76 144.112 187.76H143.32C142.204 187.76 141.334 187.364 140.71 186.572C140.086 185.78 139.894 184.826 140.134 183.71L140.962 179.84H142.456L141.628 183.71C141.472 184.454 141.586 185.096 141.97 185.636C142.354 186.176 142.9 186.446 143.608 186.446H144.4C145.108 186.446 145.768 186.176 146.38 185.636C146.992 185.096 147.388 184.406 147.568 183.566C147.22 183.698 146.77 183.764 146.218 183.764C145.51 183.764 144.958 183.518 144.562 183.026C144.178 182.522 144.058 181.922 144.202 181.226L144.364 180.452C144.58 179.468 145.09 178.61 145.894 177.878H140.26L140.53 176.564H155.182L154.912 177.878H149.638C149.542 178.334 149.728 178.754 150.196 179.138C150.772 179.57 151.51 179.786 152.41 179.786H153.148L151.456 187.76ZM163.167 188.876L157.173 185.96L157.479 184.52L159.819 184.124C162.147 183.716 163.413 183.044 163.617 182.108L163.689 181.748C163.773 181.34 163.695 180.992 163.455 180.704C163.227 180.416 162.885 180.272 162.429 180.272H161.349C160.893 180.272 160.503 180.41 160.179 180.686C159.867 180.962 159.663 181.316 159.567 181.748L159.351 182.738H157.857L158.055 181.838C158.223 181.046 158.649 180.368 159.333 179.804C160.017 179.24 160.755 178.958 161.547 178.958H162.807C163.623 178.958 164.265 179.228 164.733 179.768C165.201 180.308 165.351 180.968 165.183 181.748L165.111 182.108C164.883 183.176 164.085 184.01 162.717 184.61C161.841 184.982 160.761 185.276 159.477 185.492L163.941 187.652L163.167 188.876ZM167.127 177.878H157.785L158.055 176.564H167.397L167.127 177.878ZM169.234 187.76C168.214 187.592 167.47 187.13 167.002 186.374C166.546 185.618 166.42 184.742 166.624 183.746L167.11 181.514C167.422 180.038 168.058 178.85 169.018 177.95L169.09 177.878H166.768L167.038 176.564H172.114L171.844 177.878C171.148 177.89 170.494 178.214 169.882 178.85C169.27 179.474 168.856 180.302 168.64 181.334L168.082 183.926C167.95 184.562 168.016 185.114 168.28 185.582C168.556 186.038 168.97 186.326 169.522 186.446L169.234 187.76ZM178.391 187.76H176.897L170.903 185.834L171.263 184.088C171.407 183.416 171.743 182.804 172.271 182.252C172.811 181.688 173.441 181.292 174.161 181.064L174.845 180.866L172.613 177.878H171.479L171.749 176.564H182.117L181.847 177.878H180.497L178.391 187.76ZM177.185 186.392L179.003 177.878H174.521L176.411 180.416L176.537 181.676L174.359 182.306C173.975 182.438 173.639 182.654 173.351 182.954C173.063 183.242 172.877 183.56 172.793 183.908L172.595 184.916L177.185 186.392ZM172.901 189.704C172.649 189.704 172.445 189.614 172.289 189.434C172.145 189.254 172.103 189.038 172.163 188.786C172.211 188.534 172.349 188.312 172.577 188.12C172.805 187.94 173.045 187.85 173.297 187.85C173.549 187.85 173.741 187.94 173.873 188.12C174.017 188.312 174.065 188.534 174.017 188.786C173.957 189.038 173.819 189.254 173.603 189.434C173.387 189.614 173.153 189.704 172.901 189.704ZM192.383 187.76H190.889L184.139 185.834L184.427 184.448C184.763 183.008 185.795 181.988 187.523 181.388C188.627 180.992 189.245 180.5 189.377 179.912L189.521 179.21C189.605 178.838 189.539 178.526 189.323 178.274C189.119 178.01 188.825 177.878 188.441 177.878C188.117 177.878 187.823 177.98 187.559 178.184C187.307 178.388 187.139 178.7 187.055 179.12L186.803 180.272H185.309L185.561 179.12C185.717 178.412 186.095 177.812 186.695 177.32C187.307 176.816 187.979 176.564 188.711 176.564C189.503 176.564 190.121 176.84 190.565 177.392C191.009 177.944 191.147 178.61 190.979 179.39L190.889 179.822C190.709 180.65 190.187 181.316 189.323 181.82C188.771 182.144 188.261 182.396 187.793 182.576C186.725 183.008 186.113 183.572 185.957 184.268L185.831 184.862L191.177 186.374L193.265 176.564H196.109L195.839 177.878H194.489L192.383 187.76ZM196.211 187.76H194.717L196.823 177.878H195.473L195.743 176.564H199.937L199.667 177.878H198.317L196.211 187.76ZM201.701 187.76C200.681 187.592 199.937 187.13 199.469 186.374C199.013 185.618 198.887 184.742 199.091 183.746L199.577 181.514C199.889 180.038 200.525 178.85 201.485 177.95L201.557 177.878H199.235L199.505 176.564H204.581L204.311 177.878C203.615 177.89 202.961 178.214 202.349 178.85C201.737 179.474 201.323 180.302 201.107 181.334L200.549 183.926C200.417 184.562 200.483 185.114 200.747 185.582C201.023 186.038 201.437 186.326 201.989 186.446L201.701 187.76ZM210.768 187.76H209.274L203.586 184.79L203.928 183.17C204.084 182.438 204.426 181.784 204.954 181.208C205.482 180.62 206.178 180.2 207.042 179.948L211.182 178.778L211.38 177.878H203.946L204.216 176.564H218.454L218.184 177.878H212.874L212.676 178.778H213.486C214.506 178.778 215.298 179.078 215.862 179.678C216.438 180.266 216.636 180.986 216.456 181.838L216.384 182.18C216.228 182.936 215.808 183.578 215.124 184.106C214.452 184.622 213.714 184.88 212.91 184.88L213.198 183.566C213.582 183.566 213.936 183.434 214.26 183.17C214.596 182.894 214.806 182.564 214.89 182.18L214.962 181.838C215.058 181.358 214.944 180.95 214.62 180.614C214.296 180.266 213.828 180.092 213.216 180.092H212.406L210.768 187.76ZM209.58 186.284L210.894 180.164L207.294 181.19C206.262 181.478 205.65 182.078 205.458 182.99L205.242 184.016L209.58 186.284Z" fill="white"/>
<path d="M29.5 68.26C61.8333 63.0933 129.9 55.16 143.5 64.76C146.413 66.8164 148.607 67.8891 149.621 68.3201C150.412 68.6563 150.484 68.6022 149.621 68.3201C145.131 66.8536 115.328 59.2255 29.5 68.26Z" fill="#FFC945"/>
<defs>
<filter id="filter0_d_133_1138" x="1.54541" y="0" width="265.895" height="58.846" filterUnits="userSpaceOnUse" color-interpolation-filters="sRGB">
<feFlood flood-opacity="0" result="BackgroundImageFix"/>
<feColorMatrix in="SourceAlpha" type="matrix" values="0 0 0 0 0 0 0 0 0 0 0 0 0 0 0 0 0 0 127 0" result="hardAlpha"/>
<feOffset dx="0.7" dy="0.07"/>
<feComposite in2="hardAlpha" operator="out"/>
<feColorMatrix type="matrix" values="0 0 0 0 0 0 0 0 0 0 0 0 0 0 0 0 0 0 0.6 0"/>
<feBlend mode="normal" in2="BackgroundImageFix" result="effect1_dropShadow_133_1138"/>
<feBlend mode="normal" in="SourceGraphic" in2="effect1_dropShadow_133_1138" result="shape"/>
</filter>
</defs>
</svg>
