<svg width="291" height="58" viewBox="0 0 291 58" fill="none" xmlns="http://www.w3.org/2000/svg">
<g filter="url(#filter0_d_133_601)">
<path d="M69.6651 21H68.2131C66.8491 21 65.6831 20.516 64.7151 19.548C63.7471 18.58 63.2631 17.4067 63.2631 16.028V11.32H65.0891V16.138C65.0891 17.0033 65.3971 17.766 66.0131 18.426C66.6291 19.0713 67.3625 19.394 68.2131 19.394H69.6651C70.5305 19.394 71.2638 19.0713 71.8651 18.426C72.4811 17.766 72.7891 17.0033 72.7891 16.138V13.586C72.7891 13.1313 72.6278 12.728 72.3051 12.376C71.9971 12.024 71.5425 11.848 70.9411 11.848C70.5891 11.848 70.2811 11.9947 70.0171 12.288C69.7678 12.5813 69.6431 12.904 69.6431 13.256V15.786H67.8171V13.366C67.8171 12.5007 68.1251 11.7673 68.7411 11.166C69.3571 10.55 70.1638 10.242 71.1611 10.242C72.1145 10.242 72.9285 10.5793 73.6031 11.254C74.2778 11.9287 74.6151 12.7427 74.6151 13.696V16.028C74.6151 17.4067 74.1311 18.58 73.1631 19.548C72.1951 20.516 71.0291 21 69.6651 21ZM75.9791 8.922H61.8991V7.316H75.9791V8.922ZM79.0177 21H77.1917V8.922H75.5417V7.316H80.6677V8.922H79.0177V21ZM89.5774 22.364L81.5034 18.8V17.04L84.2534 16.556C85.632 16.3067 86.6587 15.984 87.3334 15.588C88.0227 15.192 88.3674 14.6933 88.3674 14.092V13.652C88.3674 13.1533 88.184 12.728 87.8174 12.376C87.4654 12.024 87.0107 11.848 86.4534 11.848H85.1334C84.576 11.848 84.136 12.0167 83.8134 12.354C83.4907 12.6913 83.3294 13.124 83.3294 13.652V14.862H81.5034V13.762C81.5034 12.794 81.848 11.9653 82.5374 11.276C83.2267 10.5867 84.0554 10.242 85.0234 10.242H86.5634C87.5607 10.242 88.4114 10.572 89.1154 11.232C89.834 11.892 90.1934 12.6987 90.1934 13.652V14.092C90.1934 15.3973 89.438 16.4167 87.9274 17.15C86.9447 17.6047 85.698 17.964 84.1874 18.228L90.2154 20.868L89.5774 22.364ZM91.5574 8.922H80.1394V7.316H88.3674V6.766C88.3674 6.35533 88.2207 6.01067 87.9274 5.732C87.6487 5.43867 87.304 5.292 86.8934 5.292H84.1874C83.454 5.292 82.8234 5.03533 82.2954 4.522C81.7674 3.994 81.5034 3.356 81.5034 2.608H83.3294C83.3294 3.32667 83.652 3.686 84.2974 3.686H86.8934C87.8027 3.686 88.58 4.00867 89.2254 4.654C89.8707 5.29933 90.1934 6.07667 90.1934 6.986V7.316H91.5574V8.922ZM116.873 21H115.047V8.922H112.187V21H110.361L107.039 18.668C106.848 18.9613 106.614 19.2473 106.335 19.526C105.367 20.494 104.201 20.978 102.837 20.978H101.385C100.021 20.978 98.855 20.494 97.887 19.526C96.919 18.558 96.435 17.392 96.435 16.028V11.32H98.261V16.138C98.261 17.0033 98.569 17.7587 99.185 18.404C99.801 19.0493 100.534 19.372 101.385 19.372H102.837C103.702 19.372 104.436 19.0493 105.037 18.404C105.653 17.7587 105.961 17.0033 105.961 16.138V13.586C105.961 13.1313 105.8 12.728 105.477 12.376C105.169 12.024 104.714 11.848 104.113 11.848C103.761 11.848 103.453 11.9947 103.189 12.288C102.94 12.5813 102.815 12.904 102.815 13.256V15.786H100.989V13.366C100.989 12.5007 101.297 11.7673 101.913 11.166C102.529 10.55 103.336 10.242 104.333 10.242C105.286 10.242 106.1 10.5793 106.775 11.254C107.45 11.9287 107.787 12.7427 107.787 13.696V16.028C107.787 16.3947 107.75 16.7467 107.677 17.084L110.361 18.976V8.922H95.071V7.316H118.523V8.922H116.873V21ZM128.993 21H127.167L119.445 17.37V15.39C119.445 14.4953 119.687 13.696 120.171 12.992C120.669 12.2733 121.417 11.76 122.415 11.452L127.167 10.022V8.922H118.081V7.316H130.643V8.922H128.993V21ZM127.167 19.196V11.716L123.031 12.97C121.857 13.322 121.271 14.0553 121.271 15.17V16.424L127.167 19.196ZM122.261 22.518C121.953 22.518 121.681 22.408 121.447 22.188C121.227 21.968 121.117 21.704 121.117 21.396C121.117 21.088 121.227 20.824 121.447 20.604C121.681 20.3693 121.953 20.252 122.261 20.252C122.569 20.252 122.833 20.3693 123.053 20.604C123.273 20.824 123.383 21.088 123.383 21.396C123.383 21.704 123.273 21.968 123.053 22.188C122.833 22.408 122.569 22.518 122.261 22.518ZM139.739 21C138.448 20.7947 137.422 20.23 136.659 19.306C135.896 18.382 135.515 17.3113 135.515 16.094V13.366C135.515 11.562 135.984 10.11 136.923 9.01C137.862 7.91 139.006 7.34533 140.355 7.316V8.922C139.519 8.93667 138.808 9.33267 138.221 10.11C137.634 10.8727 137.341 11.8847 137.341 13.146V16.314C137.341 17.0913 137.561 17.766 138.001 18.338C138.456 18.8953 139.035 19.2473 139.739 19.394V21ZM150.821 21H148.995V15.698C148.995 15.214 148.848 14.796 148.555 14.444C148.276 14.0773 147.917 13.8793 147.477 13.85L143.385 17.7H141.559V8.922H139.909V7.316H152.471V8.922H143.385V15.412L146.773 12.222H147.367C148.32 12.222 149.134 12.5667 149.809 13.256C150.484 13.9307 150.821 14.7447 150.821 15.698V21ZM155.502 21H153.676V8.922H152.026V7.316H153.676V6.546C153.676 5.71 153.881 4.93267 154.292 4.214C154.717 3.48067 155.282 2.90867 155.986 2.498C156.69 2.07267 157.247 1.85267 157.658 1.838C158.083 1.80867 158.377 1.794 158.538 1.794C159.066 1.794 159.594 1.83067 160.122 1.904L166.15 2.696L165.93 4.28C161.442 3.69333 159.059 3.4 158.78 3.4C158.017 3.4 157.409 3.54667 156.954 3.84C155.986 4.47067 155.502 5.29933 155.502 6.326V7.316H157.152V8.922H155.502V21ZM167.536 21H165.71L157.988 17.37V15.39C157.988 14.4953 158.23 13.696 158.714 12.992C159.212 12.2733 159.96 11.76 160.958 11.452L165.71 10.022V8.922H156.624V7.316H169.186V8.922H167.536V21ZM165.71 19.196V11.716L161.574 12.97C160.4 13.322 159.814 14.0553 159.814 15.17V16.424L165.71 19.196ZM160.804 22.518C160.496 22.518 160.224 22.408 159.99 22.188C159.77 21.968 159.66 21.704 159.66 21.396C159.66 21.088 159.77 20.824 159.99 20.604C160.224 20.3693 160.496 20.252 160.804 20.252C161.112 20.252 161.376 20.3693 161.596 20.604C161.816 20.824 161.926 21.088 161.926 21.396C161.926 21.704 161.816 21.968 161.596 22.188C161.376 22.408 161.112 22.518 160.804 22.518ZM184.046 21H182.22V15.984C182.22 15.0307 181.883 14.2167 181.208 13.542C180.533 12.8527 179.712 12.508 178.744 12.508H178.458C177.754 12.508 177.145 12.7573 176.632 13.256C176.133 13.7547 175.884 14.356 175.884 15.06V15.522C175.884 16.1233 176.097 16.6367 176.522 17.062C176.947 17.4727 177.453 17.678 178.04 17.678H178.92V19.284H178.04C176.955 19.284 176.016 18.9173 175.224 18.184C174.447 17.4507 174.058 16.5633 174.058 15.522V15.06C174.058 13.9013 174.483 12.9187 175.334 12.112C176.199 11.3053 177.241 10.902 178.458 10.902H178.744C180.079 10.902 181.237 11.3347 182.22 12.2V8.922H172.694V7.316H185.696V8.922H184.046V21ZM188.738 21H186.912V8.922H185.262V7.316H190.388V8.922H188.738V21ZM204.725 21H202.899L195.177 17.37V15.39C195.177 14.4953 195.419 13.696 195.903 12.992C196.402 12.2733 197.15 11.76 198.147 11.452L202.899 10.022V8.922H193.813V7.316H211.215V8.922H204.725V10.022H205.715C206.962 10.022 208.011 10.3887 208.861 11.122C209.712 11.8407 210.137 12.7207 210.137 13.762V14.18C210.137 15.104 209.793 15.8887 209.103 16.534C208.414 17.1647 207.578 17.48 206.595 17.48V15.874C207.065 15.874 207.468 15.7127 207.805 15.39C208.143 15.0527 208.311 14.6493 208.311 14.18V13.762C208.311 13.1753 208.062 12.6767 207.563 12.266C207.079 11.8407 206.463 11.628 205.715 11.628H204.725V21ZM202.899 19.196V11.716L198.763 12.97C197.59 13.322 197.003 14.0553 197.003 15.17V16.424L202.899 19.196ZM216.374 21C215.083 20.7947 214.057 20.23 213.294 19.306C212.531 18.382 212.15 17.3113 212.15 16.094V13.366C212.15 11.562 212.619 10.11 213.558 9.01L213.624 8.922H210.786V7.316H216.99V8.922C216.154 8.93667 215.443 9.33267 214.856 10.11C214.269 10.8727 213.976 11.8847 213.976 13.146V16.314C213.976 17.0913 214.196 17.766 214.636 18.338C215.091 18.8953 215.67 19.2473 216.374 19.394V21ZM227.456 21H225.63L217.908 17.37V15.39C217.908 14.4953 218.15 13.696 218.634 12.992C219.132 12.2733 219.88 11.76 220.878 11.452L225.63 10.022V8.922H216.544V7.316H229.106V8.922H227.456V21ZM225.63 19.196V11.716L221.494 12.97C220.32 13.322 219.734 14.0553 219.734 15.17V16.424L225.63 19.196ZM220.724 22.518C220.416 22.518 220.144 22.408 219.91 22.188C219.69 21.968 219.58 21.704 219.58 21.396C219.58 21.088 219.69 20.824 219.91 20.604C220.144 20.3693 220.416 20.252 220.724 20.252C221.032 20.252 221.296 20.3693 221.516 20.604C221.736 20.824 221.846 21.088 221.846 21.396C221.846 21.704 221.736 21.968 221.516 22.188C221.296 22.408 221.032 22.518 220.724 22.518ZM189.6 50H187.774L180.052 46.37V44.39C180.052 43.4953 180.294 42.696 180.778 41.992C181.277 41.2733 182.025 40.76 183.022 40.452L187.774 39.022V37.922H178.688V36.316H196.09V37.922H189.6V39.022H190.59C191.837 39.022 192.886 39.3887 193.736 40.122C194.587 40.8407 195.012 41.7207 195.012 42.762V43.18C195.012 44.104 194.668 44.8887 193.978 45.534C193.289 46.1647 192.453 46.48 191.47 46.48V44.874C191.94 44.874 192.343 44.7127 192.68 44.39C193.018 44.0527 193.186 43.6493 193.186 43.18V42.762C193.186 42.1753 192.937 41.6767 192.438 41.266C191.954 40.8407 191.338 40.628 190.59 40.628H189.6V50ZM187.774 48.196V40.716L183.638 41.97C182.465 42.322 181.878 43.0553 181.878 44.17V45.424L187.774 48.196ZM206.573 50H204.747L197.025 46.37V44.39C197.025 43.4953 197.267 42.696 197.751 41.992C198.25 41.2733 198.998 40.76 199.995 40.452L204.747 39.022V37.922H195.661V36.316H208.223V37.922H206.573V50ZM204.747 48.196V40.716L200.611 41.97C199.438 42.322 198.851 43.0553 198.851 44.17V45.424L204.747 48.196ZM199.841 51.518C199.533 51.518 199.262 51.408 199.027 51.188C198.807 50.968 198.697 50.704 198.697 50.396C198.697 50.088 198.807 49.824 199.027 49.604C199.262 49.3693 199.533 49.252 199.841 49.252C200.149 49.252 200.413 49.3693 200.633 49.604C200.853 49.824 200.963 50.088 200.963 50.396C200.963 50.704 200.853 50.968 200.633 51.188C200.413 51.408 200.149 51.518 199.841 51.518ZM213.366 50C212.075 49.7947 211.049 49.23 210.286 48.306C209.523 47.382 209.142 46.3113 209.142 45.094V42.366C209.142 40.562 209.611 39.11 210.55 38.01L210.616 37.922H207.778V36.316H213.982V37.922C213.146 37.9367 212.435 38.3327 211.848 39.11C211.261 39.8727 210.968 40.8847 210.968 42.146V45.314C210.968 46.0913 211.188 46.766 211.628 47.338C212.083 47.8953 212.662 48.2473 213.366 48.394V50ZM221.302 50H219.85C218.486 50 217.32 49.516 216.352 48.548C215.384 47.58 214.9 46.4067 214.9 45.028V40.32H216.726V45.138C216.726 46.0033 217.034 46.766 217.65 47.426C218.266 48.0713 218.999 48.394 219.85 48.394H221.302C222.167 48.394 222.901 48.0713 223.502 47.426C224.118 46.766 224.426 46.0033 224.426 45.138V42.586C224.426 42.1313 224.265 41.728 223.942 41.376C223.634 41.024 223.179 40.848 222.578 40.848C222.226 40.848 221.918 40.9947 221.654 41.288C221.405 41.5813 221.28 41.904 221.28 42.256V44.786H219.454V42.366C219.454 41.5007 219.762 40.7673 220.378 40.166C220.994 39.55 221.801 39.242 222.798 39.242C223.751 39.242 224.565 39.5793 225.24 40.254C225.915 40.9287 226.252 41.7427 226.252 42.696V45.028C226.252 46.4067 225.768 47.58 224.8 48.548C223.832 49.516 222.666 50 221.302 50ZM227.616 37.922H213.536V36.316H227.616V37.922ZM252.934 50H251.108V37.922H248.248V50H246.422L243.1 47.668C242.909 47.9613 242.674 48.2473 242.396 48.526C241.428 49.494 240.262 49.978 238.898 49.978H237.446C236.082 49.978 234.916 49.494 233.948 48.526C232.98 47.558 232.496 46.392 232.496 45.028V40.32H234.322V45.138C234.322 46.0033 234.63 46.7587 235.246 47.404C235.862 48.0493 236.595 48.372 237.446 48.372H238.898C239.763 48.372 240.496 48.0493 241.098 47.404C241.714 46.7587 242.022 46.0033 242.022 45.138V42.586C242.022 42.1313 241.86 41.728 241.538 41.376C241.23 41.024 240.775 40.848 240.174 40.848C239.822 40.848 239.514 40.9947 239.25 41.288C239 41.5813 238.876 41.904 238.876 42.256V44.786H237.05V42.366C237.05 41.5007 237.358 40.7673 237.974 40.166C238.59 39.55 239.396 39.242 240.394 39.242C241.347 39.242 242.161 39.5793 242.836 40.254C243.51 40.9287 243.848 41.7427 243.848 42.696V45.028C243.848 45.3947 243.811 45.7467 243.738 46.084L246.422 47.976V37.922H231.132V36.316H254.584V37.922H252.934V50ZM270.399 50H268.573V41.794C267.444 41.662 266.447 41.3173 265.581 40.76C264.496 39.9827 263.902 39.0733 263.799 38.032C263.315 38.164 262.89 38.4133 262.523 38.78C261.951 39.3667 261.665 40.0927 261.665 40.958V41.904C261.665 42.4027 261.797 42.7987 262.061 43.092C262.325 43.3707 262.721 43.51 263.249 43.51C263.616 43.51 263.924 43.3853 264.173 43.136C264.423 42.8867 264.547 42.5787 264.547 42.212H266.373V45.05C266.373 46.414 265.889 47.58 264.921 48.548C263.953 49.516 262.787 50 261.423 50H260.455C259.091 50 257.925 49.516 256.957 48.548C255.989 47.58 255.505 46.414 255.505 45.05V40.32H257.331V45.05C257.331 45.9593 257.632 46.744 258.233 47.404C258.849 48.064 259.59 48.394 260.455 48.394H261.423C262.289 48.394 263.022 48.064 263.623 47.404C264.239 46.744 264.547 45.9007 264.547 44.874C264.166 45.0353 263.638 45.116 262.963 45.116C262.098 45.116 261.357 44.8153 260.741 44.214C260.14 43.598 259.839 42.8647 259.839 42.014V41.068C259.839 39.8653 260.235 38.8167 261.027 37.922H254.141V36.316H272.049V37.922H265.603C265.603 38.4793 265.941 38.9927 266.615 39.462C267.437 39.99 268.397 40.254 269.497 40.254H270.399V50ZM281.046 51.364L272.972 47.8V46.04L275.722 45.556C277.101 45.3067 278.127 44.984 278.802 44.588C279.491 44.192 279.836 43.6933 279.836 43.092V42.652C279.836 42.1533 279.653 41.728 279.286 41.376C278.934 41.024 278.479 40.848 277.922 40.848H276.602C276.045 40.848 275.605 41.0167 275.282 41.354C274.959 41.6913 274.798 42.124 274.798 42.652V43.862H272.972V42.762C272.972 41.794 273.317 40.9653 274.006 40.276C274.695 39.5867 275.524 39.242 276.492 39.242H278.032C279.029 39.242 279.88 39.572 280.584 40.232C281.303 40.892 281.662 41.6987 281.662 42.652V43.092C281.662 44.3973 280.907 45.4167 279.396 46.15C278.413 46.6047 277.167 46.964 275.656 47.228L281.684 49.868L281.046 51.364ZM283.026 37.922H271.608V36.316H279.836V35.766C279.836 35.3553 279.689 35.0107 279.396 34.732C279.117 34.4387 278.773 34.292 278.362 34.292H275.656C274.923 34.292 274.292 34.0353 273.764 33.522C273.236 32.994 272.972 32.356 272.972 31.608H274.798C274.798 32.3267 275.121 32.686 275.766 32.686H278.362C279.271 32.686 280.049 33.0087 280.694 33.654C281.339 34.2993 281.662 35.0767 281.662 35.986V36.316H283.026V37.922Z" fill="white"/>
<path d="M12.0874 50H9.29336V38.67H7.97336V36.316H9.29336V35.678C9.29336 34.754 9.52069 33.896 9.97536 33.104C10.43 32.2973 11.0607 31.652 11.8674 31.168C12.6154 30.7427 13.2314 30.5153 13.7154 30.486C14.1994 30.4567 14.5514 30.442 14.7714 30.442C15.27 30.442 15.7687 30.4787 16.2674 30.552L22.2734 31.344L21.9654 33.676C17.492 33.0893 15.1307 32.796 14.8814 32.796C14.2214 32.796 13.6934 32.9207 13.2974 33.17C12.4907 33.698 12.0874 34.3947 12.0874 35.26V36.316H13.4074V38.67H12.0874V50ZM24.4878 50H21.6938L13.9718 46.37V44.896C13.9718 43.9427 14.2505 43.048 14.8078 42.212C15.3651 41.376 16.1865 40.7893 17.2718 40.452L21.6938 39.11V38.67H12.8718V36.316H25.8078V38.67H24.4878V50ZM21.6938 47.36V41.574L18.2178 42.63C17.2498 42.9233 16.7658 43.532 16.7658 44.456V45.028L21.6938 47.36ZM36.9917 50H34.1977L26.4757 46.37V44.896C26.4757 43.9427 26.7544 43.048 27.3117 42.212C27.869 41.376 28.6904 40.7893 29.7757 40.452L34.1977 39.11V38.67H25.3757V36.316H38.3117V38.67H36.9917V50ZM34.1977 47.36V41.574L30.7217 42.63C29.7537 42.9233 29.2697 43.532 29.2697 44.456V45.028L34.1977 47.36ZM41.9936 50H39.1996V38.67H37.8796V36.316H43.3136V38.67H41.9936V50ZM46.892 50H44.098V38.67H42.778V36.316H44.098V35.678C44.098 34.754 44.3254 33.896 44.78 33.104C45.2347 32.2973 45.8654 31.652 46.672 31.168C47.42 30.7427 48.036 30.5153 48.52 30.486C49.004 30.4567 49.356 30.442 49.576 30.442C50.0747 30.442 50.5734 30.4787 51.072 30.552L57.078 31.344L56.77 33.676C52.2967 33.0893 49.9354 32.796 49.686 32.796C49.026 32.796 48.498 32.9207 48.102 33.17C47.2954 33.698 46.892 34.3947 46.892 35.26V36.316H48.212V38.67H46.892V50ZM57.5545 52.09L48.7765 48.57V45.974L51.9225 45.424C53.0518 45.2333 53.9538 44.9913 54.6285 44.698C55.3032 44.4047 55.6405 43.9867 55.6405 43.444V43.004C55.6405 42.6373 55.5012 42.3293 55.2225 42.08C54.9438 41.816 54.5698 41.684 54.1005 41.684H53.0005C52.0472 41.684 51.5705 42.1607 51.5705 43.114V44.214H48.7765V43.334C48.7765 42.234 49.1652 41.2953 49.9425 40.518C50.7198 39.726 51.6658 39.33 52.7805 39.33H54.3205C55.4498 39.33 56.4178 39.6893 57.2245 40.408C58.0312 41.112 58.4345 41.9773 58.4345 43.004V43.444C58.4345 44.8227 57.5985 45.908 55.9265 46.7C54.9878 47.14 54.0052 47.4627 52.9785 47.668L58.4345 49.868L57.5545 52.09ZM59.5345 38.67H47.6765V36.316H59.5345V38.67ZM67.0707 50H65.6187C64.1227 50 62.8394 49.472 61.7687 48.416C60.7127 47.3453 60.1847 46.0547 60.1847 44.544V40.43H62.9787V44.764C62.9787 45.4973 63.2354 46.1647 63.7487 46.766C64.2767 47.3527 64.9 47.646 65.6187 47.646H67.0707C67.804 47.646 68.4274 47.3527 68.9407 46.766C69.454 46.1647 69.7107 45.4973 69.7107 44.764V43.048C69.7107 42.7253 69.6007 42.4173 69.3807 42.124C69.1607 41.8307 68.8894 41.684 68.5667 41.684H68.3467C68.1267 41.684 67.936 41.8013 67.7747 42.036C67.6134 42.2707 67.5327 42.498 67.5327 42.718V44.698H64.7387V42.938C64.7387 41.9407 65.0907 41.09 65.7947 40.386C66.4987 39.682 67.4227 39.33 68.5667 39.33C69.652 39.33 70.576 39.7187 71.3387 40.496C72.116 41.2587 72.5047 42.1827 72.5047 43.268V44.544C72.5047 46.0547 71.9694 47.3453 70.8987 48.416C69.8427 49.472 68.5667 50 67.0707 50ZM73.6047 38.67H59.0847V36.316H73.6047V38.67ZM94.3801 50H91.5861V42.212C90.5447 42.036 89.6207 41.684 88.8141 41.156C87.8607 40.452 87.2447 39.6673 86.9661 38.802C86.6287 38.934 86.3281 39.1393 86.0641 39.418C85.5801 39.9167 85.3381 40.5547 85.3381 41.332C85.3381 42.08 85.4261 42.5713 85.6021 42.806C85.7781 43.0407 86.0494 43.158 86.4161 43.158C86.6507 43.158 86.8487 43.0773 87.0101 42.916C87.1714 42.7547 87.2521 42.564 87.2521 42.344H90.0461V44.566C90.0461 46.062 89.5107 47.3453 88.4401 48.416C87.3841 49.472 86.1081 50 84.6121 50H83.6441C82.1481 50 80.8647 49.472 79.7941 48.416C78.7381 47.3453 78.2101 46.062 78.2101 44.566V40.43H81.0041V44.566C81.0041 45.402 81.2607 46.128 81.7741 46.744C82.2874 47.3453 82.9107 47.646 83.6441 47.646H84.6121C85.3307 47.646 85.9541 47.338 86.4821 46.722C86.8047 46.3553 87.0247 45.9373 87.1421 45.468C86.9367 45.4973 86.6067 45.512 86.1521 45.512C85.1547 45.512 84.3041 45.16 83.6001 44.456C82.8961 43.752 82.5441 42.9087 82.5441 41.926V41.552C82.5441 40.4813 82.8301 39.5207 83.4021 38.67H77.1101V36.316H95.7001V38.67H89.7381C89.8701 38.8753 90.0827 39.0733 90.3761 39.264C91.1241 39.748 91.9967 39.99 92.9941 39.99H94.3801V50ZM99.3784 50H96.5844V38.67H95.2644V36.316H96.5844C96.5844 35.2453 96.2544 34.38 95.5944 33.72C94.9344 33.06 94.1424 32.73 93.2184 32.73H89.0824C88.6717 32.73 88.4664 32.862 88.4664 33.126C88.4664 33.39 88.6717 33.522 89.0824 33.522H91.6784C92.4264 33.522 93.0644 33.786 93.5924 34.314C94.1204 34.842 94.3844 35.48 94.3844 36.228V36.756H91.5904V36.096C91.5904 35.8027 91.4437 35.656 91.1504 35.656H88.8624C87.9824 35.656 87.2344 35.4287 86.6184 34.974C85.9877 34.5047 85.6724 33.8887 85.6724 33.126C85.6724 32.3633 85.9877 31.718 86.6184 31.19C87.2344 30.6473 87.9824 30.376 88.8624 30.376H93.2184C94.905 30.376 96.357 30.9773 97.5744 32.18C98.7184 33.324 99.3197 34.7027 99.3784 36.316H100.698V38.67H99.3784V50ZM111.779 50H108.985L101.263 46.37V44.896C101.263 43.9427 101.541 43.048 102.099 42.212C102.656 41.376 103.477 40.7893 104.563 40.452L108.985 39.11V38.67H100.163V36.316H113.099V38.67H111.779V50ZM108.985 47.36V41.574L105.509 42.63C104.541 42.9233 104.057 43.532 104.057 44.456V45.028L108.985 47.36ZM124.723 50H121.929V45.336C121.929 44.5147 121.635 43.8107 121.049 43.224C120.477 42.6373 119.773 42.344 118.937 42.344H118.651C118.079 42.344 117.587 42.5493 117.177 42.96C116.766 43.356 116.561 43.84 116.561 44.412V44.654C116.561 45.1087 116.722 45.5047 117.045 45.842C117.382 46.1647 117.778 46.326 118.233 46.326H119.113V48.68H118.233C117.001 48.68 115.945 48.2913 115.065 47.514C114.199 46.722 113.767 45.7687 113.767 44.654V44.412C113.767 43.18 114.243 42.1387 115.197 41.288C116.15 40.4227 117.301 39.99 118.651 39.99C119.956 39.99 121.049 40.2613 121.929 40.804V38.67H112.667V36.316H126.043V38.67H124.723V50ZM141.829 50H139.035V47.206C139.035 46.6047 138.83 46.0987 138.419 45.688C138.009 45.2773 137.525 45.0647 136.967 45.05C136.85 46.1647 136.388 47.1327 135.581 47.954C134.613 48.9367 133.447 49.428 132.083 49.428H130.653V47.074H131.643C132.45 47.074 133.081 46.81 133.535 46.282C134.005 45.754 134.239 45.138 134.239 44.434V44.082C134.239 43.3633 134.005 42.7473 133.535 42.234C133.066 41.7207 132.428 41.464 131.621 41.464H130.653V38.67H129.553V36.316H143.149V38.67H141.829V50ZM139.035 43.158V38.67H133.447V39.33C134.503 39.6673 135.361 40.2613 136.021 41.112C136.388 41.596 136.652 42.124 136.813 42.696C137.649 42.696 138.39 42.85 139.035 43.158ZM137.972 56.578C136.857 56.578 135.941 56.3067 135.222 55.764C134.503 55.2213 134.144 54.5027 134.144 53.608C134.144 52.728 134.481 52.0167 135.156 51.474C135.831 50.9313 136.623 50.66 137.532 50.66C138.06 50.66 138.559 50.7113 139.028 50.814V49.12H141.822V52.156L145.562 54.444L144.396 56.358L141.646 54.642C141.47 55.0967 141.162 55.478 140.722 55.786C139.989 56.314 139.072 56.578 137.972 56.578ZM137.862 54.444C138.639 54.444 139.028 54.092 139.028 53.388V53.08C138.603 52.8893 138.199 52.794 137.818 52.794C137.554 52.794 137.305 52.8527 137.07 52.97C136.835 53.102 136.718 53.3147 136.718 53.608C136.718 53.916 136.843 54.1287 137.092 54.246C137.341 54.378 137.598 54.444 137.862 54.444ZM148.51 50C147.029 49.78 145.87 49.186 145.034 48.218C144.213 47.2353 143.802 46.0327 143.802 44.61V42.74C143.802 41.1267 144.183 39.77 144.946 38.67H142.702V36.316H149.126V38.67C148.422 38.6847 147.821 39.0293 147.322 39.704C146.838 40.3787 146.596 41.244 146.596 42.3V45.05C146.596 45.842 146.779 46.4507 147.146 46.876C147.513 47.2867 147.967 47.5433 148.51 47.646V50ZM161.346 50H158.552L149.796 47.646V46.128C149.84 44.104 150.933 42.6887 153.074 41.882C154.13 41.486 154.658 41.0533 154.658 40.584C154.291 40.7013 153.895 40.76 153.47 40.76C152.429 40.76 151.556 40.408 150.852 39.704C150.148 39 149.796 38.1493 149.796 37.152V36.316H152.59V37.372C152.59 38.0613 152.883 38.406 153.47 38.406C153.807 38.406 154.086 38.296 154.306 38.076C154.541 37.856 154.658 37.5847 154.658 37.262V36.536H157.452V40.254C157.452 41.2807 156.997 42.1387 156.088 42.828C155.355 43.3707 154.68 43.7813 154.064 44.06C153.609 44.2653 153.265 44.478 153.03 44.698C152.737 44.962 152.59 45.292 152.59 45.688V45.93L158.552 47.536V36.316H162.666V38.67H161.346V50ZM173.847 50H171.053L163.331 46.37V44.896C163.331 43.9427 163.61 43.048 164.167 42.212C164.725 41.376 165.546 40.7893 166.631 40.452L171.053 39.11V38.67H162.231V36.316H175.167V38.67H173.847V50ZM171.053 47.36V41.574L167.577 42.63C166.609 42.9233 166.125 43.532 166.125 44.456V45.028L171.053 47.36ZM166.169 51.848C165.759 51.848 165.399 51.7013 165.091 51.408C164.798 51.1147 164.651 50.7627 164.651 50.352C164.651 49.9413 164.798 49.5893 165.091 49.296C165.399 48.988 165.759 48.834 166.169 48.834C166.58 48.834 166.932 48.988 167.225 49.296C167.519 49.5893 167.665 49.9413 167.665 50.352C167.665 50.7627 167.519 51.1147 167.225 51.408C166.932 51.7013 166.58 51.848 166.169 51.848Z" fill="#FFC945"/>
</g>
<defs>
<filter id="filter0_d_133_601" x="7.97314" y="1.79401" width="275.753" height="55.484" filterUnits="userSpaceOnUse" color-interpolation-filters="sRGB">
<feFlood flood-opacity="0" result="BackgroundImageFix"/>
<feColorMatrix in="SourceAlpha" type="matrix" values="0 0 0 0 0 0 0 0 0 0 0 0 0 0 0 0 0 0 127 0" result="hardAlpha"/>
<feOffset dx="0.7" dy="0.7"/>
<feComposite in2="hardAlpha" operator="out"/>
<feColorMatrix type="matrix" values="0 0 0 0 0 0 0 0 0 0 0 0 0 0 0 0 0 0 0.6 0"/>
<feBlend mode="normal" in2="BackgroundImageFix" result="effect1_dropShadow_133_601"/>
<feBlend mode="normal" in="SourceGraphic" in2="effect1_dropShadow_133_601" result="shape"/>
</filter>
</defs>
</svg>
