<svg width="339" height="110" viewBox="0 0 339 110" fill="none" xmlns="http://www.w3.org/2000/svg">
<path d="M42.9419 22.9871C42.7062 22.9871 42.4732 22.9951 42.2375 22.9871C41.9 22.9709 41.5652 22.9144 41.2357 22.8337C41.0429 22.7852 40.8474 22.7475 40.6599 22.6856C40.4054 22.6022 40.1536 22.5107 39.9046 22.4085C39.476 22.2335 39.0716 22.0102 38.6832 21.7599C38.177 21.4343 37.7109 21.0521 37.2958 20.6162C37.0842 20.3928 36.8833 20.1614 36.6878 19.9219C36.2646 19.4025 35.9378 18.8239 35.6673 18.213C35.5923 18.0462 35.5334 17.8712 35.4691 17.699C35.4182 17.5591 35.3539 17.4191 35.3191 17.2738C35.2307 16.8917 35.1477 16.5069 35.0807 16.122C35.0379 15.8691 35.0084 15.6107 35.0031 15.3551C34.995 15.0106 35.0031 14.6634 35.0245 14.319C35.0486 13.9422 35.1182 13.5708 35.2013 13.2022C35.3861 12.3814 35.6994 11.6144 36.128 10.8932C36.5619 10.1666 37.1029 9.52879 37.735 8.96904C38.2975 8.47119 38.9162 8.06483 39.5912 7.74189C39.9903 7.55083 40.4081 7.40281 40.8313 7.27633C41.2679 7.14716 41.7152 7.05566 42.1678 7.02337C42.6339 6.99107 43.1053 6.99915 43.574 7.00722C43.9597 7.01529 44.34 7.09603 44.7177 7.17676C45.173 7.27364 45.6123 7.41358 46.0354 7.60196C46.3461 7.7392 46.6515 7.8926 46.9541 8.05137C47.0586 8.1052 47.1523 8.18862 47.23 8.27743C47.4309 8.50617 47.4363 8.88831 47.2622 9.13858C47.1282 9.33503 46.9408 9.45075 46.7104 9.46421C46.5872 9.47228 46.4479 9.43999 46.3328 9.38616C46.0381 9.25161 45.7542 9.09014 45.4596 8.9529C45.3069 8.88024 45.1382 8.83718 44.9775 8.78605C44.8248 8.73761 44.6721 8.68109 44.5168 8.6488C44.2945 8.60036 44.0668 8.56807 43.8418 8.5277C43.424 8.44966 43.0008 8.4658 42.5803 8.48195C42.3125 8.49272 42.0446 8.53577 41.7794 8.58152C41.5732 8.61651 41.367 8.65956 41.1661 8.72146C40.8768 8.81027 40.5902 8.90715 40.3117 9.03363C39.9983 9.17626 39.6983 9.34311 39.409 9.53149C38.9082 9.85173 38.4716 10.2473 38.0779 10.6914C37.6708 11.1515 37.344 11.6655 37.0788 12.2172C36.8806 12.6316 36.7333 13.0649 36.6289 13.509C36.4976 14.0822 36.4494 14.6661 36.4735 15.2555C36.4735 15.3147 36.4762 15.3739 36.4762 15.4331C36.4815 15.7291 36.5271 16.0171 36.5914 16.305C36.6396 16.5149 36.6771 16.7302 36.7387 16.9374C36.803 17.1473 36.8779 17.3572 36.9717 17.5564C37.1217 17.8739 37.2744 18.1942 37.4565 18.4956C37.7752 19.023 38.177 19.4832 38.635 19.8977C38.9966 20.2233 39.3903 20.5005 39.8108 20.74C40.1188 20.9149 40.4376 21.0683 40.7777 21.1705C41.0161 21.2432 41.2518 21.3266 41.4955 21.3858C41.6803 21.4316 41.8732 21.4504 42.0607 21.4854C42.4758 21.5581 42.8963 21.5608 43.3115 21.5365C43.6329 21.5177 43.9516 21.4666 44.2677 21.4181C44.4659 21.3858 44.6641 21.3401 44.8569 21.2782C45.4676 21.0844 46.0462 20.818 46.5818 20.4601C47.0425 20.1506 47.463 19.79 47.83 19.3729C48.2023 18.9504 48.5183 18.4875 48.7728 17.9843C48.9335 17.6667 49.0728 17.3384 49.1665 16.9966C49.2549 16.6818 49.3513 16.3642 49.3995 16.0413C49.4826 15.4762 49.5201 14.9056 49.437 14.3351C49.4022 14.0902 49.3728 13.8426 49.3326 13.5978C49.3138 13.474 49.279 13.3529 49.2442 13.2318C49.1853 13.0192 49.3781 12.6505 49.5629 12.5455C49.7156 12.4594 49.8709 12.3868 50.0531 12.4137C50.3289 12.454 50.6129 12.6639 50.6932 12.9869C50.7816 13.3529 50.8566 13.7215 50.8995 14.0983C50.9664 14.6715 50.9744 15.242 50.9102 15.8152C50.87 16.1758 50.8137 16.5365 50.7307 16.889C50.6289 17.3196 50.5004 17.7475 50.3102 18.1484C50.1924 18.396 50.0906 18.6544 49.954 18.8939C49.7129 19.3191 49.4397 19.7254 49.129 20.1049C48.7648 20.5489 48.363 20.9553 47.9077 21.3024C47.6157 21.5258 47.3077 21.7276 46.997 21.9241C46.7827 22.0586 46.5604 22.1797 46.3301 22.2847C46.0596 22.4085 45.781 22.5134 45.4998 22.6157C45.1569 22.7422 44.798 22.8148 44.4391 22.8956C43.9382 23.0086 43.4294 23.0059 42.9205 22.9951L42.9419 22.9871Z" fill="#FFC945"/>
<path d="M42.4195 19.2089C41.9321 19.2035 41.5866 19.0017 41.2919 18.6922C40.7241 18.0975 40.1509 17.5028 39.5831 16.9107C39.2162 16.5286 38.8519 16.1464 38.4849 15.7643C38.335 15.6109 38.2332 15.4252 38.1689 15.2288C37.9198 14.4457 38.3537 13.6329 39.0742 13.3665C39.2858 13.2885 39.5001 13.2481 39.7224 13.2696C39.8215 13.2777 39.9206 13.31 40.017 13.3342C40.4027 13.4338 40.6571 13.7083 40.9009 13.9989C41.2491 14.4188 41.608 14.8305 41.9508 15.2557C42.1517 15.506 42.5615 15.5113 42.7302 15.3606C42.8615 15.2449 42.974 15.1077 43.0945 14.9812C43.2499 14.8143 43.4052 14.6421 43.5605 14.4753C43.9784 14.0285 44.3909 13.5764 44.814 13.1351C45.2506 12.6803 45.6926 12.2282 46.1425 11.7868C46.555 11.3805 46.9782 10.9822 47.4068 10.592C47.7308 10.2987 48.0656 10.0161 48.4058 9.7416C48.7085 9.49401 49.0165 9.2572 49.3299 9.02576C49.52 8.88582 49.7182 8.75127 49.9218 8.63286C50.12 8.51714 50.3396 8.53598 50.5378 8.63286C50.8003 8.75934 50.9637 8.97463 50.9932 9.26796C51.0146 9.47518 50.9423 9.66625 50.803 9.81964C50.7039 9.92728 50.5834 10.0161 50.4762 10.1157C50.1602 10.4117 49.8388 10.7023 49.5334 11.0091C48.7326 11.8138 48.004 12.6803 47.2889 13.563C46.7291 14.2519 46.1774 14.9489 45.6363 15.6513C45.1435 16.2918 44.6694 16.9457 44.1927 17.597C43.9436 17.9387 43.7079 18.2886 43.4614 18.6303C43.1936 19.0017 42.8267 19.1982 42.4169 19.2143L42.4195 19.2089Z" fill="#FFC945"/>
<path d="M62.4791 21C61.3391 20.82 60.4451 20.346 59.7971 19.578C59.1491 18.798 58.8251 17.868 58.8251 16.788V14.898C58.8251 13.398 59.2271 12.186 60.0311 11.262C60.8471 10.326 61.8311 9.84 62.9831 9.804V11.424C62.3471 11.436 61.8071 11.736 61.3631 12.324C60.9311 12.912 60.7151 13.68 60.7151 14.628V17.058C60.7151 17.706 60.8831 18.228 61.2191 18.624C61.5551 19.02 61.9751 19.272 62.4791 19.38V21ZM70.5179 22.422L63.6239 19.524V17.724L66.0359 17.31C67.0679 17.13 67.8599 16.902 68.4119 16.626C68.9639 16.338 69.2399 15.96 69.2399 15.492V15.132C69.2399 14.772 69.1079 14.472 68.8439 14.232C68.5799 13.98 68.2439 13.854 67.8359 13.854H66.8459C66.4019 13.854 66.0659 13.98 65.8379 14.232C65.6219 14.472 65.5139 14.784 65.5139 15.168V16.122H63.6239V15.312C63.6239 14.46 63.9239 13.734 64.5239 13.134C65.1239 12.534 65.8499 12.234 66.7019 12.234H67.9619C68.8379 12.234 69.5819 12.516 70.1939 13.08C70.8179 13.644 71.1299 14.328 71.1299 15.132V15.492C71.1299 16.596 70.4759 17.454 69.1679 18.066C68.3159 18.474 67.4099 18.756 66.4499 18.912L71.1479 20.892L70.5179 22.422ZM72.1379 11.424H62.6159V9.804H72.1379V11.424ZM74.8881 21H72.9981V11.424H71.7741V9.804H76.0941V11.424H74.8881V21ZM84.9649 21H83.0749L76.6669 19.074V17.49C76.6669 16.77 76.8829 16.116 77.3149 15.528C77.7589 14.928 78.3409 14.514 79.0609 14.286L79.3489 14.196L76.6669 11.424H75.6589V9.804H86.1889V11.424H84.9649V21ZM83.0749 19.308V11.424H79.0249L81.1489 13.62L81.6529 15.186L79.6549 15.816C79.3309 15.912 79.0669 16.092 78.8629 16.356C78.6589 16.62 78.5569 16.908 78.5569 17.22V17.94L83.0749 19.308ZM79.4029 23.034C79.1029 23.034 78.8449 22.926 78.6289 22.71C78.4129 22.506 78.3049 22.26 78.3049 21.972C78.3049 21.672 78.4129 21.414 78.6289 21.198C78.8449 20.982 79.1029 20.874 79.4029 20.874C79.6909 20.874 79.9369 20.982 80.1409 21.198C80.3569 21.414 80.4649 21.672 80.4649 21.972C80.4649 22.26 80.3569 22.506 80.1409 22.71C79.9369 22.926 79.6909 23.034 79.4029 23.034ZM88.9506 21H87.0606V11.424H85.8366V9.804H90.1566V11.424H88.9506V21ZM97.6234 22.422L90.7294 19.524V17.724L93.1414 17.31C94.1734 17.13 94.9654 16.902 95.5174 16.626C96.0694 16.338 96.3454 15.96 96.3454 15.492V15.132C96.3454 14.772 96.2134 14.472 95.9494 14.232C95.6854 13.98 95.3494 13.854 94.9414 13.854H93.9514C93.5074 13.854 93.1714 13.98 92.9434 14.232C92.7274 14.472 92.6194 14.784 92.6194 15.168V16.122H90.7294V15.312C90.7294 14.46 91.0294 13.734 91.6294 13.134C92.2294 12.534 92.9554 12.234 93.8074 12.234H95.0674C95.9434 12.234 96.6874 12.516 97.2994 13.08C97.9234 13.644 98.2354 14.328 98.2354 15.132V15.492C98.2354 16.596 97.5814 17.454 96.2734 18.066C95.4214 18.474 94.5154 18.756 93.5554 18.912L98.2534 20.892L97.6234 22.422ZM99.2434 11.424H89.7214V9.804H96.3454V9.39C96.3454 9.114 96.2434 8.88 96.0394 8.688C95.8474 8.484 95.6134 8.382 95.3374 8.382H93.1234C92.4634 8.382 91.8994 8.154 91.4314 7.698C90.9634 7.23 90.7294 6.66 90.7294 5.988H92.6194V6.132C92.6194 6.552 92.8354 6.762 93.2674 6.762H95.3374C96.1294 6.762 96.8074 7.05 97.3714 7.626C97.9474 8.19 98.2354 8.916 98.2354 9.804H99.2434V11.424ZM103.92 21H103.398C102.486 21 101.706 20.676 101.058 20.028C100.422 19.38 100.104 18.6 100.104 17.688V11.424H98.8796V9.804H106.026V9.39C106.026 9.114 105.924 8.88 105.72 8.688C105.528 8.484 105.294 8.382 105.018 8.382H102.498C101.826 8.382 101.256 8.154 100.788 7.698C100.332 7.23 100.104 6.66 100.104 5.988H101.994V6.132C101.994 6.552 102.204 6.762 102.624 6.762H105.018C105.81 6.762 106.488 7.05 107.052 7.626C107.628 8.19 107.916 8.916 107.916 9.804H108.924V11.424H101.994V17.688C101.994 18.156 102.126 18.558 102.39 18.894C102.666 19.218 103.002 19.38 103.398 19.38H103.92C104.496 19.38 104.988 19.176 105.396 18.768C105.816 18.36 106.026 17.862 106.026 17.274V16.95C106.026 16.494 105.858 16.104 105.522 15.78C105.186 15.444 104.79 15.276 104.334 15.276H103.56V13.656H104.334C105.318 13.656 106.158 13.98 106.854 14.628C107.562 15.264 107.916 16.038 107.916 16.95V17.274C107.916 18.306 107.52 19.188 106.728 19.92C105.948 20.64 105.012 21 103.92 21ZM114.913 21H113.023V11.424H111.799V9.804H113.023V9.228C113.023 8.508 113.197 7.836 113.545 7.212C113.905 6.588 114.397 6.09 115.021 5.718C115.609 5.382 116.089 5.202 116.461 5.178C116.845 5.154 117.127 5.142 117.307 5.142C117.655 5.142 119.695 5.388 123.427 5.88L123.211 7.482C119.563 7.002 117.625 6.762 117.397 6.762C116.809 6.762 116.341 6.87 115.993 7.086C115.273 7.566 114.913 8.196 114.913 8.976V9.804H116.119V11.424H114.913V21ZM129.4 21H127.51V14.448C126.622 14.328 125.836 14.046 125.152 13.602C124.312 12.99 123.808 12.3 123.64 11.532C123.328 11.64 123.04 11.826 122.776 12.09C122.344 12.534 122.128 13.086 122.128 13.746V14.304C122.128 15.132 122.482 15.546 123.19 15.546C123.454 15.546 123.67 15.462 123.838 15.294C124.006 15.126 124.09 14.922 124.09 14.682H125.98V16.752C125.98 17.916 125.566 18.918 124.738 19.758C123.91 20.586 122.908 21 121.732 21H120.94C119.776 21 118.774 20.586 117.934 19.758C117.106 18.918 116.692 17.916 116.692 16.752V13.116H118.582V16.752C118.582 17.472 118.81 18.09 119.266 18.606C119.734 19.122 120.292 19.38 120.94 19.38H121.732C122.38 19.38 122.938 19.122 123.406 18.606C123.79 18.162 124.012 17.646 124.072 17.058C123.82 17.13 123.46 17.166 122.992 17.166C122.236 17.166 121.588 16.902 121.048 16.374C120.508 15.834 120.238 15.186 120.238 14.43V13.89C120.238 12.954 120.514 12.132 121.066 11.424H115.684V9.804H130.624V11.424H125.494C125.566 11.724 125.806 12.012 126.214 12.288C126.862 12.708 127.612 12.918 128.464 12.918H129.4V21ZM139.833 21H137.943V17.04C137.943 16.308 137.685 15.684 137.169 15.168C136.653 14.652 136.029 14.394 135.297 14.394H135.063C134.535 14.394 134.085 14.58 133.713 14.952C133.341 15.312 133.155 15.756 133.155 16.284V16.572C133.155 17.004 133.311 17.376 133.623 17.688C133.935 17.988 134.301 18.138 134.721 18.138H135.441V19.758H134.721C133.773 19.758 132.957 19.452 132.273 18.84C131.601 18.216 131.265 17.46 131.265 16.572V16.284C131.265 15.312 131.637 14.484 132.381 13.8C133.125 13.116 134.019 12.774 135.063 12.774C136.215 12.774 137.175 13.056 137.943 13.62V11.424H130.257V9.804H141.039V11.424H139.833V21ZM145.342 21C144.202 20.82 143.308 20.346 142.66 19.578C142.012 18.798 141.688 17.868 141.688 16.788V14.898C141.688 13.494 142.048 12.336 142.768 11.424H140.68V9.804H145.846V11.424C145.21 11.436 144.67 11.736 144.226 12.324C143.794 12.912 143.578 13.68 143.578 14.628V17.058C143.578 17.706 143.746 18.228 144.082 18.624C144.418 19.02 144.838 19.272 145.342 19.38V21ZM155.235 21H153.345V18.75C153.345 18.198 153.153 17.736 152.769 17.364C152.397 16.98 151.899 16.788 151.275 16.788C151.179 17.7 150.813 18.486 150.177 19.146C149.433 19.926 148.527 20.316 147.459 20.316H146.487V18.696H147.189C147.861 18.696 148.401 18.462 148.809 17.994C149.217 17.526 149.421 16.974 149.421 16.338V16.05C149.421 15.402 149.211 14.85 148.791 14.394C148.383 13.938 147.843 13.71 147.171 13.71H146.487V11.424H145.479V9.804H156.459V11.424H155.235V21ZM153.345 15.69V11.424H148.377V12.234C149.241 12.474 149.943 12.942 150.483 13.638C150.843 14.106 151.083 14.616 151.203 15.168C152.055 15.168 152.769 15.342 153.345 15.69ZM165.672 21H163.782V17.04C163.782 16.308 163.524 15.684 163.008 15.168C162.492 14.652 161.868 14.394 161.136 14.394H160.902C160.374 14.394 159.924 14.58 159.552 14.952C159.18 15.312 158.994 15.756 158.994 16.284V16.572C158.994 17.004 159.15 17.376 159.462 17.688C159.774 17.988 160.14 18.138 160.56 18.138H161.28V19.758H160.56C159.612 19.758 158.796 19.452 158.112 18.84C157.44 18.216 157.104 17.46 157.104 16.572V16.284C157.104 15.312 157.476 14.484 158.22 13.8C158.964 13.116 159.858 12.774 160.902 12.774C162.054 12.774 163.014 13.056 163.782 13.62V11.424H156.096V9.804H166.878V11.424H165.672V21Z" fill="white"/>
<path d="M204.942 22.9871C204.706 22.9871 204.473 22.9951 204.237 22.9871C203.9 22.9709 203.565 22.9144 203.236 22.8337C203.043 22.7852 202.847 22.7475 202.66 22.6856C202.405 22.6022 202.154 22.5107 201.905 22.4085C201.476 22.2335 201.072 22.0102 200.683 21.7599C200.177 21.4343 199.711 21.0521 199.296 20.6162C199.084 20.3928 198.883 20.1614 198.688 19.9219C198.265 19.4025 197.938 18.8239 197.667 18.213C197.592 18.0462 197.533 17.8712 197.469 17.699C197.418 17.5591 197.354 17.4191 197.319 17.2738C197.231 16.8917 197.148 16.5069 197.081 16.122C197.038 15.8691 197.008 15.6107 197.003 15.3551C196.995 15.0106 197.003 14.6634 197.024 14.319C197.049 13.9422 197.118 13.5708 197.201 13.2022C197.386 12.3814 197.699 11.6144 198.128 10.8932C198.562 10.1666 199.103 9.52879 199.735 8.96904C200.298 8.47119 200.916 8.06483 201.591 7.74189C201.99 7.55083 202.408 7.40281 202.831 7.27633C203.268 7.14716 203.715 7.05566 204.168 7.02337C204.634 6.99107 205.105 6.99915 205.574 7.00722C205.96 7.01529 206.34 7.09603 206.718 7.17676C207.173 7.27364 207.612 7.41358 208.035 7.60196C208.346 7.7392 208.651 7.8926 208.954 8.05137C209.059 8.1052 209.152 8.18862 209.23 8.27743C209.431 8.50617 209.436 8.88831 209.262 9.13858C209.128 9.33503 208.941 9.45075 208.71 9.46421C208.587 9.47228 208.448 9.43999 208.333 9.38616C208.038 9.25161 207.754 9.09014 207.46 8.9529C207.307 8.88024 207.138 8.83718 206.977 8.78605C206.825 8.73761 206.672 8.68109 206.517 8.6488C206.294 8.60036 206.067 8.56807 205.842 8.5277C205.424 8.44966 205.001 8.4658 204.58 8.48195C204.312 8.49272 204.045 8.53577 203.779 8.58152C203.573 8.61651 203.367 8.65956 203.166 8.72146C202.877 8.81027 202.59 8.90715 202.312 9.03363C201.998 9.17626 201.698 9.34311 201.409 9.53149C200.908 9.85173 200.472 10.2473 200.078 10.6914C199.671 11.1515 199.344 11.6655 199.079 12.2172C198.881 12.6316 198.733 13.0649 198.629 13.509C198.498 14.0822 198.449 14.6661 198.474 15.2555C198.474 15.3147 198.476 15.3739 198.476 15.4331C198.482 15.7291 198.527 16.0171 198.591 16.305C198.64 16.5149 198.677 16.7302 198.739 16.9374C198.803 17.1473 198.878 17.3572 198.972 17.5564C199.122 17.8739 199.274 18.1942 199.456 18.4956C199.775 19.023 200.177 19.4832 200.635 19.8977C200.997 20.2233 201.39 20.5005 201.811 20.74C202.119 20.9149 202.438 21.0683 202.778 21.1705C203.016 21.2432 203.252 21.3266 203.496 21.3858C203.68 21.4316 203.873 21.4504 204.061 21.4854C204.476 21.5581 204.896 21.5608 205.312 21.5365C205.633 21.5177 205.952 21.4666 206.268 21.4181C206.466 21.3858 206.664 21.3401 206.857 21.2782C207.468 21.0844 208.046 20.818 208.582 20.4601C209.043 20.1506 209.463 19.79 209.83 19.3729C210.202 18.9504 210.518 18.4875 210.773 17.9843C210.933 17.6667 211.073 17.3384 211.167 16.9966C211.255 16.6818 211.351 16.3642 211.4 16.0413C211.483 15.4762 211.52 14.9056 211.437 14.3351C211.402 14.0902 211.373 13.8426 211.333 13.5978C211.314 13.474 211.279 13.3529 211.244 13.2318C211.185 13.0192 211.378 12.6505 211.563 12.5455C211.716 12.4594 211.871 12.3868 212.053 12.4137C212.329 12.454 212.613 12.6639 212.693 12.9869C212.782 13.3529 212.857 13.7215 212.899 14.0983C212.966 14.6715 212.974 15.242 212.91 15.8152C212.87 16.1758 212.814 16.5365 212.731 16.889C212.629 17.3196 212.5 17.7475 212.31 18.1484C212.192 18.396 212.091 18.6544 211.954 18.8939C211.713 19.3191 211.44 19.7254 211.129 20.1049C210.765 20.5489 210.363 20.9553 209.908 21.3024C209.616 21.5258 209.308 21.7276 208.997 21.9241C208.783 22.0586 208.56 22.1797 208.33 22.2847C208.06 22.4085 207.781 22.5134 207.5 22.6157C207.157 22.7422 206.798 22.8148 206.439 22.8956C205.938 23.0086 205.429 23.0059 204.92 22.9951L204.942 22.9871Z" fill="#FFC945"/>
<path d="M204.42 19.2089C203.932 19.2035 203.587 19.0017 203.292 18.6922C202.724 18.0975 202.151 17.5028 201.583 16.9107C201.216 16.5286 200.852 16.1464 200.485 15.7643C200.335 15.6109 200.233 15.4252 200.169 15.2288C199.92 14.4457 200.354 13.6329 201.074 13.3665C201.286 13.2885 201.5 13.2481 201.722 13.2696C201.821 13.2777 201.921 13.31 202.017 13.3342C202.403 13.4338 202.657 13.7083 202.901 13.9989C203.249 14.4188 203.608 14.8305 203.951 15.2557C204.152 15.506 204.561 15.5113 204.73 15.3606C204.861 15.2449 204.974 15.1077 205.095 14.9812C205.25 14.8143 205.405 14.6421 205.561 14.4753C205.978 14.0285 206.391 13.5764 206.814 13.1351C207.251 12.6803 207.693 12.2282 208.143 11.7868C208.555 11.3805 208.978 10.9822 209.407 10.592C209.731 10.2987 210.066 10.0161 210.406 9.7416C210.708 9.49401 211.016 9.2572 211.33 9.02576C211.52 8.88582 211.718 8.75127 211.922 8.63286C212.12 8.51714 212.34 8.53598 212.538 8.63286C212.8 8.75934 212.964 8.97463 212.993 9.26796C213.015 9.47518 212.942 9.66625 212.803 9.81964C212.704 9.92728 212.583 10.0161 212.476 10.1157C212.16 10.4117 211.839 10.7023 211.533 11.0091C210.733 11.8138 210.004 12.6803 209.289 13.563C208.729 14.2519 208.177 14.9489 207.636 15.6513C207.143 16.2918 206.669 16.9457 206.193 17.597C205.944 17.9387 205.708 18.2886 205.461 18.6303C205.194 19.0017 204.827 19.1982 204.417 19.2143L204.42 19.2089Z" fill="#FFC945"/>
<path d="M224.479 21C223.339 20.82 222.445 20.346 221.797 19.578C221.149 18.798 220.825 17.868 220.825 16.788V14.898C220.825 13.398 221.227 12.186 222.031 11.262C222.847 10.326 223.831 9.84 224.983 9.804V11.424C224.347 11.436 223.807 11.736 223.363 12.324C222.931 12.912 222.715 13.68 222.715 14.628V17.058C222.715 17.706 222.883 18.228 223.219 18.624C223.555 19.02 223.975 19.272 224.479 19.38V21ZM233.832 21H231.942L225.624 18.03V16.608C225.624 15.852 225.84 15.162 226.272 14.538C226.704 13.902 227.346 13.452 228.198 13.188L231.942 12.036V11.424H224.616V9.804H235.056V11.424H233.832V21ZM231.942 19.182V13.746L228.828 14.7C227.952 14.964 227.514 15.51 227.514 16.338V17.094L231.942 19.182ZM227.946 22.386C227.646 22.386 227.388 22.278 227.172 22.062C226.956 21.858 226.848 21.606 226.848 21.306C226.848 21.018 226.956 20.766 227.172 20.55C227.388 20.334 227.646 20.226 227.946 20.226C228.234 20.226 228.48 20.334 228.684 20.55C228.9 20.766 229.008 21.018 229.008 21.306C229.008 21.606 228.9 21.858 228.684 22.062C228.48 22.278 228.234 22.386 227.946 22.386ZM240.916 21H239.944C238.78 21 237.778 20.586 236.938 19.758C236.11 18.918 235.696 17.916 235.696 16.752V13.116H237.586V16.878C237.586 17.526 237.814 18.108 238.27 18.624C238.738 19.128 239.296 19.38 239.944 19.38H240.916C241.564 19.38 242.116 19.128 242.572 18.624C243.04 18.108 243.274 17.526 243.274 16.878V16.536C243.022 16.62 242.656 16.662 242.176 16.662C241.42 16.662 240.772 16.398 240.232 15.87C239.692 15.342 239.422 14.694 239.422 13.926V11.424H234.688V9.804H246.172V11.424H241.312V14.07C241.312 14.394 241.396 14.64 241.564 14.808C241.732 14.964 241.936 15.042 242.176 15.042H242.428C242.668 15.042 242.866 14.958 243.022 14.79C243.19 14.622 243.274 14.382 243.274 14.07V13.656H245.164V16.752C245.164 17.916 244.75 18.918 243.922 19.758C243.094 20.586 242.092 21 240.916 21ZM252.163 21H250.273V11.424H249.049V9.804H250.273V9.228C250.273 8.508 250.447 7.836 250.795 7.212C251.155 6.588 251.647 6.09 252.271 5.718C252.859 5.382 253.339 5.202 253.711 5.178C254.095 5.154 254.377 5.142 254.557 5.142C254.905 5.142 256.945 5.388 260.677 5.88L260.461 7.482C256.813 7.002 254.875 6.762 254.647 6.762C254.059 6.762 253.591 6.87 253.243 7.086C252.523 7.566 252.163 8.196 252.163 8.976V9.804H253.369V11.424H252.163V21ZM266.65 21H264.76V14.448C263.872 14.328 263.086 14.046 262.402 13.602C261.562 12.99 261.058 12.3 260.89 11.532C260.578 11.64 260.29 11.826 260.026 12.09C259.594 12.534 259.378 13.086 259.378 13.746V14.304C259.378 15.132 259.732 15.546 260.44 15.546C260.704 15.546 260.92 15.462 261.088 15.294C261.256 15.126 261.34 14.922 261.34 14.682H263.23V16.752C263.23 17.916 262.816 18.918 261.988 19.758C261.16 20.586 260.158 21 258.982 21H258.19C257.026 21 256.024 20.586 255.184 19.758C254.356 18.918 253.942 17.916 253.942 16.752V13.116H255.832V16.752C255.832 17.472 256.06 18.09 256.516 18.606C256.984 19.122 257.542 19.38 258.19 19.38H258.982C259.63 19.38 260.188 19.122 260.656 18.606C261.04 18.162 261.262 17.646 261.322 17.058C261.07 17.13 260.71 17.166 260.242 17.166C259.486 17.166 258.838 16.902 258.298 16.374C257.758 15.834 257.488 15.186 257.488 14.43V13.89C257.488 12.954 257.764 12.132 258.316 11.424H252.934V9.804H267.874V11.424H262.744C262.816 11.724 263.056 12.012 263.464 12.288C264.112 12.708 264.862 12.918 265.714 12.918H266.65V21ZM277.083 21H275.193V17.04C275.193 16.308 274.935 15.684 274.419 15.168C273.903 14.652 273.279 14.394 272.547 14.394H272.313C271.785 14.394 271.335 14.58 270.963 14.952C270.591 15.312 270.405 15.756 270.405 16.284V16.572C270.405 17.004 270.561 17.376 270.873 17.688C271.185 17.988 271.551 18.138 271.971 18.138H272.691V19.758H271.971C271.023 19.758 270.207 19.452 269.523 18.84C268.851 18.216 268.515 17.46 268.515 16.572V16.284C268.515 15.312 268.887 14.484 269.631 13.8C270.375 13.116 271.269 12.774 272.313 12.774C273.465 12.774 274.425 13.056 275.193 13.62V11.424H267.507V9.804H278.289V11.424H277.083V21ZM282.592 21C281.452 20.82 280.558 20.346 279.91 19.578C279.262 18.798 278.938 17.868 278.938 16.788V14.898C278.938 13.494 279.298 12.336 280.018 11.424H277.93V9.804H283.096V11.424C282.46 11.436 281.92 11.736 281.476 12.324C281.044 12.912 280.828 13.68 280.828 14.628V17.058C280.828 17.706 280.996 18.228 281.332 18.624C281.668 19.02 282.088 19.272 282.592 19.38V21ZM292.485 21H290.595V18.75C290.595 18.198 290.403 17.736 290.019 17.364C289.647 16.98 289.149 16.788 288.525 16.788C288.429 17.7 288.063 18.486 287.427 19.146C286.683 19.926 285.777 20.316 284.709 20.316H283.737V18.696H284.439C285.111 18.696 285.651 18.462 286.059 17.994C286.467 17.526 286.671 16.974 286.671 16.338V16.05C286.671 15.402 286.461 14.85 286.041 14.394C285.633 13.938 285.093 13.71 284.421 13.71H283.737V11.424H282.729V9.804H293.709V11.424H292.485V21ZM290.595 15.69V11.424H285.627V12.234C286.491 12.474 287.193 12.942 287.733 13.638C288.093 14.106 288.333 14.616 288.453 15.168C289.305 15.168 290.019 15.342 290.595 15.69ZM302.922 21H301.032V17.04C301.032 16.308 300.774 15.684 300.258 15.168C299.742 14.652 299.118 14.394 298.386 14.394H298.152C297.624 14.394 297.174 14.58 296.802 14.952C296.43 15.312 296.244 15.756 296.244 16.284V16.572C296.244 17.004 296.4 17.376 296.712 17.688C297.024 17.988 297.39 18.138 297.81 18.138H298.53V19.758H297.81C296.862 19.758 296.046 19.452 295.362 18.84C294.69 18.216 294.354 17.46 294.354 16.572V16.284C294.354 15.312 294.726 14.484 295.47 13.8C296.214 13.116 297.108 12.774 298.152 12.774C299.304 12.774 300.264 13.056 301.032 13.62V11.424H293.346V9.804H304.128V11.424H302.922V21Z" fill="white"/>
<path d="M7.94188 62.9871C7.70618 62.9871 7.47316 62.9951 7.23746 62.9871C6.89998 62.9709 6.56517 62.9144 6.23573 62.8337C6.04288 62.7852 5.84736 62.7475 5.65987 62.6856C5.40542 62.6022 5.15365 62.5107 4.90456 62.4085C4.47601 62.2335 4.07157 62.0102 3.6832 61.7599C3.17698 61.4343 2.71093 61.0521 2.29578 60.6162C2.08419 60.3928 1.8833 60.1614 1.68778 59.9219C1.26459 59.4025 0.937823 58.8239 0.667304 58.213C0.592308 58.0462 0.533383 57.8712 0.469101 57.699C0.418211 57.5591 0.353929 57.4191 0.319109 57.2738C0.230722 56.8917 0.147691 56.5069 0.0807305 56.122C0.0378758 55.8691 0.00841326 55.6107 0.00305643 55.3551C-0.00497881 55.0106 0.00305643 54.6634 0.0244838 54.319C0.0485895 53.9422 0.118228 53.5708 0.201259 53.2022C0.38607 52.3814 0.699444 51.6144 1.12799 50.8932C1.56189 50.1666 2.10293 49.5288 2.73504 48.969C3.29751 48.4712 3.91622 48.0648 4.59118 47.7419C4.99027 47.5508 5.4081 47.4028 5.83129 47.2763C6.26787 47.1472 6.71517 47.0557 7.16782 47.0234C7.63386 46.9911 8.10526 46.9991 8.57399 47.0072C8.95968 47.0153 9.34001 47.096 9.71767 47.1768C10.173 47.2736 10.6123 47.4136 11.0354 47.602C11.3461 47.7392 11.6515 47.8926 11.9541 48.0514C12.0586 48.1052 12.1523 48.1886 12.23 48.2774C12.4309 48.5062 12.4363 48.8883 12.2622 49.1386C12.1282 49.335 11.9408 49.4508 11.7104 49.4642C11.5872 49.4723 11.4479 49.44 11.3328 49.3862C11.0381 49.2516 10.7542 49.0901 10.4596 48.9529C10.3069 48.8802 10.1382 48.8372 9.97748 48.786C9.82481 48.7376 9.67214 48.6811 9.51679 48.6488C9.29448 48.6004 9.06681 48.5681 8.84183 48.5277C8.42399 48.4497 8.00081 48.4658 7.58029 48.482C7.31245 48.4927 7.04461 48.5358 6.77945 48.5815C6.57321 48.6165 6.36697 48.6596 6.16609 48.7215C5.87682 48.8103 5.59023 48.9071 5.31168 49.0336C4.9983 49.1763 4.69832 49.3431 4.40905 49.5315C3.90819 49.8517 3.4716 50.2473 3.07788 50.6914C2.67076 51.1515 2.34399 51.6655 2.07883 52.2172C1.88063 52.6316 1.73331 53.0649 1.62885 53.509C1.49761 54.0822 1.4494 54.6661 1.47351 55.2555C1.47351 55.3147 1.47618 55.3739 1.47618 55.4331C1.48154 55.7291 1.52707 56.0171 1.59136 56.305C1.63957 56.5149 1.67707 56.7302 1.73867 56.9374C1.80295 57.1473 1.87795 57.3572 1.97169 57.5564C2.12168 57.8739 2.27435 58.1942 2.45649 58.4956C2.77522 59.023 3.17698 59.4832 3.63499 59.8977C3.99657 60.2233 4.3903 60.5005 4.81081 60.74C5.11883 60.9149 5.43756 61.0683 5.77772 61.1705C6.0161 61.2432 6.2518 61.3266 6.49554 61.3858C6.68035 61.4316 6.87319 61.4504 7.06068 61.4854C7.47584 61.5581 7.89635 61.5608 8.3115 61.5365C8.63291 61.5177 8.95164 61.4666 9.2677 61.4181C9.4659 61.3858 9.6641 61.3401 9.85695 61.2782C10.4676 61.0844 11.0462 60.818 11.5818 60.4601C12.0425 60.1506 12.463 59.79 12.83 59.3729C13.2023 58.9504 13.5183 58.4875 13.7728 57.9843C13.9335 57.6667 14.0728 57.3384 14.1665 56.9966C14.2549 56.6818 14.3513 56.3642 14.3995 56.0413C14.4826 55.4762 14.5201 54.9056 14.437 54.3351C14.4022 54.0902 14.3728 53.8426 14.3326 53.5978C14.3138 53.474 14.279 53.3529 14.2442 53.2318C14.1853 53.0192 14.3781 52.6505 14.5629 52.5455C14.7156 52.4594 14.8709 52.3868 15.0531 52.4137C15.3289 52.454 15.6129 52.6639 15.6932 52.9869C15.7816 53.3529 15.8566 53.7215 15.8995 54.0983C15.9664 54.6715 15.9744 55.242 15.9102 55.8152C15.87 56.1758 15.8137 56.5365 15.7307 56.889C15.6289 57.3196 15.5004 57.7475 15.3102 58.1484C15.1924 58.396 15.0906 58.6544 14.954 58.8939C14.7129 59.3191 14.4397 59.7254 14.129 60.1049C13.7648 60.5489 13.363 60.9553 12.9077 61.3024C12.6157 61.5258 12.3077 61.7276 11.997 61.9241C11.7827 62.0586 11.5604 62.1797 11.3301 62.2847C11.0596 62.4085 10.781 62.5134 10.4998 62.6157C10.1569 62.7422 9.79802 62.8148 9.43911 62.8956C8.93825 63.0086 8.42935 63.0059 7.92045 62.9951L7.94188 62.9871Z" fill="#FFC945"/>
<path d="M7.41954 59.2089C6.93207 59.2035 6.58655 59.0017 6.29193 58.6922C5.7241 58.0975 5.15092 57.5028 4.5831 56.9107C4.21616 56.5286 3.85189 56.1464 3.48495 55.7643C3.33496 55.6109 3.23318 55.4252 3.1689 55.2288C2.9198 54.4457 3.35371 53.6329 4.0742 53.3665C4.2858 53.2885 4.50007 53.2481 4.72238 53.2696C4.82148 53.2777 4.92058 53.31 5.017 53.3342C5.40269 53.4338 5.65714 53.7083 5.90088 53.9989C6.24907 54.4188 6.60798 54.8305 6.95082 55.2557C7.1517 55.506 7.5615 55.5113 7.73024 55.3606C7.86148 55.2449 7.97397 55.1077 8.0945 54.9812C8.24985 54.8143 8.4052 54.6421 8.56055 54.4753C8.97838 54.0285 9.39086 53.5764 9.81405 53.1351C10.2506 52.6803 10.6926 52.2282 11.1425 51.7868C11.555 51.3805 11.9782 50.9822 12.4068 50.592C12.7308 50.2987 13.0656 50.0161 13.4058 49.7416C13.7085 49.494 14.0165 49.2572 14.3299 49.0258C14.52 48.8858 14.7182 48.7513 14.9218 48.6329C15.12 48.5171 15.3396 48.536 15.5378 48.6329C15.8003 48.7593 15.9637 48.9746 15.9932 49.268C16.0146 49.4752 15.9423 49.6662 15.803 49.8196C15.7039 49.9273 15.5834 50.0161 15.4762 50.1157C15.1602 50.4117 14.8388 50.7023 14.5334 51.0091C13.7326 51.8138 13.004 52.6803 12.2889 53.563C11.7291 54.2519 11.1774 54.9489 10.6363 55.6513C10.1435 56.2918 9.66941 56.9457 9.19265 57.597C8.94356 57.9387 8.70786 58.2886 8.46145 58.6303C8.1936 59.0017 7.82666 59.1982 7.41686 59.2143L7.41954 59.2089Z" fill="#FFC945"/>
<path d="M41.2311 61H39.3411V51.424H37.2711V61H35.3811L32.7531 59.164C31.8891 60.388 30.7251 61 29.2611 61H28.0731C26.9091 61 25.9071 60.586 25.0671 59.758C24.2391 58.918 23.8251 57.91 23.8251 56.734V53.116H25.7151V56.86C25.7151 57.52 25.9431 58.108 26.3991 58.624C26.8671 59.128 27.4251 59.38 28.0731 59.38H29.2611C29.9211 59.38 30.4791 59.128 30.9351 58.624C31.3911 58.108 31.6191 57.52 31.6191 56.86V55.132C31.6191 54.808 31.5111 54.514 31.2951 54.25C31.0791 53.986 30.8091 53.854 30.4851 53.854H30.3051C30.0771 53.854 29.8731 53.962 29.6931 54.178C29.5251 54.394 29.4411 54.616 29.4411 54.844V56.698H27.5511V54.988C27.5511 54.232 27.8211 53.584 28.3611 53.044C28.9011 52.504 29.6091 52.234 30.4851 52.234C31.3251 52.234 32.0391 52.534 32.6271 53.134C33.2151 53.722 33.5091 54.43 33.5091 55.258C33.5091 56.53 33.4851 57.304 33.4371 57.58L35.3811 58.966V51.424H22.8171V49.804H42.4371V51.424H41.2311V61ZM53.9987 61H52.1087V55.582C52.1087 55.246 51.9947 54.964 51.7667 54.736C51.5387 54.508 51.2027 54.394 50.7587 54.394C50.4587 54.394 50.2007 54.502 49.9847 54.718C49.7687 54.934 49.6607 55.192 49.6607 55.492V56.662H47.7707V55.492C47.7707 55.216 47.6687 54.964 47.4647 54.736C47.2727 54.508 46.9487 54.394 46.4927 54.394C46.0727 54.394 45.7127 54.544 45.4127 54.844C45.1247 55.144 44.9807 55.498 44.9807 55.906V56.572C44.9807 57.016 45.1307 57.388 45.4307 57.688C45.7427 57.988 46.1147 58.138 46.5467 58.138H47.4107V59.758H46.5467C45.5987 59.758 44.7827 59.452 44.0987 58.84C43.4267 58.216 43.0907 57.46 43.0907 56.572V55.906C43.0907 55.042 43.4207 54.304 44.0807 53.692C44.7407 53.08 45.6047 52.774 46.6727 52.774C47.4527 52.774 48.1187 53.032 48.6707 53.548C49.2587 53.032 50.0147 52.774 50.9387 52.774C51.3587 52.774 51.7487 52.846 52.1087 52.99V51.424H42.0827V49.804H55.2227V51.424H53.9987V61ZM64.078 61H62.188L55.87 58.03V56.608C55.87 55.852 56.086 55.162 56.518 54.538C56.95 53.902 57.592 53.452 58.444 53.188L62.188 52.036V51.424H54.862V49.804H69.37V51.424H64.078V52.054H64.762C65.83 52.054 66.73 52.366 67.462 52.99C68.206 53.602 68.578 54.346 68.578 55.222V55.474C68.578 56.254 68.272 56.92 67.66 57.472C67.06 58.012 66.334 58.282 65.482 58.282V56.662C65.806 56.662 66.088 56.548 66.328 56.32C66.568 56.092 66.688 55.81 66.688 55.474V55.222C66.688 54.79 66.502 54.424 66.13 54.124C65.77 53.824 65.314 53.674 64.762 53.674H64.078V61ZM62.188 59.182V53.746L59.074 54.7C58.198 54.964 57.76 55.51 57.76 56.338V57.094L62.188 59.182ZM61.1187 66.31C60.2427 66.31 59.5347 66.094 58.9947 65.662C58.4427 65.23 58.1667 64.672 58.1667 63.988C58.1667 63.304 58.4307 62.746 58.9587 62.314C59.4747 61.882 60.1047 61.666 60.8487 61.666C61.3047 61.666 61.7487 61.732 62.1807 61.864V60.316H64.0707V62.836L67.1667 64.708L66.3567 66.04L63.9987 64.564C63.8787 65.008 63.6207 65.38 63.2247 65.68C62.6727 66.1 61.9707 66.31 61.1187 66.31ZM61.0467 64.816C61.8027 64.816 62.1807 64.492 62.1807 63.844V63.466C61.7607 63.262 61.3707 63.16 61.0107 63.16C60.7227 63.16 60.4707 63.226 60.2547 63.358C60.0387 63.502 59.9307 63.712 59.9307 63.988C59.9307 64.264 60.0447 64.468 60.2727 64.6C60.4887 64.744 60.7467 64.816 61.0467 64.816ZM72.1264 61H70.2364V51.424H69.0124V49.804H70.2364V49.228C70.2364 48.508 70.4104 47.836 70.7584 47.212C71.1184 46.588 71.6104 46.09 72.2344 45.718C72.8224 45.382 73.3024 45.202 73.6744 45.178C74.0584 45.154 74.3404 45.142 74.5204 45.142C74.8684 45.142 76.9084 45.388 80.6404 45.88L80.4244 47.482C76.7764 47.002 74.8384 46.762 74.6104 46.762C74.0224 46.762 73.5544 46.87 73.2064 47.086C72.4864 47.566 72.1264 48.196 72.1264 48.976V49.804H73.3324V51.424H72.1264V61ZM84.1831 61H82.2931V53.368C82.2931 52.828 82.1131 52.372 81.7531 52C81.4051 51.616 80.9791 51.424 80.4751 51.424H80.1151C79.5751 51.424 79.1131 51.628 78.7291 52.036C78.3451 52.444 78.1531 52.942 78.1531 53.53V53.818C78.1531 54.31 78.3091 54.724 78.6211 55.06C78.9331 55.384 79.3111 55.546 79.7551 55.546H80.4931V57.166H79.4851C78.5851 57.166 77.8231 56.848 77.1991 56.212C76.5751 56.848 75.8191 57.166 74.9311 57.166H73.9051V55.546H74.6611C75.0931 55.546 75.4651 55.384 75.7771 55.06C76.1011 54.724 76.2631 54.31 76.2631 53.818V53.53C76.2631 52.942 76.0651 52.444 75.6691 52.036C75.2851 51.628 74.8231 51.424 74.2831 51.424H72.8971V49.804H74.5531C75.5491 49.804 76.4011 50.164 77.1091 50.884L77.1991 50.992L77.3071 50.884C78.0031 50.164 78.8491 49.804 79.8451 49.804H80.4751C81.1471 49.804 81.7531 49.966 82.2931 50.29V49.804H85.4071V51.424H84.1831V61Z" fill="white"/>
<path d="M103.942 62.9871C103.706 62.9871 103.473 62.9951 103.237 62.9871C102.9 62.9709 102.565 62.9144 102.236 62.8337C102.043 62.7852 101.847 62.7475 101.66 62.6856C101.405 62.6022 101.154 62.5107 100.905 62.4085C100.476 62.2335 100.072 62.0102 99.6832 61.7599C99.177 61.4343 98.7109 61.0521 98.2958 60.6162C98.0842 60.3928 97.8833 60.1614 97.6878 59.9219C97.2646 59.4025 96.9378 58.8239 96.6673 58.213C96.5923 58.0462 96.5334 57.8712 96.4691 57.699C96.4182 57.5591 96.3539 57.4191 96.3191 57.2738C96.2307 56.8917 96.1477 56.5069 96.0807 56.122C96.0379 55.8691 96.0084 55.6107 96.0031 55.3551C95.995 55.0106 96.0031 54.6634 96.0245 54.319C96.0486 53.9422 96.1182 53.5708 96.2013 53.2022C96.3861 52.3814 96.6994 51.6144 97.128 50.8932C97.5619 50.1666 98.1029 49.5288 98.735 48.969C99.2975 48.4712 99.9162 48.0648 100.591 47.7419C100.99 47.5508 101.408 47.4028 101.831 47.2763C102.268 47.1472 102.715 47.0557 103.168 47.0234C103.634 46.9911 104.105 46.9991 104.574 47.0072C104.96 47.0153 105.34 47.096 105.718 47.1768C106.173 47.2736 106.612 47.4136 107.035 47.602C107.346 47.7392 107.651 47.8926 107.954 48.0514C108.059 48.1052 108.152 48.1886 108.23 48.2774C108.431 48.5062 108.436 48.8883 108.262 49.1386C108.128 49.335 107.941 49.4508 107.71 49.4642C107.587 49.4723 107.448 49.44 107.333 49.3862C107.038 49.2516 106.754 49.0901 106.46 48.9529C106.307 48.8802 106.138 48.8372 105.977 48.786C105.825 48.7376 105.672 48.6811 105.517 48.6488C105.294 48.6004 105.067 48.5681 104.842 48.5277C104.424 48.4497 104.001 48.4658 103.58 48.482C103.312 48.4927 103.045 48.5358 102.779 48.5815C102.573 48.6165 102.367 48.6596 102.166 48.7215C101.877 48.8103 101.59 48.9071 101.312 49.0336C100.998 49.1763 100.698 49.3431 100.409 49.5315C99.9082 49.8517 99.4716 50.2473 99.0779 50.6914C98.6708 51.1515 98.344 51.6655 98.0788 52.2172C97.8806 52.6316 97.7333 53.0649 97.6289 53.509C97.4976 54.0822 97.4494 54.6661 97.4735 55.2555C97.4735 55.3147 97.4762 55.3739 97.4762 55.4331C97.4815 55.7291 97.5271 56.0171 97.5914 56.305C97.6396 56.5149 97.6771 56.7302 97.7387 56.9374C97.803 57.1473 97.8779 57.3572 97.9717 57.5564C98.1217 57.8739 98.2744 58.1942 98.4565 58.4956C98.7752 59.023 99.177 59.4832 99.635 59.8977C99.9966 60.2233 100.39 60.5005 100.811 60.74C101.119 60.9149 101.438 61.0683 101.778 61.1705C102.016 61.2432 102.252 61.3266 102.496 61.3858C102.68 61.4316 102.873 61.4504 103.061 61.4854C103.476 61.5581 103.896 61.5608 104.312 61.5365C104.633 61.5177 104.952 61.4666 105.268 61.4181C105.466 61.3858 105.664 61.3401 105.857 61.2782C106.468 61.0844 107.046 60.818 107.582 60.4601C108.043 60.1506 108.463 59.79 108.83 59.3729C109.202 58.9504 109.518 58.4875 109.773 57.9843C109.933 57.6667 110.073 57.3384 110.167 56.9966C110.255 56.6818 110.351 56.3642 110.4 56.0413C110.483 55.4762 110.52 54.9056 110.437 54.3351C110.402 54.0902 110.373 53.8426 110.333 53.5978C110.314 53.474 110.279 53.3529 110.244 53.2318C110.185 53.0192 110.378 52.6505 110.563 52.5455C110.716 52.4594 110.871 52.3868 111.053 52.4137C111.329 52.454 111.613 52.6639 111.693 52.9869C111.782 53.3529 111.857 53.7215 111.899 54.0983C111.966 54.6715 111.974 55.242 111.91 55.8152C111.87 56.1758 111.814 56.5365 111.731 56.889C111.629 57.3196 111.5 57.7475 111.31 58.1484C111.192 58.396 111.091 58.6544 110.954 58.8939C110.713 59.3191 110.44 59.7254 110.129 60.1049C109.765 60.5489 109.363 60.9553 108.908 61.3024C108.616 61.5258 108.308 61.7276 107.997 61.9241C107.783 62.0586 107.56 62.1797 107.33 62.2847C107.06 62.4085 106.781 62.5134 106.5 62.6157C106.157 62.7422 105.798 62.8148 105.439 62.8956C104.938 63.0086 104.429 63.0059 103.92 62.9951L103.942 62.9871Z" fill="#FFC945"/>
<path d="M103.42 59.2089C102.932 59.2035 102.587 59.0017 102.292 58.6922C101.724 58.0975 101.151 57.5028 100.583 56.9107C100.216 56.5286 99.8519 56.1464 99.4849 55.7643C99.335 55.6109 99.2332 55.4252 99.1689 55.2288C98.9198 54.4457 99.3537 53.6329 100.074 53.3665C100.286 53.2885 100.5 53.2481 100.722 53.2696C100.821 53.2777 100.921 53.31 101.017 53.3342C101.403 53.4338 101.657 53.7083 101.901 53.9989C102.249 54.4188 102.608 54.8305 102.951 55.2557C103.152 55.506 103.561 55.5113 103.73 55.3606C103.861 55.2449 103.974 55.1077 104.095 54.9812C104.25 54.8143 104.405 54.6421 104.561 54.4753C104.978 54.0285 105.391 53.5764 105.814 53.1351C106.251 52.6803 106.693 52.2282 107.143 51.7868C107.555 51.3805 107.978 50.9822 108.407 50.592C108.731 50.2987 109.066 50.0161 109.406 49.7416C109.708 49.494 110.016 49.2572 110.33 49.0258C110.52 48.8858 110.718 48.7513 110.922 48.6329C111.12 48.5171 111.34 48.536 111.538 48.6329C111.8 48.7593 111.964 48.9746 111.993 49.268C112.015 49.4752 111.942 49.6662 111.803 49.8196C111.704 49.9273 111.583 50.0161 111.476 50.1157C111.16 50.4117 110.839 50.7023 110.533 51.0091C109.733 51.8138 109.004 52.6803 108.289 53.563C107.729 54.2519 107.177 54.9489 106.636 55.6513C106.143 56.2918 105.669 56.9457 105.193 57.597C104.944 57.9387 104.708 58.2886 104.461 58.6303C104.194 59.0017 103.827 59.1982 103.417 59.2143L103.42 59.2089Z" fill="#FFC945"/>
<path d="M133.271 61H131.381L128.753 59.164C127.889 60.388 126.725 61 125.261 61H124.073C122.909 61 121.907 60.586 121.067 59.758C120.239 58.918 119.825 57.91 119.825 56.734V53.116H121.715V56.86C121.715 57.52 121.943 58.108 122.399 58.624C122.867 59.128 123.425 59.38 124.073 59.38H125.261C125.921 59.38 126.479 59.128 126.935 58.624C127.391 58.108 127.619 57.52 127.619 56.86V55.132C127.619 54.808 127.511 54.514 127.295 54.25C127.079 53.986 126.809 53.854 126.485 53.854H126.305C126.077 53.854 125.873 53.962 125.693 54.178C125.525 54.394 125.441 54.616 125.441 54.844V56.698H123.551V54.988C123.551 54.232 123.821 53.584 124.361 53.044C124.901 52.504 125.609 52.234 126.485 52.234C127.325 52.234 128.039 52.534 128.627 53.134C129.215 53.722 129.509 54.43 129.509 55.258C129.509 56.53 129.485 57.304 129.437 57.58L131.381 58.966V51.424H118.817V49.804H134.477V51.424H133.271V61ZM145.396 63.25H143.506L139.168 61.432V60.388C139.168 59.812 139.342 59.284 139.69 58.804C140.05 58.324 140.524 57.988 141.112 57.796L143.506 57.04V53.26C143.506 52.744 143.326 52.312 142.966 51.964C142.618 51.604 142.192 51.424 141.688 51.424H141.328C140.776 51.424 140.308 51.616 139.924 52C139.552 52.384 139.366 52.846 139.366 53.386V53.638C139.366 54.106 139.516 54.496 139.816 54.808C140.128 55.108 140.512 55.258 140.968 55.258H141.706V56.896H140.698C139.81 56.896 139.054 56.584 138.43 55.96H138.412C137.776 56.584 137.02 56.896 136.144 56.896H135.118V55.258H135.874C136.318 55.258 136.696 55.108 137.008 54.808C137.32 54.496 137.476 54.106 137.476 53.638V53.386C137.476 52.846 137.284 52.384 136.9 52C136.516 51.616 136.048 51.424 135.496 51.424H134.11V49.804H135.766C136.75 49.804 137.596 50.146 138.304 50.83L138.412 50.956C139.18 50.188 140.062 49.804 141.058 49.804H141.688C142.36 49.804 142.966 49.96 143.506 50.272V49.804H146.62V51.424H145.396V63.25ZM143.506 61.486V58.786L141.796 59.344C141.304 59.512 141.058 59.884 141.058 60.46L143.506 61.486ZM156.067 61H154.177V54.052C154.177 53.32 153.919 52.702 153.403 52.198C152.899 51.682 152.281 51.424 151.549 51.424H150.883C150.415 51.424 150.007 51.592 149.659 51.928C149.323 52.252 149.155 52.714 149.155 53.314H149.749C150.541 53.314 151.213 53.56 151.765 54.052C152.317 54.544 152.593 55.156 152.593 55.888C152.593 56.632 152.269 57.304 151.621 57.904C150.973 58.504 150.211 58.804 149.335 58.804H147.805V57.184H149.065C149.521 57.184 149.905 57.058 150.217 56.806C150.541 56.554 150.703 56.248 150.703 55.888C150.703 55.624 150.607 55.402 150.415 55.222C150.235 55.03 150.013 54.934 149.749 54.934H147.265V53.404C147.289 52.384 147.649 51.532 148.345 50.848C149.053 50.152 149.899 49.804 150.883 49.804H151.549C152.545 49.804 153.421 50.08 154.177 50.632V49.804H157.291V51.424H156.067V61ZM165.8 63.286H163.91L158.582 61.324V60.19C158.582 59.566 158.786 59.014 159.194 58.534C159.614 58.054 160.208 57.724 160.976 57.544L163.91 56.842V55.888C163.91 55.252 163.682 54.736 163.226 54.34C162.782 53.944 162.212 53.746 161.516 53.746C160.916 53.746 160.484 53.824 160.22 53.98C159.956 54.136 159.824 54.334 159.824 54.574C159.824 54.79 159.932 54.976 160.148 55.132C160.376 55.276 160.658 55.348 160.994 55.348H161.408V56.806H160.994C160.202 56.806 159.494 56.608 158.87 56.212C158.246 55.804 157.934 55.264 157.934 54.592C157.934 53.896 158.264 53.338 158.924 52.918C159.596 52.486 160.46 52.27 161.516 52.27C162.428 52.27 163.226 52.486 163.91 52.918V51.424H156.926V49.804H170.552V51.424H165.8V56.41L167.654 55.96H169.544V62.17H167.654V57.634L165.8 58.084V63.286ZM163.91 61.522V58.534L161.516 59.092C160.784 59.26 160.418 59.566 160.418 60.01V60.244L163.91 61.522ZM173.312 61H171.422V51.424H170.198V49.804H174.518V51.424H173.312V61Z" fill="white"/>
<path d="M192.943 62.9871C192.708 62.9871 192.475 62.9951 192.239 62.9871C191.901 62.9709 191.566 62.9144 191.237 62.8337C191.044 62.7852 190.849 62.7475 190.661 62.6856C190.406 62.6022 190.155 62.5107 189.906 62.4085C189.477 62.2335 189.072 62.0102 188.684 61.7599C188.178 61.4343 187.711 61.0521 187.296 60.6162C187.085 60.3928 186.884 60.1614 186.688 59.9219C186.265 59.4025 185.938 58.8239 185.667 58.213C185.592 58.0462 185.533 57.8712 185.469 57.699C185.418 57.5591 185.354 57.4191 185.319 57.2738C185.231 56.8917 185.148 56.5069 185.081 56.122C185.038 55.8691 185.008 55.6107 185.003 55.3551C184.995 55.0106 185.003 54.6634 185.024 54.319C185.049 53.9422 185.118 53.5708 185.201 53.2022C185.386 52.3814 185.7 51.6144 186.128 50.8932C186.562 50.1666 187.103 49.5288 187.736 48.969C188.298 48.4712 188.917 48.0648 189.592 47.7419C189.991 47.5508 190.409 47.4028 190.832 47.2763C191.269 47.1472 191.717 47.0557 192.169 47.0234C192.635 46.9911 193.107 46.9991 193.576 47.0072C193.961 47.0153 194.342 47.096 194.72 47.1768C195.175 47.2736 195.614 47.4136 196.038 47.602C196.348 47.7392 196.654 47.8926 196.957 48.0514C197.061 48.1052 197.155 48.1886 197.232 48.2774C197.433 48.5062 197.439 48.8883 197.265 49.1386C197.131 49.335 196.943 49.4508 196.713 49.4642C196.59 49.4723 196.45 49.44 196.335 49.3862C196.04 49.2516 195.756 49.0901 195.462 48.9529C195.309 48.8802 195.14 48.8372 194.979 48.786C194.827 48.7376 194.674 48.6811 194.519 48.6488C194.296 48.6004 194.069 48.5681 193.844 48.5277C193.426 48.4497 193.002 48.4658 192.582 48.482C192.314 48.4927 192.046 48.5358 191.781 48.5815C191.575 48.6165 191.368 48.6596 191.167 48.7215C190.878 48.8103 190.591 48.9071 190.313 49.0336C189.999 49.1763 189.699 49.3431 189.41 49.5315C188.909 49.8517 188.472 50.2473 188.078 50.6914C187.671 51.1515 187.344 51.6655 187.079 52.2172C186.881 52.6316 186.734 53.0649 186.629 53.509C186.498 54.0822 186.45 54.6661 186.474 55.2555C186.474 55.3147 186.476 55.3739 186.476 55.4331C186.482 55.7291 186.527 56.0171 186.592 56.305C186.64 56.5149 186.677 56.7302 186.739 56.9374C186.803 57.1473 186.878 57.3572 186.972 57.5564C187.122 57.8739 187.275 58.1942 187.457 58.4956C187.776 59.023 188.178 59.4832 188.636 59.8977C188.997 60.2233 189.391 60.5005 189.812 60.74C190.12 60.9149 190.439 61.0683 190.779 61.1705C191.017 61.2432 191.253 61.3266 191.497 61.3858C191.682 61.4316 191.875 61.4504 192.062 61.4854C192.477 61.5581 192.898 61.5608 193.313 61.5365C193.635 61.5177 193.953 61.4666 194.27 61.4181C194.468 61.3858 194.666 61.3401 194.859 61.2782C195.47 61.0844 196.048 60.818 196.584 60.4601C197.045 60.1506 197.466 59.79 197.833 59.3729C198.205 58.9504 198.521 58.4875 198.776 57.9843C198.936 57.6667 199.076 57.3384 199.169 56.9966C199.258 56.6818 199.354 56.3642 199.402 56.0413C199.485 55.4762 199.523 54.9056 199.44 54.3351C199.405 54.0902 199.376 53.8426 199.335 53.5978C199.317 53.474 199.282 53.3529 199.247 53.2318C199.188 53.0192 199.381 52.6505 199.566 52.5455C199.719 52.4594 199.874 52.3868 200.056 52.4137C200.332 52.454 200.616 52.6639 200.696 52.9869C200.785 53.3529 200.86 53.7215 200.903 54.0983C200.97 54.6715 200.978 55.242 200.913 55.8152C200.873 56.1758 200.817 56.5365 200.734 56.889C200.632 57.3196 200.503 57.7475 200.313 58.1484C200.195 58.396 200.094 58.6544 199.957 58.8939C199.716 59.3191 199.443 59.7254 199.132 60.1049C198.767 60.5489 198.366 60.9553 197.91 61.3024C197.618 61.5258 197.31 61.7276 196.999 61.9241C196.785 62.0586 196.563 62.1797 196.332 62.2847C196.062 62.4085 195.783 62.5134 195.502 62.6157C195.159 62.7422 194.8 62.8148 194.441 62.8956C193.94 63.0086 193.431 63.0059 192.922 62.9951L192.943 62.9871Z" fill="#FFC945"/>
<path d="M192.421 59.2089C191.933 59.2035 191.588 59.0017 191.293 58.6922C190.725 58.0975 190.152 57.5028 189.584 56.9107C189.217 56.5286 188.853 56.1464 188.486 55.7643C188.335 55.6109 188.234 55.4252 188.169 55.2288C187.92 54.4457 188.354 53.6329 189.075 53.3665C189.287 53.2885 189.501 53.2481 189.723 53.2696C189.822 53.2777 189.921 53.31 190.018 53.3342C190.404 53.4338 190.658 53.7083 190.902 53.9989C191.25 54.4188 191.609 54.8305 191.952 55.2557C192.153 55.506 192.563 55.5113 192.732 55.3606C192.863 55.2449 192.975 55.1077 193.096 54.9812C193.251 54.8143 193.407 54.6421 193.562 54.4753C193.98 54.0285 194.393 53.5764 194.816 53.1351C195.253 52.6803 195.695 52.2282 196.145 51.7868C196.557 51.3805 196.98 50.9822 197.409 50.592C197.733 50.2987 198.068 50.0161 198.408 49.7416C198.711 49.494 199.019 49.2572 199.333 49.0258C199.523 48.8858 199.721 48.7513 199.925 48.6329C200.123 48.5171 200.343 48.536 200.541 48.6329C200.803 48.7593 200.967 48.9746 200.996 49.268C201.018 49.4752 200.945 49.6662 200.806 49.8196C200.707 49.9273 200.586 50.0161 200.479 50.1157C200.163 50.4117 199.842 50.7023 199.536 51.0091C198.735 51.8138 198.007 52.6803 197.291 53.563C196.731 54.2519 196.179 54.9489 195.638 55.6513C195.145 56.2918 194.671 56.9457 194.194 57.597C193.945 57.9387 193.709 58.2886 193.463 58.6303C193.195 59.0017 192.828 59.1982 192.418 59.2143L192.421 59.2089Z" fill="#FFC945"/>
<path d="M219.106 61H217.216V53.368C217.216 52.828 217.036 52.372 216.676 52C216.328 51.616 215.902 51.424 215.398 51.424H215.038C214.498 51.424 214.036 51.628 213.652 52.036C213.268 52.444 213.076 52.942 213.076 53.53V53.818C213.076 54.31 213.232 54.724 213.544 55.06C213.856 55.384 214.234 55.546 214.678 55.546H215.416V57.166H214.408C213.508 57.166 212.746 56.848 212.122 56.212C211.498 56.848 210.742 57.166 209.854 57.166H208.828V55.546H209.584C210.016 55.546 210.388 55.384 210.7 55.06C211.024 54.724 211.186 54.31 211.186 53.818V53.53C211.186 52.942 210.988 52.444 210.592 52.036C210.208 51.628 209.746 51.424 209.206 51.424H207.82V49.804H209.476C210.472 49.804 211.324 50.164 212.032 50.884L212.122 50.992L212.23 50.884C212.926 50.164 213.772 49.804 214.768 49.804H215.398C216.07 49.804 216.676 49.966 217.216 50.29V49.804H220.33V51.424H219.106V61ZM226.41 61H225.222C224.058 61 223.056 60.586 222.216 59.758C221.388 58.918 220.974 57.91 220.974 56.734V53.116H222.864V56.878C222.864 57.526 223.092 58.108 223.548 58.624C224.016 59.128 224.574 59.38 225.222 59.38H226.41C227.07 59.38 227.628 59.128 228.084 58.624C228.54 58.108 228.768 57.526 228.768 56.878V55.132C228.768 54.808 228.66 54.514 228.444 54.25C228.228 53.986 227.958 53.854 227.634 53.854H227.454C227.226 53.854 227.022 53.962 226.842 54.178C226.674 54.394 226.59 54.616 226.59 54.844V56.698H224.7V54.988C224.7 54.232 224.97 53.584 225.51 53.044C226.05 52.504 226.758 52.234 227.634 52.234C228.474 52.234 229.188 52.534 229.776 53.134C230.364 53.722 230.658 54.43 230.658 55.258V56.734C230.658 57.91 230.244 58.918 229.416 59.758C228.588 60.586 227.586 61 226.41 61ZM231.666 51.424H219.966V49.804H231.666V51.424ZM241.06 61H239.17V58.822C239.17 58.234 238.942 57.742 238.486 57.346C238.042 56.938 237.508 56.734 236.884 56.734H235.66C235.252 56.734 234.904 56.866 234.616 57.13C234.34 57.394 234.202 57.706 234.202 58.066C234.202 58.402 234.316 58.666 234.544 58.858C234.784 59.05 235.06 59.146 235.372 59.146H236.38V60.766H235.372C234.568 60.766 233.854 60.52 233.23 60.028C232.618 59.536 232.312 58.888 232.312 58.084C232.312 57.244 232.636 56.536 233.284 55.96C233.824 55.492 234.466 55.216 235.21 55.132C235.162 54.784 234.976 54.472 234.652 54.196C234.256 53.884 233.788 53.728 233.248 53.728H232.312V51.424H231.304V49.804H242.284V51.424H241.06V61ZM239.17 55.744V51.424H234.202V52.234C235.054 52.438 235.756 52.846 236.308 53.458C236.728 53.95 236.986 54.502 237.082 55.114C237.862 55.15 238.558 55.36 239.17 55.744ZM243.182 66.94L241.292 65.482C240.74 66.034 239.966 66.31 238.97 66.31C238.034 66.31 237.308 66.076 236.792 65.608C236.276 65.152 236.018 64.612 236.018 63.988C236.018 63.364 236.282 62.824 236.81 62.368C237.338 61.924 238.124 61.69 239.168 61.666V60.316H241.058V63.16H239.348C238.868 63.16 238.484 63.232 238.196 63.376C237.908 63.52 237.764 63.724 237.764 63.988C237.764 64.264 237.878 64.474 238.106 64.618C238.322 64.762 238.61 64.834 238.97 64.834C239.294 64.834 239.552 64.756 239.744 64.6C239.936 64.444 240.032 64.24 240.032 63.988H241.922L244.136 65.68L243.182 66.94ZM253.838 61H251.948V55.582C251.948 55.246 251.834 54.964 251.606 54.736C251.378 54.508 251.042 54.394 250.598 54.394C250.298 54.394 250.04 54.502 249.824 54.718C249.608 54.934 249.5 55.192 249.5 55.492V56.662H247.61V55.492C247.61 55.216 247.508 54.964 247.304 54.736C247.112 54.508 246.788 54.394 246.332 54.394C245.912 54.394 245.552 54.544 245.252 54.844C244.964 55.144 244.82 55.498 244.82 55.906V56.572C244.82 57.016 244.97 57.388 245.27 57.688C245.582 57.988 245.954 58.138 246.386 58.138H247.25V59.758H246.386C245.438 59.758 244.622 59.452 243.938 58.84C243.266 58.216 242.93 57.46 242.93 56.572V55.906C242.93 55.042 243.26 54.304 243.92 53.692C244.58 53.08 245.444 52.774 246.512 52.774C247.292 52.774 247.958 53.032 248.51 53.548C249.098 53.032 249.854 52.774 250.778 52.774C251.198 52.774 251.588 52.846 251.948 52.99V51.424H241.922V49.804H255.062V51.424H253.838V61Z" fill="white"/>
<path d="M275.942 62.9871C275.706 62.9871 275.473 62.9951 275.237 62.9871C274.9 62.9709 274.565 62.9144 274.236 62.8337C274.043 62.7852 273.847 62.7475 273.66 62.6856C273.405 62.6022 273.154 62.5107 272.905 62.4085C272.476 62.2335 272.072 62.0102 271.683 61.7599C271.177 61.4343 270.711 61.0521 270.296 60.6162C270.084 60.3928 269.883 60.1614 269.688 59.9219C269.265 59.4025 268.938 58.8239 268.667 58.213C268.592 58.0462 268.533 57.8712 268.469 57.699C268.418 57.5591 268.354 57.4191 268.319 57.2738C268.231 56.8917 268.148 56.5069 268.081 56.122C268.038 55.8691 268.008 55.6107 268.003 55.3551C267.995 55.0106 268.003 54.6634 268.024 54.319C268.049 53.9422 268.118 53.5708 268.201 53.2022C268.386 52.3814 268.699 51.6144 269.128 50.8932C269.562 50.1666 270.103 49.5288 270.735 48.969C271.298 48.4712 271.916 48.0648 272.591 47.7419C272.99 47.5508 273.408 47.4028 273.831 47.2763C274.268 47.1472 274.715 47.0557 275.168 47.0234C275.634 46.9911 276.105 46.9991 276.574 47.0072C276.96 47.0153 277.34 47.096 277.718 47.1768C278.173 47.2736 278.612 47.4136 279.035 47.602C279.346 47.7392 279.651 47.8926 279.954 48.0514C280.059 48.1052 280.152 48.1886 280.23 48.2774C280.431 48.5062 280.436 48.8883 280.262 49.1386C280.128 49.335 279.941 49.4508 279.71 49.4642C279.587 49.4723 279.448 49.44 279.333 49.3862C279.038 49.2516 278.754 49.0901 278.46 48.9529C278.307 48.8802 278.138 48.8372 277.977 48.786C277.825 48.7376 277.672 48.6811 277.517 48.6488C277.294 48.6004 277.067 48.5681 276.842 48.5277C276.424 48.4497 276.001 48.4658 275.58 48.482C275.312 48.4927 275.045 48.5358 274.779 48.5815C274.573 48.6165 274.367 48.6596 274.166 48.7215C273.877 48.8103 273.59 48.9071 273.312 49.0336C272.998 49.1763 272.698 49.3431 272.409 49.5315C271.908 49.8517 271.472 50.2473 271.078 50.6914C270.671 51.1515 270.344 51.6655 270.079 52.2172C269.881 52.6316 269.733 53.0649 269.629 53.509C269.498 54.0822 269.449 54.6661 269.474 55.2555C269.474 55.3147 269.476 55.3739 269.476 55.4331C269.482 55.7291 269.527 56.0171 269.591 56.305C269.64 56.5149 269.677 56.7302 269.739 56.9374C269.803 57.1473 269.878 57.3572 269.972 57.5564C270.122 57.8739 270.274 58.1942 270.456 58.4956C270.775 59.023 271.177 59.4832 271.635 59.8977C271.997 60.2233 272.39 60.5005 272.811 60.74C273.119 60.9149 273.438 61.0683 273.778 61.1705C274.016 61.2432 274.252 61.3266 274.496 61.3858C274.68 61.4316 274.873 61.4504 275.061 61.4854C275.476 61.5581 275.896 61.5608 276.312 61.5365C276.633 61.5177 276.952 61.4666 277.268 61.4181C277.466 61.3858 277.664 61.3401 277.857 61.2782C278.468 61.0844 279.046 60.818 279.582 60.4601C280.043 60.1506 280.463 59.79 280.83 59.3729C281.202 58.9504 281.518 58.4875 281.773 57.9843C281.933 57.6667 282.073 57.3384 282.167 56.9966C282.255 56.6818 282.351 56.3642 282.4 56.0413C282.483 55.4762 282.52 54.9056 282.437 54.3351C282.402 54.0902 282.373 53.8426 282.333 53.5978C282.314 53.474 282.279 53.3529 282.244 53.2318C282.185 53.0192 282.378 52.6505 282.563 52.5455C282.716 52.4594 282.871 52.3868 283.053 52.4137C283.329 52.454 283.613 52.6639 283.693 52.9869C283.782 53.3529 283.857 53.7215 283.899 54.0983C283.966 54.6715 283.974 55.242 283.91 55.8152C283.87 56.1758 283.814 56.5365 283.731 56.889C283.629 57.3196 283.5 57.7475 283.31 58.1484C283.192 58.396 283.091 58.6544 282.954 58.8939C282.713 59.3191 282.44 59.7254 282.129 60.1049C281.765 60.5489 281.363 60.9553 280.908 61.3024C280.616 61.5258 280.308 61.7276 279.997 61.9241C279.783 62.0586 279.56 62.1797 279.33 62.2847C279.06 62.4085 278.781 62.5134 278.5 62.6157C278.157 62.7422 277.798 62.8148 277.439 62.8956C276.938 63.0086 276.429 63.0059 275.92 62.9951L275.942 62.9871Z" fill="#FFC945"/>
<path d="M275.42 59.2089C274.932 59.2035 274.587 59.0017 274.292 58.6922C273.724 58.0975 273.151 57.5028 272.583 56.9107C272.216 56.5286 271.852 56.1464 271.485 55.7643C271.335 55.6109 271.233 55.4252 271.169 55.2288C270.92 54.4457 271.354 53.6329 272.074 53.3665C272.286 53.2885 272.5 53.2481 272.722 53.2696C272.821 53.2777 272.921 53.31 273.017 53.3342C273.403 53.4338 273.657 53.7083 273.901 53.9989C274.249 54.4188 274.608 54.8305 274.951 55.2557C275.152 55.506 275.561 55.5113 275.73 55.3606C275.861 55.2449 275.974 55.1077 276.095 54.9812C276.25 54.8143 276.405 54.6421 276.561 54.4753C276.978 54.0285 277.391 53.5764 277.814 53.1351C278.251 52.6803 278.693 52.2282 279.143 51.7868C279.555 51.3805 279.978 50.9822 280.407 50.592C280.731 50.2987 281.066 50.0161 281.406 49.7416C281.708 49.494 282.016 49.2572 282.33 49.0258C282.52 48.8858 282.718 48.7513 282.922 48.6329C283.12 48.5171 283.34 48.536 283.538 48.6329C283.8 48.7593 283.964 48.9746 283.993 49.268C284.015 49.4752 283.942 49.6662 283.803 49.8196C283.704 49.9273 283.583 50.0161 283.476 50.1157C283.16 50.4117 282.839 50.7023 282.533 51.0091C281.733 51.8138 281.004 52.6803 280.289 53.563C279.729 54.2519 279.177 54.9489 278.636 55.6513C278.143 56.2918 277.669 56.9457 277.193 57.597C276.944 57.9387 276.708 58.2886 276.461 58.6303C276.194 59.0017 275.827 59.1982 275.417 59.2143L275.42 59.2089Z" fill="#FFC945"/>
<path d="M293.931 61H292.041V51.424H290.817V49.804H292.041V49.228C292.041 48.508 292.215 47.836 292.563 47.212C292.923 46.588 293.415 46.09 294.039 45.718C294.627 45.382 295.107 45.202 295.479 45.178C295.863 45.154 296.145 45.142 296.325 45.142C296.673 45.142 298.713 45.388 302.445 45.88L302.229 47.482C298.581 47.002 296.643 46.762 296.415 46.762C295.827 46.762 295.359 46.87 295.011 47.086C294.291 47.566 293.931 48.196 293.931 48.976V49.804H295.137V51.424H293.931V61ZM305.988 61H304.098V53.368C304.098 52.828 303.918 52.372 303.558 52C303.21 51.616 302.784 51.424 302.28 51.424H301.92C301.38 51.424 300.918 51.628 300.534 52.036C300.15 52.444 299.958 52.942 299.958 53.53V53.818C299.958 54.31 300.114 54.724 300.426 55.06C300.738 55.384 301.116 55.546 301.56 55.546H302.298V57.166H301.29C300.39 57.166 299.628 56.848 299.004 56.212C298.38 56.848 297.624 57.166 296.736 57.166H295.71V55.546H296.466C296.898 55.546 297.27 55.384 297.582 55.06C297.906 54.724 298.068 54.31 298.068 53.818V53.53C298.068 52.942 297.87 52.444 297.474 52.036C297.09 51.628 296.628 51.424 296.088 51.424H294.702V49.804H296.358C297.354 49.804 298.206 50.164 298.914 50.884L299.004 50.992L299.112 50.884C299.808 50.164 300.654 49.804 301.65 49.804H302.28C302.952 49.804 303.558 49.966 304.098 50.29V49.804H307.212V51.424H305.988V61ZM316.604 61H314.714V58.822C314.714 58.234 314.486 57.742 314.03 57.346C313.586 56.938 313.052 56.734 312.428 56.734H311.204C310.796 56.734 310.448 56.866 310.16 57.13C309.884 57.394 309.746 57.706 309.746 58.066C309.746 58.402 309.86 58.666 310.088 58.858C310.328 59.05 310.604 59.146 310.916 59.146H311.924V60.766H310.916C310.112 60.766 309.398 60.52 308.774 60.028C308.162 59.536 307.856 58.888 307.856 58.084C307.856 57.244 308.18 56.536 308.828 55.96C309.368 55.492 310.01 55.216 310.754 55.132C310.706 54.784 310.52 54.472 310.196 54.196C309.8 53.884 309.332 53.728 308.792 53.728H307.856V51.424H306.848V49.804H317.828V51.424H316.604V61ZM314.714 55.744V51.424H309.746V52.234C310.598 52.438 311.3 52.846 311.852 53.458C312.272 53.95 312.53 54.502 312.626 55.114C313.406 55.15 314.102 55.36 314.714 55.744ZM313.65 66.31C312.774 66.31 312.066 66.094 311.526 65.662C310.974 65.23 310.698 64.672 310.698 63.988C310.698 63.304 310.962 62.746 311.49 62.314C312.006 61.882 312.636 61.666 313.38 61.666C313.836 61.666 314.28 61.732 314.712 61.864V60.316H316.602V62.836L319.698 64.708L318.888 66.04L316.53 64.564C316.41 65.008 316.152 65.38 315.756 65.68C315.204 66.1 314.502 66.31 313.65 66.31ZM313.578 64.816C314.334 64.816 314.712 64.492 314.712 63.844V63.466C314.292 63.262 313.902 63.16 313.542 63.16C313.254 63.16 313.002 63.226 312.786 63.358C312.57 63.502 312.462 63.712 312.462 63.988C312.462 64.264 312.576 64.468 312.804 64.6C313.02 64.744 313.278 64.816 313.578 64.816ZM329.382 61H327.492V55.582C327.492 55.246 327.378 54.964 327.15 54.736C326.922 54.508 326.586 54.394 326.142 54.394C325.842 54.394 325.584 54.502 325.368 54.718C325.152 54.934 325.044 55.192 325.044 55.492V56.662H323.154V55.492C323.154 55.216 323.052 54.964 322.848 54.736C322.656 54.508 322.332 54.394 321.876 54.394C321.456 54.394 321.096 54.544 320.796 54.844C320.508 55.144 320.364 55.498 320.364 55.906V56.572C320.364 57.016 320.514 57.388 320.814 57.688C321.126 57.988 321.498 58.138 321.93 58.138H322.794V59.758H321.93C320.982 59.758 320.166 59.452 319.482 58.84C318.81 58.216 318.474 57.46 318.474 56.572V55.906C318.474 55.042 318.804 54.304 319.464 53.692C320.124 53.08 320.988 52.774 322.056 52.774C322.836 52.774 323.502 53.032 324.054 53.548C324.642 53.032 325.398 52.774 326.322 52.774C326.742 52.774 327.132 52.846 327.492 52.99V51.424H317.466V49.804H330.606V51.424H329.382V61Z" fill="white"/>
<path d="M7.94188 102.987C7.70618 102.987 7.47316 102.995 7.23746 102.987C6.89998 102.971 6.56517 102.914 6.23573 102.834C6.04288 102.785 5.84736 102.748 5.65987 102.686C5.40542 102.602 5.15365 102.511 4.90456 102.408C4.47601 102.234 4.07157 102.01 3.6832 101.76C3.17698 101.434 2.71093 101.052 2.29578 100.616C2.08419 100.393 1.8833 100.161 1.68778 99.9219C1.26459 99.4025 0.937823 98.8239 0.667304 98.213C0.592308 98.0462 0.533383 97.8712 0.469101 97.699C0.418211 97.5591 0.353929 97.4191 0.319109 97.2738C0.230722 96.8917 0.147691 96.5069 0.0807305 96.122C0.0378758 95.8691 0.00841326 95.6107 0.00305643 95.3551C-0.00497881 95.0106 0.00305643 94.6634 0.0244838 94.319C0.0485895 93.9422 0.118228 93.5708 0.201259 93.2022C0.38607 92.3814 0.699444 91.6144 1.12799 90.8932C1.56189 90.1666 2.10293 89.5288 2.73504 88.969C3.29751 88.4712 3.91622 88.0648 4.59118 87.7419C4.99027 87.5508 5.4081 87.4028 5.83129 87.2763C6.26787 87.1472 6.71517 87.0557 7.16782 87.0234C7.63386 86.9911 8.10526 86.9991 8.57399 87.0072C8.95968 87.0153 9.34001 87.096 9.71767 87.1768C10.173 87.2736 10.6123 87.4136 11.0354 87.602C11.3461 87.7392 11.6515 87.8926 11.9541 88.0514C12.0586 88.1052 12.1523 88.1886 12.23 88.2774C12.4309 88.5062 12.4363 88.8883 12.2622 89.1386C12.1282 89.335 11.9408 89.4508 11.7104 89.4642C11.5872 89.4723 11.4479 89.44 11.3328 89.3862C11.0381 89.2516 10.7542 89.0901 10.4596 88.9529C10.3069 88.8802 10.1382 88.8372 9.97748 88.786C9.82481 88.7376 9.67214 88.6811 9.51679 88.6488C9.29448 88.6004 9.06681 88.5681 8.84183 88.5277C8.42399 88.4497 8.00081 88.4658 7.58029 88.482C7.31245 88.4927 7.04461 88.5358 6.77945 88.5815C6.57321 88.6165 6.36697 88.6596 6.16609 88.7215C5.87682 88.8103 5.59023 88.9071 5.31168 89.0336C4.9983 89.1763 4.69832 89.3431 4.40905 89.5315C3.90819 89.8517 3.4716 90.2473 3.07788 90.6914C2.67076 91.1515 2.34399 91.6655 2.07883 92.2172C1.88063 92.6316 1.73331 93.0649 1.62885 93.509C1.49761 94.0822 1.4494 94.6661 1.47351 95.2555C1.47351 95.3147 1.47618 95.3739 1.47618 95.4331C1.48154 95.7291 1.52707 96.0171 1.59136 96.305C1.63957 96.5149 1.67707 96.7302 1.73867 96.9374C1.80295 97.1473 1.87795 97.3572 1.97169 97.5564C2.12168 97.8739 2.27435 98.1942 2.45649 98.4956C2.77522 99.023 3.17698 99.4832 3.63499 99.8977C3.99657 100.223 4.3903 100.5 4.81081 100.74C5.11883 100.915 5.43756 101.068 5.77772 101.171C6.0161 101.243 6.2518 101.327 6.49554 101.386C6.68035 101.432 6.87319 101.45 7.06068 101.485C7.47584 101.558 7.89635 101.561 8.3115 101.537C8.63291 101.518 8.95164 101.467 9.2677 101.418C9.4659 101.386 9.6641 101.34 9.85695 101.278C10.4676 101.084 11.0462 100.818 11.5818 100.46C12.0425 100.151 12.463 99.79 12.83 99.3729C13.2023 98.9504 13.5183 98.4875 13.7728 97.9843C13.9335 97.6667 14.0728 97.3384 14.1665 96.9966C14.2549 96.6818 14.3513 96.3642 14.3995 96.0413C14.4826 95.4762 14.5201 94.9056 14.437 94.3351C14.4022 94.0902 14.3728 93.8426 14.3326 93.5978C14.3138 93.474 14.279 93.3529 14.2442 93.2318C14.1853 93.0192 14.3781 92.6505 14.5629 92.5455C14.7156 92.4594 14.8709 92.3868 15.0531 92.4137C15.3289 92.454 15.6129 92.6639 15.6932 92.9869C15.7816 93.3529 15.8566 93.7215 15.8995 94.0983C15.9664 94.6715 15.9744 95.242 15.9102 95.8152C15.87 96.1758 15.8137 96.5365 15.7307 96.889C15.6289 97.3196 15.5004 97.7475 15.3102 98.1484C15.1924 98.396 15.0906 98.6544 14.954 98.8939C14.7129 99.3191 14.4397 99.7254 14.129 100.105C13.7648 100.549 13.363 100.955 12.9077 101.302C12.6157 101.526 12.3077 101.728 11.997 101.924C11.7827 102.059 11.5604 102.18 11.3301 102.285C11.0596 102.408 10.781 102.513 10.4998 102.616C10.1569 102.742 9.79802 102.815 9.43911 102.896C8.93825 103.009 8.42935 103.006 7.92045 102.995L7.94188 102.987Z" fill="#FFC945"/>
<path d="M7.41954 99.2089C6.93207 99.2035 6.58655 99.0017 6.29193 98.6922C5.7241 98.0975 5.15092 97.5028 4.5831 96.9107C4.21616 96.5286 3.85189 96.1464 3.48495 95.7643C3.33496 95.6109 3.23318 95.4252 3.1689 95.2288C2.9198 94.4457 3.35371 93.6329 4.0742 93.3665C4.2858 93.2885 4.50007 93.2481 4.72238 93.2696C4.82148 93.2777 4.92058 93.31 5.017 93.3342C5.40269 93.4338 5.65714 93.7083 5.90088 93.9989C6.24907 94.4188 6.60798 94.8305 6.95082 95.2557C7.1517 95.506 7.5615 95.5113 7.73024 95.3606C7.86148 95.2449 7.97397 95.1077 8.0945 94.9812C8.24985 94.8143 8.4052 94.6421 8.56055 94.4753C8.97838 94.0285 9.39086 93.5764 9.81405 93.1351C10.2506 92.6803 10.6926 92.2282 11.1425 91.7868C11.555 91.3805 11.9782 90.9822 12.4068 90.592C12.7308 90.2987 13.0656 90.0161 13.4058 89.7416C13.7085 89.494 14.0165 89.2572 14.3299 89.0258C14.52 88.8858 14.7182 88.7513 14.9218 88.6329C15.12 88.5171 15.3396 88.536 15.5378 88.6329C15.8003 88.7593 15.9637 88.9746 15.9932 89.268C16.0146 89.4752 15.9423 89.6662 15.803 89.8196C15.7039 89.9273 15.5834 90.0161 15.4762 90.1157C15.1602 90.4117 14.8388 90.7023 14.5334 91.0091C13.7326 91.8138 13.004 92.6803 12.2889 93.563C11.7291 94.2519 11.1774 94.9489 10.6363 95.6513C10.1435 96.2918 9.66941 96.9457 9.19265 97.597C8.94356 97.9387 8.70786 98.2886 8.46145 98.6303C8.1936 99.0017 7.82666 99.1982 7.41686 99.2143L7.41954 99.2089Z" fill="#FFC945"/>
<path d="M29.2611 101H28.0731C26.9091 101 25.9071 100.586 25.0671 99.758C24.2391 98.918 23.8251 97.91 23.8251 96.734V93.116H25.7151V96.878C25.7151 97.526 25.9431 98.108 26.3991 98.624C26.8671 99.128 27.4251 99.38 28.0731 99.38H29.2611C29.9211 99.38 30.4791 99.128 30.9351 98.624C31.3911 98.108 31.6191 97.526 31.6191 96.878V95.132C31.6191 94.808 31.5111 94.514 31.2951 94.25C31.0791 93.986 30.8091 93.854 30.4851 93.854H30.3051C30.0771 93.854 29.8731 93.962 29.6931 94.178C29.5251 94.394 29.4411 94.616 29.4411 94.844V96.698H27.5511V94.988C27.5511 94.232 27.8211 93.584 28.3611 93.044C28.9011 92.504 29.6091 92.234 30.4851 92.234C31.3251 92.234 32.0391 92.534 32.6271 93.134C33.2151 93.722 33.5091 94.43 33.5091 95.258V96.734C33.5091 97.91 33.0951 98.918 32.2671 99.758C31.4391 100.586 30.4371 101 29.2611 101ZM34.5171 91.424H22.8171V89.804H34.5171V91.424ZM37.269 101H35.379V91.424H34.155V89.804H38.475V91.424H37.269V101ZM49.9557 101H48.0657V95.582C48.0657 95.246 47.9517 94.964 47.7237 94.736C47.4957 94.508 47.1597 94.394 46.7157 94.394C46.4157 94.394 46.1577 94.502 45.9417 94.718C45.7257 94.934 45.6177 95.192 45.6177 95.492V96.662H43.7277V95.492C43.7277 95.216 43.6257 94.964 43.4217 94.736C43.2297 94.508 42.9057 94.394 42.4497 94.394C42.0297 94.394 41.6697 94.544 41.3697 94.844C41.0817 95.144 40.9377 95.498 40.9377 95.906V96.572C40.9377 97.016 41.0877 97.388 41.3877 97.688C41.6997 97.988 42.0717 98.138 42.5037 98.138H43.3677V99.758H42.5037C41.5557 99.758 40.7397 99.452 40.0557 98.84C39.3837 98.216 39.0477 97.46 39.0477 96.572V95.906C39.0477 95.042 39.3777 94.304 40.0377 93.692C40.6977 93.08 41.5617 92.774 42.6297 92.774C43.4097 92.774 44.0757 93.032 44.6277 93.548C45.2157 93.032 45.9717 92.774 46.8957 92.774C47.3157 92.774 47.7057 92.846 48.0657 92.99V91.424H38.0397V89.804H51.1797V91.424H49.9557V101ZM60.575 101H58.685V98.822C58.685 98.234 58.457 97.742 58.001 97.346C57.557 96.938 57.023 96.734 56.399 96.734H55.175C54.767 96.734 54.419 96.866 54.131 97.13C53.855 97.394 53.717 97.706 53.717 98.066C53.717 98.402 53.831 98.666 54.059 98.858C54.299 99.05 54.575 99.146 54.887 99.146H55.895V100.766H54.887C54.083 100.766 53.369 100.52 52.745 100.028C52.133 99.536 51.827 98.888 51.827 98.084C51.827 97.244 52.151 96.536 52.799 95.96C53.339 95.492 53.981 95.216 54.725 95.132C54.677 94.784 54.491 94.472 54.167 94.196C53.771 93.884 53.303 93.728 52.763 93.728H51.827V91.424H50.819V89.804H61.799V91.424H60.575V101ZM58.685 95.744V91.424H53.717V92.234C54.569 92.438 55.271 92.846 55.823 93.458C56.243 93.95 56.501 94.502 56.597 95.114C57.377 95.15 58.073 95.36 58.685 95.744ZM62.6966 106.94L60.8066 105.482C60.2546 106.034 59.4806 106.31 58.4846 106.31C57.5486 106.31 56.8226 106.076 56.3066 105.608C55.7906 105.152 55.5326 104.612 55.5326 103.988C55.5326 103.364 55.7966 102.824 56.3246 102.368C56.8526 101.924 57.6386 101.69 58.6826 101.666V100.316H60.5726V103.16H58.8626C58.3826 103.16 57.9986 103.232 57.7106 103.376C57.4226 103.52 57.2786 103.724 57.2786 103.988C57.2786 104.264 57.3926 104.474 57.6206 104.618C57.8366 104.762 58.1246 104.834 58.4846 104.834C58.8086 104.834 59.0666 104.756 59.2586 104.6C59.4506 104.444 59.5466 104.24 59.5466 103.988H61.4366L63.6506 105.68L62.6966 106.94ZM73.3522 101H71.4622V95.582C71.4622 95.246 71.3482 94.964 71.1202 94.736C70.8922 94.508 70.5562 94.394 70.1122 94.394C69.8122 94.394 69.5542 94.502 69.3382 94.718C69.1222 94.934 69.0142 95.192 69.0142 95.492V96.662H67.1242V95.492C67.1242 95.216 67.0222 94.964 66.8182 94.736C66.6262 94.508 66.3022 94.394 65.8462 94.394C65.4262 94.394 65.0662 94.544 64.7662 94.844C64.4782 95.144 64.3342 95.498 64.3342 95.906V96.572C64.3342 97.016 64.4842 97.388 64.7842 97.688C65.0962 97.988 65.4682 98.138 65.9002 98.138H66.7642V99.758H65.9002C64.9522 99.758 64.1362 99.452 63.4522 98.84C62.7802 98.216 62.4442 97.46 62.4442 96.572V95.906C62.4442 95.042 62.7742 94.304 63.4342 93.692C64.0942 93.08 64.9582 92.774 66.0262 92.774C66.8062 92.774 67.4722 93.032 68.0242 93.548C68.6122 93.032 69.3682 92.774 70.2922 92.774C70.7122 92.774 71.1022 92.846 71.4622 92.99V91.424H61.4362V89.804H74.5762V91.424H73.3522V101Z" fill="white"/>
<path d="M103.942 102.987C103.706 102.987 103.473 102.995 103.237 102.987C102.9 102.971 102.565 102.914 102.236 102.834C102.043 102.785 101.847 102.748 101.66 102.686C101.405 102.602 101.154 102.511 100.905 102.408C100.476 102.234 100.072 102.01 99.6832 101.76C99.177 101.434 98.7109 101.052 98.2958 100.616C98.0842 100.393 97.8833 100.161 97.6878 99.9219C97.2646 99.4025 96.9378 98.8239 96.6673 98.213C96.5923 98.0462 96.5334 97.8712 96.4691 97.699C96.4182 97.5591 96.3539 97.4191 96.3191 97.2738C96.2307 96.8917 96.1477 96.5069 96.0807 96.122C96.0379 95.8691 96.0084 95.6107 96.0031 95.3551C95.995 95.0106 96.0031 94.6634 96.0245 94.319C96.0486 93.9422 96.1182 93.5708 96.2013 93.2022C96.3861 92.3814 96.6994 91.6144 97.128 90.8932C97.5619 90.1666 98.1029 89.5288 98.735 88.969C99.2975 88.4712 99.9162 88.0648 100.591 87.7419C100.99 87.5508 101.408 87.4028 101.831 87.2763C102.268 87.1472 102.715 87.0557 103.168 87.0234C103.634 86.9911 104.105 86.9991 104.574 87.0072C104.96 87.0153 105.34 87.096 105.718 87.1768C106.173 87.2736 106.612 87.4136 107.035 87.602C107.346 87.7392 107.651 87.8926 107.954 88.0514C108.059 88.1052 108.152 88.1886 108.23 88.2774C108.431 88.5062 108.436 88.8883 108.262 89.1386C108.128 89.335 107.941 89.4508 107.71 89.4642C107.587 89.4723 107.448 89.44 107.333 89.3862C107.038 89.2516 106.754 89.0901 106.46 88.9529C106.307 88.8802 106.138 88.8372 105.977 88.786C105.825 88.7376 105.672 88.6811 105.517 88.6488C105.294 88.6004 105.067 88.5681 104.842 88.5277C104.424 88.4497 104.001 88.4658 103.58 88.482C103.312 88.4927 103.045 88.5358 102.779 88.5815C102.573 88.6165 102.367 88.6596 102.166 88.7215C101.877 88.8103 101.59 88.9071 101.312 89.0336C100.998 89.1763 100.698 89.3431 100.409 89.5315C99.9082 89.8517 99.4716 90.2473 99.0779 90.6914C98.6708 91.1515 98.344 91.6655 98.0788 92.2172C97.8806 92.6316 97.7333 93.0649 97.6289 93.509C97.4976 94.0822 97.4494 94.6661 97.4735 95.2555C97.4735 95.3147 97.4762 95.3739 97.4762 95.4331C97.4815 95.7291 97.5271 96.0171 97.5914 96.305C97.6396 96.5149 97.6771 96.7302 97.7387 96.9374C97.803 97.1473 97.8779 97.3572 97.9717 97.5564C98.1217 97.8739 98.2744 98.1942 98.4565 98.4956C98.7752 99.023 99.177 99.4832 99.635 99.8977C99.9966 100.223 100.39 100.5 100.811 100.74C101.119 100.915 101.438 101.068 101.778 101.171C102.016 101.243 102.252 101.327 102.496 101.386C102.68 101.432 102.873 101.45 103.061 101.485C103.476 101.558 103.896 101.561 104.312 101.537C104.633 101.518 104.952 101.467 105.268 101.418C105.466 101.386 105.664 101.34 105.857 101.278C106.468 101.084 107.046 100.818 107.582 100.46C108.043 100.151 108.463 99.79 108.83 99.3729C109.202 98.9504 109.518 98.4875 109.773 97.9843C109.933 97.6667 110.073 97.3384 110.167 96.9966C110.255 96.6818 110.351 96.3642 110.4 96.0413C110.483 95.4762 110.52 94.9056 110.437 94.3351C110.402 94.0902 110.373 93.8426 110.333 93.5978C110.314 93.474 110.279 93.3529 110.244 93.2318C110.185 93.0192 110.378 92.6505 110.563 92.5455C110.716 92.4594 110.871 92.3868 111.053 92.4137C111.329 92.454 111.613 92.6639 111.693 92.9869C111.782 93.3529 111.857 93.7215 111.899 94.0983C111.966 94.6715 111.974 95.242 111.91 95.8152C111.87 96.1758 111.814 96.5365 111.731 96.889C111.629 97.3196 111.5 97.7475 111.31 98.1484C111.192 98.396 111.091 98.6544 110.954 98.8939C110.713 99.3191 110.44 99.7254 110.129 100.105C109.765 100.549 109.363 100.955 108.908 101.302C108.616 101.526 108.308 101.728 107.997 101.924C107.783 102.059 107.56 102.18 107.33 102.285C107.06 102.408 106.781 102.513 106.5 102.616C106.157 102.742 105.798 102.815 105.439 102.896C104.938 103.009 104.429 103.006 103.92 102.995L103.942 102.987Z" fill="#FFC945"/>
<path d="M103.42 99.2089C102.932 99.2035 102.587 99.0017 102.292 98.6922C101.724 98.0975 101.151 97.5028 100.583 96.9107C100.216 96.5286 99.8519 96.1464 99.4849 95.7643C99.335 95.6109 99.2332 95.4252 99.1689 95.2288C98.9198 94.4457 99.3537 93.6329 100.074 93.3665C100.286 93.2885 100.5 93.2481 100.722 93.2696C100.821 93.2777 100.921 93.31 101.017 93.3342C101.403 93.4338 101.657 93.7083 101.901 93.9989C102.249 94.4188 102.608 94.8305 102.951 95.2557C103.152 95.506 103.561 95.5113 103.73 95.3606C103.861 95.2449 103.974 95.1077 104.095 94.9812C104.25 94.8143 104.405 94.6421 104.561 94.4753C104.978 94.0285 105.391 93.5764 105.814 93.1351C106.251 92.6803 106.693 92.2282 107.143 91.7868C107.555 91.3805 107.978 90.9822 108.407 90.592C108.731 90.2987 109.066 90.0161 109.406 89.7416C109.708 89.494 110.016 89.2572 110.33 89.0258C110.52 88.8858 110.718 88.7513 110.922 88.6329C111.12 88.5171 111.34 88.536 111.538 88.6329C111.8 88.7593 111.964 88.9746 111.993 89.268C112.015 89.4752 111.942 89.6662 111.803 89.8196C111.704 89.9273 111.583 90.0161 111.476 90.1157C111.16 90.4117 110.839 90.7023 110.533 91.0091C109.733 91.8138 109.004 92.6803 108.289 93.563C107.729 94.2519 107.177 94.9489 106.636 95.6513C106.143 96.2918 105.669 96.9457 105.193 97.597C104.944 97.9387 104.708 98.2886 104.461 98.6303C104.194 99.0017 103.827 99.1982 103.417 99.2143L103.42 99.2089Z" fill="#FFC945"/>
<path d="M130.103 101H128.213V93.368C128.213 92.828 128.033 92.372 127.673 92C127.325 91.616 126.899 91.424 126.395 91.424H126.035C125.495 91.424 125.033 91.628 124.649 92.036C124.265 92.444 124.073 92.942 124.073 93.53V93.818C124.073 94.31 124.229 94.724 124.541 95.06C124.853 95.384 125.231 95.546 125.675 95.546H126.413V97.166H125.405C124.505 97.166 123.743 96.848 123.119 96.212C122.495 96.848 121.739 97.166 120.851 97.166H119.825V95.546H120.581C121.013 95.546 121.385 95.384 121.697 95.06C122.021 94.724 122.183 94.31 122.183 93.818V93.53C122.183 92.942 121.985 92.444 121.589 92.036C121.205 91.628 120.743 91.424 120.203 91.424H118.817V89.804H120.473C121.469 89.804 122.321 90.164 123.029 90.884L123.119 90.992L123.227 90.884C123.923 90.164 124.769 89.804 125.765 89.804H126.395C127.067 89.804 127.673 89.966 128.213 90.29V89.804H131.327V91.424H130.103V101ZM148.37 101H146.48L139.316 99.074V97.796C139.184 98 139.028 98.192 138.848 98.372C138.14 99.068 137.3 99.416 136.328 99.416H135.536C134.564 99.416 133.724 99.068 133.016 98.372C132.32 97.676 131.972 96.83 131.972 95.834V94.16H133.826V95.942C133.826 96.422 133.994 96.848 134.33 97.22C134.678 97.592 135.08 97.778 135.536 97.778H136.328C136.784 97.778 137.186 97.592 137.534 97.22C137.738 96.992 137.882 96.74 137.966 96.464C137.822 96.488 137.612 96.5 137.336 96.5C136.676 96.5 136.112 96.272 135.644 95.816C135.188 95.348 134.96 94.784 134.96 94.124V93.8C134.144 93.8 133.442 93.506 132.854 92.918C132.266 92.33 131.972 91.622 131.972 90.794V90.164H133.826V91.154C133.826 91.466 133.934 91.736 134.15 91.964C134.378 92.18 134.648 92.288 134.96 92.288V91.622C134.96 91.058 135.158 90.614 135.554 90.29C135.962 89.966 136.442 89.804 136.994 89.804H137.588C138.308 89.804 138.884 90.08 139.316 90.632V89.804H141.206V90.668C141.206 91.364 141.512 91.712 142.124 91.712C142.46 91.712 142.736 91.604 142.952 91.388C143.18 91.172 143.294 90.902 143.294 90.578V89.984H145.184V93.044C145.184 94.232 144.308 95.21 142.556 95.978C142.16 96.146 141.848 96.332 141.62 96.536C141.344 96.788 141.206 97.106 141.206 97.49V97.886L146.48 99.308V89.804H149.594V91.424H148.37V101ZM139.892 95.906C140.3 95.306 140.966 94.832 141.89 94.484C142.826 94.136 143.294 93.746 143.294 93.314V93.116C142.934 93.26 142.544 93.332 142.124 93.332C141.332 93.332 140.666 93.062 140.126 92.522C139.922 92.33 139.76 92.12 139.64 91.892C139.64 92.456 139.436 92.918 139.028 93.278C138.62 93.626 138.14 93.8 137.588 93.8H136.814C136.814 94.232 136.868 94.52 136.976 94.664C137.084 94.796 137.252 94.862 137.48 94.862C137.852 94.862 138.038 94.628 138.038 94.16H139.892V95.906ZM137.48 92.288C137.72 92.288 137.84 92.126 137.84 91.802C137.84 91.61 137.798 91.478 137.714 91.406C137.642 91.334 137.51 91.298 137.318 91.298C136.982 91.298 136.814 91.448 136.814 91.748V92.288H137.48ZM158.983 101H157.093V98.822C157.093 98.234 156.865 97.742 156.409 97.346C155.965 96.938 155.431 96.734 154.807 96.734H153.583C153.175 96.734 152.827 96.866 152.539 97.13C152.263 97.394 152.125 97.706 152.125 98.066C152.125 98.402 152.239 98.666 152.467 98.858C152.707 99.05 152.983 99.146 153.295 99.146H154.303V100.766H153.295C152.491 100.766 151.777 100.52 151.153 100.028C150.541 99.536 150.235 98.888 150.235 98.084C150.235 97.244 150.559 96.536 151.207 95.96C151.747 95.492 152.389 95.216 153.133 95.132C153.085 94.784 152.899 94.472 152.575 94.196C152.179 93.884 151.711 93.728 151.171 93.728H150.235V91.424H149.227V89.804H160.207V91.424H158.983V101ZM157.093 95.744V91.424H152.125V92.234C152.977 92.438 153.679 92.846 154.231 93.458C154.651 93.95 154.909 94.502 155.005 95.114C155.785 95.15 156.481 95.36 157.093 95.744ZM162.958 101H161.068V91.424H159.844V89.804H161.068V89.228C161.068 88.508 161.242 87.836 161.59 87.212C161.95 86.588 162.442 86.09 163.066 85.718C163.654 85.382 164.134 85.202 164.506 85.178C164.89 85.154 165.172 85.142 165.352 85.142C165.7 85.142 167.74 85.388 171.472 85.88L171.256 87.482C167.608 87.002 165.67 86.762 165.442 86.762C164.854 86.762 164.386 86.87 164.038 87.086C163.318 87.566 162.958 88.196 162.958 88.976V89.804H164.164V91.424H162.958V101ZM173.305 101H171.415V97.04C171.415 96.308 171.157 95.684 170.641 95.168C170.125 94.652 169.501 94.394 168.769 94.394H168.535C168.007 94.394 167.557 94.58 167.185 94.952C166.813 95.312 166.627 95.756 166.627 96.284V96.572C166.627 97.004 166.783 97.376 167.095 97.688C167.407 97.988 167.773 98.138 168.193 98.138H168.913V99.758H168.193C167.245 99.758 166.429 99.452 165.745 98.84C165.073 98.216 164.737 97.46 164.737 96.572V96.284C164.737 95.312 165.109 94.484 165.853 93.8C166.597 93.116 167.491 92.774 168.535 92.774C169.687 92.774 170.647 93.056 171.415 93.62V91.424H163.729V89.804H174.511V91.424H173.305V101Z" fill="white"/>
<path d="M192.943 102.987C192.708 102.987 192.475 102.995 192.239 102.987C191.901 102.971 191.566 102.914 191.237 102.834C191.044 102.785 190.849 102.748 190.661 102.686C190.406 102.602 190.155 102.511 189.906 102.408C189.477 102.234 189.072 102.01 188.684 101.76C188.178 101.434 187.711 101.052 187.296 100.616C187.085 100.393 186.884 100.161 186.688 99.9219C186.265 99.4025 185.938 98.8239 185.667 98.213C185.592 98.0462 185.533 97.8712 185.469 97.699C185.418 97.5591 185.354 97.4191 185.319 97.2738C185.231 96.8917 185.148 96.5069 185.081 96.122C185.038 95.8691 185.008 95.6107 185.003 95.3551C184.995 95.0106 185.003 94.6634 185.024 94.319C185.049 93.9422 185.118 93.5708 185.201 93.2022C185.386 92.3814 185.7 91.6144 186.128 90.8932C186.562 90.1666 187.103 89.5288 187.736 88.969C188.298 88.4712 188.917 88.0648 189.592 87.7419C189.991 87.5508 190.409 87.4028 190.832 87.2763C191.269 87.1472 191.717 87.0557 192.169 87.0234C192.635 86.9911 193.107 86.9991 193.576 87.0072C193.961 87.0153 194.342 87.096 194.72 87.1768C195.175 87.2736 195.614 87.4136 196.038 87.602C196.348 87.7392 196.654 87.8926 196.957 88.0514C197.061 88.1052 197.155 88.1886 197.232 88.2774C197.433 88.5062 197.439 88.8883 197.265 89.1386C197.131 89.335 196.943 89.4508 196.713 89.4642C196.59 89.4723 196.45 89.44 196.335 89.3862C196.04 89.2516 195.756 89.0901 195.462 88.9529C195.309 88.8802 195.14 88.8372 194.979 88.786C194.827 88.7376 194.674 88.6811 194.519 88.6488C194.296 88.6004 194.069 88.5681 193.844 88.5277C193.426 88.4497 193.002 88.4658 192.582 88.482C192.314 88.4927 192.046 88.5358 191.781 88.5815C191.575 88.6165 191.368 88.6596 191.167 88.7215C190.878 88.8103 190.591 88.9071 190.313 89.0336C189.999 89.1763 189.699 89.3431 189.41 89.5315C188.909 89.8517 188.472 90.2473 188.078 90.6914C187.671 91.1515 187.344 91.6655 187.079 92.2172C186.881 92.6316 186.734 93.0649 186.629 93.509C186.498 94.0822 186.45 94.6661 186.474 95.2555C186.474 95.3147 186.476 95.3739 186.476 95.4331C186.482 95.7291 186.527 96.0171 186.592 96.305C186.64 96.5149 186.677 96.7302 186.739 96.9374C186.803 97.1473 186.878 97.3572 186.972 97.5564C187.122 97.8739 187.275 98.1942 187.457 98.4956C187.776 99.023 188.178 99.4832 188.636 99.8977C188.997 100.223 189.391 100.5 189.812 100.74C190.12 100.915 190.439 101.068 190.779 101.171C191.017 101.243 191.253 101.327 191.497 101.386C191.682 101.432 191.875 101.45 192.062 101.485C192.477 101.558 192.898 101.561 193.313 101.537C193.635 101.518 193.953 101.467 194.27 101.418C194.468 101.386 194.666 101.34 194.859 101.278C195.47 101.084 196.048 100.818 196.584 100.46C197.045 100.151 197.466 99.79 197.833 99.3729C198.205 98.9504 198.521 98.4875 198.776 97.9843C198.936 97.6667 199.076 97.3384 199.169 96.9966C199.258 96.6818 199.354 96.3642 199.402 96.0413C199.485 95.4762 199.523 94.9056 199.44 94.3351C199.405 94.0902 199.376 93.8426 199.335 93.5978C199.317 93.474 199.282 93.3529 199.247 93.2318C199.188 93.0192 199.381 92.6505 199.566 92.5455C199.719 92.4594 199.874 92.3868 200.056 92.4137C200.332 92.454 200.616 92.6639 200.696 92.9869C200.785 93.3529 200.86 93.7215 200.903 94.0983C200.97 94.6715 200.978 95.242 200.913 95.8152C200.873 96.1758 200.817 96.5365 200.734 96.889C200.632 97.3196 200.503 97.7475 200.313 98.1484C200.195 98.396 200.094 98.6544 199.957 98.8939C199.716 99.3191 199.443 99.7254 199.132 100.105C198.767 100.549 198.366 100.955 197.91 101.302C197.618 101.526 197.31 101.728 196.999 101.924C196.785 102.059 196.563 102.18 196.332 102.285C196.062 102.408 195.783 102.513 195.502 102.616C195.159 102.742 194.8 102.815 194.441 102.896C193.94 103.009 193.431 103.006 192.922 102.995L192.943 102.987Z" fill="#FFC945"/>
<path d="M192.421 99.2089C191.933 99.2035 191.588 99.0017 191.293 98.6922C190.725 98.0975 190.152 97.5028 189.584 96.9107C189.217 96.5286 188.853 96.1464 188.486 95.7643C188.335 95.6109 188.234 95.4252 188.169 95.2288C187.92 94.4457 188.354 93.6329 189.075 93.3665C189.287 93.2885 189.501 93.2481 189.723 93.2696C189.822 93.2777 189.921 93.31 190.018 93.3342C190.404 93.4338 190.658 93.7083 190.902 93.9989C191.25 94.4188 191.609 94.8305 191.952 95.2557C192.153 95.506 192.563 95.5113 192.732 95.3606C192.863 95.2449 192.975 95.1077 193.096 94.9812C193.251 94.8143 193.407 94.6421 193.562 94.4753C193.98 94.0285 194.393 93.5764 194.816 93.1351C195.253 92.6803 195.695 92.2282 196.145 91.7868C196.557 91.3805 196.98 90.9822 197.409 90.592C197.733 90.2987 198.068 90.0161 198.408 89.7416C198.711 89.494 199.019 89.2572 199.333 89.0258C199.523 88.8858 199.721 88.7513 199.925 88.6329C200.123 88.5171 200.343 88.536 200.541 88.6329C200.803 88.7593 200.967 88.9746 200.996 89.268C201.018 89.4752 200.945 89.6662 200.806 89.8196C200.707 89.9273 200.586 90.0161 200.479 90.1157C200.163 90.4117 199.842 90.7023 199.536 91.0091C198.735 91.8138 198.007 92.6803 197.291 93.563C196.731 94.2519 196.179 94.9489 195.638 95.6513C195.145 96.2918 194.671 96.9457 194.194 97.597C193.945 97.9387 193.709 98.2886 193.463 98.6303C193.195 99.0017 192.828 99.1982 192.418 99.2143L192.421 99.2089Z" fill="#FFC945"/>
<path d="M217.396 101H215.506V97.04C215.506 96.308 215.248 95.684 214.732 95.168C214.216 94.652 213.592 94.394 212.86 94.394H212.626C212.098 94.394 211.648 94.58 211.276 94.952C210.904 95.312 210.718 95.756 210.718 96.284V96.572C210.718 97.004 210.874 97.376 211.186 97.688C211.498 97.988 211.864 98.138 212.284 98.138H213.004V99.758H212.284C211.336 99.758 210.52 99.452 209.836 98.84C209.164 98.216 208.828 97.46 208.828 96.572V96.284C208.828 95.312 209.2 94.484 209.944 93.8C210.688 93.116 211.582 92.774 212.626 92.774C213.778 92.774 214.738 93.056 215.506 93.62V91.424H207.82V89.804H218.602V91.424H217.396V101ZM221.358 101H219.468V91.424H218.244V89.804H222.564V91.424H221.358V101ZM231.939 101H230.049V94.052C230.049 93.32 229.791 92.702 229.275 92.198C228.771 91.682 228.153 91.424 227.421 91.424H226.755C226.287 91.424 225.879 91.592 225.531 91.928C225.195 92.252 225.027 92.714 225.027 93.314H225.621C226.413 93.314 227.085 93.56 227.637 94.052C228.189 94.544 228.465 95.156 228.465 95.888C228.465 96.632 228.141 97.304 227.493 97.904C226.845 98.504 226.083 98.804 225.207 98.804H223.677V97.184H224.937C225.393 97.184 225.777 97.058 226.089 96.806C226.413 96.554 226.575 96.248 226.575 95.888C226.575 95.624 226.479 95.402 226.287 95.222C226.107 95.03 225.885 94.934 225.621 94.934H223.137V93.404C223.161 92.384 223.521 91.532 224.217 90.848C224.925 90.152 225.771 89.804 226.755 89.804H227.421C228.417 89.804 229.293 90.08 230.049 90.632V89.804H233.163V91.424H231.939V101ZM242.555 101H240.665V98.822C240.665 98.234 240.437 97.742 239.981 97.346C239.537 96.938 239.003 96.734 238.379 96.734H237.155C236.747 96.734 236.399 96.866 236.111 97.13C235.835 97.394 235.697 97.706 235.697 98.066C235.697 98.402 235.811 98.666 236.039 98.858C236.279 99.05 236.555 99.146 236.867 99.146H237.875V100.766H236.867C236.063 100.766 235.349 100.52 234.725 100.028C234.113 99.536 233.807 98.888 233.807 98.084C233.807 97.244 234.131 96.536 234.779 95.96C235.319 95.492 235.961 95.216 236.705 95.132C236.657 94.784 236.471 94.472 236.147 94.196C235.751 93.884 235.283 93.728 234.743 93.728H233.807V91.424H232.799V89.804H243.779V91.424H242.555V101ZM240.665 95.744V91.424H235.697V92.234C236.549 92.438 237.251 92.846 237.803 93.458C238.223 93.95 238.481 94.502 238.577 95.114C239.357 95.15 240.053 95.36 240.665 95.744ZM246.53 101H244.64V91.424H243.416V89.804H244.64V89.228C244.64 88.508 244.814 87.836 245.162 87.212C245.522 86.588 246.014 86.09 246.638 85.718C247.226 85.382 247.706 85.202 248.078 85.178C248.462 85.154 248.744 85.142 248.924 85.142C249.272 85.142 251.312 85.388 255.044 85.88L254.828 87.482C251.18 87.002 249.242 86.762 249.014 86.762C248.426 86.762 247.958 86.87 247.61 87.086C246.89 87.566 246.53 88.196 246.53 88.976V89.804H247.736V91.424H246.53V101ZM256.876 101H254.986V97.04C254.986 96.308 254.728 95.684 254.212 95.168C253.696 94.652 253.072 94.394 252.34 94.394H252.106C251.578 94.394 251.128 94.58 250.756 94.952C250.384 95.312 250.198 95.756 250.198 96.284V96.572C250.198 97.004 250.354 97.376 250.666 97.688C250.978 97.988 251.344 98.138 251.764 98.138H252.484V99.758H251.764C250.816 99.758 250 99.452 249.316 98.84C248.644 98.216 248.308 97.46 248.308 96.572V96.284C248.308 95.312 248.68 94.484 249.424 93.8C250.168 93.116 251.062 92.774 252.106 92.774C253.258 92.774 254.218 93.056 254.986 93.62V91.424H247.3V89.804H258.082V91.424H256.876V101Z" fill="white"/>
<path d="M275.942 102.987C275.706 102.987 275.473 102.995 275.237 102.987C274.9 102.971 274.565 102.914 274.236 102.834C274.043 102.785 273.847 102.748 273.66 102.686C273.405 102.602 273.154 102.511 272.905 102.408C272.476 102.234 272.072 102.01 271.683 101.76C271.177 101.434 270.711 101.052 270.296 100.616C270.084 100.393 269.883 100.161 269.688 99.9219C269.265 99.4025 268.938 98.8239 268.667 98.213C268.592 98.0462 268.533 97.8712 268.469 97.699C268.418 97.5591 268.354 97.4191 268.319 97.2738C268.231 96.8917 268.148 96.5069 268.081 96.122C268.038 95.8691 268.008 95.6107 268.003 95.3551C267.995 95.0106 268.003 94.6634 268.024 94.319C268.049 93.9422 268.118 93.5708 268.201 93.2022C268.386 92.3814 268.699 91.6144 269.128 90.8932C269.562 90.1666 270.103 89.5288 270.735 88.969C271.298 88.4712 271.916 88.0648 272.591 87.7419C272.99 87.5508 273.408 87.4028 273.831 87.2763C274.268 87.1472 274.715 87.0557 275.168 87.0234C275.634 86.9911 276.105 86.9991 276.574 87.0072C276.96 87.0153 277.34 87.096 277.718 87.1768C278.173 87.2736 278.612 87.4136 279.035 87.602C279.346 87.7392 279.651 87.8926 279.954 88.0514C280.059 88.1052 280.152 88.1886 280.23 88.2774C280.431 88.5062 280.436 88.8883 280.262 89.1386C280.128 89.335 279.941 89.4508 279.71 89.4642C279.587 89.4723 279.448 89.44 279.333 89.3862C279.038 89.2516 278.754 89.0901 278.46 88.9529C278.307 88.8802 278.138 88.8372 277.977 88.786C277.825 88.7376 277.672 88.6811 277.517 88.6488C277.294 88.6004 277.067 88.5681 276.842 88.5277C276.424 88.4497 276.001 88.4658 275.58 88.482C275.312 88.4927 275.045 88.5358 274.779 88.5815C274.573 88.6165 274.367 88.6596 274.166 88.7215C273.877 88.8103 273.59 88.9071 273.312 89.0336C272.998 89.1763 272.698 89.3431 272.409 89.5315C271.908 89.8517 271.472 90.2473 271.078 90.6914C270.671 91.1515 270.344 91.6655 270.079 92.2172C269.881 92.6316 269.733 93.0649 269.629 93.509C269.498 94.0822 269.449 94.6661 269.474 95.2555C269.474 95.3147 269.476 95.3739 269.476 95.4331C269.482 95.7291 269.527 96.0171 269.591 96.305C269.64 96.5149 269.677 96.7302 269.739 96.9374C269.803 97.1473 269.878 97.3572 269.972 97.5564C270.122 97.8739 270.274 98.1942 270.456 98.4956C270.775 99.023 271.177 99.4832 271.635 99.8977C271.997 100.223 272.39 100.5 272.811 100.74C273.119 100.915 273.438 101.068 273.778 101.171C274.016 101.243 274.252 101.327 274.496 101.386C274.68 101.432 274.873 101.45 275.061 101.485C275.476 101.558 275.896 101.561 276.312 101.537C276.633 101.518 276.952 101.467 277.268 101.418C277.466 101.386 277.664 101.34 277.857 101.278C278.468 101.084 279.046 100.818 279.582 100.46C280.043 100.151 280.463 99.79 280.83 99.3729C281.202 98.9504 281.518 98.4875 281.773 97.9843C281.933 97.6667 282.073 97.3384 282.167 96.9966C282.255 96.6818 282.351 96.3642 282.4 96.0413C282.483 95.4762 282.52 94.9056 282.437 94.3351C282.402 94.0902 282.373 93.8426 282.333 93.5978C282.314 93.474 282.279 93.3529 282.244 93.2318C282.185 93.0192 282.378 92.6505 282.563 92.5455C282.716 92.4594 282.871 92.3868 283.053 92.4137C283.329 92.454 283.613 92.6639 283.693 92.9869C283.782 93.3529 283.857 93.7215 283.899 94.0983C283.966 94.6715 283.974 95.242 283.91 95.8152C283.87 96.1758 283.814 96.5365 283.731 96.889C283.629 97.3196 283.5 97.7475 283.31 98.1484C283.192 98.396 283.091 98.6544 282.954 98.8939C282.713 99.3191 282.44 99.7254 282.129 100.105C281.765 100.549 281.363 100.955 280.908 101.302C280.616 101.526 280.308 101.728 279.997 101.924C279.783 102.059 279.56 102.18 279.33 102.285C279.06 102.408 278.781 102.513 278.5 102.616C278.157 102.742 277.798 102.815 277.439 102.896C276.938 103.009 276.429 103.006 275.92 102.995L275.942 102.987Z" fill="#FFC945"/>
<path d="M275.42 99.2089C274.932 99.2035 274.587 99.0017 274.292 98.6922C273.724 98.0975 273.151 97.5028 272.583 96.9107C272.216 96.5286 271.852 96.1464 271.485 95.7643C271.335 95.6109 271.233 95.4252 271.169 95.2288C270.92 94.4457 271.354 93.6329 272.074 93.3665C272.286 93.2885 272.5 93.2481 272.722 93.2696C272.821 93.2777 272.921 93.31 273.017 93.3342C273.403 93.4338 273.657 93.7083 273.901 93.9989C274.249 94.4188 274.608 94.8305 274.951 95.2557C275.152 95.506 275.561 95.5113 275.73 95.3606C275.861 95.2449 275.974 95.1077 276.095 94.9812C276.25 94.8143 276.405 94.6421 276.561 94.4753C276.978 94.0285 277.391 93.5764 277.814 93.1351C278.251 92.6803 278.693 92.2282 279.143 91.7868C279.555 91.3805 279.978 90.9822 280.407 90.592C280.731 90.2987 281.066 90.0161 281.406 89.7416C281.708 89.494 282.016 89.2572 282.33 89.0258C282.52 88.8858 282.718 88.7513 282.922 88.6329C283.12 88.5171 283.34 88.536 283.538 88.6329C283.8 88.7593 283.964 88.9746 283.993 89.268C284.015 89.4752 283.942 89.6662 283.803 89.8196C283.704 89.9273 283.583 90.0161 283.476 90.1157C283.16 90.4117 282.839 90.7023 282.533 91.0091C281.733 91.8138 281.004 92.6803 280.289 93.563C279.729 94.2519 279.177 94.9489 278.636 95.6513C278.143 96.2918 277.669 96.9457 277.193 97.597C276.944 97.9387 276.708 98.2886 276.461 98.6303C276.194 99.0017 275.827 99.1982 275.417 99.2143L275.42 99.2089Z" fill="#FFC945"/>
<path d="M300.033 101H298.143L291.825 98.03V96.608C291.825 95.852 292.041 95.162 292.473 94.538C292.905 93.902 293.547 93.452 294.399 93.188L298.143 92.036V91.424H290.817V89.804H301.257V91.424H300.033V101ZM298.143 99.182V93.746L295.029 94.7C294.153 94.964 293.715 95.51 293.715 96.338V97.094L298.143 99.182ZM304.003 101H302.113V91.424H300.889V89.804H302.113V89.516C302.113 88.7 301.819 88.004 301.231 87.428C300.655 86.852 299.965 86.564 299.161 86.564H295.723C295.291 86.564 295.075 86.732 295.075 87.068C295.075 87.392 295.291 87.554 295.723 87.554H298.027C298.579 87.554 299.053 87.752 299.449 88.148C299.845 88.544 300.043 89.018 300.043 89.57V90.164H298.153V89.498C298.153 89.354 298.111 89.246 298.027 89.174C297.943 89.09 297.835 89.048 297.703 89.048H295.597C294.925 89.048 294.355 88.862 293.887 88.49C293.419 88.118 293.185 87.644 293.185 87.068C293.185 86.48 293.419 85.982 293.887 85.574C294.355 85.154 294.925 84.944 295.597 84.944H299.161C300.481 84.944 301.615 85.418 302.563 86.366C303.523 87.302 304.003 88.448 304.003 89.804H305.209V91.424H304.003V101ZM314.08 101H312.19L305.782 99.074V97.49C305.782 96.77 305.998 96.116 306.43 95.528C306.874 94.928 307.456 94.514 308.176 94.286L308.464 94.196L305.782 91.424H304.774V89.804H315.304V91.424H314.08V101ZM312.19 99.308V91.424H308.14L310.264 93.62L310.768 95.186L308.77 95.816C308.446 95.912 308.182 96.092 307.978 96.356C307.774 96.62 307.672 96.908 307.672 97.22V97.94L312.19 99.308ZM312.198 89.12L310.992 87.968L314.574 84.368L315.762 85.538L312.198 89.12ZM324.708 101H322.818V98.822C322.818 98.234 322.59 97.742 322.134 97.346C321.69 96.938 321.156 96.734 320.532 96.734H319.308C318.9 96.734 318.552 96.866 318.264 97.13C317.988 97.394 317.85 97.706 317.85 98.066C317.85 98.402 317.964 98.666 318.192 98.858C318.432 99.05 318.708 99.146 319.02 99.146H320.028V100.766H319.02C318.216 100.766 317.502 100.52 316.878 100.028C316.266 99.536 315.96 98.888 315.96 98.084C315.96 97.244 316.284 96.536 316.932 95.96C317.472 95.492 318.114 95.216 318.858 95.132C318.81 94.784 318.624 94.472 318.3 94.196C317.904 93.884 317.436 93.728 316.896 93.728H315.96V91.424H314.952V89.804H325.932V91.424H324.708V101ZM322.818 95.744V91.424H317.85V92.234C318.702 92.438 319.404 92.846 319.956 93.458C320.376 93.95 320.634 94.502 320.73 95.114C321.51 95.15 322.206 95.36 322.818 95.744ZM326.829 106.94L324.939 105.482C324.387 106.034 323.613 106.31 322.617 106.31C321.681 106.31 320.955 106.076 320.439 105.608C319.923 105.152 319.665 104.612 319.665 103.988C319.665 103.364 319.929 102.824 320.457 102.368C320.985 101.924 321.771 101.69 322.815 101.666V100.316H324.705V103.16H322.995C322.515 103.16 322.131 103.232 321.843 103.376C321.555 103.52 321.411 103.724 321.411 103.988C321.411 104.264 321.525 104.474 321.753 104.618C321.969 104.762 322.257 104.834 322.617 104.834C322.941 104.834 323.199 104.756 323.391 104.6C323.583 104.444 323.679 104.24 323.679 103.988H325.569L327.783 105.68L326.829 106.94ZM337.485 101H335.595V95.582C335.595 95.246 335.481 94.964 335.253 94.736C335.025 94.508 334.689 94.394 334.245 94.394C333.945 94.394 333.687 94.502 333.471 94.718C333.255 94.934 333.147 95.192 333.147 95.492V96.662H331.257V95.492C331.257 95.216 331.155 94.964 330.951 94.736C330.759 94.508 330.435 94.394 329.979 94.394C329.559 94.394 329.199 94.544 328.899 94.844C328.611 95.144 328.467 95.498 328.467 95.906V96.572C328.467 97.016 328.617 97.388 328.917 97.688C329.229 97.988 329.601 98.138 330.033 98.138H330.897V99.758H330.033C329.085 99.758 328.269 99.452 327.585 98.84C326.913 98.216 326.577 97.46 326.577 96.572V95.906C326.577 95.042 326.907 94.304 327.567 93.692C328.227 93.08 329.091 92.774 330.159 92.774C330.939 92.774 331.605 93.032 332.157 93.548C332.745 93.032 333.501 92.774 334.425 92.774C334.845 92.774 335.235 92.846 335.595 92.99V91.424H325.569V89.804H338.709V91.424H337.485V101Z" fill="white"/>
</svg>
