<svg width="278" height="44" viewBox="0 0 278 44" fill="none" xmlns="http://www.w3.org/2000/svg">
<path d="M9.68388 15.858H7.81188V15.372C7.81188 15.096 7.70988 14.85 7.50588 14.634C7.30188 14.418 7.05588 14.31 6.76788 14.31C6.58788 14.31 6.42588 14.358 6.28188 14.454L3.79787 15.858H3.43788C2.48988 15.858 1.67988 15.522 1.00788 14.85C0.335875 14.178 -0.000124931 13.374 -0.000124931 12.438V10.386H1.88988V12.438C1.88988 12.918 2.03388 13.332 2.32188 13.68C2.60988 14.016 2.93988 14.202 3.31188 14.238L5.34588 13.086C5.78988 12.822 6.26388 12.69 6.76788 12.69C7.13988 12.69 7.48788 12.756 7.81188 12.888V8.11803C7.81188 7.61403 7.64988 7.18203 7.32588 6.82203C7.01388 6.46203 6.62388 6.28203 6.15588 6.28203H5.93988C5.55588 6.28203 5.23188 6.43803 4.96788 6.75003C4.71588 7.05003 4.58988 7.48203 4.58988 8.04603C4.58988 8.40603 4.71588 8.71203 4.96788 8.96403C5.21988 9.21603 5.51388 9.34203 5.84988 9.34203H6.11988V10.962H5.57988C4.77588 10.962 4.09188 10.68 3.52788 10.116C2.97588 9.55203 2.69988 8.86203 2.69988 8.04603V7.84803C2.69988 6.96003 3.00588 6.21003 3.61788 5.59803C4.24188 4.97403 4.99188 4.66203 5.86788 4.66203H6.22788C7.17588 4.66203 7.98588 4.99803 8.65788 5.67003C9.34188 6.34203 9.68388 7.15803 9.68388 8.11803V15.858ZM18.4427 17.28L11.5487 14.382V12.582L13.9607 12.168C14.9927 11.988 15.7847 11.76 16.3367 11.484C16.8887 11.196 17.1647 10.818 17.1647 10.35V9.99003C17.1647 9.63003 17.0327 9.33003 16.7687 9.09003C16.5047 8.83803 16.1687 8.71203 15.7607 8.71203H14.7707C14.3267 8.71203 13.9907 8.83803 13.7627 9.09003C13.5467 9.33003 13.4387 9.64203 13.4387 10.026V10.98H11.5487V10.17C11.5487 9.31803 11.8487 8.59203 12.4487 7.99203C13.0487 7.39203 13.7747 7.09203 14.6267 7.09203H15.8867C16.7627 7.09203 17.5067 7.37403 18.1187 7.93803C18.7427 8.50203 19.0547 9.18603 19.0547 9.99003V10.35C19.0547 11.454 18.4007 12.312 17.0927 12.924C16.2407 13.332 15.3347 13.614 14.3747 13.77L19.0727 15.75L18.4427 17.28ZM20.0627 6.28203H10.5407V4.66203H17.1647V4.24803C17.1647 3.97203 17.0627 3.73803 16.8587 3.54603C16.6667 3.34203 16.4327 3.24003 16.1567 3.24003H13.9427C13.2827 3.24003 12.7187 3.01203 12.2507 2.55603C11.7827 2.08803 11.5487 1.51803 11.5487 0.846031H13.4387V0.990032C13.4387 1.41003 13.6547 1.62003 14.0867 1.62003H16.1567C16.9487 1.62003 17.6267 1.90803 18.1907 2.48403C18.7667 3.04803 19.0547 3.77403 19.0547 4.66203H20.0627V6.28203ZM32.6893 15.858H30.7993V13.608C30.7993 13.056 30.6073 12.594 30.2233 12.222C29.8513 11.838 29.3533 11.646 28.7293 11.646C28.6333 12.558 28.2673 13.344 27.6313 14.004C26.8873 14.784 25.9813 15.174 24.9133 15.174H23.9413V13.554H24.6433C25.3153 13.554 25.8553 13.32 26.2633 12.852C26.6713 12.384 26.8753 11.832 26.8753 11.196V10.908C26.8753 10.26 26.6653 9.70803 26.2453 9.25203C25.8373 8.79603 25.2973 8.56803 24.6253 8.56803H23.9413V6.28203H22.9333V4.66203H33.9133V6.28203H32.6893V15.858ZM30.7993 10.548V6.28203H25.8313V7.09203C26.6953 7.33203 27.3973 7.80003 27.9373 8.49603C28.2973 8.96403 28.5373 9.47403 28.6573 10.026C29.5093 10.026 30.2233 10.2 30.7993 10.548ZM43.3065 15.858H41.4165V13.68C41.4165 13.092 41.1885 12.6 40.7325 12.204C40.2885 11.796 39.7545 11.592 39.1305 11.592H37.9065C37.4985 11.592 37.1505 11.724 36.8625 11.988C36.5865 12.252 36.4485 12.564 36.4485 12.924C36.4485 13.26 36.5625 13.524 36.7905 13.716C37.0305 13.908 37.3065 14.004 37.6185 14.004H38.6265V15.624H37.6185C36.8145 15.624 36.1005 15.378 35.4765 14.886C34.8645 14.394 34.5585 13.746 34.5585 12.942C34.5585 12.102 34.8825 11.394 35.5305 10.818C36.0705 10.35 36.7125 10.074 37.4565 9.99003C37.4085 9.64203 37.2225 9.33003 36.8985 9.05403C36.5025 8.74203 36.0345 8.58603 35.4945 8.58603H34.5585V6.28203H33.5505V4.66203H44.5305V6.28203H43.3065V15.858ZM41.4165 10.602V6.28203H36.4485V7.09203C37.3005 7.29603 38.0025 7.70403 38.5545 8.31603C38.9745 8.80803 39.2325 9.36003 39.3285 9.97203C40.1085 10.008 40.8045 10.218 41.4165 10.602ZM53.9237 15.858H52.0337V13.608C52.0337 13.056 51.8417 12.594 51.4577 12.222C51.0857 11.838 50.5877 11.646 49.9637 11.646C49.8677 12.558 49.5017 13.344 48.8657 14.004C48.1217 14.784 47.2157 15.174 46.1477 15.174H45.1757V13.554H45.8777C46.5497 13.554 47.0897 13.32 47.4977 12.852C47.9057 12.384 48.1097 11.832 48.1097 11.196V10.908C48.1097 10.26 47.8997 9.70803 47.4797 9.25203C47.0717 8.79603 46.5317 8.56803 45.8597 8.56803H45.1757V6.28203H44.1677V4.66203H55.1477V6.28203H53.9237V15.858ZM52.0337 10.548V6.28203H47.0657V7.09203C47.9297 7.33203 48.6317 7.80003 49.1717 8.49603C49.5317 8.96403 49.7717 9.47403 49.8917 10.026C50.7437 10.026 51.4577 10.2 52.0337 10.548ZM55.8468 15.984H55.5948V14.364C56.1708 14.364 56.6148 14.184 56.9268 13.824C57.2508 13.452 57.4128 13.002 57.4128 12.474V11.988L56.2608 9.95403C55.9488 9.39003 55.7928 8.80803 55.7928 8.20803C55.7928 7.48803 55.9848 6.84603 56.3688 6.28203H54.7848V4.66203H60.1128V6.28203H59.3928C58.9128 6.28203 58.5048 6.44403 58.1688 6.76803C57.8448 7.09203 57.6828 7.48203 57.6828 7.93803C57.6828 8.39403 57.7968 8.83203 58.0248 9.25203L59.3028 11.538V12.294C59.3028 13.41 58.9548 14.304 58.2588 14.976C57.5748 15.648 56.7708 15.984 55.8468 15.984ZM62.8735 15.858H60.9835V6.28203H59.7595V4.66203H64.0795V6.28203H62.8735V15.858ZM72.8602 15.858H70.9702L64.6522 12.888V11.466C64.6522 10.71 64.8682 10.02 65.3002 9.39603C65.7322 8.76003 66.3742 8.31003 67.2262 8.04603L70.9702 6.89403V6.28203H63.6442V4.66203H74.0842V6.28203H72.8602V15.858ZM70.9702 14.04V8.60403L67.8562 9.55803C66.9802 9.82203 66.5422 10.368 66.5422 11.196V11.952L70.9702 14.04ZM66.9742 17.244C66.6742 17.244 66.4162 17.136 66.2002 16.92C65.9842 16.716 65.8762 16.464 65.8762 16.164C65.8762 15.876 65.9842 15.624 66.2002 15.408C66.4162 15.192 66.6742 15.084 66.9742 15.084C67.2622 15.084 67.5082 15.192 67.7122 15.408C67.9282 15.624 68.0362 15.876 68.0362 16.164C68.0362 16.464 67.9282 16.716 67.7122 16.92C67.5082 17.136 67.2622 17.244 66.9742 17.244ZM86.7069 15.858H84.8169V13.608C84.8169 13.056 84.6249 12.594 84.2409 12.222C83.8689 11.838 83.3709 11.646 82.7469 11.646C82.6509 12.558 82.2849 13.344 81.6489 14.004C80.9049 14.784 79.9989 15.174 78.9309 15.174H77.9589V13.554H78.6609C79.3329 13.554 79.8729 13.32 80.2809 12.852C80.6889 12.384 80.8929 11.832 80.8929 11.196V10.908C80.8929 10.26 80.6829 9.70803 80.2629 9.25203C79.8549 8.79603 79.3149 8.56803 78.6429 8.56803H77.9589V6.28203H76.9509V4.66203H87.9309V6.28203H86.7069V15.858ZM84.8169 10.548V6.28203H79.8489V7.09203C80.7129 7.33203 81.4149 7.80003 81.9549 8.49603C82.3149 8.96403 82.5549 9.47403 82.6749 10.026C83.5269 10.026 84.2409 10.2 84.8169 10.548ZM97.324 15.858H95.434V13.68C95.434 13.092 95.206 12.6 94.75 12.204C94.306 11.796 93.772 11.592 93.148 11.592H91.924C91.516 11.592 91.168 11.724 90.88 11.988C90.604 12.252 90.466 12.564 90.466 12.924C90.466 13.26 90.58 13.524 90.808 13.716C91.048 13.908 91.324 14.004 91.636 14.004H92.644V15.624H91.636C90.832 15.624 90.118 15.378 89.494 14.886C88.882 14.394 88.576 13.746 88.576 12.942C88.576 12.102 88.9 11.394 89.548 10.818C90.088 10.35 90.73 10.074 91.474 9.99003C91.426 9.64203 91.24 9.33003 90.916 9.05403C90.52 8.74203 90.052 8.58603 89.512 8.58603H88.576V6.28203H87.568V4.66203H98.548V6.28203H97.324V15.858ZM95.434 10.602V6.28203H90.466V7.09203C91.318 7.29603 92.02 7.70403 92.572 8.31603C92.992 8.80803 93.25 9.36003 93.346 9.97203C94.126 10.008 94.822 10.218 95.434 10.602ZM101.299 15.858H99.4092V6.28203H98.1852V4.66203H102.505V6.28203H101.299V15.858ZM111.286 15.858H109.396L103.078 12.888V11.466C103.078 10.458 103.42 9.61203 104.104 8.92803C104.044 8.89203 103.99 8.84403 103.942 8.78403C103.366 8.28003 103.078 7.65003 103.078 6.89403C103.078 6.19803 103.336 5.61003 103.852 5.13003C104.38 4.65003 105.022 4.41003 105.778 4.41003C106.474 4.41003 107.11 4.67403 107.686 5.20203L106.57 6.33603C106.33 6.13203 106.066 6.03003 105.778 6.03003C105.55 6.03003 105.358 6.10803 105.202 6.26403C105.046 6.42003 104.968 6.62403 104.968 6.87603C104.968 7.17603 105.064 7.42803 105.256 7.63203C105.46 7.83603 105.706 7.93803 105.994 7.93803L109.396 6.89403V4.66203H112.51V6.28203H111.286V15.858ZM109.396 14.04V8.60403L106.282 9.55803C105.406 9.82203 104.968 10.368 104.968 11.196V11.952L109.396 14.04ZM115.256 15.858H113.366V6.28203H112.142V4.66203H116.462V6.28203H115.256V15.858ZM125.603 15.858H123.713V11.898C123.713 11.166 123.455 10.542 122.939 10.026C122.423 9.51003 121.799 9.25203 121.067 9.25203H120.833C120.305 9.25203 119.855 9.43803 119.483 9.81003C119.111 10.17 118.925 10.614 118.925 11.142V11.43C118.925 11.862 119.081 12.234 119.393 12.546C119.705 12.846 120.071 12.996 120.491 12.996H121.211V14.616H120.491C119.543 14.616 118.727 14.31 118.043 13.698C117.371 13.074 117.035 12.318 117.035 11.43V11.142C117.035 10.17 117.407 9.34203 118.151 8.65803C118.895 7.97403 119.789 7.63203 120.833 7.63203C121.985 7.63203 122.945 7.91403 123.713 8.47803V6.28203H116.027V4.66203H126.809V6.28203H125.603V15.858ZM139.693 15.858H137.803V11.538L131.809 13.842L131.215 12.294L133.267 11.502C133.267 11.07 133.105 10.692 132.781 10.368C132.457 10.044 132.073 9.88203 131.629 9.88203H130.693V8.37003C130.693 7.35003 131.053 6.48003 131.773 5.76003C132.505 5.02803 133.381 4.66203 134.401 4.66203H135.175C136.171 4.66203 137.047 4.93803 137.803 5.49003V4.66203H140.917V6.28203H139.693V15.858ZM135.031 10.818L137.803 9.75603V8.91003C137.803 8.19003 137.545 7.57203 137.029 7.05603C136.525 6.54003 135.907 6.28203 135.175 6.28203H134.401C133.897 6.28203 133.465 6.46203 133.105 6.82203C132.757 7.17003 132.583 7.60203 132.583 8.11803V8.40603C133.315 8.62203 133.927 9.03603 134.419 9.64803C134.707 10.008 134.911 10.398 135.031 10.818ZM143.663 15.858H141.773V6.28203H140.549V4.66203H144.869V6.28203H143.663V15.858ZM149.095 15.858C147.955 15.678 147.061 15.204 146.413 14.436C145.765 13.656 145.441 12.726 145.441 11.646V9.75603C145.441 8.35203 145.801 7.19403 146.521 6.28203H144.433V4.66203H149.599V6.28203C148.963 6.29403 148.423 6.59403 147.979 7.18203C147.547 7.77003 147.331 8.53803 147.331 9.48603V11.916C147.331 12.564 147.499 13.086 147.835 13.482C148.171 13.878 148.591 14.13 149.095 14.238V15.858ZM158.448 15.858H156.558L150.24 12.888V11.466C150.24 10.71 150.456 10.02 150.888 9.39603C151.32 8.76003 151.962 8.31003 152.814 8.04603L156.558 6.89403V6.28203H149.232V4.66203H159.672V6.28203H158.448V15.858ZM156.558 14.04V8.60403L153.444 9.55803C152.568 9.82203 152.13 10.368 152.13 11.196V11.952L156.558 14.04ZM168.88 15.858H166.99V11.898C166.99 11.166 166.732 10.542 166.216 10.026C165.7 9.51003 165.076 9.25203 164.344 9.25203H164.11C163.582 9.25203 163.132 9.43803 162.76 9.81003C162.388 10.17 162.202 10.614 162.202 11.142V11.43C162.202 11.862 162.358 12.234 162.67 12.546C162.982 12.846 163.348 12.996 163.768 12.996H164.488V14.616H163.768C162.82 14.616 162.004 14.31 161.32 13.698C160.648 13.074 160.312 12.318 160.312 11.43V11.142C160.312 10.17 160.684 9.34203 161.428 8.65803C162.172 7.97403 163.066 7.63203 164.11 7.63203C165.262 7.63203 166.222 7.91403 166.99 8.47803V6.28203H159.304V4.66203H170.086V6.28203H168.88V15.858ZM182.971 17.406H181.081V16.848C181.081 16.632 181.021 16.464 180.901 16.344C180.781 16.236 180.631 16.182 180.451 16.182C180.295 16.182 180.139 16.23 179.983 16.326L178.057 17.406H176.779C175.963 17.406 175.261 17.112 174.673 16.524C174.085 15.936 173.791 15.234 173.791 14.418V14.184H175.681C175.681 14.7 175.789 15.096 176.005 15.372C176.221 15.648 176.527 15.786 176.923 15.786H177.553L179.137 14.904C179.545 14.664 179.971 14.544 180.415 14.544C180.643 14.544 180.865 14.574 181.081 14.634V11.268L175.105 13.464L174.493 11.916L176.545 11.16C176.521 10.764 176.353 10.422 176.041 10.134C175.741 9.84603 175.363 9.70203 174.907 9.70203H173.971V8.22603C173.971 7.24203 174.331 6.40203 175.051 5.70603C175.783 5.01003 176.659 4.66203 177.679 4.66203H178.453C179.449 4.66203 180.325 4.93803 181.081 5.49003V4.66203H184.195V6.28203H182.971V17.406ZM178.291 10.512L181.081 9.50403V8.91003C181.081 8.19003 180.823 7.57203 180.307 7.05603C179.803 6.54003 179.185 6.28203 178.453 6.28203H177.679C177.175 6.28203 176.743 6.45003 176.383 6.78603C176.035 7.12203 175.861 7.52403 175.861 7.99203V8.22603C176.581 8.41803 177.193 8.80803 177.697 9.39603C177.973 9.73203 178.171 10.104 178.291 10.512ZM186.94 15.858H185.05V6.28203H183.826V4.66203H185.05V4.08603C185.05 3.36603 185.224 2.69403 185.572 2.07003C185.932 1.44603 186.424 0.948032 187.048 0.576032C187.636 0.240032 188.116 0.0600314 188.488 0.036031C188.872 0.0120313 189.154 3.14713e-05 189.334 3.14713e-05C189.682 3.14713e-05 191.722 0.246032 195.454 0.738032L195.238 2.34003C191.59 1.86003 189.652 1.62003 189.424 1.62003C188.836 1.62003 188.368 1.72803 188.02 1.94403C187.3 2.42403 186.94 3.05403 186.94 3.83403V4.66203H188.146V6.28203H186.94V15.858ZM194.155 15.858H192.967C191.803 15.858 190.801 15.444 189.961 14.616C189.133 13.776 188.719 12.768 188.719 11.592V7.97403H190.609V11.736C190.609 12.384 190.837 12.966 191.293 13.482C191.761 13.986 192.319 14.238 192.967 14.238H194.155C194.815 14.238 195.373 13.986 195.829 13.482C196.285 12.966 196.513 12.384 196.513 11.736V9.99003C196.513 9.66603 196.405 9.37203 196.189 9.10803C195.973 8.84403 195.703 8.71203 195.379 8.71203H195.199C194.971 8.71203 194.767 8.82003 194.587 9.03603C194.419 9.25203 194.335 9.47403 194.335 9.70203V11.556H192.445V9.84603C192.445 9.09003 192.715 8.44203 193.255 7.90203C193.795 7.36203 194.503 7.09203 195.379 7.09203C196.219 7.09203 196.933 7.39203 197.521 7.99203C198.109 8.58003 198.403 9.28803 198.403 10.116V11.592C198.403 12.768 197.989 13.776 197.161 14.616C196.333 15.444 195.331 15.858 194.155 15.858ZM199.411 6.28203H187.711V4.66203H199.411V6.28203ZM202.163 15.858H200.273V6.28203H199.049V4.66203H200.273V4.08603C200.273 3.36603 200.447 2.69403 200.795 2.07003C201.155 1.44603 201.647 0.948032 202.271 0.576032C202.859 0.240032 203.339 0.0600314 203.711 0.036031C204.095 0.0120313 204.377 3.14713e-05 204.557 3.14713e-05C204.905 3.14713e-05 206.945 0.246032 210.677 0.738032L210.461 2.34003C206.813 1.86003 204.875 1.62003 204.647 1.62003C204.059 1.62003 203.591 1.72803 203.243 1.94403C202.523 2.42403 202.163 3.05403 202.163 3.83403V4.66203H203.369V6.28203H202.163V15.858ZM212.185 15.858H210.295V11.754C210.295 11.394 210.199 11.082 210.007 10.818C209.827 10.554 209.599 10.398 209.323 10.35L206.047 13.446H204.157V6.28203H202.933V4.66203H213.409V6.28203H206.047V11.124L208.585 8.71203H209.161C210.001 8.71203 210.715 9.01203 211.303 9.61203C211.891 10.2 212.185 10.914 212.185 11.754V15.858ZM222.617 15.858H220.727V11.898C220.727 11.166 220.469 10.542 219.953 10.026C219.437 9.51003 218.813 9.25203 218.081 9.25203H217.847C217.319 9.25203 216.869 9.43803 216.497 9.81003C216.125 10.17 215.939 10.614 215.939 11.142V11.43C215.939 11.862 216.095 12.234 216.407 12.546C216.719 12.846 217.085 12.996 217.505 12.996H218.225V14.616H217.505C216.557 14.616 215.741 14.31 215.057 13.698C214.385 13.074 214.049 12.318 214.049 11.43V11.142C214.049 10.17 214.421 9.34203 215.165 8.65803C215.909 7.97403 216.803 7.63203 217.847 7.63203C218.999 7.63203 219.959 7.91403 220.727 8.47803V6.28203H213.041V4.66203H223.823V6.28203H222.617V15.858ZM229.813 15.858H227.923V6.28203H226.699V4.66203H227.923V4.08603C227.923 3.36603 228.097 2.69403 228.445 2.07003C228.805 1.44603 229.297 0.948032 229.921 0.576032C230.509 0.240032 230.989 0.0600314 231.361 0.036031C231.745 0.0120313 232.027 3.14713e-05 232.207 3.14713e-05C232.555 3.14713e-05 234.595 0.246032 238.327 0.738032L238.111 2.34003C234.463 1.86003 232.525 1.62003 232.297 1.62003C231.709 1.62003 231.241 1.72803 230.893 1.94403C230.173 2.42403 229.813 3.05403 229.813 3.83403V4.66203H231.019V6.28203H229.813V15.858ZM240.16 15.858H238.27V11.898C238.27 11.166 238.012 10.542 237.496 10.026C236.98 9.51003 236.356 9.25203 235.624 9.25203H235.39C234.862 9.25203 234.412 9.43803 234.04 9.81003C233.668 10.17 233.482 10.614 233.482 11.142V11.43C233.482 11.862 233.638 12.234 233.95 12.546C234.262 12.846 234.628 12.996 235.048 12.996H235.768V14.616H235.048C234.1 14.616 233.284 14.31 232.6 13.698C231.928 13.074 231.592 12.318 231.592 11.43V11.142C231.592 10.17 231.964 9.34203 232.708 8.65803C233.452 7.97403 234.346 7.63203 235.39 7.63203C236.542 7.63203 237.502 7.91403 238.27 8.47803V6.28203H230.584V4.66203H241.366V6.28203H240.16V15.858ZM250.314 15.858H248.424L242.016 13.932V12.348C242.016 11.628 242.232 10.974 242.664 10.386C243.108 9.78603 243.69 9.37203 244.41 9.14403L244.698 9.05403L242.016 6.28203H241.007V4.66203H251.538V6.28203H250.314V15.858ZM248.424 14.166V6.28203H244.374L246.498 8.47803L247.002 10.044L245.004 10.674C244.68 10.77 244.416 10.95 244.212 11.214C244.008 11.478 243.906 11.766 243.906 12.078V12.798L248.424 14.166ZM244.752 17.892C244.452 17.892 244.194 17.784 243.978 17.568C243.762 17.364 243.654 17.118 243.654 16.83C243.654 16.53 243.762 16.272 243.978 16.056C244.194 15.84 244.452 15.732 244.752 15.732C245.04 15.732 245.286 15.84 245.49 16.056C245.706 16.272 245.813 16.53 245.813 16.83C245.813 17.118 245.706 17.364 245.49 17.568C245.286 17.784 245.04 17.892 244.752 17.892ZM254.299 15.858H252.409V6.28203H251.185V4.66203H252.409V4.08603C252.409 3.36603 252.583 2.69403 252.931 2.07003C253.291 1.44603 253.783 0.948032 254.407 0.576032C254.995 0.240032 255.475 0.0600314 255.847 0.036031C256.231 0.0120313 256.513 3.14713e-05 256.693 3.14713e-05C257.041 3.14713e-05 259.081 0.246032 262.813 0.738032L262.597 2.34003C258.949 1.86003 257.011 1.62003 256.783 1.62003C256.195 1.62003 255.727 1.72803 255.379 1.94403C254.659 2.42403 254.299 3.05403 254.299 3.83403V4.66203H255.505V6.28203H254.299V15.858ZM264.826 15.858H262.936V13.68C262.936 13.092 262.708 12.6 262.252 12.204C261.808 11.796 261.274 11.592 260.65 11.592H259.426C259.018 11.592 258.67 11.724 258.382 11.988C258.106 12.252 257.968 12.564 257.968 12.924C257.968 13.26 258.082 13.524 258.31 13.716C258.55 13.908 258.826 14.004 259.138 14.004H260.146V15.624H259.138C258.334 15.624 257.62 15.378 256.996 14.886C256.384 14.394 256.078 13.746 256.078 12.942C256.078 12.102 256.402 11.394 257.05 10.818C257.59 10.35 258.232 10.074 258.976 9.99003C258.928 9.64203 258.742 9.33003 258.418 9.05403C258.022 8.74203 257.554 8.58603 257.014 8.58603H256.078V6.28203H255.07V4.66203H266.05V6.28203H264.826V15.858ZM262.936 10.602V6.28203H257.968V7.09203C258.82 7.29603 259.522 7.70403 260.074 8.31603C260.494 8.80803 260.752 9.36003 260.848 9.97203C261.628 10.008 262.324 10.218 262.936 10.602ZM272.131 15.858H270.943C269.779 15.858 268.777 15.444 267.937 14.616C267.109 13.776 266.695 12.768 266.695 11.592V7.97403H268.585V11.736C268.585 12.384 268.813 12.966 269.269 13.482C269.737 13.986 270.295 14.238 270.943 14.238H272.131C272.791 14.238 273.349 13.986 273.805 13.482C274.261 12.966 274.489 12.384 274.489 11.736V9.99003C274.489 9.66603 274.381 9.37203 274.165 9.10803C273.949 8.84403 273.679 8.71203 273.355 8.71203H273.175C272.947 8.71203 272.743 8.82003 272.563 9.03603C272.395 9.25203 272.311 9.47403 272.311 9.70203V11.556H270.421V9.84603C270.421 9.09003 270.691 8.44203 271.231 7.90203C271.771 7.36203 272.479 7.09203 273.355 7.09203C274.195 7.09203 274.909 7.39203 275.497 7.99203C276.085 8.58003 276.379 9.28803 276.379 10.116V11.592C276.379 12.768 275.965 13.776 275.137 14.616C274.309 15.444 273.307 15.858 272.131 15.858ZM277.387 6.28203H265.687V4.66203H277.387V6.28203ZM26.6113 40.858H26.3593C25.3753 40.858 24.5593 40.54 23.9113 39.904C23.2633 39.256 22.9393 38.524 22.9393 37.708C22.9393 36.94 23.2393 36.286 23.8393 35.746C24.4393 35.206 25.1713 34.936 26.0353 34.936H26.2153V36.556C25.7473 36.556 25.3993 36.67 25.1713 36.898C24.9433 37.126 24.8293 37.396 24.8293 37.708C24.8293 38.152 24.9913 38.518 25.3153 38.806C25.6393 39.094 26.0473 39.238 26.5393 39.238H26.8093C27.4333 39.226 27.9673 38.968 28.4113 38.464C28.8673 37.96 29.0953 37.264 29.0953 36.376V36.088C29.0953 35.392 28.8913 34.81 28.4833 34.342C28.0873 33.862 27.5533 33.526 26.8813 33.334C24.3733 32.59 23.1193 31.36 23.1193 29.644H25.0093C25.0093 30.592 25.8013 31.312 27.3853 31.804C28.4053 32.08 29.2453 32.542 29.9053 33.19C30.6253 33.91 30.9853 34.876 30.9853 36.088V36.412C30.9853 37.684 30.5773 38.746 29.7613 39.598C28.9453 40.438 27.8953 40.858 26.6113 40.858ZM39.7468 40.858H39.4768C38.5408 40.858 37.7428 40.528 37.0828 39.868C36.4228 39.208 36.0928 38.416 36.0928 37.492V31.282H34.8688V29.662H45.1468V31.282H37.9828V32.128L41.4208 32.848C42.2248 33.016 42.8788 33.4 43.3828 34C43.8868 34.6 44.1388 35.29 44.1388 36.07V36.466C44.1388 37.666 43.7068 38.698 42.8428 39.562C41.9788 40.426 40.9468 40.858 39.7468 40.858ZM39.7468 39.238C40.4308 39.238 41.0188 38.968 41.5108 38.428C42.0028 37.876 42.2488 37.222 42.2488 36.466V36.07C42.2488 35.638 42.1228 35.272 41.8708 34.972C41.6188 34.66 41.3248 34.468 40.9888 34.396L37.9828 33.802V37.492C37.9828 37.972 38.1268 38.386 38.4148 38.734C38.7028 39.07 39.0568 39.238 39.4768 39.238H39.7468ZM47.8969 40.858H46.0069V31.282H44.7829V29.662H49.1029V31.282H47.8969V40.858ZM54.3917 36.07H49.8917V34.45H54.3917V36.07ZM60.1199 40.858H59.8499C58.9139 40.858 58.1159 40.528 57.4559 39.868C56.7959 39.208 56.4659 38.416 56.4659 37.492V31.282H55.2419V29.662H65.5199V31.282H58.3559V32.128L61.7939 32.848C62.5979 33.016 63.2519 33.4 63.7559 34C64.2599 34.6 64.5119 35.29 64.5119 36.07V36.466C64.5119 37.666 64.0799 38.698 63.2159 39.562C62.3519 40.426 61.3199 40.858 60.1199 40.858ZM60.1199 39.238C60.8039 39.238 61.3919 38.968 61.8839 38.428C62.3759 37.876 62.6219 37.222 62.6219 36.466V36.07C62.6219 35.638 62.4959 35.272 62.2439 34.972C61.9919 34.66 61.6979 34.468 61.3619 34.396L58.3559 33.802V37.492C58.3559 37.972 58.4999 38.386 58.7879 38.734C59.0759 39.07 59.4299 39.238 59.8499 39.238H60.1199ZM68.2699 40.858H66.3799V31.282H65.1559V29.662H69.4759V31.282H68.2699V40.858ZM78.7967 40.858H76.9067V38.68C76.9067 38.092 76.6787 37.6 76.2227 37.204C75.7787 36.796 75.2447 36.592 74.6207 36.592H73.3967C72.9887 36.592 72.6407 36.724 72.3527 36.988C72.0767 37.252 71.9387 37.564 71.9387 37.924C71.9387 38.26 72.0527 38.524 72.2807 38.716C72.5207 38.908 72.7967 39.004 73.1087 39.004H74.1167V40.624H73.1087C72.3047 40.624 71.5907 40.378 70.9667 39.886C70.3547 39.394 70.0487 38.746 70.0487 37.942C70.0487 37.102 70.3727 36.394 71.0207 35.818C71.5607 35.35 72.2027 35.074 72.9467 34.99C72.8987 34.642 72.7127 34.33 72.3887 34.054C71.9927 33.742 71.5247 33.586 70.9847 33.586H70.0487V31.282H69.0407V29.662H80.0207V31.282H78.7967V40.858ZM76.9067 35.602V31.282H71.9387V32.092C72.7907 32.296 73.4927 32.704 74.0447 33.316C74.4647 33.808 74.7227 34.36 74.8187 34.972C75.5987 35.008 76.2947 35.218 76.9067 35.602ZM84.5359 40.858H84.2659C83.3299 40.858 82.5319 40.528 81.8719 39.868C81.2119 39.208 80.8819 38.416 80.8819 37.492V31.282H79.6579V29.662H89.9359V31.282H82.7719V32.128L86.2099 32.848C87.0139 33.016 87.6679 33.4 88.1719 34C88.6759 34.6 88.9279 35.29 88.9279 36.07V36.466C88.9279 37.666 88.4959 38.698 87.6319 39.562C86.7679 40.426 85.7359 40.858 84.5359 40.858ZM84.5359 39.238C85.2199 39.238 85.8079 38.968 86.2999 38.428C86.7919 37.876 87.0379 37.222 87.0379 36.466V36.07C87.0379 35.638 86.9119 35.272 86.6599 34.972C86.4079 34.66 86.1139 34.468 85.7779 34.396L82.7719 33.802V37.492C82.7719 37.972 82.9159 38.386 83.2039 38.734C83.4919 39.07 83.8459 39.238 84.2659 39.238H84.5359ZM103.84 43.504H101.284L99.2143 41.002C98.1463 41.002 97.2883 40.864 96.6403 40.588C95.3683 40.072 94.5043 39.076 94.0483 37.6C93.8323 36.904 93.7243 36.118 93.7243 35.242C93.7243 34.09 93.9103 33.088 94.2823 32.236C94.6663 31.372 95.2483 30.706 96.0283 30.238C96.8203 29.77 97.8043 29.536 98.9803 29.536C100.156 29.536 101.128 29.77 101.896 30.238C102.664 30.694 103.234 31.354 103.606 32.218C103.99 33.082 104.182 34.096 104.182 35.26C104.182 36.124 104.074 36.91 103.858 37.618C103.642 38.326 103.318 38.938 102.886 39.454C102.454 39.958 101.896 40.342 101.212 40.606L103.84 43.504ZM98.9623 39.346C101.062 39.346 102.112 37.984 102.112 35.26C102.112 32.536 101.068 31.174 98.9803 31.174C98.2363 31.174 97.6303 31.342 97.1623 31.678C96.6943 32.002 96.3463 32.47 96.1183 33.082C95.9023 33.694 95.7943 34.42 95.7943 35.26C95.7943 36.088 95.9023 36.814 96.1183 37.438C96.3343 38.05 96.6763 38.524 97.1443 38.86C97.6243 39.184 98.2303 39.346 98.9623 39.346ZM110.555 41.002C109.115 41.002 108.017 40.63 107.261 39.886C106.505 39.142 106.127 38.146 106.127 36.898V29.698H108.089V36.628C108.089 38.44 108.929 39.346 110.609 39.346C111.173 39.346 111.641 39.25 112.013 39.058C112.385 38.854 112.661 38.554 112.841 38.158C113.021 37.75 113.111 37.246 113.111 36.646V29.698H115.073V36.916C115.073 37.708 114.905 38.416 114.569 39.04C114.233 39.652 113.729 40.132 113.057 40.48C112.385 40.828 111.551 41.002 110.555 41.002ZM120.544 40.858H117.502V29.698H120.904C122.068 29.698 123.07 29.908 123.91 30.328C124.762 30.736 125.416 31.348 125.872 32.164C126.34 32.98 126.574 33.982 126.574 35.17C126.574 36.43 126.334 37.48 125.854 38.32C125.386 39.16 124.702 39.796 123.802 40.228C122.902 40.648 121.816 40.858 120.544 40.858ZM120.706 39.202C123.25 39.202 124.522 37.876 124.522 35.224C124.522 34.336 124.384 33.604 124.108 33.028C123.844 32.452 123.448 32.026 122.92 31.75C122.392 31.474 121.732 31.336 120.94 31.336H119.464V39.202H120.706ZM137.126 40.858H134.912L132.194 36.43H130.556V40.858H128.594V29.698H131.726C132.698 29.698 133.502 29.818 134.138 30.058C134.786 30.286 135.266 30.64 135.578 31.12C135.902 31.6 136.064 32.218 136.064 32.974C136.064 33.49 135.962 33.946 135.758 34.342C135.566 34.726 135.302 35.05 134.966 35.314C134.642 35.578 134.288 35.788 133.904 35.944L137.126 40.858ZM131.708 34.81C133.28 34.81 134.066 34.21 134.066 33.01C134.066 32.386 133.862 31.954 133.454 31.714C133.046 31.462 132.416 31.336 131.564 31.336H130.556V34.81H131.708ZM147.297 40.858H145.173L144.183 37.888H139.953L138.981 40.858H136.857L140.907 29.662H143.247L147.297 40.858ZM143.697 36.214C142.773 33.406 142.239 31.726 142.095 31.174C142.035 31.366 141.963 31.606 141.879 31.894C141.807 32.17 141.729 32.434 141.645 32.686C141.573 32.926 141.519 33.106 141.483 33.226L140.493 36.214H143.697ZM157.261 40.858H155.299V35.872H150.331V40.858H148.369V29.698H150.331V34.216H155.299V29.698H157.261V40.858ZM171.58 40.858H169.69V36.538L163.696 38.842L163.102 37.294L165.154 36.502C165.154 36.07 164.992 35.692 164.668 35.368C164.344 35.044 163.96 34.882 163.516 34.882H162.58V33.37C162.58 32.35 162.94 31.48 163.66 30.76C164.392 30.028 165.268 29.662 166.288 29.662H167.062C168.058 29.662 168.934 29.938 169.69 30.49V29.662H172.804V31.282H171.58V40.858ZM166.918 35.818L169.69 34.756V33.91C169.69 33.19 169.432 32.572 168.916 32.056C168.412 31.54 167.794 31.282 167.062 31.282H166.288C165.784 31.282 165.352 31.462 164.992 31.822C164.644 32.17 164.47 32.602 164.47 33.118V33.406C165.202 33.622 165.814 34.036 166.306 34.648C166.594 35.008 166.798 35.398 166.918 35.818ZM175.549 40.858H173.659V31.282H172.435V29.662H176.755V31.282H175.549V40.858ZM182.548 40.858H181.576C180.412 40.858 179.41 40.444 178.57 39.616C177.742 38.776 177.328 37.774 177.328 36.61V32.974H179.218V36.736C179.218 37.384 179.446 37.966 179.902 38.482C180.37 38.986 180.928 39.238 181.576 39.238H182.548C183.196 39.238 183.748 38.986 184.204 38.482C184.672 37.966 184.906 37.384 184.906 36.736V36.394C184.654 36.478 184.288 36.52 183.808 36.52C183.052 36.52 182.404 36.256 181.864 35.728C181.324 35.2 181.054 34.552 181.054 33.784V31.282H176.32V29.662H184.906V29.248C184.906 28.972 184.81 28.738 184.618 28.546C184.426 28.342 184.186 28.24 183.898 28.24H179.722C179.062 28.24 178.498 28.012 178.03 27.556C177.562 27.088 177.328 26.518 177.328 25.846H179.218V25.99C179.218 26.41 179.434 26.62 179.866 26.62H183.898C184.702 26.62 185.386 26.908 185.95 27.484C186.514 28.048 186.796 28.774 186.796 29.662H187.804V31.282H182.944V33.928C182.944 34.252 183.028 34.498 183.196 34.666C183.364 34.822 183.568 34.9 183.808 34.9H184.06C184.3 34.9 184.498 34.816 184.654 34.648C184.822 34.48 184.906 34.24 184.906 33.928V33.514H186.796V36.61C186.796 37.774 186.382 38.776 185.554 39.616C184.726 40.444 183.724 40.858 182.548 40.858ZM193.675 40.858H192.703C191.539 40.858 190.537 40.444 189.697 39.616C188.869 38.776 188.455 37.774 188.455 36.61V32.974H190.345V36.736C190.345 37.384 190.573 37.966 191.029 38.482C191.497 38.986 192.055 39.238 192.703 39.238H193.675C194.323 39.238 194.875 38.986 195.331 38.482C195.799 37.966 196.033 37.384 196.033 36.736V36.394C195.781 36.478 195.415 36.52 194.935 36.52C194.179 36.52 193.531 36.256 192.991 35.728C192.451 35.2 192.181 34.552 192.181 33.784V31.282H187.447V29.662H198.931V31.282H194.071V33.928C194.071 34.252 194.155 34.498 194.323 34.666C194.491 34.822 194.695 34.9 194.935 34.9H195.187C195.427 34.9 195.625 34.816 195.781 34.648C195.949 34.48 196.033 34.24 196.033 33.928V33.514H197.923V36.61C197.923 37.774 197.509 38.776 196.681 39.616C195.853 40.444 194.851 40.858 193.675 40.858ZM201.688 40.858H199.798V31.282H198.574V29.662H202.894V31.282H201.688V40.858ZM211.675 40.858H209.785L203.467 37.888V36.466C203.467 35.71 203.683 35.02 204.115 34.396C204.547 33.76 205.189 33.31 206.041 33.046L209.785 31.894V31.282H202.459V29.662H212.899V31.282H211.675V40.858ZM209.785 39.04V33.604L206.671 34.558C205.795 34.822 205.357 35.368 205.357 36.196V36.952L209.785 39.04ZM205.789 42.244C205.489 42.244 205.231 42.136 205.015 41.92C204.799 41.716 204.691 41.464 204.691 41.164C204.691 40.876 204.799 40.624 205.015 40.408C205.231 40.192 205.489 40.084 205.789 40.084C206.077 40.084 206.323 40.192 206.527 40.408C206.743 40.624 206.851 40.876 206.851 41.164C206.851 41.464 206.743 41.716 206.527 41.92C206.323 42.136 206.077 42.244 205.789 42.244ZM220.427 40.858C219.287 40.678 218.393 40.204 217.745 39.436C217.097 38.656 216.773 37.726 216.773 36.646V34.756C216.773 33.256 217.175 32.044 217.979 31.12C218.795 30.184 219.779 29.698 220.931 29.662V31.282C220.295 31.294 219.755 31.594 219.311 32.182C218.879 32.77 218.663 33.538 218.663 34.486V36.916C218.663 37.564 218.831 38.086 219.167 38.482C219.503 38.878 219.923 39.13 220.427 39.238V40.858ZM230.626 40.858H228.736L221.572 38.932V37.618C221.608 36.082 222.466 34.99 224.146 34.342C225.082 33.994 225.55 33.604 225.55 33.172V32.974C225.19 33.118 224.8 33.19 224.38 33.19C223.588 33.19 222.922 32.926 222.382 32.398C221.842 31.858 221.572 31.204 221.572 30.436V29.662H223.462V30.526C223.462 31.222 223.768 31.57 224.38 31.57C224.716 31.57 224.992 31.462 225.208 31.246C225.436 31.03 225.55 30.76 225.55 30.436V29.842H227.44V32.902C227.44 34.09 226.564 35.068 224.812 35.836C224.416 36.004 224.104 36.19 223.876 36.394C223.6 36.646 223.462 36.964 223.462 37.348V37.744L228.736 39.166V29.662H231.85V31.282H230.626V40.858ZM236.16 40.858C235.02 40.678 234.126 40.204 233.478 39.436C232.83 38.656 232.506 37.726 232.506 36.646V34.756C232.506 33.352 232.866 32.194 233.586 31.282H231.498V29.662H236.664V31.282C236.028 31.294 235.488 31.594 235.044 32.182C234.612 32.77 234.396 33.538 234.396 34.486V36.916C234.396 37.564 234.564 38.086 234.9 38.482C235.236 38.878 235.656 39.13 236.16 39.238V40.858ZM248.213 40.858H246.323V35.44C246.323 35.104 246.209 34.822 245.981 34.594C245.753 34.366 245.417 34.252 244.973 34.252C244.673 34.252 244.415 34.36 244.199 34.576C243.983 34.792 243.875 35.05 243.875 35.35V36.52H241.985V35.35C241.985 35.074 241.883 34.822 241.679 34.594C241.487 34.366 241.163 34.252 240.707 34.252C240.287 34.252 239.927 34.402 239.627 34.702C239.339 35.002 239.195 35.356 239.195 35.764V36.43C239.195 36.874 239.345 37.246 239.645 37.546C239.957 37.846 240.329 37.996 240.761 37.996H241.625V39.616H240.761C239.813 39.616 238.997 39.31 238.313 38.698C237.641 38.074 237.305 37.318 237.305 36.43V35.764C237.305 34.9 237.635 34.162 238.295 33.55C238.955 32.938 239.819 32.632 240.887 32.632C241.667 32.632 242.333 32.89 242.885 33.406C243.473 32.89 244.229 32.632 245.153 32.632C245.573 32.632 245.963 32.704 246.323 32.848V31.282H236.297V29.662H249.437V31.282H248.213V40.858ZM253.216 39.994H251.326V30.508H253.216V39.994Z" fill="#FFC945"/>
</svg>
