<svg width="320" height="76" viewBox="0 0 320 76" fill="none" xmlns="http://www.w3.org/2000/svg">
<path d="M166.495 22.5601H163.447V19.5121C163.447 18.8561 163.223 18.3041 162.775 17.8561C162.327 17.4081 161.799 17.1761 161.191 17.1601C161.063 18.3761 160.559 19.4321 159.679 20.3281C158.623 21.4001 157.351 21.9361 155.863 21.9361H154.303V19.3681H155.383C156.263 19.3681 156.951 19.0801 157.447 18.5041C157.959 17.9281 158.215 17.2561 158.215 16.4881V16.1041C158.215 15.3201 157.959 14.6481 157.447 14.0881C156.935 13.5281 156.239 13.2481 155.359 13.2481H154.303V10.2001H153.103V7.63206H167.935V10.2001H166.495V22.5601ZM163.447 15.0961V10.2001H157.351V10.9201C158.503 11.2881 159.439 11.9361 160.159 12.8641C160.559 13.3921 160.847 13.9681 161.023 14.5921C161.935 14.5921 162.743 14.7601 163.447 15.0961ZM177.071 15.6481C176.367 15.6481 175.791 15.5601 175.343 15.3841C174.895 15.1921 174.503 14.9921 174.167 14.7841C173.575 14.4161 173.063 14.2321 172.631 14.2321C172.007 14.2321 171.695 14.7041 171.695 15.6481H168.647C168.647 14.5441 169.015 13.6001 169.751 12.8161C170.151 12.4001 170.623 12.0961 171.167 11.9041C171.087 11.6001 170.759 11.4481 170.183 11.4481H168.647V10.2001H167.447V7.63206H177.047C178.407 7.63206 179.527 8.00806 180.407 8.76006C181.303 9.51206 181.751 10.3841 181.751 11.3761C181.751 12.5121 181.319 13.5121 180.455 14.3761C179.591 15.2241 178.463 15.6481 177.071 15.6481ZM177.071 13.0801C177.551 13.0801 177.943 12.9281 178.247 12.6241C178.551 12.3041 178.703 11.9681 178.703 11.6161C178.703 11.2161 178.551 10.8801 178.247 10.6081C177.959 10.3361 177.559 10.2001 177.047 10.2001H173.447L173.591 10.3201C173.991 10.7681 174.215 11.2961 174.263 11.9041L174.335 11.9281C174.767 12.1041 175.143 12.2961 175.463 12.5041C176.071 12.8881 176.607 13.0801 177.071 13.0801ZM191.229 22.5601H188.181V17.2081L180.333 20.2321L179.397 17.7841L182.133 16.7281C182.133 16.2161 181.941 15.7681 181.557 15.3841C181.173 15.0001 180.725 14.8081 180.213 14.8081H178.701V12.8401C178.701 11.4161 179.205 10.1921 180.213 9.16806C181.237 8.14406 182.469 7.63206 183.909 7.63206H184.941C186.141 7.63206 187.221 7.92806 188.181 8.52006V7.63206H192.669V10.2001H191.229V22.5601ZM184.941 15.6481L188.181 14.4001V13.4401C188.181 12.5601 187.861 11.8001 187.221 11.1601C186.597 10.5201 185.837 10.2001 184.941 10.2001H183.909C183.317 10.2001 182.805 10.4161 182.373 10.8481C181.957 11.2641 181.749 11.8161 181.749 12.5041C182.757 12.8401 183.581 13.4321 184.221 14.2801C184.541 14.7121 184.781 15.1681 184.941 15.6481ZM193.757 30.7441L191.213 28.8001C190.477 29.4401 189.445 29.7601 188.117 29.7601C186.789 29.7601 185.757 29.4321 185.021 28.7761C184.285 28.1361 183.917 27.3841 183.917 26.5201C183.917 25.6561 184.285 24.9041 185.021 24.2641C185.757 23.6401 186.813 23.3121 188.189 23.2801V21.6001H191.237V25.6081H188.597C187.349 25.6081 186.725 25.9121 186.725 26.5201C186.725 27.1281 187.189 27.4321 188.117 27.4321C188.453 27.4321 188.733 27.3521 188.957 27.1921C189.165 27.0321 189.269 26.8081 189.269 26.5201H192.317L195.269 28.7761L193.757 30.7441ZM205.349 22.5601H202.301V13.4641C202.301 12.5681 201.981 11.8001 201.341 11.1601C200.717 10.5201 199.949 10.2001 199.037 10.2001H198.725C198.101 10.2001 197.565 10.4241 197.117 10.8721C196.669 11.3041 196.445 11.8321 196.445 12.4561V13.2001C196.445 13.6961 196.621 14.1281 196.973 14.4961C197.341 14.8481 197.773 15.0241 198.269 15.0241H199.229V17.5921H198.269C196.925 17.5921 195.773 17.1681 194.813 16.3201C193.869 15.4561 193.397 14.4161 193.397 13.2001V12.4561C193.397 11.1121 193.917 9.97606 194.957 9.04806C195.997 8.10406 197.253 7.63206 198.725 7.63206C200.149 7.63206 201.341 7.92806 202.301 8.52006V7.63206H206.789V10.2001H205.349V22.5601ZM202.298 6.91206L200.402 5.06406L205.442 5.72205e-05L207.338 1.84806L202.298 6.91206ZM223.77 22.5601H220.722V17.4721C220.722 16.5761 220.402 15.8081 219.762 15.1681C219.138 14.5281 218.37 14.2081 217.458 14.2081H217.146C216.522 14.2081 215.986 14.4321 215.538 14.8801C215.09 15.3121 214.866 15.8401 214.866 16.4641V16.7281C214.866 17.2241 215.042 17.6561 215.394 18.0241C215.762 18.3761 216.194 18.5521 216.69 18.5521H217.65V21.1201H216.69C215.346 21.1201 214.194 20.6961 213.234 19.8481C212.29 18.9841 211.818 17.9441 211.818 16.7281V16.4641C211.818 15.1201 212.338 13.9841 213.378 13.0561C214.418 12.1121 215.674 11.6401 217.146 11.6401C218.57 11.6401 219.762 11.9361 220.722 12.5281V10.2001H210.618V7.63206H225.21V10.2001H223.77V22.5601ZM226.12 22.8001H225.688V20.2321C226.408 20.2321 226.96 20.0001 227.344 19.5361C227.744 19.0721 227.944 18.5281 227.944 17.9041V17.4961C227.496 16.6961 227.048 15.8961 226.6 15.0961C226.152 14.2961 225.928 13.4721 225.928 12.6241C225.928 11.7281 226.136 10.9201 226.552 10.2001H224.728V7.63206H231.952V10.2001H230.968C230.408 10.2001 229.936 10.3921 229.552 10.7761C229.168 11.1601 228.976 11.6161 228.976 12.1441C228.976 12.7841 229.136 13.4001 229.456 13.9921L230.992 16.7281V17.5921C230.992 19.1761 230.52 20.4321 229.576 21.3601C228.568 22.3201 227.416 22.8001 226.12 22.8001ZM235.966 22.5601H232.918V10.2001H231.478V7.63206H237.406V10.2001H235.966V22.5601ZM243.398 22.5601H243.038C241.726 22.5601 240.598 22.0961 239.654 21.1681C238.726 20.2401 238.262 19.1201 238.262 17.8081V10.2001H236.822V7.63206H250.718V10.2001H241.31V10.9201L245.702 11.8321C246.854 12.0721 247.774 12.6161 248.462 13.4641C249.166 14.3121 249.518 15.2961 249.518 16.4161C249.518 18.1121 248.918 19.5601 247.718 20.7601C246.518 21.9601 245.078 22.5601 243.398 22.5601ZM243.398 19.9921C244.246 19.9921 244.966 19.6401 245.558 18.9361C246.166 18.2321 246.47 17.3921 246.47 16.4161C246.47 15.8401 246.318 15.3681 246.014 15.0001C245.71 14.6161 245.374 14.3841 245.006 14.3041L241.31 13.5601V17.8081C241.31 18.4001 241.478 18.9121 241.814 19.3441C242.15 19.7761 242.558 19.9921 243.038 19.9921H243.398ZM254.716 22.5601H251.668V10.2001H250.228V7.63206H256.156V10.2001H254.716V22.5601ZM268.244 22.5601H265.196L256.772 18.6001V16.9921C256.772 15.9521 257.076 14.9761 257.684 14.0641C258.292 13.1521 259.188 12.5121 260.372 12.1441L265.196 10.6801V10.2001H255.572V7.63206H269.684V10.2001H268.244V22.5601ZM265.196 19.6801V13.3681L261.404 14.5201C260.348 14.8401 259.82 15.5041 259.82 16.5121V17.1361L265.196 19.6801ZM259.868 24.5761C259.42 24.5761 259.028 24.4161 258.692 24.0961C258.372 23.7761 258.212 23.3921 258.212 22.9441C258.212 22.4961 258.372 22.1121 258.692 21.7921C259.028 21.4561 259.42 21.2881 259.868 21.2881C260.316 21.2881 260.7 21.4561 261.02 21.7921C261.34 22.1121 261.5 22.4961 261.5 22.9441C261.5 23.3921 261.34 23.7761 261.02 24.0961C260.7 24.4161 260.316 24.5761 259.868 24.5761ZM273.7 22.5601H270.652V10.2001H269.212V7.63206H275.14V10.2001H273.7V22.5601ZM290.828 22.5601H287.78V15.5281C287.78 15.1601 287.652 14.8481 287.396 14.5921C287.14 14.3361 286.756 14.2081 286.244 14.2081C285.924 14.2081 285.644 14.3281 285.404 14.5681C285.164 14.8081 285.044 15.0881 285.044 15.4081V16.8481H281.996V15.4081C281.996 15.1041 281.884 14.8321 281.66 14.5921C281.436 14.3361 281.068 14.2081 280.556 14.2081C280.076 14.2081 279.66 14.3841 279.308 14.7361C278.972 15.0721 278.804 15.4801 278.804 15.9601V16.7281C278.804 17.2401 278.98 17.6721 279.332 18.0241C279.684 18.3761 280.116 18.5521 280.628 18.5521H281.828V21.1201H280.628C279.284 21.1201 278.132 20.6961 277.172 19.8481C276.228 19.0001 275.756 17.9601 275.756 16.7281V15.9601C275.756 14.7601 276.22 13.7441 277.148 12.9121C278.092 12.0641 279.308 11.6401 280.796 11.6401C281.804 11.6401 282.692 11.9521 283.46 12.5761C284.244 11.9521 285.252 11.6401 286.484 11.6401C286.948 11.6401 287.38 11.7041 287.78 11.8321V10.2001H274.556V7.63206H292.268V10.2001H290.828V22.5601Z" fill="white"/>
<path d="M35.8643 24.5539C29.9962 24.5539 25.1826 20.7948 25.1826 14.8141C25.1826 8.83333 29.9962 5.08228 35.8643 5.08228C41.7324 5.08228 46.546 8.84138 46.546 14.8141C46.546 17.0277 45.894 18.9515 44.759 20.4648C44.0587 21.4147 42.6742 21.7366 41.5151 21.7608V22.0586C42.6742 22.0345 43.9219 22.6784 44.8154 23.4351C45.3547 23.8697 45.9262 24.2481 46.546 24.5459L43.4067 29.0375C42.2717 28.8202 41.1931 27.5805 40.1064 25.9546C39.4544 24.9806 39.2934 23.6041 39.7844 22.5174L39.4625 22.3806C38.6817 24.1354 37.6272 24.5459 35.8643 24.5459V24.5539ZM33.4575 14.2506C35.8402 14.2506 38.0296 15.9249 39.5993 17.6073C40.2996 16.8506 40.7343 15.8766 40.7343 14.8221C40.7343 12.4395 38.5448 10.5479 35.8643 10.5479C33.1838 10.5479 31.0266 12.4153 30.9944 14.7658C31.8557 14.4116 32.7009 14.2506 33.4575 14.2506ZM35.977 19.1447C35.0835 17.8165 34.1659 16.7379 33.1919 16.1181C32.5157 15.7156 31.8154 15.5224 31.0829 15.6593C31.5176 17.6314 33.6266 19.1447 35.977 19.1447Z" fill="white"/>
<path d="M47.6328 16.0054V5.59741H53.4445V15.5788C53.4445 17.9614 54.0161 19.1447 56.2538 19.1447C58.4916 19.1447 59.0631 17.9534 59.0631 15.5788V5.59741H64.8749V16.0054C64.8749 22.0103 61.6873 24.5539 56.2458 24.5539C50.8043 24.5539 47.6167 22.0103 47.6167 16.0054H47.6328Z" fill="white"/>
<path d="M65.9614 5.35596H74.7756C80.6437 5.35596 84.7249 9.01042 84.7249 14.8221C84.7249 20.6339 80.6437 24.2883 74.7756 24.2883H65.9614V5.35596Z" fill="white"/>
<path d="M103.416 24.2803H96.9521C96.2517 19.3862 95.8976 17.084 93.0078 16.7057L91.7601 16.6252V24.2803H85.8115V5.35596H93.6839C99.552 5.35596 102.772 6.9256 102.772 11.1999C102.772 14.959 100.663 15.9893 97.0648 15.9893L96.9843 16.5286C98.1434 16.7218 99.5762 16.9633 100.341 17.8568C101.693 19.4264 102.667 21.6159 103.424 24.2964L103.416 24.2803ZM93.6839 14.0574C96.3644 14.0574 96.9521 13.3571 96.9521 12.19C96.9521 11.0228 96.3564 10.2178 93.5713 10.2178H91.7601V14.0574H93.6839Z" fill="white"/>
<path d="M110.452 24.2803H104.503L110.395 5.35596H117.72L123.612 24.2883H117.664L117.422 23.3143C117.181 22.3967 117.318 21.31 117.881 20.5534L117.857 20.497C117.286 21.2537 116.231 21.6561 115.289 21.6561H112.826C111.876 21.6561 110.822 21.2537 110.258 20.497L110.234 20.5534C110.806 21.31 110.934 22.3886 110.693 23.3143L110.452 24.2883V24.2803ZM112.239 17.4382H115.885L114.613 12.5441C114.315 11.385 114.098 9.78317 114.178 8.5677H113.961C114.042 9.78317 113.824 11.377 113.526 12.5441L112.23 17.4382H112.239Z" fill="white"/>
<path d="M130.656 17.1162V24.2803H124.707V5.35596H130.656V10.2742C130.656 11.385 130.221 12.6568 129.44 13.4376L129.714 13.7113C130.495 12.9305 131.525 12.2544 132.636 12.2544H136.234V5.35596H142.183V24.2883H136.234V19.0964C136.234 17.9856 136.91 16.9311 137.691 16.1503L137.417 15.9088C136.636 16.6896 135.365 17.1243 134.254 17.1243H130.656V17.1162Z" fill="white"/>
<path d="M72.5624 21.7853L78.35 14.0095H75.911L77.9234 9.04297H73.464L72.2002 15.6677H74.4058L72.5624 21.7853Z" fill="#0B4227"/>
<path d="M3.4602 53.5601H1.3602V42.9201H0.000195298V41.1201H1.3602V40.4801C1.3602 39.6801 1.55353 38.9334 1.9402 38.2401C2.3402 37.5467 2.88686 36.9934 3.5802 36.5801C4.23353 36.2067 4.76686 36.0067 5.1802 35.9801C5.60686 35.9534 5.9202 35.9401 6.1202 35.9401C6.50686 35.9401 8.77353 36.2134 12.9202 36.7601L12.6802 38.5401C8.62686 38.0067 6.47353 37.7401 6.2202 37.7401C5.56686 37.7401 5.04686 37.8601 4.6602 38.1001C3.8602 38.6334 3.4602 39.3334 3.4602 40.2001V41.1201H4.8002V42.9201H3.4602V53.5601ZM14.9566 53.5601H12.8566V49.1601C12.8566 48.3467 12.5699 47.6534 11.9966 47.0801C11.4233 46.5067 10.7299 46.2201 9.9166 46.2201H9.6566C9.06994 46.2201 8.56994 46.4267 8.1566 46.8401C7.74327 47.2401 7.5366 47.7334 7.5366 48.3201V48.6401C7.5366 49.1201 7.70994 49.5334 8.0566 49.8801C8.40327 50.2134 8.80994 50.3801 9.2766 50.3801H10.0766V52.1801H9.2766C8.22327 52.1801 7.3166 51.8401 6.5566 51.1601C5.80993 50.4667 5.4366 49.6267 5.4366 48.6401V48.3201C5.4366 47.2401 5.84993 46.3201 6.6766 45.5601C7.50327 44.8001 8.4966 44.4201 9.6566 44.4201C10.9366 44.4201 12.0033 44.7334 12.8566 45.3601V42.9201H4.3166V41.1201H16.2966V42.9201H14.9566V53.5601ZM26.1386 53.5601H24.0386L17.0186 50.2601V48.6801C17.0186 47.8401 17.2586 47.0734 17.7386 46.3801C18.2186 45.6734 18.932 45.1734 19.8786 44.8801L24.0386 43.6001V42.9201H15.8986V41.1201H27.4986V42.9201H26.1386V53.5601ZM24.0386 51.5401V45.5001L20.5786 46.5601C19.6053 46.8534 19.1186 47.4601 19.1186 48.3801V49.2201L24.0386 51.5401ZM19.5986 55.1001C19.2653 55.1001 18.9786 54.9801 18.7386 54.7401C18.4986 54.5134 18.3786 54.2334 18.3786 53.9001C18.3786 53.5801 18.4986 53.3001 18.7386 53.0601C18.9786 52.8201 19.2653 52.7001 19.5986 52.7001C19.9186 52.7001 20.192 52.8201 20.4186 53.0601C20.6586 53.3001 20.7786 53.5801 20.7786 53.9001C20.7786 54.2334 20.6586 54.5134 20.4186 54.7401C20.192 54.9801 19.9186 55.1001 19.5986 55.1001ZM30.55 53.5601H28.45V42.9201H27.09V41.1201H31.89V42.9201H30.55V53.5601ZM42.5264 53.5601H40.4264V48.7601L33.7664 51.3201L33.1064 49.6001L35.3864 48.7201C35.3864 48.2401 35.2064 47.8201 34.8464 47.4601C34.4864 47.1001 34.0598 46.9201 33.5664 46.9201H32.5264V45.2401C32.5264 44.1067 32.9264 43.1401 33.7264 42.3401C34.5398 41.5267 35.5131 41.1201 36.6464 41.1201H37.5064C38.6131 41.1201 39.5864 41.4267 40.4264 42.0401V41.1201H43.8864V42.9201H42.5264V53.5601ZM37.3464 47.9601L40.4264 46.7801V45.8401C40.4264 45.0401 40.1398 44.3534 39.5664 43.7801C39.0064 43.2067 38.3198 42.9201 37.5064 42.9201H36.6464C36.0864 42.9201 35.6064 43.1201 35.2064 43.5201C34.8198 43.9067 34.6264 44.3867 34.6264 44.9601V45.2801C35.4398 45.5201 36.1198 45.9801 36.6664 46.6601C36.9864 47.0601 37.2131 47.4934 37.3464 47.9601ZM53.7568 53.5601H51.6568V49.0001C51.6568 48.6001 51.5501 48.2534 51.3368 47.9601C51.1368 47.6667 50.8834 47.4934 50.5768 47.4401L46.9368 50.8801H44.8368V42.9201H43.4768V41.1201H55.1168V42.9201H46.9368V48.3001L49.7568 45.6201H50.3968C51.3301 45.6201 52.1234 45.9534 52.7768 46.6201C53.4301 47.2734 53.7568 48.0667 53.7568 49.0001V53.5601ZM63.481 53.5601C62.2143 53.3601 61.221 52.8334 60.501 51.9801C59.781 51.1134 59.421 50.0801 59.421 48.8801V46.7801C59.421 45.1134 59.8676 43.7667 60.761 42.7401C61.6676 41.7001 62.761 41.1601 64.041 41.1201V42.9201C63.3343 42.9334 62.7343 43.2667 62.241 43.9201C61.761 44.5734 61.521 45.4267 61.521 46.4801V49.1801C61.521 49.9001 61.7076 50.4801 62.081 50.9201C62.4543 51.3601 62.921 51.6401 63.481 51.7601V53.5601ZM71.033 53.5601H69.473C68.1797 53.5601 67.0663 53.1001 66.133 52.1801C65.213 51.2467 64.753 50.1267 64.753 48.8201V44.8001H66.853V48.9801C66.853 49.7001 67.1063 50.3467 67.613 50.9201C68.133 51.4801 68.753 51.7601 69.473 51.7601H71.033C71.7663 51.7601 72.3863 51.4801 72.893 50.9201C73.3997 50.3467 73.653 49.7001 73.653 48.9801V48.2801C72.9863 48.9467 72.273 49.2801 71.513 49.2801C70.7263 49.2801 70.053 48.9934 69.493 48.4201C68.933 47.8467 68.653 47.1801 68.653 46.4201C68.653 45.6734 68.9263 45.0534 69.473 44.5601C70.0197 44.0667 70.7597 43.8201 71.693 43.8201V45.6201C71.3863 45.6201 71.153 45.7067 70.993 45.8801C70.833 46.0534 70.753 46.2734 70.753 46.5401C70.753 46.8201 70.833 47.0401 70.993 47.2001C71.1663 47.3601 71.3597 47.4401 71.573 47.4401C71.8263 47.4401 72.093 47.2934 72.373 47.0001L73.653 45.6401H75.753V48.8201C75.753 50.1267 75.293 51.2467 74.373 52.1801C73.453 53.1001 72.3397 53.5601 71.033 53.5601ZM76.873 42.9201H63.633V41.1201H76.873V42.9201ZM86.805 53.5601H84.705L77.585 51.4201V49.6601C77.585 48.8601 77.825 48.1334 78.305 47.4801C78.7984 46.8134 79.445 46.3534 80.245 46.1001L80.565 46.0001L77.585 42.9201H76.465V41.1201H88.165V42.9201H86.805V53.5601ZM84.705 51.6801V48.3801L82.445 47.3201L80.905 47.8001C80.545 47.9067 80.2517 48.1067 80.025 48.4001C79.7984 48.6934 79.685 49.0134 79.685 49.3601V50.1601L84.705 51.6801ZM84.705 46.3601V42.9201H80.205L82.565 45.3601L84.705 46.3601ZM103.014 53.5601H100.914V46.2801C99.927 46.1467 99.0536 45.8334 98.2936 45.3401C97.3603 44.6601 96.8003 43.8934 96.6136 43.0401C96.267 43.1601 95.947 43.3667 95.6536 43.6601C95.1736 44.1534 94.9336 44.7667 94.9336 45.5001V46.1201C94.9336 47.0401 95.327 47.5001 96.1136 47.5001C96.407 47.5001 96.647 47.4067 96.8336 47.2201C97.0203 47.0334 97.1136 46.8067 97.1136 46.5401H99.2136V48.8401C99.2136 50.1334 98.7536 51.2467 97.8336 52.1801C96.9136 53.1001 95.8003 53.5601 94.4936 53.5601H93.6136C92.3203 53.5601 91.207 53.1001 90.2736 52.1801C89.3536 51.2467 88.8936 50.1334 88.8936 48.8401V44.8001H90.9936V48.8401C90.9936 49.6401 91.247 50.3267 91.7536 50.9001C92.2736 51.4734 92.8936 51.7601 93.6136 51.7601H94.4936C95.2136 51.7601 95.8336 51.4734 96.3536 50.9001C96.7803 50.4067 97.027 49.8334 97.0936 49.1801C96.8136 49.2601 96.4136 49.3001 95.8936 49.3001C95.0536 49.3001 94.3336 49.0067 93.7336 48.4201C93.1336 47.8201 92.8336 47.1001 92.8336 46.2601V45.6601C92.8336 44.6201 93.1403 43.7067 93.7536 42.9201H87.7736V41.1201H104.374V42.9201H98.6736C98.7536 43.2534 99.0203 43.5734 99.4736 43.8801C100.194 44.3467 101.027 44.5801 101.974 44.5801H103.014V53.5601ZM114.479 53.5601H113.399C112.105 53.5601 110.992 53.1001 110.059 52.1801C109.139 51.2467 108.679 50.1334 108.679 48.8401V44.8001H110.779V48.9801C110.779 49.7001 111.032 50.3467 111.539 50.9201C112.059 51.4801 112.679 51.7601 113.399 51.7601H114.479C115.199 51.7601 115.812 51.4801 116.319 50.9201C116.839 50.3467 117.099 49.7001 117.099 48.9801V48.6001C116.819 48.6934 116.412 48.7401 115.879 48.7401C115.039 48.7401 114.319 48.4467 113.719 47.8601C113.119 47.2734 112.819 46.5534 112.819 45.7001V42.9201H107.559V41.1201H117.099V40.6601C117.099 40.3534 116.992 40.0934 116.779 39.8801C116.565 39.6534 116.299 39.5401 115.979 39.5401H111.339C110.605 39.5401 109.979 39.2867 109.459 38.7801C108.939 38.2601 108.679 37.6267 108.679 36.8801H110.779V37.0401C110.779 37.5067 111.019 37.7401 111.499 37.7401H115.979C116.872 37.7401 117.632 38.0601 118.259 38.7001C118.885 39.3267 119.199 40.1334 119.199 41.1201H120.319V42.9201H114.919V45.8601C114.919 46.2201 115.012 46.4934 115.199 46.6801C115.385 46.8534 115.612 46.9401 115.879 46.9401H116.159C116.425 46.9401 116.645 46.8467 116.819 46.6601C117.005 46.4734 117.099 46.2067 117.099 45.8601V45.4001H119.199V48.8401C119.199 50.1334 118.739 51.2467 117.819 52.1801C116.899 53.1001 115.785 53.5601 114.479 53.5601ZM131.042 53.5601H128.942V48.7601L122.282 51.3201L121.622 49.6001L123.902 48.7201C123.902 48.2401 123.722 47.8201 123.362 47.4601C123.002 47.1001 122.575 46.9201 122.082 46.9201H121.042V45.2401C121.042 44.1067 121.442 43.1401 122.242 42.3401C123.055 41.5267 124.029 41.1201 125.162 41.1201H126.022C127.129 41.1201 128.102 41.4267 128.942 42.0401V41.1201H132.402V42.9201H131.042V53.5601ZM125.862 47.9601L128.942 46.7801V45.8401C128.942 45.0401 128.655 44.3534 128.082 43.7801C127.522 43.2067 126.835 42.9201 126.022 42.9201H125.162C124.602 42.9201 124.122 43.1201 123.722 43.5201C123.335 43.9067 123.142 44.3867 123.142 44.9601V45.2801C123.955 45.5201 124.635 45.9801 125.182 46.6601C125.502 47.0601 125.729 47.4934 125.862 47.9601ZM135.452 53.5601H133.352V42.9201H131.992V41.1201H136.792V42.9201H135.452V53.5601ZM146.589 53.5601H144.489V49.0001C144.489 48.6001 144.382 48.2534 144.169 47.9601C143.969 47.6667 143.715 47.4934 143.409 47.4401L139.769 50.8801H137.669V42.9201H136.309V41.1201H147.949V42.9201H139.769V48.3001L142.589 45.6201H143.229C144.162 45.6201 144.955 45.9534 145.609 46.6201C146.262 47.2734 146.589 48.0667 146.589 49.0001V53.5601ZM150.999 53.5601H148.899V42.9201H147.539V41.1201H152.339V42.9201H150.999V53.5601ZM162.496 53.5601H160.396V49.1601C160.396 48.3467 160.109 47.6534 159.536 47.0801C158.962 46.5067 158.269 46.2201 157.456 46.2201H157.196C156.609 46.2201 156.109 46.4267 155.696 46.8401C155.282 47.2401 155.076 47.7334 155.076 48.3201V48.6401C155.076 49.1201 155.249 49.5334 155.596 49.8801C155.942 50.2134 156.349 50.3801 156.816 50.3801H157.616V52.1801H156.816C155.762 52.1801 154.856 51.8401 154.096 51.1601C153.349 50.4667 152.976 49.6267 152.976 48.6401V48.3201C152.976 47.2401 153.389 46.3201 154.216 45.5601C155.042 44.8001 156.036 44.4201 157.196 44.4201C158.476 44.4201 159.542 44.7334 160.396 45.3601V42.9201H151.856V41.1201H163.836V42.9201H162.496V53.5601ZM170.491 53.5601H168.391V42.9201H167.031V41.1201H168.391V40.4801C168.391 39.6801 168.585 38.9334 168.971 38.2401C169.371 37.5467 169.918 36.9934 170.611 36.5801C171.265 36.2067 171.798 36.0067 172.211 35.9801C172.638 35.9534 172.951 35.9401 173.151 35.9401C173.538 35.9401 175.805 36.2134 179.951 36.7601L179.711 38.5401C175.658 38.0067 173.505 37.7401 173.251 37.7401C172.598 37.7401 172.078 37.8601 171.691 38.1001C170.891 38.6334 170.491 39.3334 170.491 40.2001V41.1201H171.831V42.9201H170.491V53.5601ZM181.628 53.5601H179.528V49.0001C179.528 48.6001 179.421 48.2534 179.208 47.9601C179.008 47.6667 178.755 47.4934 178.448 47.4401L174.808 50.8801H172.708V42.9201H171.348V41.1201H182.988V42.9201H174.808V48.3001L177.628 45.6201H178.268C179.201 45.6201 179.995 45.9534 180.648 46.6201C181.301 47.2734 181.628 48.0667 181.628 49.0001V53.5601ZM187.758 53.5601C186.492 53.3601 185.498 52.8334 184.778 51.9801C184.058 51.1134 183.698 50.0801 183.698 48.8801V46.7801C183.698 45.2201 184.098 43.9334 184.898 42.9201H182.578V41.1201H188.318V42.9201C187.612 42.9334 187.012 43.2667 186.518 43.9201C186.038 44.5734 185.798 45.4267 185.798 46.4801V49.1801C185.798 49.9001 185.985 50.4801 186.358 50.9201C186.732 51.3601 187.198 51.6401 187.758 51.7601V53.5601ZM198.25 53.5601H196.15L189.03 51.4201V49.6601C189.03 48.8601 189.27 48.1334 189.75 47.4801C190.244 46.8134 190.89 46.3534 191.69 46.1001L192.01 46.0001L189.03 42.9201H187.91V41.1201H199.61V42.9201H198.25V53.5601ZM196.15 51.6801V42.9201H191.65L194.01 45.3601L194.57 47.1001L192.35 47.8001C191.99 47.9067 191.697 48.1067 191.47 48.4001C191.244 48.6934 191.13 49.0134 191.13 49.3601V50.1601L196.15 51.6801ZM192.07 55.8201C191.737 55.8201 191.45 55.7001 191.21 55.4601C190.97 55.2334 190.85 54.9601 190.85 54.6401C190.85 54.3067 190.97 54.0201 191.21 53.7801C191.45 53.5401 191.737 53.4201 192.07 53.4201C192.39 53.4201 192.664 53.5401 192.89 53.7801C193.13 54.0201 193.25 54.3067 193.25 54.6401C193.25 54.9601 193.13 55.2334 192.89 55.4601C192.664 55.7001 192.39 55.8201 192.07 55.8201ZM207.993 53.5601C206.726 53.3601 205.733 52.8334 205.013 51.9801C204.293 51.1134 203.933 50.0801 203.933 48.8801V46.7801C203.933 44.4601 204.773 42.7734 206.453 41.7201V40.6601C206.453 40.3534 206.346 40.0934 206.133 39.8801C205.919 39.6534 205.653 39.5401 205.333 39.5401H204.733C203.999 39.5401 203.373 39.2867 202.853 38.7801C202.333 38.2601 202.073 37.6267 202.073 36.8801H204.173V37.0401C204.173 37.5067 204.413 37.7401 204.893 37.7401H205.333C206.226 37.7401 206.986 38.0601 207.613 38.7001C208.239 39.3267 208.553 40.0801 208.553 40.9601V42.9201C207.846 42.9334 207.246 43.2667 206.753 43.9201C206.273 44.5734 206.033 45.4267 206.033 46.4801V49.1801C206.033 49.9001 206.219 50.4801 206.593 50.9201C206.966 51.3601 207.433 51.6401 207.993 51.7601V53.5601ZM215.305 53.5601H213.985C212.691 53.5601 211.578 53.1001 210.645 52.1801C209.725 51.2467 209.265 50.1267 209.265 48.8201V44.8001H211.365V48.9801C211.365 49.7001 211.618 50.3467 212.125 50.9201C212.645 51.4801 213.265 51.7601 213.985 51.7601H215.305C216.038 51.7601 216.658 51.4801 217.165 50.9201C217.671 50.3467 217.925 49.7001 217.925 48.9801V47.0401C217.925 46.6801 217.805 46.3534 217.565 46.0601C217.325 45.7667 217.025 45.6201 216.665 45.6201H216.465C216.211 45.6201 215.985 45.7401 215.785 45.9801C215.598 46.2201 215.505 46.4667 215.505 46.7201V48.7801H213.405V46.8801C213.405 46.0401 213.705 45.3201 214.305 44.7201C214.905 44.1201 215.691 43.8201 216.665 43.8201C217.598 43.8201 218.391 44.1534 219.045 44.8201C219.698 45.4734 220.025 46.2601 220.025 47.1801V48.8201C220.025 50.1267 219.565 51.2467 218.645 52.1801C217.725 53.1001 216.611 53.5601 215.305 53.5601ZM221.145 42.9201H208.145V41.1201H221.145V42.9201ZM224.202 53.5601H222.102V42.9201H220.742V41.1201H222.102V40.4801C222.102 39.6801 222.296 38.9334 222.682 38.2401C223.082 37.5467 223.629 36.9934 224.322 36.5801C224.976 36.2067 225.509 36.0067 225.922 35.9801C226.349 35.9534 226.662 35.9401 226.862 35.9401C227.249 35.9401 229.516 36.2134 233.662 36.7601L233.422 38.5401C229.369 38.0067 227.216 37.7401 226.962 37.7401C226.309 37.7401 225.789 37.8601 225.402 38.1001C224.602 38.6334 224.202 39.3334 224.202 40.2001V41.1201H225.542V42.9201H224.202V53.5601ZM235.299 53.5601H233.199L226.179 50.2601V48.6801C226.179 47.8401 226.419 47.0734 226.899 46.3801C227.379 45.6734 228.092 45.1734 229.039 44.8801L233.199 43.6001V42.9201H225.059V41.1201H236.659V42.9201H235.299V53.5601ZM233.199 51.5401V45.5001L229.739 46.5601C228.765 46.8534 228.279 47.4601 228.279 48.3801V49.2201L233.199 51.5401ZM228.759 55.1001C228.425 55.1001 228.139 54.9801 227.899 54.7401C227.659 54.5134 227.539 54.2334 227.539 53.9001C227.539 53.5801 227.659 53.3001 227.899 53.0601C228.139 52.8201 228.425 52.7001 228.759 52.7001C229.079 52.7001 229.352 52.8201 229.579 53.0601C229.819 53.3001 229.939 53.5801 229.939 53.9001C229.939 54.2334 229.819 54.5134 229.579 54.7401C229.352 54.9801 229.079 55.1001 228.759 55.1001ZM250.084 53.5601H247.984L240.964 50.2601V48.6801C240.964 47.8401 241.204 47.0734 241.684 46.3801C242.164 45.6734 242.877 45.1734 243.824 44.8801L247.984 43.6001V42.9201H239.844V41.1201H255.964V42.9201H250.084V43.6201H250.844C252.031 43.6201 253.031 43.9667 253.844 44.6601C254.671 45.3401 255.084 46.1667 255.084 47.1401V47.4201C255.084 48.2867 254.744 49.0267 254.064 49.6401C253.397 50.2401 252.591 50.5401 251.644 50.5401V48.7401C252.004 48.7401 252.317 48.6134 252.584 48.3601C252.851 48.1067 252.984 47.7934 252.984 47.4201V47.1401C252.984 46.6601 252.777 46.2534 252.364 45.9201C251.964 45.5867 251.457 45.4201 250.844 45.4201H250.084V53.5601ZM247.984 51.5401V45.5001L244.524 46.5601C243.551 46.8534 243.064 47.4601 243.064 48.3801V49.2201L247.984 51.5401ZM265.807 53.5601H263.707L256.687 50.2601V48.6801C256.687 47.8401 256.927 47.0734 257.407 46.3801C257.887 45.6734 258.6 45.1734 259.547 44.8801L263.707 43.6001V42.9201H255.567V41.1201H267.167V42.9201H265.807V53.5601ZM263.707 51.5401V45.5001L260.247 46.5601C259.273 46.8534 258.787 47.4601 258.787 48.3801V49.2201L263.707 51.5401ZM259.267 55.1001C258.933 55.1001 258.647 54.9801 258.407 54.7401C258.167 54.5134 258.047 54.2334 258.047 53.9001C258.047 53.5801 258.167 53.3001 258.407 53.0601C258.647 52.8201 258.933 52.7001 259.267 52.7001C259.587 52.7001 259.86 52.8201 260.087 53.0601C260.327 53.3001 260.447 53.5801 260.447 53.9001C260.447 54.2334 260.327 54.5134 260.087 54.7401C259.86 54.9801 259.587 55.1001 259.267 55.1001ZM270.218 53.5601H268.118V42.9201H266.758V41.1201H271.558V42.9201H270.218V53.5601ZM283.448 55.1401L275.788 51.9201V49.9201L278.468 49.4601C279.615 49.2601 280.495 49.0067 281.108 48.7001C281.721 48.3801 282.028 47.9601 282.028 47.4401V47.0401C282.028 46.6401 281.881 46.3067 281.588 46.0401C281.295 45.7601 280.921 45.6201 280.468 45.6201H279.368C278.875 45.6201 278.501 45.7601 278.248 46.0401C278.008 46.3067 277.888 46.6534 277.888 47.0801V48.1401H275.788V47.2401C275.788 46.2934 276.121 45.4867 276.788 44.8201C277.455 44.1534 278.261 43.8201 279.208 43.8201H280.608C281.581 43.8201 282.408 44.1334 283.088 44.7601C283.781 45.3867 284.128 46.1467 284.128 47.0401V47.4401C284.128 48.6667 283.401 49.6201 281.948 50.3001C281.001 50.7534 279.995 51.0667 278.928 51.2401L284.148 53.4401L283.448 55.1401ZM285.248 42.9201H274.668V41.1201H285.248V42.9201ZM290.024 53.5601C288.757 53.3601 287.764 52.8334 287.044 51.9801C286.324 51.1134 285.964 50.0801 285.964 48.8801V46.7801C285.964 45.2201 286.364 43.9334 287.164 42.9201H284.844V41.1201H290.584V42.9201C289.877 42.9334 289.277 43.2667 288.784 43.9201C288.304 44.5734 288.064 45.4267 288.064 46.4801V49.1801C288.064 49.9001 288.251 50.4801 288.624 50.9201C288.997 51.3601 289.464 51.6401 290.024 51.7601V53.5601ZM300.516 53.5601H298.416L291.296 51.4201V49.6601C291.296 48.8601 291.536 48.1334 292.016 47.4801C292.509 46.8134 293.156 46.3534 293.956 46.1001L294.276 46.0001L291.296 42.9201H290.176V41.1201H301.876V42.9201H300.516V53.5601ZM298.416 51.6801V42.9201H293.916L296.276 45.3601L296.836 47.1001L294.616 47.8001C294.256 47.9067 293.963 48.1067 293.736 48.4001C293.509 48.6934 293.396 49.0134 293.396 49.3601V50.1601L298.416 51.6801ZM294.336 55.8201C294.003 55.8201 293.716 55.7001 293.476 55.4601C293.236 55.2334 293.116 54.9601 293.116 54.6401C293.116 54.3067 293.236 54.0201 293.476 53.7801C293.716 53.5401 294.003 53.4201 294.336 53.4201C294.656 53.4201 294.929 53.5401 295.156 53.7801C295.396 54.0201 295.516 54.3067 295.516 54.6401C295.516 54.9601 295.396 55.2334 295.156 55.4601C294.929 55.7001 294.656 55.8201 294.336 55.8201ZM306.665 53.5601C305.398 53.3601 304.405 52.8334 303.685 51.9801C302.965 51.1134 302.605 50.0801 302.605 48.8801V46.7801C302.605 45.2201 303.005 43.9334 303.805 42.9201H301.485V41.1201H307.225V42.9201C306.518 42.9334 305.918 43.2667 305.425 43.9201C304.945 44.5734 304.705 45.4267 304.705 46.4801V49.1801C304.705 49.9001 304.891 50.4801 305.265 50.9201C305.638 51.3601 306.105 51.6401 306.665 51.7601V53.5601ZM317.697 55.2401L308.577 52.3401V50.4201L312.577 49.7001C314.95 49.3134 316.137 48.6401 316.137 47.6801C316.137 46.9467 315.537 46.4534 314.337 46.2001C314.297 47.0001 313.983 47.6601 313.397 48.1801C312.77 48.7534 311.943 49.0401 310.917 49.0401C310.143 49.0401 309.49 48.8001 308.957 48.3201C308.437 47.8267 308.177 47.2334 308.177 46.5401V42.9201H306.817V41.1201H319.357V42.9201H310.277V43.5401L315.057 44.5001C316.03 44.7001 316.803 45.1267 317.377 45.7801C317.95 46.4201 318.237 47.0534 318.237 47.6801C318.237 48.9067 317.51 49.8667 316.057 50.5601C315.07 51.0267 314.023 51.3401 312.917 51.5001L312.297 51.6001L318.237 53.5001L317.697 55.2401ZM311.117 47.2401C311.463 47.2401 311.75 47.1601 311.977 47.0001C312.217 46.8401 312.337 46.6067 312.337 46.3001C312.337 46.0067 312.183 45.8067 311.877 45.7001L310.377 45.4001V46.6601C310.377 47.0467 310.623 47.2401 311.117 47.2401Z" fill="white"/>
<path d="M39.1117 70.1918C39.159 70.4373 39.2063 70.6827 39.2535 70.9282C43.3136 70.2457 47.3432 69.8336 51.4539 69.4504C67.9421 68.0042 84.3511 67.3248 100.855 66.7295C112.77 66.3243 124.718 66.0847 136.621 66.1293C142.596 66.1578 148.567 66.2518 154.494 66.5357C157.49 66.6851 160.429 66.8702 163.377 67.2165C164.776 67.3887 166.242 67.5853 167.65 67.9662C167.989 68.064 168.21 68.1284 168.564 68.2839C168.708 68.3492 168.812 68.4106 168.87 68.4525C168.895 68.4695 168.928 68.5001 168.925 68.498C168.924 68.4963 168.889 68.4534 168.869 68.3729C168.823 68.1829 168.912 68.0589 168.9 68.08C168.901 68.0907 168.756 68.2199 168.687 68.2636C168.507 68.3916 168.213 68.5551 167.817 68.7299L167.931 68.6888C165.642 69.3934 163.852 69.8477 161.732 71.0637C161.676 71.0993 161.623 71.1351 161.571 71.1713C161.509 71.214 161.401 71.293 161.324 71.3568C161.16 71.4911 161.013 71.6336 160.885 71.8043C160.764 71.9869 160.632 72.1231 160.573 72.5914C160.528 73.0081 160.762 73.4437 160.965 73.6391C161.26 73.9424 161.593 74.1055 161.979 74.2555C162.246 74.356 162.49 74.4272 162.784 74.5006C163.432 74.657 163.885 74.7262 164.438 74.8051C164.712 74.8431 165.001 74.8785 165.304 74.9116C165.586 74.9422 165.807 74.9635 166.071 74.9873C170.354 75.3411 174.611 75.3107 178.871 75.2569C187.412 75.1137 195.825 74.6808 204.319 74.1552C221.242 73.0724 238.16 71.6418 254.999 69.6499C259.026 69.1593 263.234 68.6191 267.244 67.9299C267.203 67.6833 267.162 67.4367 267.121 67.1901C263.128 67.8201 258.92 68.3066 254.895 68.7447C238.062 70.5218 221.139 71.7705 204.235 72.7014C195.751 73.1511 187.348 73.5156 178.852 73.5985C174.621 73.6232 170.369 73.6211 166.232 73.2526C165.977 73.2282 165.766 73.2062 165.498 73.1755C165.21 73.1425 164.938 73.1075 164.683 73.0706C164.172 72.9949 163.751 72.9255 163.212 72.7922C162.971 72.7307 162.783 72.6727 162.609 72.6058C162.358 72.5131 162.23 72.4098 162.25 72.4218C162.257 72.4168 162.36 72.5758 162.341 72.7288C162.319 72.8874 162.292 72.876 162.306 72.8678C162.317 72.8525 162.362 72.8021 162.444 72.7365C162.482 72.7057 162.545 72.6597 162.584 72.6329C162.617 72.6104 162.652 72.587 162.691 72.5628C162.843 72.4659 163.04 72.3565 163.277 72.2395C163.396 72.1809 163.525 72.1203 163.664 72.058C163.785 72.0042 163.865 71.9702 163.971 71.9252C164.382 71.7528 164.864 71.5689 165.419 71.375C166.376 71.043 167.268 70.767 168.435 70.4314L168.548 70.3902C169.017 70.1844 169.405 69.9808 169.73 69.7551C169.978 69.5627 170.861 69.0155 170.64 67.9295C170.578 67.6794 170.451 67.4708 170.311 67.3074C170.24 67.225 170.165 67.1521 170.087 67.0857C170.034 67.041 169.993 67.0095 169.945 66.9741C169.757 66.8368 169.553 66.7241 169.329 66.6203C168.798 66.3849 168.551 66.3184 168.149 66.1987C166.534 65.7566 165.048 65.5597 163.602 65.3726C160.575 65.0035 157.612 64.8054 154.59 64.6428C148.617 64.3334 142.626 64.22 136.632 64.1758C124.693 64.1001 112.724 64.3247 100.787 64.7307C84.251 65.3272 67.8212 66.2742 51.3253 68.2573C47.2116 68.775 43.1831 69.3376 39.1117 70.1918Z" fill="#FFC945"/>
</svg>
