<svg width="210" height="25" viewBox="0 0 210 25" fill="none" xmlns="http://www.w3.org/2000/svg">
<path d="M19.2722 22.176H16.7522L13.2482 19.728C12.0962 21.36 10.5442 22.176 8.59223 22.176H7.00823C5.45623 22.176 4.12023 21.624 3.00023 20.52C1.89623 19.4 1.34423 18.056 1.34423 16.488V11.664H3.86423V16.656C3.86423 17.536 4.16823 18.32 4.77623 19.008C5.40023 19.68 6.14423 20.016 7.00823 20.016H8.59223C9.47223 20.016 10.2162 19.68 10.8242 19.008C11.4322 18.32 11.7362 17.536 11.7362 16.656V14.352C11.7362 13.92 11.5922 13.528 11.3042 13.176C11.0162 12.824 10.6562 12.648 10.2242 12.648H9.98423C9.68023 12.648 9.40823 12.792 9.16823 13.08C8.94423 13.368 8.83223 13.664 8.83223 13.968V16.44H6.31223V14.16C6.31223 13.152 6.67223 12.288 7.39223 11.568C8.11223 10.848 9.05623 10.488 10.2242 10.488C11.3442 10.488 12.2962 10.888 13.0802 11.688C13.8642 12.472 14.2562 13.416 14.2562 14.52C14.2562 16.216 14.2242 17.248 14.1602 17.616L16.7522 19.464V9.40803H0.000234358V7.24802H20.8802V9.40803H19.2722V22.176ZM28.6949 22.176H27.3989C25.8469 22.176 24.5109 21.624 23.3909 20.52C22.2869 19.4 21.7349 18.064 21.7349 16.512V11.664H24.2549V16.68C24.2549 17.544 24.5589 18.32 25.1669 19.008C25.7909 19.68 26.5349 20.016 27.3989 20.016H28.6949C29.5589 20.016 30.2949 19.68 30.9029 19.008C31.5269 18.32 31.8389 17.544 31.8389 16.68V16.224C31.5029 16.336 31.0149 16.392 30.3749 16.392C29.3669 16.392 28.5029 16.04 27.7829 15.336C27.0629 14.632 26.7029 13.768 26.7029 12.744V9.40803H20.3909V7.24802H35.7029V9.40803H29.2229V12.936C29.2229 13.368 29.3349 13.696 29.5589 13.92C29.7829 14.128 30.0549 14.232 30.3749 14.232H30.7109C31.0309 14.232 31.2949 14.12 31.5029 13.896C31.7269 13.672 31.8389 13.352 31.8389 12.936V12.384H34.3589V16.512C34.3589 18.064 33.8069 19.4 32.7029 20.52C31.5989 21.624 30.2629 22.176 28.6949 22.176ZM26.7038 6.33602L25.0958 4.80002L29.8718 2.47955e-05L31.4558 1.56002L26.7038 6.33602ZM39.3788 22.176H36.8588V9.40803H35.2268V7.24802H40.9868V9.40803H39.3788V22.176ZM52.6945 22.176H50.1745L41.7505 18.216V16.32C41.7505 15.312 42.0385 14.392 42.6145 13.56C43.1905 12.712 44.0465 12.112 45.1825 11.76L50.1745 10.224V9.40803H40.4065V7.24802H54.3265V9.40803H52.6945V22.176ZM50.1745 19.752V12.504L46.0225 13.776C44.8545 14.128 44.2705 14.856 44.2705 15.96V16.968L50.1745 19.752ZM44.8465 24.024C44.4465 24.024 44.1025 23.88 43.8145 23.592C43.5265 23.32 43.3825 22.984 43.3825 22.584C43.3825 22.2 43.5265 21.864 43.8145 21.576C44.1025 21.288 44.4465 21.144 44.8465 21.144C45.2305 21.144 45.5585 21.288 45.8305 21.576C46.1185 21.864 46.2625 22.2 46.2625 22.584C46.2625 22.984 46.1185 23.32 45.8305 23.592C45.5585 23.88 45.2305 24.024 44.8465 24.024ZM70.4367 22.176H67.9167L59.4927 18.216V16.32C59.4927 15.312 59.7807 14.392 60.3567 13.56C60.9327 12.712 61.7887 12.112 62.9247 11.76L67.9167 10.224V9.40803H58.1487V7.24802H77.4927V9.40803H70.4367V10.248H71.3487C72.7727 10.248 73.9727 10.664 74.9487 11.496C75.9407 12.312 76.4367 13.304 76.4367 14.472V14.808C76.4367 15.848 76.0287 16.736 75.2127 17.472C74.4127 18.192 73.4447 18.552 72.3087 18.552V16.392C72.7407 16.392 73.1167 16.24 73.4367 15.936C73.7567 15.632 73.9167 15.256 73.9167 14.808V14.472C73.9167 13.896 73.6687 13.408 73.1727 13.008C72.6927 12.608 72.0847 12.408 71.3487 12.408H70.4367V22.176ZM67.9167 19.752V12.504L63.7647 13.776C62.5967 14.128 62.0127 14.856 62.0127 15.96V16.968L67.9167 19.752ZM89.3039 22.176H86.7839L78.3599 18.216V16.32C78.3599 15.312 78.6479 14.392 79.2239 13.56C79.7999 12.712 80.6559 12.112 81.7919 11.76L86.7839 10.224V9.40803H77.0159V7.24802H90.9359V9.40803H89.3039V22.176ZM86.7839 19.752V12.504L82.6319 13.776C81.4639 14.128 80.8799 14.856 80.8799 15.96V16.968L86.7839 19.752ZM81.4559 24.024C81.0559 24.024 80.7119 23.88 80.4239 23.592C80.1359 23.32 79.9919 22.984 79.9919 22.584C79.9919 22.2 80.1359 21.864 80.4239 21.576C80.7119 21.288 81.0559 21.144 81.4559 21.144C81.8399 21.144 82.1679 21.288 82.4399 21.576C82.7279 21.864 82.8719 22.2 82.8719 22.584C82.8719 22.984 82.7279 23.32 82.4399 23.592C82.1679 23.88 81.8399 24.024 81.4559 24.024ZM96.6615 22.176C95.1415 21.936 93.9495 21.304 93.0855 20.28C92.2215 19.24 91.7895 18 91.7895 16.56V14.04C91.7895 12.168 92.2695 10.624 93.2295 9.40803H90.4455V7.24802H97.3335V9.40803C96.4855 9.42403 95.7655 9.82402 95.1735 10.608C94.5975 11.392 94.3095 12.416 94.3095 13.68V16.92C94.3095 17.784 94.5335 18.48 94.9815 19.008C95.4295 19.536 95.9895 19.872 96.6615 20.016V22.176ZM105.436 22.176H103.852C102.3 22.176 100.964 21.624 99.844 20.52C98.74 19.4 98.188 18.056 98.188 16.488V11.664H100.708V16.68C100.708 17.544 101.012 18.32 101.62 19.008C102.244 19.68 102.988 20.016 103.852 20.016H105.436C106.316 20.016 107.06 19.68 107.668 19.008C108.276 18.32 108.58 17.544 108.58 16.68V14.352C108.58 13.92 108.436 13.528 108.148 13.176C107.86 12.824 107.5 12.648 107.068 12.648H106.828C106.524 12.648 106.252 12.792 106.012 13.08C105.788 13.368 105.676 13.664 105.676 13.968V16.44H103.156V14.16C103.156 13.152 103.516 12.288 104.236 11.568C104.956 10.848 105.9 10.488 107.068 10.488C108.188 10.488 109.14 10.888 109.924 11.688C110.708 12.472 111.1 13.416 111.1 14.52V16.488C111.1 18.056 110.548 19.4 109.444 20.52C108.34 21.624 107.004 22.176 105.436 22.176ZM112.444 9.40803H96.844V7.24802H112.444V9.40803ZM128.562 22.176H126.042L117.618 18.216V16.32C117.618 15.312 117.906 14.392 118.482 13.56C119.058 12.712 119.914 12.112 121.05 11.76L126.042 10.224V9.40803H116.274V7.24802H135.618V9.40803H128.562V10.248H129.474C130.898 10.248 132.098 10.664 133.074 11.496C134.066 12.312 134.562 13.304 134.562 14.472V14.808C134.562 15.848 134.154 16.736 133.338 17.472C132.538 18.192 131.57 18.552 130.434 18.552V16.392C130.866 16.392 131.242 16.24 131.562 15.936C131.882 15.632 132.042 15.256 132.042 14.808V14.472C132.042 13.896 131.794 13.408 131.298 13.008C130.818 12.608 130.21 12.408 129.474 12.408H128.562V22.176ZM126.042 19.752V12.504L121.89 13.776C120.722 14.128 120.138 14.856 120.138 15.96V16.968L126.042 19.752ZM151.029 22.176H148.509V14.952C148.509 14.504 148.357 14.128 148.053 13.824C147.749 13.52 147.301 13.368 146.709 13.368C146.309 13.368 145.965 13.512 145.677 13.8C145.389 14.088 145.245 14.432 145.245 14.832V16.392H142.725V14.832C142.725 14.464 142.589 14.128 142.317 13.824C142.061 13.52 141.629 13.368 141.021 13.368C140.461 13.368 139.981 13.568 139.581 13.968C139.197 14.368 139.005 14.84 139.005 15.384V16.272C139.005 16.864 139.205 17.36 139.605 17.76C140.021 18.16 140.517 18.36 141.093 18.36H142.245V20.52H141.093C139.829 20.52 138.741 20.112 137.829 19.296C136.933 18.464 136.485 17.456 136.485 16.272V15.384C136.485 14.232 136.925 13.248 137.805 12.432C138.685 11.616 139.837 11.208 141.261 11.208C142.301 11.208 143.189 11.552 143.925 12.24C144.709 11.552 145.717 11.208 146.949 11.208C147.509 11.208 148.029 11.304 148.509 11.496V9.40803H135.141V7.24802H152.661V9.40803H151.029V22.176ZM168.78 22.176H166.26L157.836 18.216V16.32C157.836 15.312 158.124 14.392 158.7 13.56C159.276 12.712 160.132 12.112 161.268 11.76L166.26 10.224V9.40803H156.492V7.24802H175.836V9.40803H168.78V10.248H169.692C171.116 10.248 172.316 10.664 173.292 11.496C174.284 12.312 174.78 13.304 174.78 14.472V14.808C174.78 15.848 174.372 16.736 173.556 17.472C172.756 18.192 171.788 18.552 170.652 18.552V16.392C171.084 16.392 171.46 16.24 171.78 15.936C172.1 15.632 172.26 15.256 172.26 14.808V14.472C172.26 13.896 172.012 13.408 171.516 13.008C171.036 12.608 170.428 12.408 169.692 12.408H168.78V22.176ZM166.26 19.752V12.504L162.108 13.776C160.94 14.128 160.356 14.856 160.356 15.96V16.968L166.26 19.752ZM187.648 22.176H185.128L176.704 18.216V16.32C176.704 15.312 176.992 14.392 177.568 13.56C178.144 12.712 179 12.112 180.136 11.76L185.128 10.224V9.40803H175.36V7.24802H189.28V9.40803H187.648V22.176ZM185.128 19.752V12.504L180.976 13.776C179.808 14.128 179.224 14.856 179.224 15.96V16.968L185.128 19.752ZM179.8 24.024C179.4 24.024 179.056 23.88 178.768 23.592C178.48 23.32 178.336 22.984 178.336 22.584C178.336 22.2 178.48 21.864 178.768 21.576C179.056 21.288 179.4 21.144 179.8 21.144C180.184 21.144 180.512 21.288 180.784 21.576C181.072 21.864 181.216 22.2 181.216 22.584C181.216 22.984 181.072 23.32 180.784 23.592C180.512 23.88 180.184 24.024 179.8 24.024ZM190.157 18.912C188.765 18.912 187.589 18.424 186.629 17.448C185.653 16.456 185.165 15.272 185.165 13.896L187.637 14.256C187.637 14.944 187.885 15.536 188.381 16.032C188.877 16.512 189.469 16.752 190.157 16.752C190.573 16.752 190.933 16.6 191.237 16.296C191.557 15.992 191.717 15.624 191.717 15.192C191.717 14.744 191.557 14.368 191.237 14.064C190.917 13.76 190.541 13.608 190.109 13.608H189.605V11.448H190.109C191.229 11.448 192.197 11.816 193.013 12.552C193.829 13.272 194.237 14.152 194.237 15.192C194.237 16.232 193.837 17.112 193.037 17.832C192.237 18.552 191.277 18.912 190.157 18.912ZM195.293 9.40803H188.789V7.24802H195.293V9.40803ZM207.581 22.176H205.061V16.896C205.061 15.92 204.717 15.088 204.029 14.4C203.341 13.712 202.509 13.368 201.533 13.368H201.221C200.517 13.368 199.917 13.616 199.421 14.112C198.925 14.592 198.677 15.184 198.677 15.888V16.272C198.677 16.848 198.885 17.344 199.301 17.76C199.717 18.16 200.205 18.36 200.765 18.36H201.725V20.52H200.765C199.501 20.52 198.413 20.112 197.501 19.296C196.605 18.464 196.157 17.456 196.157 16.272V15.888C196.157 14.592 196.653 13.488 197.645 12.576C198.637 11.664 199.829 11.208 201.221 11.208C202.757 11.208 204.037 11.584 205.061 12.336V9.40803H194.813V7.24802H209.189V9.40803H207.581V22.176Z" fill="white"/>
</svg>
